<?xml version="1.0" encoding="utf-8"?>
<!-- Generator: Adobe Illustrator 25.0.1, SVG Export Plug-In . SVG Version: 6.00 Build 0)  -->
<svg version="1.1" id="Layer_1" xmlns="http://www.w3.org/2000/svg" xmlns:xlink="http://www.w3.org/1999/xlink" x="0px" y="0px"
	 viewBox="0 0 482 482" style="enable-background:new 0 0 482 482;" xml:space="preserve">
<style type="text/css">
	.st0{fill:#FFFFFF;}
	.st1{fill:#263238;stroke:#263238;stroke-linecap:round;stroke-linejoin:round;}
	.st2{fill:#B9D9FD;}
	.st3{fill:#173C77;}
	.st4{fill:#F77B55;}
</style>
<circle class="st0" cx="241" cy="241" r="238.3"/>
<g>
	<path class="st1" d="M120.8,99.3h240.3c4.8,0,8.8,3.9,8.8,8.8l0,0v167.9l0,0H112l0,0V108C112,103.2,115.9,99.3,120.8,99.3
		C120.8,99.3,120.8,99.3,120.8,99.3z"/>
	<polygon class="st2" points="408.5,354 73.4,354 112,275.9 369.8,275.9 	"/>
	<rect x="127.7" y="113.3" class="st3" width="226.5" height="148.6"/>
	<rect x="73.4" y="354" class="st1" width="335.2" height="4.8"/>
	<g>
		<polygon class="st3" points="216.7,300.6 229.6,300.6 229.8,296.4 230,292.2 217.5,292.2 217.5,292.2 217.1,296.4 		"/>
		<polygon class="st3" points="244.8,300.6 257.8,300.6 257.5,296.4 257.3,292.2 244.8,292.2 244.8,296.4 		"/>
		<polygon class="st3" points="342.4,301.7 329.4,301.7 330.7,306.3 332,310.8 345.4,310.8 343.9,306.3 		"/>
		<polygon class="st3" points="202.6,300.6 215.6,300.6 215.6,300.6 216,296.4 216.4,292.2 203.9,292.2 203.2,296.4 		"/>
		<polygon class="st3" points="174.6,300.6 187.5,300.6 188.3,296.4 189.1,292.2 176.6,292.2 175.6,296.4 		"/>
		<polygon class="st3" points="301,300.6 313.9,300.6 312.9,296.4 311.9,292.2 299.4,292.2 300.2,296.4 		"/>
		<polygon class="st3" points="315.1,300.6 328,300.6 326.8,296.4 325.5,292.2 313,292.2 314,296.4 		"/>
		<polygon class="st3" points="160.5,300.6 173.4,300.6 174.4,296.4 175.4,292.2 162.9,292.2 161.7,296.4 		"/>
		<polygon class="st3" points="258.9,300.6 271.8,300.6 271.4,296.4 271,292.2 258.4,292.2 258.6,296.4 		"/>
		<polygon class="st3" points="329.1,300.6 342,300.6 340.6,296.4 339.2,292.2 326.7,292.2 327.9,296.4 		"/>
		<polygon class="st3" points="287,300.6 299.9,300.6 299.1,296.4 298.3,292.2 285.7,292.2 286.3,296.4 		"/>
		<polygon class="st3" points="272.9,300.6 285.8,300.6 285.2,296.4 284.6,292.2 272.1,292.2 272.5,296.4 		"/>
		<polygon class="st3" points="230.8,300.6 243.7,300.6 243.7,296.4 243.7,292.2 231.1,292.2 230.9,296.4 		"/>
		<polygon class="st3" points="141.9,310.8 143.4,306.3 145,301.7 132,301.7 130.3,306.3 128.6,310.8 		"/>
		<polygon class="st3" points="132.4,300.6 145.3,300.6 146.7,296.4 148.1,292.2 135.7,292.2 134.1,296.4 		"/>
		<polygon class="st3" points="146.5,300.6 159.4,300.6 160.6,296.4 161.8,292.2 149.3,292.2 147.9,296.4 		"/>
		<polygon class="st3" points="124,322.8 121.9,328.1 119.9,333.4 134.4,333.4 136.1,328.1 137.9,322.8 		"/>
		<polygon class="st3" points="141.6,311.9 128.1,311.9 126.3,316.8 124.4,321.7 138.3,321.7 139.9,316.8 		"/>
		<polygon class="st3" points="139.1,322.8 137.3,328.1 135.5,333.4 150,333.4 152.3,325.4 153,322.8 		"/>
		<polygon class="st3" points="188.6,300.6 201.5,300.6 202.1,296.4 202.7,292.2 190.2,292.2 189.4,296.4 		"/>
		<polygon class="st3" points="186.7,310.8 200.1,310.8 200.7,306.3 201.4,301.7 201.4,301.7 188.4,301.7 187.5,306.3 		"/>
		<polygon class="st3" points="187.3,301.7 174.3,301.7 173.2,306.3 172.1,310.8 185.6,310.8 186.4,306.3 		"/>
		<polygon class="st3" points="201.2,310.8 214.6,310.8 215.1,306.3 215.5,301.7 202.5,301.7 201.9,306.3 		"/>
		<polygon class="st3" points="159.1,301.7 146.1,301.7 144.6,306.3 143.1,310.8 156.5,310.8 157.8,306.3 		"/>
		<polygon class="st3" points="345.8,311.9 332.4,311.9 333.8,316.8 335.2,321.7 349.1,321.7 347.5,316.8 		"/>
		<polygon class="st3" points="173.2,301.7 160.2,301.7 158.9,306.3 157.6,310.8 171,310.8 172.1,306.3 		"/>
		<polygon class="st3" points="156.1,311.9 142.7,311.9 141.1,316.8 139.4,321.7 153.4,321.7 154.8,316.8 		"/>
		<polygon class="st3" points="300.1,301.7 287.1,301.7 287.8,306.3 288.4,310.8 301.8,310.8 301,306.3 		"/>
		<polygon class="st3" points="273,301.7 273.4,306.3 273.9,310.8 287.3,310.8 286.6,306.3 286,301.7 		"/>
		<polygon class="st3" points="328.3,301.7 315.3,301.7 316.4,306.3 317.5,310.8 330.9,310.8 329.6,306.3 		"/>
		<polygon class="st3" points="230.3,310.8 243.7,310.8 243.7,306.3 243.7,301.7 230.7,301.7 230.5,306.3 		"/>
		<polygon class="st3" points="259.3,310.8 272.8,310.8 272.3,306.3 271.9,301.7 258.9,301.7 259.1,306.3 		"/>
		<polygon class="st3" points="244.8,310.8 258.2,310.8 258,306.3 257.8,301.7 244.8,301.7 244.8,306.3 		"/>
		<polygon class="st3" points="215.7,310.8 229.2,310.8 229.4,306.3 229.6,301.7 216.6,301.7 216.2,306.3 		"/>
		<polygon class="st3" points="274,311.9 274.5,316.8 274.9,321.7 288.9,321.7 288.2,316.8 287.5,311.9 		"/>
		<polygon class="st3" points="302,311.9 288.6,311.9 289.3,316.8 290,321.7 303.9,321.7 303,316.8 		"/>
		<polygon class="st3" points="169.6,316.8 170.8,311.9 157.3,311.9 155.9,316.8 154.5,321.7 168.4,321.7 		"/>
		<polygon class="st3" points="317.8,316.8 316.6,311.9 303.2,311.9 304.1,316.8 305.1,321.7 319,321.7 		"/>
		<polygon class="st3" points="258.3,311.9 244.8,311.9 244.8,316.8 244.8,321.7 258.8,321.7 258.5,316.8 		"/>
		<polygon class="st3" points="331.2,311.9 317.8,311.9 318.9,316.8 320.1,321.7 334,321.7 332.6,316.8 		"/>
		<polygon class="st3" points="272.9,311.9 259.4,311.9 259.6,316.8 259.9,321.7 273.8,321.7 273.4,316.8 		"/>
		<polygon class="st3" points="199.9,311.9 186.5,311.9 185.5,316.8 184.6,321.7 198.5,321.7 199.2,316.8 		"/>
		<polygon class="st3" points="185.3,311.9 171.9,311.9 170.7,316.8 169.5,321.7 183.5,321.7 184.4,316.8 		"/>
		<polygon class="st3" points="243.7,311.9 230.2,311.9 230,316.8 229.8,321.7 243.7,321.7 243.7,316.8 		"/>
		<polygon class="st3" points="229.1,311.9 215.6,311.9 215.6,311.9 215.2,316.8 214.7,321.7 228.7,321.7 228.9,316.8 		"/>
		<polygon class="st3" points="214.5,311.9 201,311.9 200.3,316.8 199.6,321.7 213.6,321.7 214.1,316.8 		"/>
		<polygon class="st3" points="314.2,301.7 301.2,301.7 302.1,306.3 303,310.8 316.4,310.8 315.3,306.3 		"/>
		<polygon class="st3" points="148.5,291.1 149.9,286.8 151.4,282.5 139.4,282.5 137.7,286.8 136.1,291.1 		"/>
		<polygon class="st3" points="134.5,292.2 123.1,292.2 119.5,300.6 131.3,300.6 132.9,296.4 		"/>
		<polygon class="st3" points="138.2,282.5 127.2,282.5 123.5,291.1 134.9,291.1 136.6,286.8 		"/>
		<polygon class="st3" points="130.8,301.7 119,301.7 115.1,310.8 127.4,310.8 129.1,306.3 		"/>
		<polygon class="st3" points="127,311.9 114.7,311.9 110.5,321.7 123.2,321.7 125.1,316.8 		"/>
		<polygon class="st3" points="110,322.8 105.5,333.4 118.7,333.4 120.8,328.1 122.8,322.8 		"/>
		<polygon class="st3" points="361.1,310.8 372.8,310.8 368.9,301.7 357.6,301.7 359.4,306.3 		"/>
		<polygon class="st3" points="365.3,321.7 377.5,321.7 373.3,311.9 361.6,311.9 363.4,316.8 		"/>
		<polygon class="st3" points="369.8,333.4 382.5,333.4 377.9,322.8 365.7,322.8 367.8,328.1 		"/>
		<polygon class="st3" points="257.3,291.1 257.1,286.8 256.9,282.5 244.8,282.5 244.8,286.8 244.8,291.1 		"/>
		<polygon class="st3" points="357.2,300.6 368.5,300.6 364.9,292.2 354,292.2 355.6,296.4 		"/>
		<polygon class="st3" points="360.4,311.9 347,311.9 348.6,316.8 350.2,321.7 364.1,321.7 362.3,316.8 		"/>
		<polygon class="st3" points="162.1,291.1 163.3,286.8 164.6,282.5 152.6,282.5 151.1,286.8 149.7,291.1 		"/>
		<polygon class="st3" points="343.2,300.6 356,300.6 354.4,296.4 352.8,292.2 340.3,292.2 341.8,296.4 		"/>
		<polygon class="st3" points="364.4,291.1 360.7,282.5 350.3,282.5 351.9,286.8 353.6,291.1 		"/>
		<polygon class="st3" points="352.4,291.1 350.7,286.8 349.1,282.5 337.1,282.5 338.5,286.8 340,291.1 		"/>
		<polygon class="st3" points="305.3,322.8 305.8,325.3 307.3,333.4 321.8,333.4 320.5,328.1 319.2,322.8 		"/>
		<polygon class="st3" points="350.6,322.8 352.4,328.1 354.2,333.4 368.6,333.4 366.6,328.1 364.6,322.8 		"/>
		<polygon class="st3" points="338.8,291.1 337.4,286.8 335.9,282.5 323.9,282.5 325.1,286.8 326.4,291.1 		"/>
		<polygon class="st3" points="335.5,322.8 337,328.1 338.6,333.4 353,333.4 351.2,328.1 349.5,322.8 		"/>
		<polygon class="st3" points="320.4,322.8 321.7,328.1 322.9,333.4 337.4,333.4 335.9,328.1 334.4,322.8 		"/>
		<polygon class="st3" points="343.5,301.7 345.1,306.3 346.6,310.8 360,310.8 358.2,306.3 356.5,301.7 		"/>
		<polygon class="st3" points="216.5,291.1 217.3,282.5 205.2,282.5 204.6,286.8 204,291.1 		"/>
		<polygon class="st3" points="325.2,291.1 324,286.8 322.7,282.5 310.7,282.5 311.7,286.8 312.8,291.1 		"/>
		<polygon class="st3" points="202.9,291.1 203.5,286.8 204.1,282.5 192.1,282.5 191.2,286.8 190.4,291.1 		"/>
		<polygon class="st3" points="243.7,291.1 243.7,286.8 243.7,282.5 231.6,282.5 231.4,286.8 231.2,291.1 		"/>
		<polygon class="st3" points="189.3,291.1 190.1,286.8 190.9,282.5 178.9,282.5 177.9,286.8 176.8,291.1 		"/>
		<polygon class="st3" points="175.7,291.1 176.7,286.8 177.8,282.5 165.7,282.5 164.5,286.8 163.2,291.1 		"/>
		<polygon class="st3" points="230.1,291.1 230.3,286.8 230.5,282.5 218.4,282.5 218,286.8 217.6,291.1 		"/>
		<polygon class="st3" points="311.6,291.1 310.6,286.8 309.6,282.5 297.5,282.5 298.3,286.8 299.2,291.1 		"/>
		<polygon class="st3" points="298,291.1 297.2,286.8 296.4,282.5 284.3,282.5 285,286.8 285.6,291.1 		"/>
		<polygon class="st3" points="270.9,291.1 270.5,286.8 270,282.5 258,282.5 258.2,286.8 258.4,291.1 		"/>
		<polygon class="st3" points="289,322.8 275,322.8 273.9,322.8 259.9,322.8 258.8,322.8 244.8,322.8 243.7,322.8 229.7,322.8 
			228.6,322.8 214.6,322.8 213.5,322.8 199.5,322.8 198.4,322.8 184.4,322.8 183.3,322.8 169.3,322.8 168.1,322.8 154.2,322.8 
			151.1,333.4 306.2,333.4 304.1,322.8 290.1,322.8 		"/>
		<polygon class="st3" points="284.5,291.1 283.8,286.8 283.2,282.5 271.1,282.5 271.6,286.8 272,291.1 		"/>
	</g>
</g>
<rect x="247.9" y="212.6" class="st4" width="27.1" height="7.1"/>
<rect x="196.3" y="154.2" class="st4" width="24.8" height="7.1"/>
<rect x="310.2" y="138" class="st4" width="22.1" height="8.2"/>
<rect x="191.2" y="230.1" class="st4" width="27.4" height="7.1"/>
<g>
	<rect x="149.6" y="138" class="st2" width="144.8" height="8.2"/>
	<rect x="234.1" y="154.2" class="st2" width="85.9" height="7.1"/>
	<rect x="154.7" y="169.1" class="st2" width="85.8" height="7.1"/>
	<rect x="154.7" y="200.2" class="st2" width="85.8" height="7.1"/>
	<rect x="154.7" y="212.6" class="st2" width="85.8" height="7.1"/>
	<rect x="284.4" y="212.6" class="st2" width="27.1" height="7.1"/>
	<rect x="250.2" y="200.6" class="st2" width="61.3" height="7.1"/>
	<rect x="259.6" y="169.1" class="st2" width="46.2" height="7.1"/>
	<rect x="160.8" y="154.2" class="st2" width="24.8" height="7.1"/>
	<rect x="154.7" y="230.1" class="st2" width="27.4" height="7.1"/>
	<rect x="230.6" y="230.1" class="st2" width="44.4" height="7.1"/>
</g>
</svg>
