<svg xmlns="http://www.w3.org/2000/svg" width="476.67" height="476.67" viewBox="0 0 476.67 476.67">
  <defs>
    <style>
      .cls-1 {
        fill: #edf4f9;
      }

      .cls-2 {
        fill: #263238;
        stroke: #263238;
        stroke-linecap: round;
        stroke-linejoin: round;
      }

      .cls-3 {
        fill: #b9d9fd;
      }

      .cls-4 {
        fill: #173c77;
      }

      .cls-5 {
        fill: #fff;
      }
    </style>
  </defs>
  <g id="Device">
    <g>
      <circle class="cls-1" cx="238.33" cy="238.33" r="238.33"/>
      <g>
        <path class="cls-2" d="M118.13,96.61H358.39a8.75,8.75,0,0,1,8.75,8.75V273.23a0,0,0,0,1,0,0H109.37a0,0,0,0,1,0,0V105.36A8.75,8.75,0,0,1,118.13,96.61Z"/>
        <polygon class="cls-3" points="405.81 351.3 70.71 351.3 109.37 273.23 367.14 273.23 405.81 351.3"/>
        <rect class="cls-4" x="124.99" y="110.59" width="226.54" height="148.65"/>
        <rect class="cls-2" x="70.71" y="351.3" width="335.25" height="4.76"/>
        <g>
          <polygon class="cls-4" points="214.03 297.96 226.98 297.96 227.18 293.75 227.38 289.54 214.83 289.54 214.83 289.54 214.43 293.75 214.03 297.96"/>
          <polygon class="cls-4" points="242.13 297.96 255.08 297.96 254.87 293.75 254.67 289.54 242.12 289.54 242.13 293.75 242.13 297.96"/>
          <polygon class="cls-4" points="339.71 299.05 326.76 299.05 328.07 303.59 329.38 308.13 342.76 308.13 341.24 303.59 339.71 299.05"/>
          <polygon class="cls-4" points="199.99 297.96 212.93 297.96 212.93 297.96 213.33 293.75 213.73 289.54 201.19 289.54 200.59 293.75 199.99 297.96"/>
          <polygon class="cls-4" points="171.9 297.96 184.82 297.96 185.63 293.75 186.43 289.54 173.91 289.54 172.9 293.75 171.9 297.96"/>
          <polygon class="cls-4" points="298.34 297.96 311.26 297.96 310.25 293.75 309.24 289.54 296.72 289.54 297.53 293.75 298.34 297.96"/>
          <polygon class="cls-4" points="312.39 297.96 325.3 297.96 324.09 293.75 322.88 289.54 310.37 289.54 311.38 293.75 312.39 297.96"/>
          <polygon class="cls-4" points="157.86 297.96 170.77 297.96 171.77 293.75 172.78 289.54 160.26 289.54 159.06 293.75 157.86 297.96"/>
          <polygon class="cls-4" points="256.18 297.96 269.13 297.96 268.72 293.75 268.31 289.54 255.77 289.54 255.97 293.75 256.18 297.96"/>
          <polygon class="cls-4" points="326.45 297.96 339.35 297.96 337.93 293.75 336.52 289.54 324.02 289.54 325.23 293.75 326.45 297.96"/>
          <polygon class="cls-4" points="284.28 297.96 297.22 297.96 296.41 293.75 295.6 289.54 283.06 289.54 283.67 293.75 284.28 297.96"/>
          <polygon class="cls-4" points="270.23 297.96 283.17 297.96 282.56 293.75 281.96 289.54 269.42 289.54 269.82 293.75 270.23 297.96"/>
          <polygon class="cls-4" points="228.08 297.96 241.03 297.96 241.03 293.75 241.02 289.54 228.47 289.54 228.28 293.75 228.08 297.96"/>
          <polygon class="cls-4" points="139.26 308.13 140.77 303.59 142.29 299.05 129.35 299.05 127.62 303.59 125.89 308.13 139.26 308.13"/>
          <polygon class="cls-4" points="129.77 297.96 142.66 297.96 144.06 293.75 145.47 289.54 132.99 289.54 131.38 293.75 129.77 297.96"/>
          <polygon class="cls-4" points="143.81 297.96 156.71 297.96 157.92 293.75 159.12 289.54 146.63 289.54 145.22 293.75 143.81 297.96"/>
          <polygon class="cls-4" points="121.3 320.13 119.28 325.44 117.25 330.74 131.7 330.74 133.47 325.44 135.25 320.13 121.3 320.13"/>
          <polygon class="cls-4" points="138.89 309.23 125.47 309.23 123.59 314.13 121.72 319.03 135.61 319.03 137.25 314.13 138.89 309.23"/>
          <polygon class="cls-4" points="136.4 320.13 134.63 325.44 132.86 330.74 147.33 330.74 149.61 322.76 150.37 320.13 136.4 320.13"/>
          <polygon class="cls-4" points="185.94 297.96 198.88 297.96 199.48 293.75 200.08 289.54 187.55 289.54 186.74 293.75 185.94 297.96"/>
          <polygon class="cls-4" points="184 308.13 197.43 308.13 198.07 303.59 198.72 299.05 198.72 299.05 185.73 299.05 184.87 303.59 184 308.13"/>
          <polygon class="cls-4" points="184.61 299.05 171.64 299.05 170.55 303.59 169.47 308.13 182.88 308.13 183.75 303.59 184.61 299.05"/>
          <polygon class="cls-4" points="198.53 308.13 211.97 308.13 212.4 303.59 212.82 299.05 199.83 299.05 199.18 303.59 198.53 308.13"/>
          <polygon class="cls-4" points="156.4 299.05 143.45 299.05 141.93 303.59 140.41 308.13 153.8 308.13 155.1 303.59 156.4 299.05"/>
          <polygon class="cls-4" points="343.13 309.23 329.69 309.23 331.11 314.13 332.52 319.03 346.43 319.03 344.78 314.13 343.13 309.23"/>
          <polygon class="cls-4" points="170.51 299.05 157.54 299.05 156.24 303.59 154.94 308.13 168.34 308.13 169.43 303.59 170.51 299.05"/>
          <polygon class="cls-4" points="153.49 309.23 140.05 309.23 138.41 314.13 136.77 319.03 150.68 319.03 152.08 314.13 153.49 309.23"/>
          <polygon class="cls-4" points="297.43 299.05 284.44 299.05 285.1 303.59 285.75 308.13 299.17 308.13 298.3 303.59 297.43 299.05"/>
          <polygon class="cls-4" points="270.34 299.05 270.77 303.59 271.21 308.13 284.64 308.13 283.99 303.59 283.33 299.05 270.34 299.05"/>
          <polygon class="cls-4" points="325.62 299.05 312.65 299.05 313.75 303.59 314.83 308.13 328.24 308.13 326.93 303.59 325.62 299.05"/>
          <polygon class="cls-4" points="227.6 308.13 241.04 308.13 241.04 303.59 241.03 299.05 228.03 299.05 227.81 303.59 227.6 308.13"/>
          <polygon class="cls-4" points="256.68 308.13 270.11 308.13 269.67 303.59 269.23 299.05 256.23 299.05 256.45 303.59 256.68 308.13"/>
          <polygon class="cls-4" points="242.14 308.13 255.57 308.13 255.35 303.59 255.13 299.05 242.13 299.05 242.13 303.59 242.14 308.13"/>
          <polygon class="cls-4" points="213.07 308.13 226.5 308.13 226.72 303.59 226.93 299.05 213.93 299.05 213.5 303.59 213.07 308.13"/>
          <polygon class="cls-4" points="271.32 309.23 271.79 314.13 272.27 319.03 286.22 319.03 285.51 314.13 284.8 309.23 271.32 309.23"/>
          <polygon class="cls-4" points="299.39 309.23 285.91 309.23 286.62 314.13 287.33 319.03 301.27 319.03 300.33 314.13 299.39 309.23"/>
          <polygon class="cls-4" points="166.91 314.13 168.08 309.23 154.63 309.23 153.22 314.13 151.82 319.03 165.74 319.03 166.91 314.13"/>
          <polygon class="cls-4" points="315.15 314.13 313.97 309.23 300.5 309.23 301.45 314.13 302.39 319.03 316.32 319.03 315.15 314.13"/>
          <polygon class="cls-4" points="255.63 309.23 242.14 309.23 242.14 314.13 242.15 319.03 256.11 319.03 255.87 314.13 255.63 309.23"/>
          <polygon class="cls-4" points="328.55 309.23 315.1 309.23 316.28 314.13 317.45 319.03 331.38 319.03 329.96 314.13 328.55 309.23"/>
          <polygon class="cls-4" points="270.22 309.23 256.73 309.23 256.97 314.13 257.21 319.03 271.16 319.03 270.69 314.13 270.22 309.23"/>
          <polygon class="cls-4" points="197.27 309.23 183.79 309.23 182.86 314.13 181.93 319.03 195.87 319.03 196.57 314.13 197.27 309.23"/>
          <polygon class="cls-4" points="182.68 309.23 169.21 309.23 168.04 314.13 166.87 319.03 180.81 319.03 181.74 314.13 182.68 309.23"/>
          <polygon class="cls-4" points="241.04 309.23 227.55 309.23 227.32 314.13 227.09 319.03 241.05 319.03 241.04 314.13 241.04 309.23"/>
          <polygon class="cls-4" points="226.45 309.23 212.96 309.23 212.96 309.23 212.5 314.13 212.03 319.03 225.99 319.03 226.22 314.13 226.45 309.23"/>
          <polygon class="cls-4" points="211.86 309.23 198.38 309.23 197.68 314.13 196.98 319.03 210.93 319.03 211.4 314.13 211.86 309.23"/>
          <polygon class="cls-4" points="311.52 299.05 298.55 299.05 299.42 303.59 300.29 308.13 313.7 308.13 312.61 303.59 311.52 299.05"/>
          <polygon class="cls-4" points="145.84 288.44 147.28 284.12 148.72 279.8 136.71 279.8 135.06 284.12 133.41 288.44 145.84 288.44"/>
          <polygon class="cls-4" points="131.81 289.54 120.4 289.54 116.81 297.96 128.6 297.96 130.21 293.75 131.81 289.54"/>
          <polygon class="cls-4" points="135.53 279.8 124.55 279.8 120.87 288.44 132.23 288.44 133.88 284.12 135.53 279.8"/>
          <polygon class="cls-4" points="128.18 299.05 116.35 299.05 112.48 308.13 124.71 308.13 126.44 303.59 128.18 299.05"/>
          <polygon class="cls-4" points="124.29 309.23 112.01 309.23 107.83 319.03 120.55 319.03 122.42 314.13 124.29 309.23"/>
          <polygon class="cls-4" points="107.36 320.13 102.84 330.74 116.07 330.74 118.1 325.44 120.13 320.13 107.36 320.13"/>
          <polygon class="cls-4" points="358.47 308.13 370.14 308.13 366.27 299.05 354.98 299.05 356.73 303.59 358.47 308.13"/>
          <polygon class="cls-4" points="362.65 319.03 374.79 319.03 370.61 309.23 358.89 309.23 360.77 314.13 362.65 319.03"/>
          <polygon class="cls-4" points="367.15 330.74 379.78 330.74 375.26 320.13 363.07 320.13 365.11 325.44 367.15 330.74"/>
          <polygon class="cls-4" points="254.61 288.44 254.4 284.12 254.19 279.8 242.11 279.8 242.12 284.12 242.12 288.44 254.61 288.44"/>
          <polygon class="cls-4" points="354.56 297.96 365.81 297.96 362.22 289.54 351.33 289.54 352.95 293.75 354.56 297.96"/>
          <polygon class="cls-4" points="357.71 309.23 344.29 309.23 345.94 314.13 347.58 319.03 361.48 319.03 359.59 314.13 357.71 309.23"/>
          <polygon class="cls-4" points="159.44 288.44 160.67 284.12 161.91 279.8 149.88 279.8 148.44 284.12 146.99 288.44 159.44 288.44"/>
          <polygon class="cls-4" points="340.5 297.96 353.38 297.96 351.77 293.75 350.15 289.54 337.68 289.54 339.09 293.75 340.5 297.96"/>
          <polygon class="cls-4" points="361.75 288.44 358.07 279.8 347.59 279.8 349.25 284.12 350.91 288.44 361.75 288.44"/>
          <polygon class="cls-4" points="349.73 288.44 348.07 284.12 346.42 279.8 334.4 279.8 335.86 284.12 337.31 288.44 349.73 288.44"/>
          <polygon class="cls-4" points="302.6 320.13 303.08 322.61 304.64 330.74 319.14 330.74 317.86 325.44 316.59 320.13 302.6 320.13"/>
          <polygon class="cls-4" points="347.95 320.13 349.74 325.44 351.52 330.74 365.97 330.74 363.94 325.44 361.9 320.13 347.95 320.13"/>
          <polygon class="cls-4" points="336.15 288.44 334.7 284.12 333.25 279.8 321.21 279.8 322.46 284.12 323.7 288.44 336.15 288.44"/>
          <polygon class="cls-4" points="332.84 320.13 334.37 325.44 335.89 330.74 350.36 330.74 348.58 325.44 346.8 320.13 332.84 320.13"/>
          <polygon class="cls-4" points="317.72 320.13 318.99 325.44 320.27 330.74 334.75 330.74 333.22 325.44 331.69 320.13 317.72 320.13"/>
          <polygon class="cls-4" points="340.87 299.05 342.4 303.59 343.92 308.13 357.29 308.13 355.55 303.59 353.81 299.05 340.87 299.05"/>
          <polygon class="cls-4" points="213.83 288.44 214.65 279.8 202.58 279.8 201.96 284.12 201.34 288.44 213.83 288.44"/>
          <polygon class="cls-4" points="322.56 288.44 321.32 284.12 320.07 279.8 308.03 279.8 309.07 284.12 310.11 288.44 322.56 288.44"/>
          <polygon class="cls-4" points="200.23 288.44 200.85 284.12 201.47 279.8 189.4 279.8 188.58 284.12 187.75 288.44 200.23 288.44"/>
          <polygon class="cls-4" points="241.02 288.44 241.02 284.12 241.01 279.8 228.93 279.8 228.73 284.12 228.53 288.44 241.02 288.44"/>
          <polygon class="cls-4" points="186.64 288.44 187.46 284.12 188.28 279.8 176.23 279.8 175.2 284.12 174.17 288.44 186.64 288.44"/>
          <polygon class="cls-4" points="173.04 288.44 174.07 284.12 175.1 279.8 163.05 279.8 161.82 284.12 160.58 288.44 173.04 288.44"/>
          <polygon class="cls-4" points="227.43 288.44 227.63 284.12 227.83 279.8 215.75 279.8 215.34 284.12 214.94 288.44 227.43 288.44"/>
          <polygon class="cls-4" points="308.97 288.44 307.94 284.12 306.9 279.8 294.84 279.8 295.67 284.12 296.5 288.44 308.97 288.44"/>
          <polygon class="cls-4" points="295.39 288.44 294.56 284.12 293.72 279.8 281.66 279.8 282.28 284.12 282.91 288.44 295.39 288.44"/>
          <polygon class="cls-4" points="268.21 288.44 267.79 284.12 267.37 279.8 255.29 279.8 255.5 284.12 255.71 288.44 268.21 288.44"/>
          <polygon class="cls-4" points="286.38 320.13 272.37 320.13 271.27 320.13 257.26 320.13 256.16 320.13 242.15 320.13 241.05 320.13 227.04 320.13 225.94 320.13 211.93 320.13 210.83 320.13 196.82 320.13 195.71 320.13 181.72 320.13 180.6 320.13 166.61 320.13 165.48 320.13 151.51 320.13 148.47 330.74 303.53 330.74 301.48 320.13 287.49 320.13 286.38 320.13"/>
          <polygon class="cls-4" points="281.8 288.44 281.17 284.12 280.55 279.8 268.48 279.8 268.89 284.12 269.31 288.44 281.8 288.44"/>
        </g>
        <g>
          <path class="cls-5" d="M144.12,125.12l33,16.57v7.69l-33,16.71V158.9l26.42-13.35-26.42-13.36Z"/>
          <path class="cls-5" d="M184,174.69v-7.05h29.93v7.05Z"/>
        </g>
      </g>
    </g>
  </g>
</svg>
