<svg xmlns="http://www.w3.org/2000/svg" width="570.89" height="388.44" viewBox="0 0 570.89 388.44">
  <defs>
    <style>
      .cls-1 {
        fill: #f5f5f5;
      }

      .cls-2 {
        fill: #e6e6e6;
      }

      .cls-3, .cls-5 {
        fill: #e0e0e0;
      }

      .cls-4 {
        fill: #f0f0f0;
      }

      .cls-13, .cls-14, .cls-26, .cls-5 {
        opacity: 0.4;
      }

      .cls-16, .cls-20, .cls-26, .cls-5 {
        isolation: isolate;
      }

      .cls-6 {
        fill: #fafafa;
      }

      .cls-11, .cls-13, .cls-19, .cls-21, .cls-7 {
        fill: #fff;
      }

      .cls-8 {
        fill: #ebebeb;
      }

      .cls-9 {
        fill: #407bff;
      }

      .cls-10, .cls-11, .cls-12, .cls-20 {
        opacity: 0.5;
      }

      .cls-15 {
        fill: #7f3e3b;
      }

      .cls-16, .cls-24 {
        opacity: 0.2;
      }

      .cls-17 {
        fill: #263238;
      }

      .cls-18 {
        fill: #630f0f;
      }

      .cls-19 {
        opacity: 0.1;
      }

      .cls-21 {
        opacity: 0.7;
      }

      .cls-22 {
        fill: #a02724;
      }

      .cls-23 {
        fill: #b55b52;
      }

      .cls-25 {
        opacity: 0.3;
      }
    </style>
  </defs>
  <g id="Character_1" data-name="Character 1">
    <g>
      <g id="Shadow--inject-214">
        <ellipse id="path--inject-214" class="cls-1" cx="285.44" cy="361.74" rx="193.89" ry="11.32"/>
      </g>
      <g>
        <path class="cls-2" d="M273.84,293.2H80.75a5.71,5.71,0,0,1-5.7-5.71V16.06a5.71,5.71,0,0,1,5.7-5.66H273.84a5.71,5.71,0,0,1,5.71,5.71h0V287.49A5.71,5.71,0,0,1,273.84,293.2ZM80.75,10.6a5.46,5.46,0,0,0-5.45,5.46V287.49A5.46,5.46,0,0,0,80.75,293H273.84a5.48,5.48,0,0,0,5.46-5.46V16.06a5.47,5.47,0,0,0-5.46-5.46Z"/>
        <path class="cls-2" d="M490.15,293.2H297.05a5.72,5.72,0,0,1-5.71-5.71V16.06a5.72,5.72,0,0,1,5.71-5.66h193.1a5.71,5.71,0,0,1,5.69,5.66V287.49A5.71,5.71,0,0,1,490.15,293.2ZM297.05,10.6a5.46,5.46,0,0,0-5.46,5.46V287.49a5.47,5.47,0,0,0,5.46,5.46h193.1a5.48,5.48,0,0,0,5.46-5.46V16.06a5.47,5.47,0,0,0-5.46-5.46Z"/>
      </g>
      <g>
        <rect class="cls-3" x="89.23" y="343.88" width="41.21" height="0.25"/>
        <rect class="cls-3" x="173.11" y="341.88" width="41.33" height="0.25"/>
        <rect class="cls-3" x="258.22" y="341.88" width="10" height="0.25"/>
        <rect class="cls-3" x="122.02" y="350.42" width="46.25" height="0.25"/>
        <rect class="cls-3" x="306.64" y="343.75" width="21.6" height="0.25"/>
        <rect class="cls-3" x="337.14" y="343.75" width="27.93" height="0.25"/>
        <rect class="cls-3" x="437.33" y="347.98" width="62.44" height="0.25"/>
      </g>
      <g>
        <rect class="cls-2" x="400.27" y="65.89" width="47.61" height="33.27"/>
        <g>
          <rect class="cls-4" x="400.27" y="65.89" width="21.47" height="33.27"/>
          <path class="cls-5" d="M411,70.4a7.09,7.09,0,1,1-7.09,7.09A7.09,7.09,0,0,1,411,70.4Z"/>
          <path class="cls-3" d="M414.45,91.32A3.46,3.46,0,1,1,411,87.86h0A3.46,3.46,0,0,1,414.45,91.32Z"/>
        </g>
        <circle class="cls-6" cx="410.94" cy="77.97" r="2.02"/>
      </g>
      <g>
        <g>
          <rect class="cls-4" x="325.65" y="53.98" width="20.59" height="45.2"/>
          <rect class="cls-2" x="345.68" y="53.98" width="27.32" height="45.2"/>
          <g>
            <path class="cls-7" d="M335.87,68.33A2.85,2.85,0,1,1,333,71.18,2.85,2.85,0,0,1,335.87,68.33Z"/>
            <path class="cls-7" d="M335.87,63.88a1.43,1.43,0,1,1-1.42,1.42A1.43,1.43,0,0,1,335.87,63.88Z"/>
            <path class="cls-7" d="M335.87,59.56A1.43,1.43,0,1,1,334.45,61,1.42,1.42,0,0,1,335.87,59.56Z"/>
          </g>
          <g>
            <rect class="cls-3" x="326.11" y="79.33" width="46.4" height="0.71"/>
            <rect class="cls-3" x="326.11" y="83.34" width="46.4" height="0.71"/>
            <rect class="cls-3" x="326.11" y="87.35" width="46.4" height="0.71"/>
            <rect class="cls-3" x="326.11" y="91.36" width="46.4" height="0.71"/>
            <rect class="cls-3" x="326.11" y="95.37" width="46.4" height="0.71"/>
          </g>
          <rect class="cls-3" x="334.4" y="80.55" width="1.96" height="1.96"/>
          <rect class="cls-3" x="334.4" y="84.76" width="1.96" height="1.96"/>
          <rect class="cls-3" x="334.4" y="88.57" width="1.96" height="1.96"/>
          <rect class="cls-3" x="334.4" y="92.67" width="1.96" height="1.96"/>
          <rect class="cls-3" x="334.4" y="96.65" width="1.96" height="1.96"/>
        </g>
        <path class="cls-3" d="M286.31,143.68h-1v-38.3a7.81,7.81,0,0,1,7.8-7.8h33v1h-33a6.81,6.81,0,0,0-6.8,6.8Z"/>
        <path class="cls-3" d="M284.31,143.74h-1V105.1a9.47,9.47,0,0,1,9.46-9.46h33.34v1H292.77a8.47,8.47,0,0,0-8.46,8.46Z"/>
      </g>
      <g>
        <rect class="cls-2" x="143.51" y="47.67" width="31.31" height="33.33"/>
        <rect class="cls-1" x="174.82" y="47.67" width="8.02" height="33.33"/>
        <rect class="cls-2" x="135.3" y="42.53" width="23.52" height="38.47"/>
        <rect class="cls-1" x="158.81" y="42.53" width="6.8" height="38.47"/>
        <rect class="cls-8" x="132.06" y="47.67" width="19.83" height="33.33"/>
        <rect class="cls-1" x="151.89" y="47.67" width="4.53" height="33.33"/>
        <rect class="cls-2" x="109.65" y="53.31" width="26.01" height="27.69"/>
        <rect class="cls-1" x="135.66" y="53.31" width="6.66" height="27.69"/>
        <rect class="cls-2" x="102.83" y="49.04" width="19.54" height="31.96"/>
        <rect class="cls-1" x="122.36" y="49.04" width="5.65" height="31.96"/>
        <rect class="cls-2" x="97.63" y="53.31" width="18.98" height="27.69"/>
        <rect class="cls-4" x="116.62" y="53.31" width="3.76" height="27.69"/>
      </g>
      <g>
        <rect class="cls-2" x="75.44" y="80.98" width="204" height="9.65" transform="translate(354.88 171.61) rotate(180)"/>
        <g>
          <polygon class="cls-3" points="112.05 90.86 123.34 90.86 115.11 103.27 112.05 103.27 112.05 90.86"/>
          <rect class="cls-3" x="110.42" y="90.85" width="1.63" height="12.41"/>
        </g>
        <g>
          <polygon class="cls-3" points="238.76 90.86 250.04 90.86 241.82 103.27 238.76 103.27 238.76 90.86"/>
          <rect class="cls-3" x="237.13" y="90.85" width="1.63" height="12.41"/>
        </g>
      </g>
      <g>
        <rect class="cls-2" x="291.68" y="99.17" width="204" height="9.65"/>
        <g>
          <polygon class="cls-3" points="459.07 121.46 456.01 121.46 447.79 109.05 459.07 109.05 459.07 121.46"/>
          <rect class="cls-3" x="459.07" y="109.05" width="1.63" height="12.41"/>
        </g>
        <g>
          <polygon class="cls-3" points="332.36 121.46 329.3 121.46 321.08 109.05 332.36 109.05 332.36 121.46"/>
          <rect class="cls-3" x="332.36" y="109.05" width="1.63" height="12.41"/>
        </g>
      </g>
      <g>
        <path class="cls-4" d="M232.89,61.56a14.38,14.38,0,0,0-.62-4.23L236,54.07l-2.34-4L229,51.6a14.6,14.6,0,0,0-7.32-4.23l-1-4.84H216l-1,4.84a14.59,14.59,0,0,0-7.33,4.23L203,50l-2.34,4,3.71,3.26a14.74,14.74,0,0,0,0,8.46l-3.71,3.26,2.34,4,4.68-1.58A14.6,14.6,0,0,0,215,75.75l1,4.84h4.67l1-4.84A14.62,14.62,0,0,0,229,71.51l4.68,1.58,2.34-4-3.71-3.26A14.43,14.43,0,0,0,232.89,61.56Zm-14.56,7.86a7.57,7.57,0,1,1,7.57-7.57A7.57,7.57,0,0,1,218.33,69.42Z"/>
        <path class="cls-4" d="M258.16,64a9.75,9.75,0,0,0-1.81-2.16l1-3.1-2.7-1.47-2.08,2.5a9.54,9.54,0,0,0-5.57.14l-2.21-2.39-2.62,1.61,1.12,3a9.57,9.57,0,0,0-2.66,4.89l-3.17.73.07,3.07,3.21.56A9.75,9.75,0,0,0,241.8,74a10,10,0,0,0,1.81,2.16l-1,3.1,2.7,1.47,2.08-2.5a9.54,9.54,0,0,0,5.57-.14l2.21,2.39,2.62-1.61-1.11-3a9.66,9.66,0,0,0,2.65-4.9l3.17-.72-.08-3.07-3.2-.56A9.75,9.75,0,0,0,258.16,64Zm-5.48,9.42a5,5,0,1,1,1.65-6.85A5,5,0,0,1,252.68,73.42Z"/>
      </g>
      <g id="Group">
        <rect class="cls-9" x="82" y="224.79" width="407.62" height="5.13"/>
        <polygon class="cls-9" points="106.28 228.47 106.28 350.81 109.46 350.81 113.46 228.47 106.28 228.47"/>
        <g>
          <polygon class="cls-9" points="143.82 232.47 143.82 345.81 147 345.81 151 232.47 143.82 232.47"/>
          <polygon class="cls-10" points="143.82 232.47 143.82 345.81 147 345.81 151 232.47 143.82 232.47"/>
        </g>
        <polygon class="cls-9" points="466.79 228.47 466.79 350.81 463.62 350.81 459.61 228.47 466.79 228.47"/>
        <g>
          <polygon class="cls-9" points="429.26 232.47 429.26 345.81 426.08 345.81 422.08 232.47 429.26 232.47"/>
          <polygon class="cls-10" points="429.26 232.47 429.26 345.81 426.08 345.81 422.08 232.47 429.26 232.47"/>
        </g>
        <g>
          <polygon class="cls-9" points="474.04 235.41 98.78 235.41 90.48 229.92 482.34 229.92 474.04 235.41"/>
          <polygon class="cls-10" points="474.04 235.41 98.78 235.41 90.48 229.92 482.34 229.92 474.04 235.41"/>
        </g>
      </g>
      <g>
        <path class="cls-9" d="M108.79,209.06v4a2.48,2.48,0,0,0,.73,1.76L112.7,218a2.34,2.34,0,0,0,1,.6,8.11,8.11,0,0,0,7.38,4.72h1.18a8.14,8.14,0,0,0,8.15-8.14v-9.33H113v.75h-1.67A2.5,2.5,0,0,0,108.79,209.06Zm2,0a.51.51,0,0,1,.5-.5H113v6.58a2.28,2.28,0,0,0,0,.26l-2-2a.51.51,0,0,1-.15-.35Z"/>
        <path class="cls-11" d="M108.79,209.06v4a2.48,2.48,0,0,0,.73,1.76L112.7,218a2.34,2.34,0,0,0,1,.6,8.11,8.11,0,0,0,7.38,4.72h1.18a8.14,8.14,0,0,0,8.15-8.14v-9.33H113v.75h-1.67A2.5,2.5,0,0,0,108.79,209.06Zm2,0a.51.51,0,0,1,.5-.5H113v6.58a2.28,2.28,0,0,0,0,.26l-2-2a.51.51,0,0,1-.15-.35Z"/>
        <g>
          <path class="cls-9" d="M134.59,224.62H109.45a4.6,4.6,0,0,1-3-1.48h31.06A4.63,4.63,0,0,1,134.59,224.62Z"/>
          <path class="cls-11" d="M134.59,224.62H109.45a4.6,4.6,0,0,1-3-1.48h31.06A4.63,4.63,0,0,1,134.59,224.62Z"/>
        </g>
      </g>
      <g>
        <path class="cls-9" d="M472.81,212.43c-.13-4-3.15-4.94-7.1-5.39v-1.45a.63.63,0,0,0-.64-.62H451.44a.65.65,0,0,0-.67.62h0V224.5h14.94v-2.07C469.66,222,472.69,216.4,472.81,212.43Zm-7.1,7.55v-10.5c2.9.43,4.9.83,4.48,3.73C469.85,215.52,468,219.64,465.71,220Z"/>
        <g class="cls-12">
          <path class="cls-7" d="M472.81,212.43c-.13-4-3.15-4.94-7.1-5.39v-1.45a.63.63,0,0,0-.64-.62H451.44a.65.65,0,0,0-.67.62h0V224.5h14.94v-2.07C469.66,222,472.69,216.4,472.81,212.43Zm-7.1,7.55v-10.5c2.9.43,4.9.83,4.48,3.73C469.85,215.52,468,219.64,465.71,220Z"/>
        </g>
      </g>
      <g>
        <g>
          <g>
            <rect class="cls-9" x="279.55" y="200.4" width="11.79" height="23.95"/>
            <rect class="cls-11" x="279.55" y="200.4" width="11.79" height="23.95"/>
          </g>
          <g>
            <polygon class="cls-9" points="296.66 224.78 274.33 224.78 279.77 219.98 291.21 219.98 296.66 224.78"/>
            <polygon class="cls-11" points="296.66 224.78 274.33 224.78 279.77 219.98 291.21 219.98 296.66 224.78"/>
          </g>
        </g>
        <g>
          <g>
            <polygon class="cls-9" points="345.77 217.02 289.93 217.02 300.02 224.81 355.85 224.81 345.77 217.02"/>
            <polygon class="cls-13" points="345.77 217.02 289.93 217.02 300.02 224.81 355.85 224.81 345.77 217.02"/>
          </g>
          <g>
            <polygon class="cls-9" points="291.22 224.81 289.93 217.02 300.02 224.81 291.22 224.81"/>
            <polygon class="cls-10" points="291.22 224.81 289.93 217.02 300.02 224.81 291.22 224.81"/>
          </g>
        </g>
        <g>
          <rect class="cls-9" x="232.41" y="143.71" width="105.49" height="66.18" rx="1.93"/>
          <rect class="cls-10" x="236.24" y="147.85" width="97.72" height="57.67"/>
        </g>
        <g>
          <g>
            <rect class="cls-14" x="281.55" y="159.71" width="49.31" height="33.95"/>
            <rect class="cls-9" x="281.55" y="159.71" width="49.31" height="3.11"/>
          </g>
          <g>
            <path class="cls-7" d="M300,178.48,291.93,174a2.73,2.73,0,0,1-.81-.61,1.14,1.14,0,0,1-.2-.68,1.23,1.23,0,0,1,.38-.9,1.2,1.2,0,0,1,.88-.38,2.4,2.4,0,0,1,1,.36l10.4,5.78a1,1,0,0,1,0,1.79l-10.4,5.78a2.46,2.46,0,0,1-1,.37,1.2,1.2,0,0,1-.89-.39,1.26,1.26,0,0,1-.37-.9,1.12,1.12,0,0,1,.2-.68,2.73,2.73,0,0,1,.81-.61Z"/>
            <path class="cls-7" d="M320.22,185.11h-14a1,1,0,0,1,0-2h14a1,1,0,0,1,0,2Z"/>
          </g>
        </g>
        <g>
          <g>
            <rect class="cls-7" x="240.25" y="153.17" width="3.34" height="3.34"/>
            <rect class="cls-7" x="240.25" y="161.81" width="3.34" height="3.34"/>
            <rect class="cls-7" x="240.25" y="170.45" width="3.34" height="3.34"/>
            <rect class="cls-7" x="240.25" y="179.1" width="3.34" height="3.34"/>
            <rect class="cls-7" x="240.25" y="187.74" width="3.34" height="3.34"/>
            <rect class="cls-7" x="240.25" y="196.38" width="3.34" height="3.34"/>
          </g>
          <rect class="cls-7" x="246.76" y="153.92" width="13.31" height="1"/>
          <rect class="cls-7" x="249.86" y="162.59" width="4.74" height="1"/>
          <rect class="cls-7" x="270.49" y="172.31" width="4.74" height="1"/>
          <rect class="cls-7" x="249.86" y="180.02" width="4.74" height="1"/>
          <rect class="cls-7" x="256.7" y="180.02" width="4.74" height="1"/>
          <rect class="cls-7" x="256.7" y="172.31" width="12.11" height="1"/>
          <rect class="cls-7" x="263.75" y="180.02" width="7.97" height="1"/>
          <rect class="cls-7" x="263.73" y="198.55" width="4.74" height="1"/>
          <rect class="cls-7" x="270.56" y="198.55" width="4.74" height="1"/>
          <rect class="cls-7" x="277.62" y="198.55" width="2.65" height="1"/>
          <rect class="cls-7" x="256.98" y="162.59" width="14.75" height="1"/>
          <rect class="cls-7" x="256.7" y="189.05" width="4.74" height="1"/>
          <rect class="cls-7" x="263.02" y="189.05" width="2.74" height="1"/>
          <rect class="cls-7" x="267.86" y="189.05" width="7.74" height="1"/>
        </g>
      </g>
      <g>
        <path class="cls-9" d="M276.88,116.17c-.24,12.1-12.82,22.24-28.09,22.65a32.43,32.43,0,0,1-13.68-2.54c-1.53,3.81-4.78,7.06-14.07,8.52,9.7-7.48,4.39-13.82,2.18-19.39h0a17.46,17.46,0,0,1-1.66-7.78c.24-12.11,12.82-22.25,28.09-22.65S277.12,104.07,276.88,116.17Z"/>
        <g>
          <rect class="cls-7" x="236.24" y="103.5" width="13.31" height="1"/>
          <rect class="cls-7" x="239.34" y="112.17" width="4.74" height="1"/>
          <rect class="cls-7" x="259.97" y="121.88" width="4.74" height="1"/>
          <rect class="cls-7" x="239.34" y="129.6" width="4.74" height="1"/>
          <rect class="cls-7" x="246.17" y="129.6" width="4.74" height="1"/>
          <rect class="cls-7" x="246.17" y="121.88" width="12.11" height="1"/>
          <rect class="cls-7" x="253.23" y="129.6" width="7.97" height="1"/>
          <rect class="cls-7" x="246.45" y="112.17" width="14.75" height="1"/>
        </g>
      </g>
      <g>
        <g>
          <g>
            <g>
              <g>
                <polygon class="cls-15" points="334.61 345.42 327.32 343.24 329.02 325.37 336.31 327.55 334.61 345.42"/>
                <polygon class="cls-16" points="336.91 323.51 329.62 321.34 328.67 331.35 336.04 332.72 336.91 323.51"/>
              </g>
              <path class="cls-9" d="M377.76,235.05s-50.13,4.23-48.9,26c1,17.82,3.65,13-1.54,66l12.61.7s12.83-43.34,11.1-60.56c14.13,0,46.48,1.24,51.18-11.51a56.54,56.54,0,0,0,3.35-20.2Z"/>
            </g>
            <polygon class="cls-17" points="341.94 330.15 325.46 327.33 325.73 320.04 342.79 323.83 341.94 330.15"/>
          </g>
          <g>
            <path class="cls-17" d="M326.57,340.24,335,341.9a.64.64,0,0,1,.48.71l-.7,8a1.4,1.4,0,0,1-1.54,1.31c-2.92-.64-4.3-1.11-8-1.84-2.28-.45-7.49-1.55-10.66-1.9s-2.79-4.06-1.42-4.25c6.16-.82,9.66-1.81,12.05-3.36A1.87,1.87,0,0,1,326.57,340.24Z"/>
            <g>
              <path class="cls-9" d="M322.79,341.68a9.58,9.58,0,0,0,2,.06.16.16,0,0,0,.15-.11.17.17,0,0,0,0-.19c-.21-.21-2.1-2-3.07-1.8a.65.65,0,0,0-.49.42,1,1,0,0,0,.06,1A2.1,2.1,0,0,0,322.79,341.68Zm1.61-.27c-1.39,0-2.37-.16-2.66-.57a.66.66,0,0,1,0-.64A.34.34,0,0,1,322,340C322.48,339.87,323.62,340.71,324.4,341.41Z"/>
              <path class="cls-9" d="M324.8,341.74h.08a.18.18,0,0,0,.12-.13c0-.09.55-2.22-.09-3.07a.84.84,0,0,0-.7-.37.69.69,0,0,0-.72.42c-.31.79.55,2.54,1.22,3.11A.18.18,0,0,0,324.8,341.74Zm-.52-3.21a.49.49,0,0,1,.35.22,3.84,3.84,0,0,1,.09,2.46,3.68,3.68,0,0,1-.9-2.49c0-.1.11-.21.37-.2Z"/>
            </g>
          </g>
          <g>
            <g>
              <polygon class="cls-15" points="302.11 348.19 295.17 345.07 299.97 327.95 306.91 331.07 302.11 348.19"/>
              <polygon class="cls-16" points="308.08 326.67 301.14 323.55 298.67 332.38 305.61 335.5 308.08 326.67"/>
            </g>
            <g>
              <path class="cls-9" d="M362.84,235.05c-.33,0-56.2,5.75-56.27,24.7-.12,31.34-9.07,67.26-9.07,67.26l11,5.47s19.23-38.94,18.94-63.37c15.37-4.41,55.13,3,59.83-9.74,3.85-10.42,1.77-24.32,1.77-24.32Z"/>
              <polygon class="cls-17" points="310.31 334.07 295.51 327.41 296.7 321.35 312.31 326.74 310.31 334.07"/>
            </g>
          </g>
          <g>
            <path class="cls-17" d="M295.86,339.32l8.44,1.75a.71.71,0,0,1,.47.78l-.66,8.76c-.11.95-.8,1.6-1.53,1.45h0c-2.92-.67-4.3-1.19-8-2-2.28-.47-8.49-2-11.62-2.79s-2.43-4.81-1-4.83c6.19-.09,10.2-1.11,12.58-2.83A1.69,1.69,0,0,1,295.86,339.32Z"/>
            <g>
              <path class="cls-9" d="M292.4,341.21a10.17,10.17,0,0,0,1.64-1.13.19.19,0,0,0,.06-.2.16.16,0,0,0-.15-.11c-.29,0-2.87-.38-3.54.36a.66.66,0,0,0-.13.63,1,1,0,0,0,.63.78A2.12,2.12,0,0,0,292.4,341.21Zm1.12-1.17c-1.08.86-2,1.27-2.47,1.12a.63.63,0,0,1-.38-.52.3.3,0,0,1,.06-.31C291.09,340,292.49,339.94,293.52,340Z"/>
              <path class="cls-9" d="M294,340.08l.07-.06a.14.14,0,0,0,0-.16c-.05-.07-.87-2.12-1.89-2.43a.87.87,0,0,0-.78.12.69.69,0,0,0-.33.77c.22.82,1.94,1.72,2.83,1.78Zm-2.32-2.28a.49.49,0,0,1,.41,0,3.9,3.9,0,0,1,1.54,1.93,3.58,3.58,0,0,1-2.2-1.47c-.06-.08,0-.24.18-.38Z"/>
            </g>
          </g>
          <g>
            <path class="cls-15" d="M381.82,174.58c1.47,3.16,2.68,6.2,3.89,9.36s2.28,6.32,3.27,9.56,1.85,6.56,2.54,10a52.3,52.3,0,0,1,1.12,10.87,22.21,22.21,0,0,1-.95,6.33,14.12,14.12,0,0,1-1.67,3.56,11.42,11.42,0,0,1-1.43,1.74l-.43.42c-.24.2-.5.42-.75.59a7.61,7.61,0,0,1-1.34.74,10.26,10.26,0,0,1-2.16.69,13,13,0,0,1-1.77.26,22.17,22.17,0,0,1-3.05,0,40.62,40.62,0,0,1-5.38-.6,101.51,101.51,0,0,1-19.41-5.56l1.45-5.51c6.35.76,12.83,1.57,18.94,1.85,1.52,0,3,.07,4.38,0a12.37,12.37,0,0,0,1.83-.23c.5-.09.93-.27.78-.26a1.47,1.47,0,0,0-.28.14,1.86,1.86,0,0,0-.28.21h0a1.56,1.56,0,0,0,.09-.17,4.44,4.44,0,0,0,.3-.89,13.88,13.88,0,0,0,.27-3.34,44.3,44.3,0,0,0-1.27-8.49c-.68-3-1.56-5.92-2.52-8.89s-2-5.94-3.14-8.9-2.34-5.93-3.52-8.72Z"/>
            <path class="cls-15" d="M358.51,218.53l-6.63-3.73L348.55,222s7.75,3.23,9.38,1.21Z"/>
            <polygon class="cls-15" points="346.51 216.16 343.48 220.96 348.55 221.93 351.88 214.75 346.51 216.16"/>
          </g>
          <g>
            <path class="cls-15" d="M366.36,180.29c-1.27,3.19-2.6,6.24-4,9.33s-2.8,6.13-4.28,9.17a176.53,176.53,0,0,1-10,18c-1,1.48-2,3-3.12,4.42-.56.74-1.18,1.47-1.84,2.22-.36.38-.65.73-1.07,1.12l-.6.58-.34.32a8.66,8.66,0,0,1-3.28,1.74,15.92,15.92,0,0,1-1.94.41,21.63,21.63,0,0,1-3.22.13,42.77,42.77,0,0,1-5.54-.55,102.54,102.54,0,0,1-19.82-5.62l1.46-5.52c6.47.78,13.08,1.61,19.3,1.87,1.47.05,2.94,0,4.4-.06a11.39,11.39,0,0,0,1.75-.28,3.16,3.16,0,0,0,.54-.2c.06,0,0-.07-.27.1a1.05,1.05,0,0,0-.27.2l.1-.12.28-.31c.18-.18.4-.48.61-.72.41-.52.83-1.08,1.25-1.69.83-1.19,1.64-2.51,2.44-3.85,1.6-2.68,3.09-5.53,4.55-8.41s2.86-5.82,4.24-8.78c2.75-5.9,5.44-11.95,8-17.9Z"/>
            <g>
              <path class="cls-15" d="M311.61,217.48,305,213.7l-3.33,7.18s7.75,3.24,9.39,1.22Z"/>
              <polygon class="cls-15" points="299.61 215.12 296.57 219.91 301.64 220.88 304.97 213.69 299.61 215.12"/>
            </g>
          </g>
          <g>
            <path class="cls-15" d="M383.53,144.81l-4.24,4.91-6.47,6.69c.13.33.31.76.5,1.21a12.34,12.34,0,0,1,.86,3.87c.14,2.69-.12,5-4.35,6.78,0,0-4.44,5.8,6.12,4.19s12.15-7.09,12.15-7.09C383.42,162,383.16,151,383.53,144.81Z"/>
            <g>
              <path class="cls-17" d="M362,139.27c0,.66-.33,1.22-.77,1.24s-.79-.5-.8-1.16.34-1.22.77-1.24S362,138.61,362,139.27Z"/>
              <path class="cls-17" d="M364.21,136.81a.41.41,0,0,1-.32-.18,3.22,3.22,0,0,0-2.42-1.54.41.41,0,0,1-.38-.4.39.39,0,0,1,.4-.38h0a4,4,0,0,1,3.06,1.9.4.4,0,0,1-.12.54A.55.55,0,0,1,364.21,136.81Z"/>
              <path class="cls-18" d="M361.76,139.64a21,21,0,0,1-2.3,5.12,3.24,3.24,0,0,0,2.72.2Z"/>
              <path class="cls-15" d="M384.13,135.94c-.39,8.16-.21,13-4.26,17.32a10.64,10.64,0,0,1-18.22-4.71c-1.84-7.23-.88-19.36,7-23a10.74,10.74,0,0,1,15.48,10.39Z"/>
            </g>
          </g>
          <g>
            <g>
              <path class="cls-17" d="M387.83,138.66a30.22,30.22,0,0,1-5.3,9.5l-10.62,2s-8.39-3.51-6.15-9.29c-1.42-1.2-.89-4.91.11-7a4.33,4.33,0,0,0,5.67-.15,3.88,3.88,0,0,0,6.15.51,4.1,4.1,0,0,0,6.46-1,3.67,3.67,0,0,0,4.28-.28l.15-.14A14.6,14.6,0,0,1,387.83,138.66Z"/>
              <path class="cls-19" d="M387.83,138.66a30.22,30.22,0,0,1-5.3,9.5l-10.62,2s-8.39-3.51-6.15-9.29c-1.42-1.2-.89-4.91.11-7a4.33,4.33,0,0,0,5.67-.15,3.88,3.88,0,0,0,6.15.51,4.1,4.1,0,0,0,6.46-1,3.67,3.67,0,0,0,4.28-.28l.15-.14A14.6,14.6,0,0,1,387.83,138.66Z"/>
            </g>
            <path class="cls-17" d="M389.36,128.77a3.69,3.69,0,0,1-.78,4l-.15.14a3.67,3.67,0,0,1-4.28.28,4.1,4.1,0,0,1-6.46,1,3.88,3.88,0,0,1-6.15-.51,4.33,4.33,0,0,1-5.67.15,3.45,3.45,0,0,1-1-1.24,2.33,2.33,0,0,1-.14-.33,2.37,2.37,0,0,1-.28.27,3.09,3.09,0,0,1-3.56.21,3,3,0,0,1-1.28-2.69,2.77,2.77,0,0,1,.11-.64,1.73,1.73,0,0,1-.3.41,2.5,2.5,0,0,1-3.56-.09,3.09,3.09,0,0,1,1-4.36,3.68,3.68,0,0,1,1.88-.5,4.82,4.82,0,0,1,2.87,1,3,3,0,0,1,4.74-3.53,2.61,2.61,0,0,1,1.07-2.71c1.38-.8,3.68-.11,4.8,1.23,0,0,1.54-3.72,4.2-3.3.58.08,3.31,1.29,3.24,2.27a.41.41,0,0,1,0,.19,1.59,1.59,0,0,1,.13-.22,3,3,0,0,1,2.56-1.21,8.59,8.59,0,0,1,3.08.82c2.07.85,4.27,1.8,5.47,3.69S391.51,128.17,389.36,128.77Z"/>
            <path class="cls-15" d="M370.45,141.63a9.58,9.58,0,0,1-2.64,5.34c-1.81,1.73-3.35,0-3.37-2.63,0-2.38.89-6.15,3-6.85S370.84,139,370.45,141.63Z"/>
          </g>
          <g>
            <path class="cls-17" d="M402.43,168.21c-.75-2-4.25-4-6.4-4h-1.42a77.68,77.68,0,0,0-8.57.55,150.77,150.77,0,0,0-17,2.86c-2.58.68-5.07,1.54-7.05,2.28-2.52,1-4,1.67-4,1.67s2.76,18.38,4.19,36.64c.8,10.16.47,20.26.72,27.2h42.66c1.47-8.34,1.24-15.62,1.36-30.68C407,195.69,405.52,176.44,402.43,168.21Z"/>
            <path class="cls-16" d="M361.26,198c.32,3.83.65,7.85,1,11.87,5-7.3,7.77-27.27,7.77-27.27Z"/>
          </g>
          <path class="cls-17" d="M355.58,172.91c-6.11,3.44-12.1,21-12.1,21l14,10.56c5.34-5,13.15-17.58,14-22.59C372.84,174.23,365.37,167.43,355.58,172.91Z"/>
        </g>
        <g>
          <g>
            <path class="cls-17" d="M343.51,352.1a4.35,4.35,0,1,1-4.35-4.35,4.35,4.35,0,0,1,4.35,4.35Z"/>
            <path class="cls-17" d="M408.4,352.1a4.35,4.35,0,1,0,4.35-4.35,4.35,4.35,0,0,0-4.35,4.35Z"/>
            <path class="cls-17" d="M371.72,350.71a4.35,4.35,0,1,0,4.35-4.35,4.35,4.35,0,0,0-4.35,4.35Z"/>
          </g>
          <g>
            <path class="cls-17" d="M374.72,345.34v-8.41H362.26a39.56,39.56,0,0,0-7.29.68l-23.2,4.51a2.11,2.11,0,0,0,.47,4.18Z"/>
            <path class="cls-17" d="M374.72,345.34v-8.41h12.47a39.72,39.72,0,0,1,7.29.68l26.07,4.17a2.11,2.11,0,0,1-.47,4.18Z"/>
          </g>
          <g>
            <rect class="cls-17" x="367" y="298.43" width="15.43" height="38.51"/>
            <rect class="cls-17" x="369.22" y="280.51" width="11" height="17.91"/>
            <polygon class="cls-20" points="369.22 285.77 380.22 288.54 380.22 280.51 369.22 280.51 369.22 285.77"/>
          </g>
          <g>
            <g>
              <rect class="cls-17" x="333.57" y="239.99" width="5.59" height="23.85"/>
              <path class="cls-9" d="M367.18,280.51V176.83a13.64,13.64,0,0,1,4.65-10.25l7.39-6.47a13.63,13.63,0,0,1,9-3.37h26.7l13,13.88V280.51Z"/>
              <path class="cls-9" d="M327.44,260.45h60.9v20.06H317.52a7.19,7.19,0,0,1-6.2-10.87h0A18.72,18.72,0,0,1,327.44,260.45Z"/>
              <path class="cls-21" d="M427.93,170.63V280.52H317.51a7.21,7.21,0,0,1-6.2-10.87,18.71,18.71,0,0,1,16.09-9.19h30.68a9.1,9.1,0,0,0,9.1-9.11V176.83a13.58,13.58,0,0,1,4.65-10.24l7.39-6.47a13.58,13.58,0,0,1,9-3.37h26.69Z"/>
              <g>
                <path class="cls-9" d="M376.07,280.51V176.83a13.61,13.61,0,0,1,4.65-10.25l7.39-6.47a13.63,13.63,0,0,1,9-3.37h20.8a13.67,13.67,0,0,1,9.93,4.29l5.31,5.66a13.6,13.6,0,0,1,3.7,9.33v94.11a10.38,10.38,0,0,1-10.38,10.38Z"/>
                <path class="cls-11" d="M376.07,280.51V176.83a13.61,13.61,0,0,1,4.65-10.25l7.39-6.47a13.63,13.63,0,0,1,9-3.37h20.8a13.67,13.67,0,0,1,9.93,4.29l5.31,5.66a13.6,13.6,0,0,1,3.7,9.33v94.11a10.38,10.38,0,0,1-10.38,10.38Z"/>
              </g>
            </g>
            <g>
              <path class="cls-9" d="M355.35,247.27a57.71,57.71,0,0,0-38,0,5.39,5.39,0,0,1-6.69-2.55h0c-1.14-2.41.39-5.53,3.49-6.62a67.27,67.27,0,0,1,44.38,0c3.1,1.08,4.63,4.21,3.49,6.62h0A5.4,5.4,0,0,1,355.35,247.27Z"/>
              <path class="cls-21" d="M355.35,247.27a57.71,57.71,0,0,0-38,0,5.39,5.39,0,0,1-6.69-2.55h0c-1.14-2.41.39-5.53,3.49-6.62a67.27,67.27,0,0,1,44.38,0c3.1,1.08,4.63,4.21,3.49,6.62h0A5.4,5.4,0,0,1,355.35,247.27Z"/>
            </g>
          </g>
        </g>
      </g>
      <g id="_Group_" data-name="&lt;Group&gt;">
        <g>
          <g>
            <path class="cls-17" d="M199.94,148.06c-.21.59-.06,1.18.33,1.31s.87-.23,1.07-.82.06-1.19-.32-1.32S200.15,147.46,199.94,148.06Z"/>
            <path class="cls-22" d="M199.83,148.67a21.92,21.92,0,0,0,1.07,6.06,3.61,3.61,0,0,1-3-.46Z"/>
            <path class="cls-17" d="M199,144a.3.3,0,0,0,.23,0,2.91,2.91,0,0,1,2.63.4.37.37,0,0,0,.51-.08.38.38,0,0,0,0-.48,3.69,3.69,0,0,0-3.32-.55.36.36,0,0,0-.23.47.35.35,0,0,0,.23.23Z"/>
            <path class="cls-23" d="M178,150.24c1.12,5.69,2.23,16.12-1.75,19.92,0,0,1.56,5.77,12.14,5.77,11.63,0,5.56-5.77,5.56-5.77-6.35-1.52-5.33-6.23-4.22-10.65Z"/>
            <path class="cls-23" d="M180.6,139.92c-2.08,7.44-3.68,11.69-1.3,16.7,3.57,7.55,16,8.53,19.45-.11,2.59-8,5.15-16.37-1-21.74a10.54,10.54,0,0,0-17.18,5.15Z"/>
          </g>
          <path class="cls-17" d="M172.53,142.39c-.54-2.74-.68-5.73.69-8.17s4.68-3.93,7.09-2.51a11.7,11.7,0,1,1,16.59,15l1.67-6.14a11.93,11.93,0,0,1-4.27,7.25c.33-2,.65-4.09,1-6.13a9.41,9.41,0,0,1-4.54,7c.39-1.43.78-2.86,1.16-4.3a37.56,37.56,0,0,1-2.25,5.75c-1,1.15-1.64,8.66-5.09,8.9C172.77,161.5,173.8,148.8,172.53,142.39Z"/>
          <path class="cls-23" d="M188.44,146a8.81,8.81,0,0,0,1.22,5.47c1.33,2.14,3.28,1.32,4-.87.64-2,.71-5.45-1.14-6.84S188.72,143.66,188.44,146Z"/>
        </g>
        <g>
          <path class="cls-23" d="M160.26,218c-1.28-.43-7.22-3.48-8.17-2.94,2.75-7,4.46-8.08,5.71-12.54a6.92,6.92,0,0,0-1.33-6.51c-1.76-2.35-2.38-3.55-5.3-3.25-4,6.72-9.08,15-11.06,22.59-.67,2.55-1.15,4.49.36,6.64,1.34,1.9,3.82,2.67,6.13,2.88,5.58.5,13.84-.53,13.74-3.84C160.27,219,160.26,218,160.26,218Z"/>
          <g>
            <path class="cls-23" d="M159.31,217.79l4.73-1.54-.42,8.54s-3.79.13-5.8-2.4Z"/>
            <polygon class="cls-23" points="169.94 216.12 169.26 223.16 163.62 224.79 164.04 216.25 169.94 216.12"/>
          </g>
        </g>
        <g>
          <path class="cls-23" d="M224.06,223.84s-6.59-5.16-15.23-22.21q-1.92-3.58-3.68-7.21c-1.18-2.45-2.31-4.84-3.39-7.41L212,182.6c2.11,4.59,5.38,9.32,7.7,13.87s7.8,15.32,8.48,16.33c.34.51.71.94,1.07,1.42l.53.7-6.6,7.62Z"/>
          <g>
            <g>
              <path class="cls-23" d="M232.7,190.69l-2-2.44-.95-3.65,6.17-5.74a26.49,26.49,0,0,1,2.54,3.82,1.91,1.91,0,0,1,.21,1l-.25,6.42Z"/>
              <polygon class="cls-23" points="229.8 180.64 234.42 176.44 235.88 178.9 229.71 184.6 229.8 180.64"/>
            </g>
            <path class="cls-23" d="M232.79,188.91c.17-.69.31.65.76.11,1.37-1.63,3.35-1.81,4.53,0s.17,19.62-1.72,25.21c-1.25,3.72-1.92,6.68-5.12,8.94a7.76,7.76,0,0,1-4.5,1.61,4.25,4.25,0,0,1-3.9-2.41c-1-2.33,2.58-10.73,3.84-13.44C230.64,200.4,230.9,197,232.79,188.91Z"/>
          </g>
          <g>
            <g>
              <path class="cls-9" d="M219.56,188.14l8.17-.08a8,8,0,0,0,3.42-.54A6.22,6.22,0,0,0,234,184c1.15-3,1.25-6.22,1.71-9.37s1.41-6.43,3.79-8.54c-4.34.57-12-.79-15.35,2.77C222.33,170.78,219.23,188.14,219.56,188.14Z"/>
              <path class="cls-11" d="M219.56,188.14l8.17-.08a8,8,0,0,0,3.42-.54A6.22,6.22,0,0,0,234,184c1.15-3,1.25-6.22,1.71-9.37s1.41-6.43,3.79-8.54c-4.34.57-12-.79-15.35,2.77C222.33,170.78,219.23,188.14,219.56,188.14Z"/>
            </g>
            <path class="cls-23" d="M233.54,176h0c-.47.12-.78,1.8-.68,2.28l.46.81.94,4.06,3.11-1.73-2.81-5A.9.9,0,0,0,233.54,176Z"/>
          </g>
        </g>
        <path class="cls-9" d="M163.07,171.59C155.77,173.26,145,196,145,196l14.65,10A163.3,163.3,0,0,0,171,187.15C175.35,178.09,170.53,169.88,163.07,171.59Z"/>
        <g>
          <path class="cls-17" d="M173.74,172.14c-.84-1.83-1.75-3.92.14-4.57,2.09-.72,13.53-1.46,17.47-.11a4.06,4.06,0,0,1,2.85,5l0,.08Z"/>
          <path class="cls-16" d="M167.58,184.72l-10.41,19.61,2.46,1.67s4.71-6.57,8-12.25Z"/>
          <path class="cls-9" d="M207.46,181.6c1.57,8-2.11,27-2.07,58H163.76c-.28-6.27,4.28-21.1-1.38-50.66-.19-1-.27-17.15.69-17.32a108.36,108.36,0,0,1,12.19-1.44,153.7,153.7,0,0,1,17.7,0c2.4.24,6.2,1.74,8.59,2.6C205.29,174.09,206.69,177.7,207.46,181.6Z"/>
          <path class="cls-16" d="M196.44,189.55c1.09,6.57,5.39,15.25,9.69,20.34.17-3.73.54-7.62.53-10.61Z"/>
        </g>
        <path class="cls-9" d="M193.48,179.67c-1,7.37,13.5,26.19,13.5,26.19l14.59-10s-4-10.37-10.86-17.17C203,170.89,194.62,171.65,193.48,179.67Z"/>
        <g>
          <polygon class="cls-23" points="241.17 342.79 248.95 342.79 250.72 324.76 242.94 324.76 241.17 342.79"/>
          <polygon class="cls-16" points="250.6 325.86 249.7 335.15 241.91 335.15 242.82 325.86 250.6 325.86"/>
        </g>
        <g>
          <polygon class="cls-23" points="210.48 342.79 218.26 342.79 222.17 324.76 214.39 324.76 210.48 342.79"/>
          <g class="cls-24">
            <polygon points="214.22 325.72 222 325.72 219.98 335.01 212.2 335.01 214.22 325.72"/>
          </g>
        </g>
        <path class="cls-17" d="M249.39,339.3H240.9a.75.75,0,0,0-.67.69l-1.54,8.91a1.51,1.51,0,0,0,.84,1.76.86.86,0,0,0,.28,0c3.06-.07,7.49-.3,11.34-.3,4.51,0,8.4.31,13.68.31,3.2,0,4.09-4.18,2.75-4.55-6.09-1.73-11.06-1.91-16.32-6.11A3.06,3.06,0,0,0,249.39,339.3Z"/>
        <g>
          <path class="cls-9" d="M255.57,342.19c1,0,2-.14,2.29-.59a.71.71,0,0,0,0-.81,1,1,0,0,0-.58-.43c-1.3-.35-4,1.2-4.13,1.27a.17.17,0,0,0-.09.19.18.18,0,0,0,.14.15A13.4,13.4,0,0,0,255.57,342.19Zm1.24-1.51a1,1,0,0,1,.35,0,.56.56,0,0,1,.36.26c.13.23.09.34,0,.4-.36.51-2.33.52-3.78.31A8.29,8.29,0,0,1,256.81,340.68Z"/>
          <path class="cls-9" d="M253.22,342h.08c.94-.42,2.8-2.1,2.65-3,0-.21-.18-.46-.68-.52a1.37,1.37,0,0,0-1,.32c-1,.81-1.2,2.91-1.21,3a.18.18,0,0,0,.07.17A.12.12,0,0,0,253.22,342Zm1.9-3.15h.11c.33,0,.35.17.36.21.09.53-1.18,1.85-2.14,2.42a4.33,4.33,0,0,1,1-2.39A1,1,0,0,1,255.12,338.82Z"/>
        </g>
        <path class="cls-17" d="M218.81,339.3h-8.74a.74.74,0,0,0-.66.69l-1.54,8.91a1.53,1.53,0,0,0,.88,1.77,1.09,1.09,0,0,0,.26,0c3.05-.07,4.54-.3,8.38-.3,2.37,0,5.4.31,8.67.31s3.69-4.18,2.35-4.55c-6-1.7-6.41-4-8.33-6.28A1.64,1.64,0,0,0,218.81,339.3Z"/>
        <g>
          <path class="cls-9" d="M223.38,343.18a2.52,2.52,0,0,0,1.87-.51.77.77,0,0,0,0-.87.87.87,0,0,0-.58-.43c-1.14-.27-3.29,1.2-3.38,1.26a.21.21,0,0,0-.08.19.17.17,0,0,0,.14.14A9.15,9.15,0,0,0,223.38,343.18Zm1-1.48h.22a.47.47,0,0,1,.34.24c.17.31.07.43,0,.48-.33.43-1.92.44-3.09.25a6,6,0,0,1,2.51-1Z"/>
          <path class="cls-9" d="M221.4,343h.08c.81-.44,2.37-2.14,2.2-3a.61.61,0,0,0-.59-.49,1,1,0,0,0-.78.24c-.9.74-1.09,3-1.1,3.08a.2.2,0,0,0,.09.17Zm1.57-3.15h.08c.24,0,.26.14.27.19.1.51-.9,1.8-1.7,2.41a4.34,4.34,0,0,1,.92-2.44.67.67,0,0,1,.43-.16Z"/>
        </g>
        <g>
          <g>
            <path class="cls-17" d="M192.91,239.58s36.85,15.21,44.46,26.91c-4.53,29.74-12.66,63.62-12.66,63.62H210.86a274.11,274.11,0,0,1,3.58-43.76c2-36.35-63.41,1.26-50.7-46.77Z"/>
            <path class="cls-25" d="M218.38,264.65a66.32,66.32,0,0,0-7.69.89l-8.08,1.24a121.46,121.46,0,0,0,13.16,9.62c2.79,1.76,5.82,3.46,9.12,3.48,3.69,0,13.73-4.75,12.07-9.67S222.58,264.49,218.38,264.65Z"/>
          </g>
          <path class="cls-17" d="M205.39,239.58s34.06,4.39,52.83,15.09c5.79,3.29,5,13.86,4.83,20.82a164.81,164.81,0,0,1-10.62,54.62H240.87s.59-18.87.2-49.32c-.12-9.13-18.55-12.14-36.56-13.2a41,41,0,0,1-35.24-25.07L168,239.58Z"/>
          <path class="cls-9" d="M255.26,327c.06,0-.75,5.47-.75,5.47h-16l-.44-4.88Z"/>
          <path class="cls-9" d="M226.06,327c.06,0-1.47,5.47-1.47,5.47h-16l.29-4.88Z"/>
        </g>
        <g>
          <g>
            <polygon class="cls-9" points="183.06 267.18 171.6 351.68 169.53 351.4 178.37 266.54 183.06 267.18"/>
            <polygon class="cls-26" points="182.65 270.2 171.6 351.68 169.53 351.4 177.99 270.19 182.65 270.2"/>
          </g>
          <g>
            <path class="cls-9" d="M223.39,270.2h-65a7.42,7.42,0,0,1,7.42-7.42H216a7.42,7.42,0,0,1,7.42,7.42Z"/>
            <path class="cls-21" d="M223.39,270.2h-65a7.42,7.42,0,0,1,7.42-7.42H216a7.42,7.42,0,0,1,7.42,7.42Z"/>
          </g>
          <polygon class="cls-9" points="161.4 270.19 151.6 352.35 153.7 352.35 166.13 270.19 161.4 270.19"/>
          <g>
            <polygon class="cls-9" points="220.38 270.19 230.18 352.35 228.08 352.35 215.66 270.19 220.38 270.19"/>
            <polygon class="cls-26" points="220.38 270.19 230.18 352.35 228.08 352.35 215.66 270.19 220.38 270.19"/>
          </g>
          <polygon class="cls-9" points="207.27 270.19 207.46 352.35 205.37 352.35 202.54 270.19 207.27 270.19"/>
        </g>
      </g>
    </g>
  </g>
</svg>
