<svg xmlns="http://www.w3.org/2000/svg" width="999" height="692" viewBox="0 0 999 692">
  <g id="Grupo_12133" data-name="Grupo 12133" transform="translate(-6821 4831)">
    <path id="Trazado_10687" data-name="Trazado 10687" d="M0,0H211V60H0Z" transform="translate(6821 -4690)" fill="#cbd9e4"/>
    <path id="Trazado_10688" data-name="Trazado 10688" d="M0,0H322V60H0Z" transform="translate(7045 -4690)" fill="#cbd9e4"/>
    <path id="Trazado_10684" data-name="Trazado 10684" d="M0,0H999V60H0Z" transform="translate(6821 -4831)" fill="#cbd9e4"/>
    <path id="Trazado_10701" data-name="Trazado 10701" d="M0,0H219V60H0Z" transform="translate(7381 -4690)" fill="#cbd9e4"/>
    <path id="Trazado_10732" data-name="Trazado 10732" d="M0,0H206V60H0Z" transform="translate(7614 -4690)" fill="#cbd9e4"/>
    <path id="Trazado_10689" data-name="Trazado 10689" d="M72.332,15.192A5.8,5.8,0,1,0,66.2,9.4,5.8,5.8,0,0,0,72.332,15.192Zm0-2.208a3.417,3.417,0,0,1-3.5-3.584,3.5,3.5,0,1,1,7.008,0A3.417,3.417,0,0,1,72.332,12.984Zm12.992-6.72a3.344,3.344,0,0,0-2.7,1.12V6.392H80.236V18.1h2.5V14.088a3.342,3.342,0,0,0,2.592,1.04A4.181,4.181,0,0,0,89.612,10.7,4.181,4.181,0,0,0,85.324,6.264Zm-.432,6.816A2.172,2.172,0,0,1,82.7,10.7a2.2,2.2,0,1,1,4.384,0A2.172,2.172,0,0,1,84.892,13.08Zm14.816-2.352a4.261,4.261,0,0,0-4.48-4.464A4.382,4.382,0,0,0,90.636,10.7c0,2.56,1.936,4.432,4.912,4.432A4.508,4.508,0,0,0,99.1,13.736L97.772,12.3a2.918,2.918,0,0,1-2.16.832A2.3,2.3,0,0,1,93.148,11.4H99.66C99.676,11.192,99.708,10.92,99.708,10.728ZM95.244,8.152a2.045,2.045,0,0,1,2.112,1.792h-4.24A2.038,2.038,0,0,1,95.244,8.152Zm8.512-.624V6.392h-2.384V15h2.5V10.936a2.115,2.115,0,0,1,2.288-2.4c.192,0,.352.016.56.032v-2.3A3.474,3.474,0,0,0,103.756,7.528Zm7.872-1.264a6.617,6.617,0,0,0-3.712,1.04l.9,1.744a4.139,4.139,0,0,1,2.48-.8c1.344,0,1.984.624,1.984,1.7h-1.984c-2.624,0-3.7,1.056-3.7,2.576,0,1.488,1.2,2.608,3.216,2.608a2.825,2.825,0,0,0,2.624-1.2V15h2.336V10.088C115.772,7.48,114.252,6.264,111.628,6.264Zm-.192,7.184c-.88,0-1.408-.416-1.408-1.04,0-.576.368-1.008,1.536-1.008h1.712v.88A1.839,1.839,0,0,1,111.436,13.448ZM124.4,3.128V7.3a3.307,3.307,0,0,0-2.576-1.04,4.184,4.184,0,0,0-4.3,4.432,4.184,4.184,0,0,0,4.3,4.432,3.311,3.311,0,0,0,2.688-1.12V15h2.384V3.128Zm-2.144,9.952a2.184,2.184,0,0,1-2.208-2.384,2.207,2.207,0,1,1,4.4,0A2.181,2.181,0,0,1,122.252,13.08Zm11.04,2.048a4.442,4.442,0,1,0-4.736-4.432A4.418,4.418,0,0,0,133.292,15.128Zm0-2.048a2.184,2.184,0,0,1-2.208-2.384,2.207,2.207,0,1,1,4.4,0A2.172,2.172,0,0,1,133.292,13.08Zm8.768-5.552V6.392h-2.384V15h2.5V10.936a2.115,2.115,0,0,1,2.288-2.4c.192,0,.352.016.56.032v-2.3A3.474,3.474,0,0,0,142.06,7.528Z" transform="translate(6821 -4671)" fill="#002b45"/>
    <path id="Trazado_10685" data-name="Trazado 10685" d="M386.62,15.192A5.8,5.8,0,1,0,380.492,9.4,5.8,5.8,0,0,0,386.62,15.192Zm0-2.208a3.417,3.417,0,0,1-3.5-3.584,3.5,3.5,0,1,1,7.008,0A3.417,3.417,0,0,1,386.62,12.984ZM399.548,3.8H394.7V15h2.592V11.912h2.256c2.992,0,4.864-1.552,4.864-4.048C404.412,5.352,402.54,3.8,399.548,3.8Zm-.144,6h-2.112V5.912H399.4c1.584,0,2.384.72,2.384,1.952C401.788,9.08,400.988,9.8,399.4,9.8Zm9.424,3.12V10.328h5.2V8.312h-5.2V5.88h5.888V3.8h-8.464V15h8.672V12.92ZM426.908,15,424.4,11.4a3.641,3.641,0,0,0,2.3-3.536c0-2.512-1.872-4.064-4.864-4.064h-4.848V15h2.592V11.88h2.384l2.16,3.12Zm-2.832-7.136c0,1.216-.8,1.952-2.384,1.952H419.58v-3.9h2.112C423.276,5.912,424.076,6.632,424.076,7.864ZM437.116,15h2.72L434.828,3.8h-2.56L427.276,15h2.656l.992-2.4h5.2Zm-5.36-4.368,1.776-4.288,1.776,4.288ZM441,15h5.088c3.664,0,6.176-2.208,6.176-5.6s-2.512-5.6-6.176-5.6H441Zm2.592-2.128V5.928h2.368a3.343,3.343,0,0,1,3.68,3.472,3.343,3.343,0,0,1-3.68,3.472Zm16.048,2.32A5.8,5.8,0,1,0,453.516,9.4,5.8,5.8,0,0,0,459.644,15.192Zm0-2.208a3.417,3.417,0,0,1-3.5-3.584,3.5,3.5,0,1,1,7.008,0A3.417,3.417,0,0,1,459.644,12.984Zm18,2.016-2.512-3.6a3.641,3.641,0,0,0,2.3-3.536c0-2.512-1.872-4.064-4.864-4.064h-4.848V15h2.592V11.88H472.7L474.86,15Zm-2.832-7.136c0,1.216-.8,1.952-2.384,1.952h-2.112v-3.9h2.112C474.012,5.912,474.812,6.632,474.812,7.864Zm7.248,5.056V10.328h5.2V8.312h-5.2V5.88h5.888V3.8h-8.464V15h8.672V12.92Zm11.84,2.272c3.2,0,4.752-1.6,4.752-3.472,0-4.112-6.512-2.688-6.512-4.752,0-.7.592-1.28,2.128-1.28a6.326,6.326,0,0,1,3.1.88l.8-1.968a7.513,7.513,0,0,0-3.888-.992c-3.184,0-4.72,1.584-4.72,3.488,0,4.16,6.512,2.72,6.512,4.816,0,.688-.624,1.2-2.16,1.2a6.588,6.588,0,0,1-3.7-1.168l-.88,1.952A7.983,7.983,0,0,0,493.9,15.192ZM513.324,15h2.72L511.036,3.8h-2.56L503.484,15h2.656l.992-2.4h5.2Zm-5.36-4.368,1.776-4.288,1.776,4.288ZM527.132,15l-2.512-3.6a3.641,3.641,0,0,0,2.3-3.536c0-2.512-1.872-4.064-4.864-4.064h-4.848V15H519.8V11.88h2.384l2.16,3.12ZM524.3,7.864c0,1.216-.8,1.952-2.384,1.952H519.8v-3.9h2.112C523.5,5.912,524.3,6.632,524.3,7.864ZM528.972,15h2.592V3.8h-2.592Zm7.568,0h2.592V5.912h3.584V3.8h-9.76V5.912h3.584Zm20.192,0L556.7,3.8h-2.128l-4.128,6.96L546.252,3.8h-2.144V15h2.432V8.424l3.28,5.392h1.168l3.3-5.536L554.3,15ZM567.02.584h-2.688l-2.16,2.3h1.952ZM561.964,12.92V10.328h5.2V8.312h-5.2V5.88h5.888V3.8h-8.464V15h8.672V12.92ZM572.444,15h2.592V5.912h3.584V3.8h-9.76V5.912h3.584Zm7.568,0H582.6V3.8h-2.592Zm10.608.192a5.755,5.755,0,0,0,4.624-2l-1.664-1.536a3.569,3.569,0,0,1-2.816,1.328A3.436,3.436,0,0,1,587.18,9.4a3.436,3.436,0,0,1,3.584-3.584,3.6,3.6,0,0,1,2.816,1.312l1.664-1.536a5.964,5.964,0,1,0-4.624,9.6Zm11.552,0A5.8,5.8,0,1,0,596.044,9.4,5.8,5.8,0,0,0,602.172,15.192Zm0-2.208a3.417,3.417,0,0,1-3.5-3.584,3.5,3.5,0,1,1,7.008,0A3.417,3.417,0,0,1,602.172,12.984Zm11.76,2.208c3.2,0,4.752-1.6,4.752-3.472,0-4.112-6.512-2.688-6.512-4.752,0-.7.592-1.28,2.128-1.28a6.326,6.326,0,0,1,3.1.88l.8-1.968a7.513,7.513,0,0,0-3.888-.992c-3.184,0-4.72,1.584-4.72,3.488,0,4.16,6.512,2.72,6.512,4.816,0,.688-.624,1.2-2.16,1.2a6.588,6.588,0,0,1-3.7-1.168l-.88,1.952A7.983,7.983,0,0,0,613.932,15.192Z" transform="translate(6821 -4810)" fill="#002b45"/>
    <path id="Trazado_10690" data-name="Trazado 10690" d="M136.816,5.88V3.8h-8.464V15h2.592V10.92h5.184V8.84h-5.184V5.88Zm7.536.512v4.256c0,1.584-.832,2.32-1.984,2.32-1.1,0-1.744-.64-1.744-2.08v-4.5h-2.5v4.864c0,2.656,1.52,3.872,3.68,3.872a3.483,3.483,0,0,0,2.672-1.152V15h2.368V6.392ZM154.4,6.264A3.769,3.769,0,0,0,151.552,7.4V6.392h-2.384V15h2.5V10.744c0-1.584.864-2.32,2.064-2.32,1.1,0,1.744.64,1.744,2.032V15h2.5V10.072C157.968,7.448,156.432,6.264,154.4,6.264Zm10.08,8.864a3.993,3.993,0,0,0,3.856-2.176L166.4,11.9a2.118,2.118,0,0,1-1.936,1.184,2.2,2.2,0,0,1-2.256-2.384,2.2,2.2,0,0,1,2.256-2.384A2.146,2.146,0,0,1,166.4,9.5l1.936-1.04a3.954,3.954,0,0,0-3.856-2.192c-2.8,0-4.8,1.84-4.8,4.432S161.68,15.128,164.48,15.128Zm6.544-9.936a1.435,1.435,0,0,0,1.552-1.44,1.4,1.4,0,0,0-1.552-1.344A1.427,1.427,0,0,0,169.472,3.8,1.427,1.427,0,0,0,171.024,5.192ZM169.776,15h2.5V6.392h-2.5ZM177.2,5.288h1.952l2.9-2.3H179.36Zm1.488,9.84a4.442,4.442,0,1,0-4.736-4.432A4.418,4.418,0,0,0,178.688,15.128Zm0-2.048A2.184,2.184,0,0,1,176.48,10.7a2.207,2.207,0,1,1,4.4,0A2.172,2.172,0,0,1,178.688,13.08ZM190.3,6.264A3.769,3.769,0,0,0,187.456,7.4V6.392h-2.384V15h2.5V10.744c0-1.584.864-2.32,2.064-2.32,1.1,0,1.744.64,1.744,2.032V15h2.5V10.072C193.872,7.448,192.336,6.264,190.3,6.264Z" transform="translate(7045 -4671)" fill="#002b45"/>
    <path id="Trazado_10702" data-name="Trazado 10702" d="M78.472,12.92V10.328h5.2V8.312h-5.2V5.88H84.36V3.8H75.9V15h8.672V12.92Zm9.344-7.728a1.435,1.435,0,0,0,1.552-1.44,1.4,1.4,0,0,0-1.552-1.344A1.427,1.427,0,0,0,86.264,3.8,1.427,1.427,0,0,0,87.816,5.192Zm-2,13.04a2.986,2.986,0,0,0,3.248-3.248V6.392h-2.5V15c0,.848-.4,1.248-1.024,1.248a1.83,1.83,0,0,1-1.056-.3l-.672,1.808A3.635,3.635,0,0,0,85.816,18.232Zm13.984-7.5a4.261,4.261,0,0,0-4.48-4.464A4.382,4.382,0,0,0,90.728,10.7c0,2.56,1.936,4.432,4.912,4.432a4.508,4.508,0,0,0,3.552-1.392L97.864,12.3a2.918,2.918,0,0,1-2.16.832A2.3,2.3,0,0,1,93.24,11.4h6.512C99.768,11.192,99.8,10.92,99.8,10.728ZM95.336,8.152a2.045,2.045,0,0,1,2.112,1.792h-4.24A2.038,2.038,0,0,1,95.336,8.152Zm17.152-1.888a3.871,3.871,0,0,0-3.1,1.408,3.213,3.213,0,0,0-2.832-1.408,3.486,3.486,0,0,0-2.7,1.12V6.392h-2.384V15h2.5V10.68c0-1.536.784-2.256,1.888-2.256,1.04,0,1.632.64,1.632,2.032V15h2.5V10.68c0-1.536.784-2.256,1.9-2.256,1.008,0,1.632.64,1.632,2.032V15h2.5V10.072C116.008,7.448,114.536,6.264,112.488,6.264Zm10.848,0a3.344,3.344,0,0,0-2.7,1.12V6.392h-2.384V18.1h2.5V14.088a3.342,3.342,0,0,0,2.592,1.04,4.181,4.181,0,0,0,4.288-4.432A4.181,4.181,0,0,0,123.336,6.264ZM122.9,13.08a2.172,2.172,0,0,1-2.192-2.384,2.2,2.2,0,1,1,4.384,0A2.172,2.172,0,0,1,122.9,13.08ZM129.288,15h2.5V3.128h-2.5Zm8.912.128a4.442,4.442,0,1,0-4.736-4.432A4.418,4.418,0,0,0,138.2,15.128Zm0-2.048a2.184,2.184,0,0,1-2.208-2.384,2.207,2.207,0,1,1,4.4,0A2.172,2.172,0,0,1,138.2,13.08Z" transform="translate(7381 -4671)" fill="#002b45"/>
    <path id="Trazado_10733" data-name="Trazado 10733" d="M71.616,15,69.1,11.4a3.641,3.641,0,0,0,2.3-3.536c0-2.512-1.872-4.064-4.864-4.064H61.7V15h2.592V11.88h2.384L68.832,15ZM68.784,7.864c0,1.216-.8,1.952-2.384,1.952H64.288v-3.9H66.4C67.984,5.912,68.784,6.632,68.784,7.864Zm12.928,2.864a4.261,4.261,0,0,0-4.48-4.464A4.382,4.382,0,0,0,72.64,10.7c0,2.56,1.936,4.432,4.912,4.432A4.508,4.508,0,0,0,81.1,13.736L79.776,12.3a2.918,2.918,0,0,1-2.16.832A2.3,2.3,0,0,1,75.152,11.4h6.512C81.68,11.192,81.712,10.92,81.712,10.728ZM77.248,8.152A2.045,2.045,0,0,1,79.36,9.944H75.12A2.038,2.038,0,0,1,77.248,8.152Zm9.024,6.976c2.576,0,4.064-1.136,4.064-2.736,0-3.392-5.2-1.968-5.2-3.44,0-.448.48-.8,1.6-.8a4.943,4.943,0,0,1,2.48.64l.832-1.776a7.078,7.078,0,0,0-3.312-.752c-2.512,0-3.984,1.152-3.984,2.784,0,3.44,5.2,2,5.2,3.408,0,.48-.432.784-1.584.784a5.889,5.889,0,0,1-2.992-.832L82.544,14.2A7.39,7.39,0,0,0,86.272,15.128ZM98.048,6.392v4.256c0,1.584-.832,2.32-1.984,2.32-1.1,0-1.744-.64-1.744-2.08v-4.5h-2.5v4.864c0,2.656,1.52,3.872,3.68,3.872a3.483,3.483,0,0,0,2.672-1.152V15h2.368V6.392ZM102.864,15h2.5V3.128h-2.5Zm10.32-2.176a1.682,1.682,0,0,1-1.008.32,1,1,0,0,1-1.072-1.136V8.5h2.144V6.584H111.1v-2.1h-2.5v2.1H107.28V8.5h1.328V12.04c0,2.048,1.184,3.088,3.216,3.088a3.567,3.567,0,0,0,2.032-.544Zm5.552-6.56a6.617,6.617,0,0,0-3.712,1.04l.9,1.744a4.139,4.139,0,0,1,2.48-.8c1.344,0,1.984.624,1.984,1.7H118.4c-2.624,0-3.7,1.056-3.7,2.576,0,1.488,1.2,2.608,3.216,2.608a2.825,2.825,0,0,0,2.624-1.2V15h2.336V10.088C122.88,7.48,121.36,6.264,118.736,6.264Zm-.192,7.184c-.88,0-1.408-.416-1.408-1.04,0-.576.368-1.008,1.536-1.008h1.712v.88A1.839,1.839,0,0,1,118.544,13.448ZM131.5,3.128V7.3a3.307,3.307,0,0,0-2.576-1.04,4.184,4.184,0,0,0-4.3,4.432,4.184,4.184,0,0,0,4.3,4.432,3.311,3.311,0,0,0,2.688-1.12V15H134V3.128ZM129.36,13.08a2.184,2.184,0,0,1-2.208-2.384,2.207,2.207,0,1,1,4.4,0A2.181,2.181,0,0,1,129.36,13.08Zm11.04,2.048a4.442,4.442,0,1,0-4.736-4.432A4.418,4.418,0,0,0,140.4,15.128Zm0-2.048a2.184,2.184,0,0,1-2.208-2.384,2.207,2.207,0,1,1,4.4,0A2.172,2.172,0,0,1,140.4,13.08Z" transform="translate(7614 -4671)" fill="#002b45"/>
    <path id="Trazado_10691" data-name="Trazado 10691" d="M0,0H211V53H0Z" transform="translate(6821 -4618)" fill="#eef0f2"/>
    <path id="Trazado_10692" data-name="Trazado 10692" d="M0,0H211V53H0Z" transform="translate(6821 -4547)" fill="#eef0f2"/>
    <path id="Trazado_10693" data-name="Trazado 10693" d="M0,0H211V53H0Z" transform="translate(6821 -4476)" fill="#eef0f2"/>
    <path id="Trazado_10703" data-name="Trazado 10703" d="M0,0H211V53H0Z" transform="translate(6821 -4405)" fill="#eef0f2"/>
    <path id="Trazado_10717" data-name="Trazado 10717" d="M0,0H211V53H0Z" transform="translate(6821 -4334)" fill="#eef0f2"/>
    <path id="Trazado_10723" data-name="Trazado 10723" d="M0,0H211V53H0Z" transform="translate(6821 -4263)" fill="#eef0f2"/>
    <path id="Trazado_10729" data-name="Trazado 10729" d="M0,0H211V53H0Z" transform="translate(6821 -4192)" fill="#eef0f2"/>
    <path id="Trazado_10694" data-name="Trazado 10694" d="M0,0H322V53H0Z" transform="translate(7045 -4618)" fill="#eef0f2"/>
    <path id="Trazado_10695" data-name="Trazado 10695" d="M0,0H322V53H0Z" transform="translate(7045 -4547)" fill="#eef0f2"/>
    <path id="Trazado_10696" data-name="Trazado 10696" d="M0,0H322V53H0Z" transform="translate(7045 -4476)" fill="#eef0f2"/>
    <path id="Trazado_10704" data-name="Trazado 10704" d="M0,0H322V53H0Z" transform="translate(7045 -4405)" fill="#eef0f2"/>
    <path id="Trazado_10718" data-name="Trazado 10718" d="M0,0H322V53H0Z" transform="translate(7045 -4334)" fill="#eef0f2"/>
    <path id="Trazado_10724" data-name="Trazado 10724" d="M0,0H322V53H0Z" transform="translate(7045 -4263)" fill="#eef0f2"/>
    <path id="Trazado_10730" data-name="Trazado 10730" d="M0,0H322V53H0Z" transform="translate(7045 -4192)" fill="#eef0f2"/>
    <path id="Trazado_10705" data-name="Trazado 10705" d="M0,0H219V53H0Z" transform="translate(7381 -4618)" fill="#eef0f2"/>
    <path id="Trazado_10706" data-name="Trazado 10706" d="M0,0H219V53H0Z" transform="translate(7381 -4547)" fill="#eef0f2"/>
    <path id="Trazado_10707" data-name="Trazado 10707" d="M0,0H219V53H0Z" transform="translate(7381 -4476)" fill="#eef0f2"/>
    <path id="Trazado_10708" data-name="Trazado 10708" d="M0,0H219V53H0Z" transform="translate(7381 -4405)" fill="#eef0f2"/>
    <path id="Trazado_10719" data-name="Trazado 10719" d="M0,0H219V53H0Z" transform="translate(7381 -4334)" fill="#eef0f2"/>
    <path id="Trazado_10725" data-name="Trazado 10725" d="M0,0H219V53H0Z" transform="translate(7381 -4263)" fill="#eef0f2"/>
    <path id="Trazado_10731" data-name="Trazado 10731" d="M0,0H219V53H0Z" transform="translate(7381 -4192)" fill="#eef0f2"/>
    <path id="Trazado_10734" data-name="Trazado 10734" d="M0,0H206V53H0Z" transform="translate(7614 -4618)" fill="#eef0f2"/>
    <path id="Trazado_10735" data-name="Trazado 10735" d="M0,0H206V53H0Z" transform="translate(7614 -4547)" fill="#eef0f2"/>
    <path id="Trazado_10736" data-name="Trazado 10736" d="M0,0H206V53H0Z" transform="translate(7614 -4476)" fill="#eef0f2"/>
    <path id="Trazado_10737" data-name="Trazado 10737" d="M0,0H206V53H0Z" transform="translate(7614 -4405)" fill="#eef0f2"/>
    <path id="Trazado_10738" data-name="Trazado 10738" d="M0,0H206V53H0Z" transform="translate(7614 -4334)" fill="#eef0f2"/>
    <path id="Trazado_10739" data-name="Trazado 10739" d="M0,0H206V53H0Z" transform="translate(7614 -4263)" fill="#eef0f2"/>
    <path id="Trazado_10740" data-name="Trazado 10740" d="M0,0H206V53H0Z" transform="translate(7614 -4192)" fill="#eef0f2"/>
    <path id="Trazado_10697" data-name="Trazado 10697" d="M104.88,15.189V11.63h-3.56V10.382h3.56V6.84h1.248v3.542h3.542V11.63h-3.542v3.56Z" transform="translate(6821 -4602)" fill="#00223d"/>
    <path id="Trazado_10698" data-name="Trazado 10698" d="M102.345,12.948V11.691h6.3v1.257Z" transform="translate(6821 -4531)" fill="#00223d"/>
    <path id="Trazado_10709" data-name="Trazado 10709" d="M104.349,9.02l-.782-.475,1.31-1.758q.141-.185.07-.312t-.3-.092l-2.224.2V5.68l2.224.22q.22.035.294-.1t-.066-.308l-1.31-1.8.782-.431.923,1.986q.1.211.237.211t.229-.211l.914-1.986.791.431-1.318,1.8q-.141.176-.066.308t.294.1l2.215-.22v.905l-2.215-.2q-.229-.035-.3.088t.07.316l1.318,1.758-.791.475-.914-2q-.088-.211-.229-.215t-.237.215Z" transform="translate(6821 -4460)" fill="#00223d"/>
    <path id="Trazado_10710" data-name="Trazado 10710" d="M100.407,20.27,109.125,3.5h1.468l-8.719,16.77Z" transform="translate(6821 -4389)" fill="#00223d"/>
    <path id="Trazado_10720" data-name="Trazado 10720" d="M102.371,9.556a2.431,2.431,0,0,1-1.789-.747A2.473,2.473,0,0,1,99.84,7a2.467,2.467,0,0,1,.743-1.8,2.509,2.509,0,0,1,3.582,0A2.475,2.475,0,0,1,104.9,7a2.485,2.485,0,0,1-.738,1.806A2.42,2.42,0,0,1,102.371,9.556Zm-.905,7.453,6.592-12.4h1.389l-6.592,12.4Zm.905-8.561a1.388,1.388,0,0,0,1.033-.426A1.411,1.411,0,0,0,103.821,7a1.385,1.385,0,0,0-.422-1.024,1.47,1.47,0,0,0-2.052,0A1.378,1.378,0,0,0,100.921,7a1.448,1.448,0,0,0,1.45,1.45Zm6.275,8.71a2.545,2.545,0,0,1-1.8-4.346,2.463,2.463,0,0,1,1.8-.743,2.406,2.406,0,0,1,1.775.747,2.562,2.562,0,0,1,0,3.595A2.4,2.4,0,0,1,108.646,17.158Zm0-1.1a1.471,1.471,0,0,0,1.459-1.45,1.385,1.385,0,0,0-.431-1.028,1.48,1.48,0,0,0-2.065,0,1.457,1.457,0,0,0,1.037,2.483Z" transform="translate(6821 -4318)" fill="#00223d"/>
    <path id="Trazado_10726" data-name="Trazado 10726" d="M100,9.02l-.782-.475,1.31-1.758q.141-.185.07-.312t-.3-.092l-2.224.2V5.68l2.224.22q.22.035.294-.1t-.066-.308l-1.31-1.8L100,3.263l.923,1.986q.1.211.237.211t.229-.211l.914-1.986.791.431-1.318,1.8q-.141.176-.066.308t.294.1l2.215-.22v.905L102,6.383q-.229-.035-.3.088t.07.316l1.318,1.758-.791.475-.914-2q-.088-.211-.229-.215t-.237.215Zm8.7,0-.782-.475,1.31-1.758q.141-.185.07-.312t-.3-.092l-2.224.2V5.68L109,5.9q.22.035.294-.1t-.066-.308l-1.31-1.8.782-.431.923,1.986q.1.211.237.211t.229-.211L111,3.263l.791.431-1.318,1.8q-.141.176-.066.308t.294.1l2.215-.22v.905l-2.215-.2q-.229-.035-.3.088t.07.316l1.318,1.758L111,9.02l-.914-2q-.088-.211-.229-.215t-.237.215Z" transform="translate(6821 -4247)" fill="#00223d"/>
    <path id="Trazado_10741" data-name="Trazado 10741" d="M97.15,20.27,105.869,3.5h1.468L98.618,20.27Zm6.513,0L112.382,3.5h1.468l-8.719,16.77Z" transform="translate(6821 -4176)" fill="#00223d"/>
    <path id="Trazado_10699" data-name="Trazado 10699" d="M143.391,16.148a5.021,5.021,0,0,1-2.871-.777,3.291,3.291,0,0,1-1.434-2.137L140.5,12.9a2.319,2.319,0,0,0,.992,1.5,3.355,3.355,0,0,0,1.945.547,4.058,4.058,0,0,0,.727-.062,2.779,2.779,0,0,0,.66-.207,2.021,2.021,0,0,0,.543-.355,1.484,1.484,0,0,0,.359-.539,1.845,1.845,0,0,0,.125-.734,1.588,1.588,0,0,0-.1-.52,1.649,1.649,0,0,0-.219-.41,1.473,1.473,0,0,0-.371-.332,4.972,4.972,0,0,0-.445-.266,4.026,4.026,0,0,0-.551-.223q-.348-.117-.582-.184l-.633-.176q-.078-.023-.117-.031-.453-.117-.738-.2t-.684-.238a4.5,4.5,0,0,1-.652-.3,4.416,4.416,0,0,1-.535-.375,1.921,1.921,0,0,1-.441-.488,2.577,2.577,0,0,1-.266-.621,2.764,2.764,0,0,1-.105-.781,2.79,2.79,0,0,1,.512-1.687,2.994,2.994,0,0,1,1.32-1.031,4.793,4.793,0,0,1,1.816-.328,4.973,4.973,0,0,1,2.645.676,3.011,3.011,0,0,1,1.4,2l-1.359.344a2.069,2.069,0,0,0-.914-1.352,3.132,3.132,0,0,0-1.719-.453,3.4,3.4,0,0,0-.844.1,2.507,2.507,0,0,0-.73.313,1.517,1.517,0,0,0-.527.574,1.746,1.746,0,0,0-.2.84,1.35,1.35,0,0,0,.078.465,1.427,1.427,0,0,0,.2.371,1.391,1.391,0,0,0,.336.3,3.411,3.411,0,0,0,.41.242,4.157,4.157,0,0,0,.512.2q.32.105.547.172t.6.16a12.727,12.727,0,0,1,2.117.7,2.679,2.679,0,0,1,1.633,2.023,3.489,3.489,0,0,1,.031.477,3.074,3.074,0,0,1-.316,1.422,2.565,2.565,0,0,1-.867.984,4.146,4.146,0,0,1-1.234.551A5.661,5.661,0,0,1,143.391,16.148ZM154.352,8.32H155.7V16h-1.3l-.031-1.016a2.4,2.4,0,0,1-.953.863,2.932,2.932,0,0,1-1.344.3,2.671,2.671,0,0,1-1.934-.7,2.594,2.594,0,0,1-.723-1.961V8.32h1.352v4.867a1.822,1.822,0,0,0,.473,1.375,1.673,1.673,0,0,0,1.207.453,1.837,1.837,0,0,0,1.363-.531,2.164,2.164,0,0,0,.535-1.57ZM166.3,8.172a2.476,2.476,0,0,1,1.789.652,2.42,2.42,0,0,1,.68,1.832V16h-1.352V11.008A1.735,1.735,0,0,0,167,9.742a1.436,1.436,0,0,0-1.07-.43,1.517,1.517,0,0,0-1.172.484,2.083,2.083,0,0,0-.445,1.453V16h-1.375V11.063a1.815,1.815,0,0,0-.426-1.309,1.448,1.448,0,0,0-1.09-.441,1.5,1.5,0,0,0-1.168.5A2.155,2.155,0,0,0,159.8,11.3V16h-1.352V8.32H159.8v.992a2.333,2.333,0,0,1,.879-.844,2.506,2.506,0,0,1,1.223-.3,2.609,2.609,0,0,1,1.313.324,2.018,2.018,0,0,1,.852.934,2.39,2.39,0,0,1,.922-.934A2.637,2.637,0,0,1,166.3,8.172Zm6.859,7.977a2.613,2.613,0,0,1-1.684-.527,1.894,1.894,0,0,1-.66-1.574,2.237,2.237,0,0,1,.211-1,1.77,1.77,0,0,1,.625-.7,3.749,3.749,0,0,1,.9-.434,8.341,8.341,0,0,1,1.168-.277l1.242-.2q.68-.125.68-.711a1.342,1.342,0,0,0-.48-1.145,1.958,1.958,0,0,0-1.215-.363,1.994,1.994,0,0,0-1.2.352,1.471,1.471,0,0,0-.57,1.078l-1.219-.258a2.346,2.346,0,0,1,.961-1.645,3.59,3.59,0,0,1,2.094-.551,4.247,4.247,0,0,1,1.113.137,3.026,3.026,0,0,1,.93.43,1.927,1.927,0,0,1,.664.828,3.081,3.081,0,0,1,.238,1.262v3.172a1.3,1.3,0,0,0,.176.8.759.759,0,0,0,.605.207h.125V16H177.2a1.281,1.281,0,0,1-1.453-1.039h-.062A2.935,2.935,0,0,1,173.164,16.148Zm.313-1.094a2.049,2.049,0,0,0,1.648-.742,3.056,3.056,0,0,0,.625-2.031l-2.031.391a2.734,2.734,0,0,0-1.191.426.99.99,0,0,0-.387.84.979.979,0,0,0,.371.844A1.586,1.586,0,0,0,173.477,15.055Zm7.617-5.383a2.322,2.322,0,0,1,.953-1.031,2.87,2.87,0,0,1,1.477-.406V9.508a2.53,2.53,0,0,0-1.785.57,2.382,2.382,0,0,0-.613,1.82V16h-1.352V8.32h1.32Z" transform="translate(7045 -4602)" fill="#00223d"/>
    <path id="Trazado_10686" data-name="Trazado 10686" d="M367.156,16.148a5.021,5.021,0,0,1-2.871-.777,3.291,3.291,0,0,1-1.434-2.137l1.414-.336a2.319,2.319,0,0,0,.992,1.5,3.355,3.355,0,0,0,1.945.547,4.058,4.058,0,0,0,.727-.062,2.779,2.779,0,0,0,.66-.207,2.021,2.021,0,0,0,.543-.355,1.484,1.484,0,0,0,.359-.539,1.845,1.845,0,0,0,.125-.734,1.588,1.588,0,0,0-.1-.52,1.65,1.65,0,0,0-.219-.41,1.473,1.473,0,0,0-.371-.332,4.976,4.976,0,0,0-.445-.266,4.024,4.024,0,0,0-.551-.223q-.348-.117-.582-.184l-.633-.176q-.078-.023-.117-.031-.453-.117-.738-.2t-.684-.238a4.5,4.5,0,0,1-.652-.3,4.415,4.415,0,0,1-.535-.375,1.921,1.921,0,0,1-.441-.488,2.577,2.577,0,0,1-.266-.621,2.764,2.764,0,0,1-.105-.781,2.79,2.79,0,0,1,.512-1.687,2.994,2.994,0,0,1,1.32-1.031,4.793,4.793,0,0,1,1.816-.328,4.973,4.973,0,0,1,2.645.676,3.011,3.011,0,0,1,1.4,2l-1.359.344a2.069,2.069,0,0,0-.914-1.352,3.132,3.132,0,0,0-1.719-.453,3.4,3.4,0,0,0-.844.1,2.507,2.507,0,0,0-.73.313,1.517,1.517,0,0,0-.527.574,1.746,1.746,0,0,0-.2.84,1.35,1.35,0,0,0,.078.465,1.427,1.427,0,0,0,.2.371,1.39,1.39,0,0,0,.336.3,3.414,3.414,0,0,0,.41.242,4.157,4.157,0,0,0,.512.2q.32.105.547.172t.6.16a12.728,12.728,0,0,1,2.117.7,2.679,2.679,0,0,1,1.633,2.023,3.487,3.487,0,0,1,.031.477,3.074,3.074,0,0,1-.316,1.422,2.565,2.565,0,0,1-.867.984,4.146,4.146,0,0,1-1.234.551A5.661,5.661,0,0,1,367.156,16.148Zm6.867-9.633a.92.92,0,0,1-.914-.914.867.867,0,0,1,.27-.641.886.886,0,0,1,.645-.266.877.877,0,0,1,.637.266.867.867,0,0,1,.27.641.88.88,0,0,1-.27.645A.871.871,0,0,1,374.023,6.516ZM373.336,16V8.32H374.7V16Zm14.2.148a2.613,2.613,0,0,1-1.684-.527,1.894,1.894,0,0,1-.66-1.574,2.237,2.237,0,0,1,.211-1,1.77,1.77,0,0,1,.625-.7,3.749,3.749,0,0,1,.9-.434,8.342,8.342,0,0,1,1.168-.277l1.242-.2q.68-.125.68-.711a1.342,1.342,0,0,0-.48-1.145,1.958,1.958,0,0,0-1.215-.363,1.994,1.994,0,0,0-1.2.352,1.471,1.471,0,0,0-.57,1.078l-1.219-.258a2.346,2.346,0,0,1,.961-1.645,3.59,3.59,0,0,1,2.094-.551,4.247,4.247,0,0,1,1.113.137,3.025,3.025,0,0,1,.93.43,1.927,1.927,0,0,1,.664.828,3.081,3.081,0,0,1,.238,1.262v3.172a1.3,1.3,0,0,0,.176.8.759.759,0,0,0,.605.207h.125V16h-.672a1.281,1.281,0,0,1-1.453-1.039h-.062A2.935,2.935,0,0,1,387.531,16.148Zm.313-1.094a2.049,2.049,0,0,0,1.648-.742,3.056,3.056,0,0,0,.625-2.031l-2.031.391a2.734,2.734,0,0,0-1.191.426.99.99,0,0,0-.387.84.979.979,0,0,0,.371.844A1.586,1.586,0,0,0,387.844,15.055Zm6.984-5.492V8.453H400.8V9.563Zm0,3.2V11.648H400.8v1.109Zm15.2,2.484a4.367,4.367,0,0,1-5.332,0,3,3,0,0,1-1.066-2.395,2.959,2.959,0,0,1,.555-1.8A3.179,3.179,0,0,1,405.7,9.938,2.717,2.717,0,0,1,404.613,9a2.4,2.4,0,0,1-.4-1.355,2.543,2.543,0,0,1,.9-2,3.307,3.307,0,0,1,2.258-.785,3.249,3.249,0,0,1,2.23.789,2.551,2.551,0,0,1,.895,2A2.447,2.447,0,0,1,410.1,9a2.643,2.643,0,0,1-1.062.941,3.242,3.242,0,0,1,1.5,1.113,2.942,2.942,0,0,1,.555,1.793A3,3,0,0,1,410.031,15.242Zm-2.664-5.75a1.861,1.861,0,0,0,1.332-.516,1.677,1.677,0,0,0,.543-1.266,1.624,1.624,0,0,0-.543-1.238,2.034,2.034,0,0,0-2.676,0,1.625,1.625,0,0,0-.539,1.242,1.677,1.677,0,0,0,.543,1.266A1.871,1.871,0,0,0,407.367,9.492Zm0,5.406a2.45,2.45,0,0,0,1.691-.6,2.03,2.03,0,0,0,.676-1.594,1.988,1.988,0,0,0-.676-1.57,2.47,2.47,0,0,0-1.691-.594,2.5,2.5,0,0,0-1.7.594,1.983,1.983,0,0,0-.68,1.57,2.024,2.024,0,0,0,.68,1.594A2.476,2.476,0,0,0,407.367,14.9ZM422.125,8.32h1.43l-4.445,11.3h-1.4l1.539-3.8L416.266,8.32h1.5L419.93,14.3Zm23.75-.148a3.346,3.346,0,0,1,2.539,1.109,4.047,4.047,0,0,1,1.039,2.883,4.076,4.076,0,0,1-1.031,2.891,3.339,3.339,0,0,1-2.547,1.109,3.082,3.082,0,0,1-1.637-.445,2.818,2.818,0,0,1-1.1-1.211L443.109,16h-1.3V4h1.344l.008,5.789a2.83,2.83,0,0,1,1.1-1.184A3.09,3.09,0,0,1,445.875,8.172Zm-.3,6.82a2.35,2.35,0,0,0,1.8-.785,2.889,2.889,0,0,0,.727-2.043,2.889,2.889,0,0,0-.727-2.043,2.35,2.35,0,0,0-1.8-.785,2.3,2.3,0,0,0-1.781.813,2.913,2.913,0,0,0-.727,2.016,2.919,2.919,0,0,0,.723,2.02A2.3,2.3,0,0,0,445.578,14.992Zm6.688-5.43V8.453h5.969V9.563Zm0,3.2V11.648h5.969v1.109Zm12.273-3.836a4.263,4.263,0,0,1,3,.926,3.358,3.358,0,0,1,.992,2.582,3.651,3.651,0,0,1-1.02,2.676,3.578,3.578,0,0,1-2.668,1.035,4.239,4.239,0,0,1-1.379-.223,3.724,3.724,0,0,1-1.164-.641,2.931,2.931,0,0,1-.812-1.082,3.557,3.557,0,0,1-.3-1.484,5.021,5.021,0,0,1,.039-.562l1.383-.117a5.5,5.5,0,0,0-.062.617,2.483,2.483,0,0,0,.2,1.023,1.749,1.749,0,0,0,.535.7,2.434,2.434,0,0,0,.723.379,2.638,2.638,0,0,0,.816.125,2.256,2.256,0,0,0,1.707-.672,2.391,2.391,0,0,0,.645-1.727,2.275,2.275,0,0,0-.668-1.734,2.994,2.994,0,0,0-2.113-.633h-2.781l.68-5.094h5.766V6.273H463.43l-.359,2.648ZM483.141,16V4h1.367V16Zm7.352.148a4.048,4.048,0,0,1-1.969-.477,3.47,3.47,0,0,1-1.387-1.395,4.283,4.283,0,0,1-.512-2.121,3.912,3.912,0,0,1,1.09-2.895,4.089,4.089,0,0,1,5.559,0,3.92,3.92,0,0,1,1.086,2.895,3.923,3.923,0,0,1-1.09,2.9A3.762,3.762,0,0,1,490.492,16.148Zm-.008-1.125a2.359,2.359,0,0,0,1.816-.789,2.957,2.957,0,0,0,.723-2.078,2.945,2.945,0,0,0-.723-2.07,2.359,2.359,0,0,0-1.816-.789,2.326,2.326,0,0,0-1.8.789,2.965,2.965,0,0,0-.715,2.07,2.976,2.976,0,0,0,.715,2.078A2.326,2.326,0,0,0,490.484,15.023Zm8.422,1.125a3.641,3.641,0,0,1-2.07-.555,2.294,2.294,0,0,1-1.008-1.578l1.18-.336a1.645,1.645,0,0,0,.629,1.066,2.04,2.04,0,0,0,1.262.379,2.518,2.518,0,0,0,.738-.1,1.184,1.184,0,0,0,.566-.379,1.057,1.057,0,0,0,.164-1.016,1.357,1.357,0,0,0-.125-.254.773.773,0,0,0-.219-.211,2.886,2.886,0,0,0-.266-.164,2.726,2.726,0,0,0-.348-.145q-.23-.082-.371-.125t-.43-.125q-.289-.082-.445-.129a8.332,8.332,0,0,1-.8-.281,3.5,3.5,0,0,1-.648-.371,1.493,1.493,0,0,1-.5-.605,2.049,2.049,0,0,1-.168-.859,1.986,1.986,0,0,1,.375-1.227,2.11,2.11,0,0,1,.973-.723,3.888,3.888,0,0,1,1.363-.223,3.337,3.337,0,0,1,1.871.5,2.134,2.134,0,0,1,.934,1.5l-1.109.281a1.471,1.471,0,0,0-.586-.973,1.865,1.865,0,0,0-1.1-.324,1.9,1.9,0,0,0-1.031.27.906.906,0,0,0-.43.824.82.82,0,0,0,.113.426,1.352,1.352,0,0,0,.23.3,1.417,1.417,0,0,0,.422.23q.3.121.453.164t.563.145q.078.023.117.031.453.117.738.207a4.538,4.538,0,0,1,.664.281,2.208,2.208,0,0,1,.6.418,1.936,1.936,0,0,1,.375.594,2.1,2.1,0,0,1,.156.828,2.236,2.236,0,0,1-.23,1.035,1.8,1.8,0,0,1-.629.707,3.042,3.042,0,0,1-.895.387A4.262,4.262,0,0,1,498.906,16.148Zm10.43-6.477a2.322,2.322,0,0,1,.953-1.031,2.87,2.87,0,0,1,1.477-.406V9.508a2.53,2.53,0,0,0-1.785.57,2.382,2.382,0,0,0-.613,1.82V16h-1.352V8.32h1.32Zm10.641,2.336-.016.367h-6a2.714,2.714,0,0,0,.734,1.965,2.411,2.411,0,0,0,1.75.684,2.3,2.3,0,0,0,1.273-.367,2.383,2.383,0,0,0,.875-1.016l1.219.258a3.464,3.464,0,0,1-1.312,1.648,3.581,3.581,0,0,1-2.039.6,3.71,3.71,0,0,1-2.766-1.07,3.982,3.982,0,0,1-1.055-2.922A3.962,3.962,0,0,1,513.7,9.242a3.664,3.664,0,0,1,2.723-1.07A3.467,3.467,0,0,1,519,9.156,3.889,3.889,0,0,1,519.977,12.008Zm-3.555-2.8a2.4,2.4,0,0,0-1.6.543,2.488,2.488,0,0,0-.809,1.582h4.6a2.282,2.282,0,0,0-.672-1.582A2.17,2.17,0,0,0,516.422,9.211Zm8.1,6.938a3.641,3.641,0,0,1-2.07-.555,2.294,2.294,0,0,1-1.008-1.578l1.18-.336a1.645,1.645,0,0,0,.629,1.066,2.04,2.04,0,0,0,1.262.379,2.518,2.518,0,0,0,.738-.1,1.183,1.183,0,0,0,.566-.379,1.057,1.057,0,0,0,.164-1.016,1.355,1.355,0,0,0-.125-.254.774.774,0,0,0-.219-.211,2.882,2.882,0,0,0-.266-.164,2.728,2.728,0,0,0-.348-.145q-.23-.082-.371-.125t-.43-.125q-.289-.082-.445-.129a8.326,8.326,0,0,1-.8-.281,3.5,3.5,0,0,1-.648-.371,1.493,1.493,0,0,1-.5-.605,2.048,2.048,0,0,1-.168-.859,1.986,1.986,0,0,1,.375-1.227,2.11,2.11,0,0,1,.973-.723,3.888,3.888,0,0,1,1.363-.223,3.337,3.337,0,0,1,1.871.5,2.134,2.134,0,0,1,.934,1.5l-1.109.281a1.471,1.471,0,0,0-.586-.973,1.866,1.866,0,0,0-1.1-.324,1.9,1.9,0,0,0-1.031.27.906.906,0,0,0-.43.824.82.82,0,0,0,.113.426,1.352,1.352,0,0,0,.23.3,1.417,1.417,0,0,0,.422.23q.3.121.453.164t.563.145q.078.023.117.031.453.117.738.207a4.538,4.538,0,0,1,.664.281,2.207,2.207,0,0,1,.6.418,1.937,1.937,0,0,1,.375.594,2.1,2.1,0,0,1,.156.828,2.237,2.237,0,0,1-.23,1.035,1.8,1.8,0,0,1-.629.707,3.041,3.041,0,0,1-.895.387A4.262,4.262,0,0,1,524.523,16.148Zm9.734-7.828h1.352V16h-1.3l-.031-1.016a2.4,2.4,0,0,1-.953.863,2.932,2.932,0,0,1-1.344.3,2.671,2.671,0,0,1-1.934-.7,2.594,2.594,0,0,1-.723-1.961V8.32h1.352v4.867a1.822,1.822,0,0,0,.473,1.375,1.673,1.673,0,0,0,1.207.453,1.837,1.837,0,0,0,1.363-.531,2.164,2.164,0,0,0,.535-1.57Zm4.1,7.68V4h1.367V16Zm6.57,0a2.019,2.019,0,0,1-1.5-.551,2.084,2.084,0,0,1-.547-1.535V9.4h-1.57V8.32h.578a1.11,1.11,0,0,0,.848-.27,1.326,1.326,0,0,0,.246-.9V5.758h1.258V8.32h1.766V9.4h-1.766v4.375a1.164,1.164,0,0,0,.293.848,1.026,1.026,0,0,0,.77.3h.7V16Zm4.711.148a2.613,2.613,0,0,1-1.684-.527,1.894,1.894,0,0,1-.66-1.574,2.237,2.237,0,0,1,.211-1,1.77,1.77,0,0,1,.625-.7,3.75,3.75,0,0,1,.9-.434,8.341,8.341,0,0,1,1.168-.277l1.242-.2q.68-.125.68-.711a1.342,1.342,0,0,0-.48-1.145,1.958,1.958,0,0,0-1.215-.363,1.994,1.994,0,0,0-1.2.352,1.471,1.471,0,0,0-.57,1.078l-1.219-.258a2.345,2.345,0,0,1,.961-1.645,3.59,3.59,0,0,1,2.094-.551,4.247,4.247,0,0,1,1.113.137,3.026,3.026,0,0,1,.93.43,1.927,1.927,0,0,1,.664.828,3.081,3.081,0,0,1,.238,1.262v3.172a1.3,1.3,0,0,0,.176.8.759.759,0,0,0,.605.207h.125V16h-.672a1.281,1.281,0,0,1-1.453-1.039h-.062A2.935,2.935,0,0,1,549.641,16.148Zm.313-1.094a2.049,2.049,0,0,0,1.648-.742,3.055,3.055,0,0,0,.625-2.031l-2.031.391A2.734,2.734,0,0,0,549,13.1a.99.99,0,0,0-.387.84.979.979,0,0,0,.371.844A1.586,1.586,0,0,0,549.953,15.055ZM561.766,4h1.352V16h-1.3l-.031-1.492a2.826,2.826,0,0,1-1.094,1.211,3.048,3.048,0,0,1-1.625.445,3.49,3.49,0,0,1-2.535-1.082,3.7,3.7,0,0,1-.773-1.27,4.644,4.644,0,0,1-.285-1.648,4.038,4.038,0,0,1,1.043-2.883,3.367,3.367,0,0,1,2.551-1.109,3.061,3.061,0,0,1,1.605.434,2.842,2.842,0,0,1,1.1,1.176Zm-2.422,10.992a2.3,2.3,0,0,0,1.785-.809,2.919,2.919,0,0,0,.723-2.02,2.913,2.913,0,0,0-.727-2.016,2.3,2.3,0,0,0-1.781-.812,2.35,2.35,0,0,0-1.8.785,2.889,2.889,0,0,0-.727,2.043,2.889,2.889,0,0,0,.727,2.043A2.35,2.35,0,0,0,559.344,14.992Zm9.758,1.156a4.048,4.048,0,0,1-1.969-.477,3.47,3.47,0,0,1-1.387-1.395,4.284,4.284,0,0,1-.512-2.121,3.912,3.912,0,0,1,1.09-2.895,4.089,4.089,0,0,1,5.559,0,3.92,3.92,0,0,1,1.086,2.895,3.923,3.923,0,0,1-1.09,2.9A3.762,3.762,0,0,1,569.1,16.148Zm-.008-1.125a2.359,2.359,0,0,0,1.816-.789,2.957,2.957,0,0,0,.723-2.078,2.946,2.946,0,0,0-.723-2.07,2.359,2.359,0,0,0-1.816-.789,2.326,2.326,0,0,0-1.8.789,2.965,2.965,0,0,0-.715,2.07,2.976,2.976,0,0,0,.715,2.078A2.326,2.326,0,0,0,569.094,15.023Zm8.422,1.125a3.641,3.641,0,0,1-2.07-.555,2.294,2.294,0,0,1-1.008-1.578l1.18-.336a1.645,1.645,0,0,0,.629,1.066,2.04,2.04,0,0,0,1.262.379,2.518,2.518,0,0,0,.738-.1,1.183,1.183,0,0,0,.566-.379,1.057,1.057,0,0,0,.164-1.016,1.355,1.355,0,0,0-.125-.254.774.774,0,0,0-.219-.211,2.882,2.882,0,0,0-.266-.164,2.728,2.728,0,0,0-.348-.145q-.23-.082-.371-.125t-.43-.125q-.289-.082-.445-.129a8.326,8.326,0,0,1-.8-.281,3.5,3.5,0,0,1-.648-.371,1.493,1.493,0,0,1-.5-.605,2.048,2.048,0,0,1-.168-.859,1.986,1.986,0,0,1,.375-1.227A2.11,2.11,0,0,1,576,8.41a3.888,3.888,0,0,1,1.363-.223,3.337,3.337,0,0,1,1.871.5,2.134,2.134,0,0,1,.934,1.5l-1.109.281a1.471,1.471,0,0,0-.586-.973,1.866,1.866,0,0,0-1.1-.324,1.9,1.9,0,0,0-1.031.27.906.906,0,0,0-.43.824.82.82,0,0,0,.113.426,1.352,1.352,0,0,0,.23.3,1.417,1.417,0,0,0,.422.23q.3.121.453.164t.563.145q.078.023.117.031.453.117.738.207a4.538,4.538,0,0,1,.664.281,2.207,2.207,0,0,1,.6.418,1.937,1.937,0,0,1,.375.594,2.1,2.1,0,0,1,.156.828,2.237,2.237,0,0,1-.23,1.035,1.8,1.8,0,0,1-.629.707,3.041,3.041,0,0,1-.895.387A4.262,4.262,0,0,1,577.516,16.148Zm11.539,0a3.641,3.641,0,0,1-2.07-.555,2.294,2.294,0,0,1-1.008-1.578l1.18-.336a1.645,1.645,0,0,0,.629,1.066,2.04,2.04,0,0,0,1.262.379,2.518,2.518,0,0,0,.738-.1,1.183,1.183,0,0,0,.566-.379,1.057,1.057,0,0,0,.164-1.016,1.355,1.355,0,0,0-.125-.254.774.774,0,0,0-.219-.211,2.882,2.882,0,0,0-.266-.164,2.728,2.728,0,0,0-.348-.145q-.23-.082-.371-.125t-.43-.125q-.289-.082-.445-.129a8.326,8.326,0,0,1-.8-.281,3.5,3.5,0,0,1-.648-.371,1.493,1.493,0,0,1-.5-.605,2.048,2.048,0,0,1-.168-.859,1.986,1.986,0,0,1,.375-1.227,2.11,2.11,0,0,1,.973-.723,3.888,3.888,0,0,1,1.363-.223,3.337,3.337,0,0,1,1.871.5,2.134,2.134,0,0,1,.934,1.5l-1.109.281a1.471,1.471,0,0,0-.586-.973,1.866,1.866,0,0,0-1.1-.324,1.9,1.9,0,0,0-1.031.27.906.906,0,0,0-.43.824.82.82,0,0,0,.113.426,1.352,1.352,0,0,0,.23.3,1.417,1.417,0,0,0,.422.23q.3.121.453.164t.563.145q.078.023.117.031.453.117.738.207a4.538,4.538,0,0,1,.664.281,2.207,2.207,0,0,1,.6.418,1.937,1.937,0,0,1,.375.594,2.1,2.1,0,0,1,.156.828,2.237,2.237,0,0,1-.23,1.035,1.8,1.8,0,0,1-.629.707,3.041,3.041,0,0,1-.895.387A4.262,4.262,0,0,1,589.055,16.148Zm11.672-4.141-.016.367h-6a2.714,2.714,0,0,0,.734,1.965,2.411,2.411,0,0,0,1.75.684,2.3,2.3,0,0,0,1.273-.367,2.383,2.383,0,0,0,.875-1.016l1.219.258a3.464,3.464,0,0,1-1.312,1.648,3.581,3.581,0,0,1-2.039.6,3.71,3.71,0,0,1-2.766-1.07,3.982,3.982,0,0,1-1.055-2.922,3.962,3.962,0,0,1,1.059-2.914,3.664,3.664,0,0,1,2.723-1.07,3.467,3.467,0,0,1,2.582.984A3.889,3.889,0,0,1,600.727,12.008Zm-3.555-2.8a2.4,2.4,0,0,0-1.6.543,2.488,2.488,0,0,0-.809,1.582h4.6a2.282,2.282,0,0,0-.672-1.582A2.17,2.17,0,0,0,597.172,9.211Zm6.992.461a2.322,2.322,0,0,1,.953-1.031,2.87,2.87,0,0,1,1.477-.406V9.508a2.53,2.53,0,0,0-1.785.57,2.382,2.382,0,0,0-.613,1.82V16h-1.352V8.32h1.32Zm6.25-2.68,1.961-2.547.719.523-1.75,2.023Zm-.555,9.156a2.613,2.613,0,0,1-1.684-.527,1.894,1.894,0,0,1-.66-1.574,2.237,2.237,0,0,1,.211-1,1.77,1.77,0,0,1,.625-.7,3.75,3.75,0,0,1,.9-.434,8.341,8.341,0,0,1,1.168-.277l1.242-.2q.68-.125.68-.711a1.342,1.342,0,0,0-.48-1.145,1.958,1.958,0,0,0-1.215-.363,1.994,1.994,0,0,0-1.2.352,1.471,1.471,0,0,0-.57,1.078l-1.219-.258a2.345,2.345,0,0,1,.961-1.645,3.59,3.59,0,0,1,2.094-.551,4.247,4.247,0,0,1,1.113.137,3.026,3.026,0,0,1,.93.43,1.927,1.927,0,0,1,.664.828,3.081,3.081,0,0,1,.238,1.262v3.172a1.3,1.3,0,0,0,.176.8.759.759,0,0,0,.605.207h.125V16h-.672a1.281,1.281,0,0,1-1.453-1.039h-.062A2.935,2.935,0,0,1,609.859,16.148Zm.313-1.094a2.049,2.049,0,0,0,1.648-.742,3.055,3.055,0,0,0,.625-2.031l-2.031.391a2.734,2.734,0,0,0-1.191.426.99.99,0,0,0-.387.84.979.979,0,0,0,.371.844A1.586,1.586,0,0,0,610.172,15.055Zm9.922-6.883a2.671,2.671,0,0,1,1.934.7,2.594,2.594,0,0,1,.723,1.961V16H621.4V11.133a1.816,1.816,0,0,0-.469-1.375,1.676,1.676,0,0,0-1.2-.445,1.858,1.858,0,0,0-1.367.527,2.14,2.14,0,0,0-.539,1.566V16h-1.352V8.32h1.352V9.3A2.565,2.565,0,0,1,620.094,8.172Zm6.367,2.547a.877.877,0,0,1-.637-.266.908.908,0,0,1,.637-1.547.88.88,0,0,1,.645.27.891.891,0,0,1,0,1.277A.886.886,0,0,1,626.461,10.719Zm0,5.438a.877.877,0,0,1-.637-.266.908.908,0,0,1,.637-1.547.88.88,0,0,1,.645.27.891.891,0,0,1,0,1.277A.886.886,0,0,1,626.461,16.156Z" transform="translate(6829 -4744)" fill="#00223d"/>
    <path id="Trazado_10700" data-name="Trazado 10700" d="M146.273,16l-2.828-4.961h-1.727V16h-1.4V5h3.648a3.285,3.285,0,0,1,2.465.871,3.075,3.075,0,0,1,.848,2.238,2.753,2.753,0,0,1-2.437,2.875L147.906,16Zm-4.555-9.773V9.938h2.063a2.3,2.3,0,0,0,1.609-.5,1.741,1.741,0,0,0,.539-1.348,1.772,1.772,0,0,0-.543-1.359,2.271,2.271,0,0,0-1.605-.508Zm14.453,5.781-.016.367h-6a2.714,2.714,0,0,0,.734,1.965,2.411,2.411,0,0,0,1.75.684,2.3,2.3,0,0,0,1.273-.367,2.383,2.383,0,0,0,.875-1.016l1.219.258a3.464,3.464,0,0,1-1.312,1.648,3.581,3.581,0,0,1-2.039.6,3.71,3.71,0,0,1-2.766-1.07,3.982,3.982,0,0,1-1.055-2.922,3.962,3.962,0,0,1,1.059-2.914,3.664,3.664,0,0,1,2.723-1.07,3.467,3.467,0,0,1,2.582.984A3.889,3.889,0,0,1,156.172,12.008Zm-3.555-2.8a2.4,2.4,0,0,0-1.6.543,2.488,2.488,0,0,0-.809,1.582h4.6a2.282,2.282,0,0,0-.672-1.582A2.17,2.17,0,0,0,152.617,9.211Zm8.1,6.938a3.641,3.641,0,0,1-2.07-.555,2.294,2.294,0,0,1-1.008-1.578l1.18-.336a1.645,1.645,0,0,0,.629,1.066,2.04,2.04,0,0,0,1.262.379,2.518,2.518,0,0,0,.738-.1,1.183,1.183,0,0,0,.566-.379,1.057,1.057,0,0,0,.164-1.016,1.356,1.356,0,0,0-.125-.254.774.774,0,0,0-.219-.211A2.884,2.884,0,0,0,161.57,13a2.727,2.727,0,0,0-.348-.145q-.23-.082-.371-.125t-.43-.125q-.289-.082-.445-.129a8.329,8.329,0,0,1-.8-.281,3.5,3.5,0,0,1-.648-.371,1.493,1.493,0,0,1-.5-.605,2.048,2.048,0,0,1-.168-.859,1.986,1.986,0,0,1,.375-1.227,2.11,2.11,0,0,1,.973-.723,3.888,3.888,0,0,1,1.363-.223,3.337,3.337,0,0,1,1.871.5,2.134,2.134,0,0,1,.934,1.5l-1.109.281a1.471,1.471,0,0,0-.586-.973,1.866,1.866,0,0,0-1.1-.324,1.9,1.9,0,0,0-1.031.27.906.906,0,0,0-.43.824.82.82,0,0,0,.113.426,1.352,1.352,0,0,0,.23.3,1.417,1.417,0,0,0,.422.23q.3.121.453.164t.563.145q.078.023.117.031.453.117.738.207a4.538,4.538,0,0,1,.664.281,2.208,2.208,0,0,1,.6.418,1.937,1.937,0,0,1,.375.594,2.1,2.1,0,0,1,.156.828,2.237,2.237,0,0,1-.23,1.035,1.8,1.8,0,0,1-.629.707,3.042,3.042,0,0,1-.895.387A4.262,4.262,0,0,1,160.719,16.148ZM168.125,16a2.019,2.019,0,0,1-1.5-.551,2.084,2.084,0,0,1-.547-1.535V9.4h-1.57V8.32h.578a1.11,1.11,0,0,0,.848-.27,1.326,1.326,0,0,0,.246-.9V5.758h1.258V8.32H169.2V9.4h-1.766v4.375a1.164,1.164,0,0,0,.293.848,1.026,1.026,0,0,0,.77.3h.7V16Zm4.711.148a2.613,2.613,0,0,1-1.684-.527,1.894,1.894,0,0,1-.66-1.574,2.237,2.237,0,0,1,.211-1,1.77,1.77,0,0,1,.625-.7,3.749,3.749,0,0,1,.9-.434,8.341,8.341,0,0,1,1.168-.277l1.242-.2q.68-.125.68-.711a1.342,1.342,0,0,0-.48-1.145,1.958,1.958,0,0,0-1.215-.363,1.994,1.994,0,0,0-1.2.352,1.471,1.471,0,0,0-.57,1.078l-1.219-.258a2.346,2.346,0,0,1,.961-1.645,3.59,3.59,0,0,1,2.094-.551,4.247,4.247,0,0,1,1.113.137,3.026,3.026,0,0,1,.93.43,1.927,1.927,0,0,1,.664.828,3.081,3.081,0,0,1,.238,1.262v3.172a1.3,1.3,0,0,0,.176.8.759.759,0,0,0,.605.207h.125V16h-.672a1.281,1.281,0,0,1-1.453-1.039h-.062A2.935,2.935,0,0,1,172.836,16.148Zm.313-1.094a2.049,2.049,0,0,0,1.648-.742,3.056,3.056,0,0,0,.625-2.031l-2.031.391a2.734,2.734,0,0,0-1.191.426.99.99,0,0,0-.387.84.979.979,0,0,0,.371.844A1.586,1.586,0,0,0,173.148,15.055Zm7.617-5.383a2.322,2.322,0,0,1,.953-1.031,2.87,2.87,0,0,1,1.477-.406V9.508a2.53,2.53,0,0,0-1.785.57,2.382,2.382,0,0,0-.613,1.82V16h-1.352V8.32h1.32Z" transform="translate(7045 -4531)" fill="#00223d"/>
    <path id="Trazado_10711" data-name="Trazado 10711" d="M135.52,16H134.16l-.734-9.078L129.91,16h-.836l-3.492-9.047L124.84,16h-1.367l.836-11h1.844l3.336,8.578L132.832,5h1.859Zm7.469-7.68h1.352V16h-1.3l-.031-1.016a2.4,2.4,0,0,1-.953.863,2.932,2.932,0,0,1-1.344.3,2.671,2.671,0,0,1-1.934-.7,2.594,2.594,0,0,1-.723-1.961V8.32h1.352v4.867a1.822,1.822,0,0,0,.473,1.375,1.673,1.673,0,0,0,1.207.453,1.837,1.837,0,0,0,1.363-.531,2.164,2.164,0,0,0,.535-1.57Zm4.1,7.68V4h1.367V16Zm6.57,0a2.019,2.019,0,0,1-1.5-.551,2.084,2.084,0,0,1-.547-1.535V9.4h-1.57V8.32h.578a1.11,1.11,0,0,0,.848-.27,1.326,1.326,0,0,0,.246-.9V5.758h1.258V8.32h1.766V9.4h-1.766v4.375a1.164,1.164,0,0,0,.293.848,1.026,1.026,0,0,0,.77.3h.7V16Zm3.719-9.484a.92.92,0,0,1-.914-.914.867.867,0,0,1,.27-.641.886.886,0,0,1,.645-.266.877.877,0,0,1,.637.266.867.867,0,0,1,.27.641.88.88,0,0,1-.27.645A.871.871,0,0,1,157.379,6.516ZM156.691,16V8.32h1.359V16Zm8.164-7.828a3.493,3.493,0,0,1,1.391.281,3.421,3.421,0,0,1,1.141.789,3.688,3.688,0,0,1,.77,1.266,4.667,4.667,0,0,1,.285,1.656,4.06,4.06,0,0,1-1.035,2.9,3.362,3.362,0,0,1-2.551,1.1,3.04,3.04,0,0,1-1.605-.437,2.867,2.867,0,0,1-1.1-1.18v5.32H160.8V8.32h1.3l.031,1.492a2.811,2.811,0,0,1,1.094-1.2A3.068,3.068,0,0,1,164.855,8.172Zm-.266,6.82a2.332,2.332,0,0,0,1.777-.777,2.892,2.892,0,0,0,.723-2.051,2.877,2.877,0,0,0-.723-2.047,2.423,2.423,0,0,0-3.582.035,2.88,2.88,0,0,0-.734,2.012,2.891,2.891,0,0,0,.734,2.02A2.343,2.343,0,0,0,164.59,14.992ZM170.574,16V4h1.367V16Zm4.8-9.484a.92.92,0,0,1-.914-.914.867.867,0,0,1,.27-.641.886.886,0,0,1,.645-.266.877.877,0,0,1,.637.266.867.867,0,0,1,.27.641.88.88,0,0,1-.27.645A.871.871,0,0,1,175.379,6.516ZM174.691,16V8.32h1.359V16Zm7.3.141a3.7,3.7,0,0,1-2.75-1.1,3.929,3.929,0,0,1-1.086-2.883,3.937,3.937,0,0,1,1.082-2.883,4,4,0,0,1,4.977-.43,3.391,3.391,0,0,1,1.293,1.867l-1.266.2a2.337,2.337,0,0,0-.867-1.2A2.361,2.361,0,0,0,181.98,9.3a2.27,2.27,0,0,0-1.777.789,3.006,3.006,0,0,0-.7,2.07,2.991,2.991,0,0,0,.7,2.066,2.275,2.275,0,0,0,1.777.785,2.361,2.361,0,0,0,1.391-.422,2.337,2.337,0,0,0,.867-1.2l1.266.211a3.4,3.4,0,0,1-1.3,1.863A3.72,3.72,0,0,1,181.988,16.141Zm7.281.008a2.613,2.613,0,0,1-1.684-.527,1.894,1.894,0,0,1-.66-1.574,2.237,2.237,0,0,1,.211-1,1.77,1.77,0,0,1,.625-.7,3.749,3.749,0,0,1,.9-.434,8.341,8.341,0,0,1,1.168-.277l1.242-.2q.68-.125.68-.711a1.342,1.342,0,0,0-.48-1.145,1.958,1.958,0,0,0-1.215-.363,1.994,1.994,0,0,0-1.2.352,1.471,1.471,0,0,0-.57,1.078l-1.219-.258a2.346,2.346,0,0,1,.961-1.645,3.59,3.59,0,0,1,2.094-.551,4.247,4.247,0,0,1,1.113.137,3.026,3.026,0,0,1,.93.43,1.927,1.927,0,0,1,.664.828,3.081,3.081,0,0,1,.238,1.262v3.172a1.3,1.3,0,0,0,.176.8.759.759,0,0,0,.605.207h.125V16H193.3a1.281,1.281,0,0,1-1.453-1.039h-.062A2.935,2.935,0,0,1,189.27,16.148Zm.313-1.094a2.049,2.049,0,0,0,1.648-.742,3.056,3.056,0,0,0,.625-2.031l-2.031.391a2.734,2.734,0,0,0-1.191.426.99.99,0,0,0-.387.84.979.979,0,0,0,.371.844A1.586,1.586,0,0,0,189.582,15.055ZM197.2,9.672a2.322,2.322,0,0,1,.953-1.031,2.87,2.87,0,0,1,1.477-.406V9.508a2.53,2.53,0,0,0-1.785.57,2.382,2.382,0,0,0-.613,1.82V16h-1.352V8.32h1.32Z" transform="translate(7045 -4460)" fill="#00223d"/>
    <path id="Trazado_10712" data-name="Trazado 10712" d="M139.418,16V5h3.547a5.26,5.26,0,0,1,2.8.711,4.337,4.337,0,0,1,1.719,1.934,6.793,6.793,0,0,1,.559,2.848,7.2,7.2,0,0,1-.324,2.223,5.035,5.035,0,0,1-.949,1.738,4.164,4.164,0,0,1-1.6,1.141,5.681,5.681,0,0,1-2.207.406Zm1.4-1.273h2.1a3.35,3.35,0,0,0,2.746-1.125,4.756,4.756,0,0,0,.926-3.109,4.716,4.716,0,0,0-.93-3.094,3.352,3.352,0,0,0-2.742-1.125h-2.1ZM151.1,6.516a.92.92,0,0,1-.914-.914.867.867,0,0,1,.27-.641A.886.886,0,0,1,151.1,4.7a.877.877,0,0,1,.637.266A.867.867,0,0,1,152,5.6a.88.88,0,0,1-.27.645A.871.871,0,0,1,151.1,6.516ZM150.41,16V8.32h1.359V16Zm8.9-7.68h1.445L157.629,16H156.48l-3.109-7.68h1.438l2.25,6.109Zm3.734-1.8a.92.92,0,0,1-.914-.914.867.867,0,0,1,.27-.641.886.886,0,0,1,.645-.266.877.877,0,0,1,.637.266.867.867,0,0,1,.27.641.88.88,0,0,1-.27.645A.871.871,0,0,1,163.043,6.516ZM162.355,16V8.32h1.359V16Zm9.781-12h1.352V16h-1.3l-.031-1.492a2.826,2.826,0,0,1-1.094,1.211,3.048,3.048,0,0,1-1.625.445,3.49,3.49,0,0,1-2.535-1.082,3.7,3.7,0,0,1-.773-1.27,4.644,4.644,0,0,1-.285-1.648,4.038,4.038,0,0,1,1.043-2.883,3.367,3.367,0,0,1,2.551-1.109,3.061,3.061,0,0,1,1.605.434,2.842,2.842,0,0,1,1.1,1.176Zm-2.422,10.992a2.3,2.3,0,0,0,1.785-.809,2.919,2.919,0,0,0,.723-2.02,2.913,2.913,0,0,0-.727-2.016,2.3,2.3,0,0,0-1.781-.812,2.35,2.35,0,0,0-1.8.785,2.889,2.889,0,0,0-.727,2.043,2.889,2.889,0,0,0,.727,2.043A2.35,2.35,0,0,0,169.715,14.992Zm7.211-8.477a.92.92,0,0,1-.914-.914.867.867,0,0,1,.27-.641.886.886,0,0,1,.645-.266.877.877,0,0,1,.637.266.867.867,0,0,1,.27.641.88.88,0,0,1-.27.645A.871.871,0,0,1,176.926,6.516ZM176.238,16V8.32H177.6V16Zm5.43-6.328a2.322,2.322,0,0,1,.953-1.031,2.87,2.87,0,0,1,1.477-.406V9.508a2.53,2.53,0,0,0-1.785.57,2.382,2.382,0,0,0-.613,1.82V16h-1.352V8.32h1.32Z" transform="translate(7045 -4389)" fill="#00223d"/>
    <path id="Trazado_10721" data-name="Trazado 10721" d="M61.48,16H60.121l-.734-9.078L55.871,16h-.836L51.543,6.953,50.8,16H49.434L50.27,5h1.844l3.336,8.578L58.793,5h1.859Zm5.3-9,1.961-2.547.719.523L67.707,7Zm.516,9.148a4.048,4.048,0,0,1-1.969-.477,3.47,3.47,0,0,1-1.387-1.395,4.283,4.283,0,0,1-.512-2.121,3.912,3.912,0,0,1,1.09-2.895,4.089,4.089,0,0,1,5.559,0,3.92,3.92,0,0,1,1.086,2.895,3.923,3.923,0,0,1-1.09,2.9A3.762,3.762,0,0,1,67.293,16.148Zm-.008-1.125a2.359,2.359,0,0,0,1.816-.789,2.957,2.957,0,0,0,.723-2.078,2.945,2.945,0,0,0-.723-2.07A2.359,2.359,0,0,0,67.285,9.3a2.326,2.326,0,0,0-1.8.789,2.965,2.965,0,0,0-.715,2.07,2.976,2.976,0,0,0,.715,2.078A2.326,2.326,0,0,0,67.285,15.023ZM78.949,4H80.3V16H79l-.031-1.492a2.826,2.826,0,0,1-1.094,1.211,3.048,3.048,0,0,1-1.625.445,3.49,3.49,0,0,1-2.535-1.082,3.7,3.7,0,0,1-.773-1.27,4.644,4.644,0,0,1-.285-1.648A4.038,4.038,0,0,1,73.7,9.281a3.367,3.367,0,0,1,2.551-1.109,3.061,3.061,0,0,1,1.605.434,2.842,2.842,0,0,1,1.1,1.176ZM76.527,14.992a2.3,2.3,0,0,0,1.785-.809,2.919,2.919,0,0,0,.723-2.02,2.913,2.913,0,0,0-.727-2.016,2.3,2.3,0,0,0-1.781-.812,2.35,2.35,0,0,0-1.8.785A2.889,2.889,0,0,0,74,12.164a2.889,2.889,0,0,0,.727,2.043A2.35,2.35,0,0,0,76.527,14.992Zm11.3-6.672h1.352V16h-1.3l-.031-1.016a2.4,2.4,0,0,1-.953.863,2.932,2.932,0,0,1-1.344.3,2.671,2.671,0,0,1-1.934-.7,2.594,2.594,0,0,1-.723-1.961V8.32h1.352v4.867a1.822,1.822,0,0,0,.473,1.375,1.673,1.673,0,0,0,1.207.453,1.837,1.837,0,0,0,1.363-.531,2.164,2.164,0,0,0,.535-1.57Zm4.1,7.68V4H93.3V16Zm7.352.148a4.048,4.048,0,0,1-1.969-.477,3.47,3.47,0,0,1-1.387-1.395,4.283,4.283,0,0,1-.512-2.121,3.912,3.912,0,0,1,1.09-2.895,4.089,4.089,0,0,1,5.559,0,3.92,3.92,0,0,1,1.086,2.895,3.923,3.923,0,0,1-1.09,2.9A3.762,3.762,0,0,1,99.285,16.148Zm-.008-1.125a2.359,2.359,0,0,0,1.816-.789,2.957,2.957,0,0,0,.723-2.078,2.945,2.945,0,0,0-.723-2.07A2.359,2.359,0,0,0,99.277,9.3a2.326,2.326,0,0,0-1.8.789,2.965,2.965,0,0,0-.715,2.07,2.976,2.976,0,0,0,.715,2.078A2.326,2.326,0,0,0,99.277,15.023Zm13.383,1.125a4.048,4.048,0,0,1-1.969-.477,3.47,3.47,0,0,1-1.387-1.395,4.283,4.283,0,0,1-.512-2.121,3.912,3.912,0,0,1,1.09-2.895,4.089,4.089,0,0,1,5.559,0,3.92,3.92,0,0,1,1.086,2.895,3.923,3.923,0,0,1-1.09,2.9A3.762,3.762,0,0,1,112.66,16.148Zm-.008-1.125a2.359,2.359,0,0,0,1.816-.789,2.957,2.957,0,0,0,.723-2.078,2.945,2.945,0,0,0-.723-2.07,2.359,2.359,0,0,0-1.816-.789,2.326,2.326,0,0,0-1.8.789,2.965,2.965,0,0,0-.715,2.07,2.976,2.976,0,0,0,.715,2.078A2.326,2.326,0,0,0,112.652,15.023Zm11.469-5.352a2.322,2.322,0,0,1,.953-1.031,2.87,2.87,0,0,1,1.477-.406V9.508a2.53,2.53,0,0,0-1.785.57,2.382,2.382,0,0,0-.613,1.82V16H122.8V8.32h1.32Zm10.641,2.336-.016.367h-6a2.714,2.714,0,0,0,.734,1.965,2.411,2.411,0,0,0,1.75.684,2.3,2.3,0,0,0,1.273-.367,2.383,2.383,0,0,0,.875-1.016l1.219.258a3.464,3.464,0,0,1-1.312,1.648,3.581,3.581,0,0,1-2.039.6,3.71,3.71,0,0,1-2.766-1.07,3.982,3.982,0,0,1-1.055-2.922,3.962,3.962,0,0,1,1.059-2.914,3.664,3.664,0,0,1,2.723-1.07,3.467,3.467,0,0,1,2.582.984A3.889,3.889,0,0,1,134.762,12.008Zm-3.555-2.8a2.4,2.4,0,0,0-1.6.543,2.488,2.488,0,0,0-.809,1.582h4.6a2.282,2.282,0,0,0-.672-1.582A2.17,2.17,0,0,0,131.207,9.211Zm8.1,6.938a3.641,3.641,0,0,1-2.07-.555,2.294,2.294,0,0,1-1.008-1.578l1.18-.336a1.645,1.645,0,0,0,.629,1.066,2.04,2.04,0,0,0,1.262.379,2.518,2.518,0,0,0,.738-.1,1.183,1.183,0,0,0,.566-.379,1.057,1.057,0,0,0,.164-1.016,1.356,1.356,0,0,0-.125-.254.774.774,0,0,0-.219-.211A2.884,2.884,0,0,0,140.16,13a2.727,2.727,0,0,0-.348-.145q-.23-.082-.371-.125t-.43-.125q-.289-.082-.445-.129a8.329,8.329,0,0,1-.8-.281,3.5,3.5,0,0,1-.648-.371,1.493,1.493,0,0,1-.5-.605,2.048,2.048,0,0,1-.168-.859,1.986,1.986,0,0,1,.375-1.227,2.11,2.11,0,0,1,.973-.723,3.888,3.888,0,0,1,1.363-.223,3.337,3.337,0,0,1,1.871.5,2.134,2.134,0,0,1,.934,1.5l-1.109.281a1.471,1.471,0,0,0-.586-.973,1.866,1.866,0,0,0-1.1-.324,1.9,1.9,0,0,0-1.031.27.906.906,0,0,0-.43.824.82.82,0,0,0,.113.426,1.352,1.352,0,0,0,.23.3,1.417,1.417,0,0,0,.422.23q.3.121.453.164t.563.145q.078.023.117.031.453.117.738.207a4.538,4.538,0,0,1,.664.281,2.208,2.208,0,0,1,.6.418,1.937,1.937,0,0,1,.375.594,2.1,2.1,0,0,1,.156.828,2.237,2.237,0,0,1-.23,1.035,1.8,1.8,0,0,1-.629.707,3.042,3.042,0,0,1-.895.387A4.262,4.262,0,0,1,139.309,16.148Zm5.641-9.633a.92.92,0,0,1-.914-.914.867.867,0,0,1,.27-.641.886.886,0,0,1,.645-.266.877.877,0,0,1,.637.266.867.867,0,0,1,.27.641.88.88,0,0,1-.27.645A.871.871,0,0,1,144.949,6.516ZM144.262,16V8.32h1.359V16Zm9.781-12h1.352V16h-1.3l-.031-1.492a2.826,2.826,0,0,1-1.094,1.211,3.048,3.048,0,0,1-1.625.445,3.49,3.49,0,0,1-2.535-1.082,3.7,3.7,0,0,1-.773-1.27,4.644,4.644,0,0,1-.285-1.648,4.038,4.038,0,0,1,1.043-2.883,3.367,3.367,0,0,1,2.551-1.109,3.061,3.061,0,0,1,1.605.434,2.842,2.842,0,0,1,1.1,1.176Zm-2.422,10.992a2.3,2.3,0,0,0,1.785-.809,2.919,2.919,0,0,0,.723-2.02,2.913,2.913,0,0,0-.727-2.016,2.3,2.3,0,0,0-1.781-.812,2.35,2.35,0,0,0-1.8.785,2.889,2.889,0,0,0-.727,2.043,2.889,2.889,0,0,0,.727,2.043A2.35,2.35,0,0,0,151.621,14.992Zm11.3-6.672h1.352V16h-1.3l-.031-1.016a2.4,2.4,0,0,1-.953.863,2.932,2.932,0,0,1-1.344.3,2.671,2.671,0,0,1-1.934-.7A2.594,2.594,0,0,1,158,13.492V8.32h1.352v4.867a1.822,1.822,0,0,0,.473,1.375,1.673,1.673,0,0,0,1.207.453,1.837,1.837,0,0,0,1.363-.531,2.164,2.164,0,0,0,.535-1.57Zm7.336,7.828a4.048,4.048,0,0,1-1.969-.477,3.47,3.47,0,0,1-1.387-1.395,4.284,4.284,0,0,1-.512-2.121,3.912,3.912,0,0,1,1.09-2.895,4.089,4.089,0,0,1,5.559,0,3.92,3.92,0,0,1,1.086,2.895,3.923,3.923,0,0,1-1.09,2.9A3.762,3.762,0,0,1,170.262,16.148Zm-.008-1.125a2.359,2.359,0,0,0,1.816-.789,2.957,2.957,0,0,0,.723-2.078,2.945,2.945,0,0,0-.723-2.07,2.359,2.359,0,0,0-1.816-.789,2.326,2.326,0,0,0-1.8.789,2.965,2.965,0,0,0-.715,2.07,2.976,2.976,0,0,0,.715,2.078A2.326,2.326,0,0,0,170.254,15.023ZM186.074,4h1.352V16h-1.3l-.031-1.492A2.826,2.826,0,0,1,185,15.719a3.048,3.048,0,0,1-1.625.445,3.49,3.49,0,0,1-2.535-1.082,3.7,3.7,0,0,1-.773-1.27,4.644,4.644,0,0,1-.285-1.648,4.038,4.038,0,0,1,1.043-2.883,3.367,3.367,0,0,1,2.551-1.109,3.061,3.061,0,0,1,1.605.434,2.842,2.842,0,0,1,1.1,1.176Zm-2.422,10.992a2.3,2.3,0,0,0,1.785-.809,2.919,2.919,0,0,0,.723-2.02,2.913,2.913,0,0,0-.727-2.016,2.3,2.3,0,0,0-1.781-.812,2.35,2.35,0,0,0-1.8.785,2.889,2.889,0,0,0-.727,2.043,2.889,2.889,0,0,0,.727,2.043A2.35,2.35,0,0,0,183.652,14.992Zm13.242-2.984-.016.367h-6a2.714,2.714,0,0,0,.734,1.965,2.411,2.411,0,0,0,1.75.684,2.3,2.3,0,0,0,1.273-.367,2.383,2.383,0,0,0,.875-1.016l1.219.258a3.464,3.464,0,0,1-1.312,1.648,3.581,3.581,0,0,1-2.039.6,3.71,3.71,0,0,1-2.766-1.07,3.982,3.982,0,0,1-1.055-2.922,3.962,3.962,0,0,1,1.059-2.914,3.664,3.664,0,0,1,2.723-1.07,3.467,3.467,0,0,1,2.582.984A3.889,3.889,0,0,1,196.895,12.008Zm-3.555-2.8a2.4,2.4,0,0,0-1.6.543,2.488,2.488,0,0,0-.809,1.582h4.6a2.282,2.282,0,0,0-.672-1.582A2.17,2.17,0,0,0,193.34,9.211ZM203.168,16V4h1.367V16Zm5.891.148a2.613,2.613,0,0,1-1.684-.527,1.894,1.894,0,0,1-.66-1.574,2.237,2.237,0,0,1,.211-1,1.77,1.77,0,0,1,.625-.7,3.749,3.749,0,0,1,.9-.434,8.341,8.341,0,0,1,1.168-.277l1.242-.2q.68-.125.68-.711a1.342,1.342,0,0,0-.48-1.145,1.958,1.958,0,0,0-1.215-.363,1.994,1.994,0,0,0-1.2.352,1.471,1.471,0,0,0-.57,1.078l-1.219-.258a2.346,2.346,0,0,1,.961-1.645,3.59,3.59,0,0,1,2.094-.551,4.247,4.247,0,0,1,1.113.137,3.026,3.026,0,0,1,.93.43,1.927,1.927,0,0,1,.664.828,3.081,3.081,0,0,1,.238,1.262v3.172a1.3,1.3,0,0,0,.176.8.759.759,0,0,0,.605.207h.125V16h-.672a1.281,1.281,0,0,1-1.453-1.039h-.062A2.935,2.935,0,0,1,209.059,16.148Zm.313-1.094a2.049,2.049,0,0,0,1.648-.742,3.056,3.056,0,0,0,.625-2.031l-2.031.391a2.734,2.734,0,0,0-1.191.426.99.99,0,0,0-.387.84.979.979,0,0,0,.371.844A1.586,1.586,0,0,0,209.371,15.055ZM225.5,4h1.352V16h-1.3l-.031-1.492a2.826,2.826,0,0,1-1.094,1.211,3.048,3.048,0,0,1-1.625.445,3.49,3.49,0,0,1-2.535-1.082,3.7,3.7,0,0,1-.773-1.27,4.644,4.644,0,0,1-.285-1.648,4.038,4.038,0,0,1,1.043-2.883,3.367,3.367,0,0,1,2.551-1.109,3.061,3.061,0,0,1,1.605.434,2.842,2.842,0,0,1,1.1,1.176Zm-2.422,10.992a2.3,2.3,0,0,0,1.785-.809,2.919,2.919,0,0,0,.723-2.02,2.913,2.913,0,0,0-.727-2.016,2.3,2.3,0,0,0-1.781-.812,2.35,2.35,0,0,0-1.8.785,2.889,2.889,0,0,0-.727,2.043,2.889,2.889,0,0,0,.727,2.043A2.35,2.35,0,0,0,223.074,14.992Zm7.211-8.477a.92.92,0,0,1-.914-.914.867.867,0,0,1,.27-.641.886.886,0,0,1,.645-.266.877.877,0,0,1,.637.266.867.867,0,0,1,.27.641.88.88,0,0,1-.27.645A.871.871,0,0,1,230.285,6.516ZM229.6,16V8.32h1.359V16Zm8.9-7.68h1.445L236.816,16h-1.148l-3.109-7.68H234l2.25,6.109Zm3.734-1.8a.92.92,0,0,1-.914-.914.867.867,0,0,1,.27-.641.886.886,0,0,1,.645-.266.877.877,0,0,1,.637.266.867.867,0,0,1,.27.641.88.88,0,0,1-.27.645A.871.871,0,0,1,242.23,6.516ZM241.543,16V8.32H242.9V16Zm6.539.148a3.641,3.641,0,0,1-2.07-.555A2.294,2.294,0,0,1,245,14.016l1.18-.336a1.645,1.645,0,0,0,.629,1.066,2.04,2.04,0,0,0,1.262.379,2.518,2.518,0,0,0,.738-.1,1.183,1.183,0,0,0,.566-.379,1.057,1.057,0,0,0,.164-1.016,1.356,1.356,0,0,0-.125-.254.774.774,0,0,0-.219-.211,2.884,2.884,0,0,0-.266-.164,2.727,2.727,0,0,0-.348-.145q-.23-.082-.371-.125t-.43-.125q-.289-.082-.445-.129a8.329,8.329,0,0,1-.8-.281,3.5,3.5,0,0,1-.648-.371,1.493,1.493,0,0,1-.5-.605,2.048,2.048,0,0,1-.168-.859,1.986,1.986,0,0,1,.375-1.227,2.11,2.11,0,0,1,.973-.723,3.888,3.888,0,0,1,1.363-.223,3.337,3.337,0,0,1,1.871.5,2.134,2.134,0,0,1,.934,1.5l-1.109.281a1.471,1.471,0,0,0-.586-.973,1.866,1.866,0,0,0-1.1-.324,1.9,1.9,0,0,0-1.031.27.906.906,0,0,0-.43.824.82.82,0,0,0,.113.426,1.352,1.352,0,0,0,.23.3,1.417,1.417,0,0,0,.422.23q.3.121.453.164t.563.145q.078.023.117.031.453.117.738.207a4.538,4.538,0,0,1,.664.281,2.208,2.208,0,0,1,.6.418,1.937,1.937,0,0,1,.375.594,2.1,2.1,0,0,1,.156.828,2.237,2.237,0,0,1-.23,1.035,1.8,1.8,0,0,1-.629.707,3.042,3.042,0,0,1-.895.387A4.262,4.262,0,0,1,248.082,16.148Zm5.641-9.633a.92.92,0,0,1-.914-.914.867.867,0,0,1,.27-.641.886.886,0,0,1,.645-.266.877.877,0,0,1,.637.266.867.867,0,0,1,.27.641.88.88,0,0,1-.27.645A.871.871,0,0,1,253.723,6.516ZM253.035,16V8.32h1.359V16Zm6.828-9,1.961-2.547.719.523L260.793,7Zm.516,9.148a4.048,4.048,0,0,1-1.969-.477,3.47,3.47,0,0,1-1.387-1.395,4.283,4.283,0,0,1-.512-2.121,3.912,3.912,0,0,1,1.09-2.895,4.089,4.089,0,0,1,5.559,0,3.92,3.92,0,0,1,1.086,2.895,3.923,3.923,0,0,1-1.09,2.9A3.762,3.762,0,0,1,260.379,16.148Zm-.008-1.125a2.359,2.359,0,0,0,1.816-.789,2.957,2.957,0,0,0,.723-2.078,2.945,2.945,0,0,0-.723-2.07,2.359,2.359,0,0,0-1.816-.789,2.326,2.326,0,0,0-1.8.789,2.965,2.965,0,0,0-.715,2.07,2.976,2.976,0,0,0,.715,2.078A2.326,2.326,0,0,0,260.371,15.023Zm9.617-6.852a2.671,2.671,0,0,1,1.934.7,2.594,2.594,0,0,1,.723,1.961V16h-1.352V11.133a1.816,1.816,0,0,0-.469-1.375,1.676,1.676,0,0,0-1.2-.445,1.858,1.858,0,0,0-1.367.527,2.14,2.14,0,0,0-.539,1.566V16h-1.352V8.32h1.352V9.3A2.565,2.565,0,0,1,269.988,8.172Z" transform="translate(7045 -4318)" fill="#00223d"/>
    <path id="Trazado_10727" data-name="Trazado 10727" d="M40.316,5a3.257,3.257,0,0,1,1.723.457A3.087,3.087,0,0,1,43.2,6.68a3.588,3.588,0,0,1,.4,1.7,3.338,3.338,0,0,1-.91,2.395,3.123,3.123,0,0,1-2.371.957H37.551V16h-1.4V5Zm-.2,5.508a2,2,0,0,0,1.531-.59A2.183,2.183,0,0,0,42.2,8.359a2.189,2.189,0,0,0-.555-1.551,1.986,1.986,0,0,0-1.531-.6H37.551v4.3Zm8.133,5.641a4.048,4.048,0,0,1-1.969-.477,3.47,3.47,0,0,1-1.387-1.395,4.283,4.283,0,0,1-.512-2.121,3.912,3.912,0,0,1,1.09-2.895,4.089,4.089,0,0,1,5.559,0,3.92,3.92,0,0,1,1.086,2.895,3.923,3.923,0,0,1-1.09,2.9A3.762,3.762,0,0,1,48.246,16.148Zm-.008-1.125a2.359,2.359,0,0,0,1.816-.789,2.957,2.957,0,0,0,.723-2.078,2.945,2.945,0,0,0-.723-2.07A2.359,2.359,0,0,0,48.238,9.3a2.326,2.326,0,0,0-1.8.789,2.965,2.965,0,0,0-.715,2.07,2.976,2.976,0,0,0,.715,2.078A2.326,2.326,0,0,0,48.238,15.023ZM56.684,16a2.019,2.019,0,0,1-1.5-.551,2.084,2.084,0,0,1-.547-1.535V9.4h-1.57V8.32h.578a1.11,1.11,0,0,0,.848-.27,1.326,1.326,0,0,0,.246-.9V5.758H56V8.32h1.766V9.4H56v4.375a1.164,1.164,0,0,0,.293.848,1.026,1.026,0,0,0,.77.3h.7V16Zm9.656-3.992-.016.367h-6a2.714,2.714,0,0,0,.734,1.965,2.411,2.411,0,0,0,1.75.684,2.3,2.3,0,0,0,1.273-.367,2.383,2.383,0,0,0,.875-1.016l1.219.258a3.464,3.464,0,0,1-1.312,1.648,3.581,3.581,0,0,1-2.039.6,3.71,3.71,0,0,1-2.766-1.07A3.982,3.982,0,0,1,59,12.156a3.962,3.962,0,0,1,1.059-2.914,3.664,3.664,0,0,1,2.723-1.07,3.467,3.467,0,0,1,2.582.984A3.889,3.889,0,0,1,66.34,12.008Zm-3.555-2.8a2.4,2.4,0,0,0-1.6.543,2.488,2.488,0,0,0-.809,1.582h4.6a2.282,2.282,0,0,0-.672-1.582A2.17,2.17,0,0,0,62.785,9.211Zm9.3-1.039a2.671,2.671,0,0,1,1.934.7,2.594,2.594,0,0,1,.723,1.961V16H73.387V11.133a1.816,1.816,0,0,0-.469-1.375,1.676,1.676,0,0,0-1.2-.445,1.858,1.858,0,0,0-1.367.527,2.14,2.14,0,0,0-.539,1.566V16H68.457V8.32h1.352V9.3A2.565,2.565,0,0,1,72.082,8.172Zm8.453,7.969a3.7,3.7,0,0,1-2.75-1.1A3.929,3.929,0,0,1,76.7,12.156a3.937,3.937,0,0,1,1.082-2.883,4,4,0,0,1,4.977-.43,3.391,3.391,0,0,1,1.293,1.867l-1.266.2a2.337,2.337,0,0,0-.867-1.2A2.361,2.361,0,0,0,80.527,9.3a2.27,2.27,0,0,0-1.777.789,3.006,3.006,0,0,0-.7,2.07,2.991,2.991,0,0,0,.7,2.066,2.275,2.275,0,0,0,1.777.785,2.361,2.361,0,0,0,1.391-.422,2.337,2.337,0,0,0,.867-1.2l1.266.211a3.4,3.4,0,0,1-1.3,1.863A3.72,3.72,0,0,1,80.535,16.141Zm6.2-9.625a.92.92,0,0,1-.914-.914.867.867,0,0,1,.27-.641A.886.886,0,0,1,86.73,4.7a.877.877,0,0,1,.637.266.867.867,0,0,1,.27.641.88.88,0,0,1-.27.645A.871.871,0,0,1,86.73,6.516ZM86.043,16V8.32H87.4V16Zm5.883.148a2.613,2.613,0,0,1-1.684-.527,1.894,1.894,0,0,1-.66-1.574,2.237,2.237,0,0,1,.211-1,1.77,1.77,0,0,1,.625-.7,3.749,3.749,0,0,1,.9-.434,8.341,8.341,0,0,1,1.168-.277l1.242-.2q.68-.125.68-.711a1.342,1.342,0,0,0-.48-1.145,1.958,1.958,0,0,0-1.215-.363,1.994,1.994,0,0,0-1.2.352,1.471,1.471,0,0,0-.57,1.078l-1.219-.258a2.346,2.346,0,0,1,.961-1.645,3.59,3.59,0,0,1,2.094-.551,4.247,4.247,0,0,1,1.113.137,3.025,3.025,0,0,1,.93.43,1.927,1.927,0,0,1,.664.828,3.081,3.081,0,0,1,.238,1.262v3.172a1.3,1.3,0,0,0,.176.8.759.759,0,0,0,.605.207h.125V16h-.672A1.281,1.281,0,0,1,94.5,14.961h-.062A2.935,2.935,0,0,1,91.926,16.148Zm.313-1.094a2.049,2.049,0,0,0,1.648-.742,3.056,3.056,0,0,0,.625-2.031l-2.031.391a2.734,2.734,0,0,0-1.191.426.99.99,0,0,0-.387.84.979.979,0,0,0,.371.844A1.586,1.586,0,0,0,92.238,15.055Zm7.4-4.336A.877.877,0,0,1,99,10.453a.908.908,0,0,1,.637-1.547.88.88,0,0,1,.645.27.891.891,0,0,1,0,1.277A.886.886,0,0,1,99.637,10.719Zm0,5.438A.877.877,0,0,1,99,15.891a.908.908,0,0,1,.637-1.547.88.88,0,0,1,.645.27.891.891,0,0,1,0,1.277A.886.886,0,0,1,99.637,16.156ZM110.746,16l2.953-3.844L110.746,8.32h1.664l2.125,2.938L116.66,8.32H118.3l-2.961,3.836L118.3,16h-1.648l-2.109-2.922L112.41,16Zm20.094-3.992-.016.367h-6a2.714,2.714,0,0,0,.734,1.965,2.411,2.411,0,0,0,1.75.684,2.3,2.3,0,0,0,1.273-.367,2.383,2.383,0,0,0,.875-1.016l1.219.258a3.464,3.464,0,0,1-1.312,1.648,3.581,3.581,0,0,1-2.039.6,3.71,3.71,0,0,1-2.766-1.07,3.982,3.982,0,0,1-1.055-2.922,3.962,3.962,0,0,1,1.059-2.914,3.664,3.664,0,0,1,2.723-1.07,3.467,3.467,0,0,1,2.582.984A3.889,3.889,0,0,1,130.84,12.008Zm-3.555-2.8a2.4,2.4,0,0,0-1.6.543,2.488,2.488,0,0,0-.809,1.582h4.6a2.282,2.282,0,0,0-.672-1.582A2.17,2.17,0,0,0,127.285,9.211ZM132.957,16V4h1.367V16Zm10.836-3.992-.016.367h-6a2.714,2.714,0,0,0,.734,1.965,2.411,2.411,0,0,0,1.75.684,2.3,2.3,0,0,0,1.273-.367,2.383,2.383,0,0,0,.875-1.016l1.219.258a3.464,3.464,0,0,1-1.312,1.648,3.581,3.581,0,0,1-2.039.6,3.71,3.71,0,0,1-2.766-1.07,3.982,3.982,0,0,1-1.055-2.922,3.962,3.962,0,0,1,1.059-2.914,3.664,3.664,0,0,1,2.723-1.07,3.467,3.467,0,0,1,2.582.984A3.889,3.889,0,0,1,143.793,12.008Zm-3.555-2.8a2.4,2.4,0,0,0-1.6.543,2.488,2.488,0,0,0-.809,1.582h4.6a2.282,2.282,0,0,0-.672-1.582A2.17,2.17,0,0,0,140.238,9.211Zm10.156-.891h1.445L148.715,16h-1.148l-3.109-7.68h1.438l2.25,6.109Zm4.516,7.828a2.613,2.613,0,0,1-1.684-.527,1.894,1.894,0,0,1-.66-1.574,2.237,2.237,0,0,1,.211-1,1.77,1.77,0,0,1,.625-.7,3.749,3.749,0,0,1,.9-.434,8.341,8.341,0,0,1,1.168-.277l1.242-.2q.68-.125.68-.711a1.342,1.342,0,0,0-.48-1.145,1.958,1.958,0,0,0-1.215-.363,1.994,1.994,0,0,0-1.2.352,1.471,1.471,0,0,0-.57,1.078l-1.219-.258a2.346,2.346,0,0,1,.961-1.645,3.59,3.59,0,0,1,2.094-.551,4.247,4.247,0,0,1,1.113.137,3.026,3.026,0,0,1,.93.43,1.927,1.927,0,0,1,.664.828,3.081,3.081,0,0,1,.238,1.262v3.172a1.3,1.3,0,0,0,.176.8.759.759,0,0,0,.605.207h.125V16h-.672a1.281,1.281,0,0,1-1.453-1.039h-.062A2.935,2.935,0,0,1,154.91,16.148Zm.313-1.094a2.049,2.049,0,0,0,1.648-.742,3.056,3.056,0,0,0,.625-2.031l-2.031.391a2.734,2.734,0,0,0-1.191.426.99.99,0,0,0-.387.84.979.979,0,0,0,.371.844A1.586,1.586,0,0,0,155.223,15.055ZM167.035,4h1.352V16h-1.3l-.031-1.492a2.826,2.826,0,0,1-1.094,1.211,3.048,3.048,0,0,1-1.625.445,3.49,3.49,0,0,1-2.535-1.082,3.7,3.7,0,0,1-.773-1.27,4.644,4.644,0,0,1-.285-1.648,4.038,4.038,0,0,1,1.043-2.883,3.367,3.367,0,0,1,2.551-1.109,3.061,3.061,0,0,1,1.605.434,2.842,2.842,0,0,1,1.1,1.176Zm-2.422,10.992a2.3,2.3,0,0,0,1.785-.809,2.919,2.919,0,0,0,.723-2.02,2.913,2.913,0,0,0-.727-2.016,2.3,2.3,0,0,0-1.781-.812,2.35,2.35,0,0,0-1.8.785,2.889,2.889,0,0,0-.727,2.043,2.889,2.889,0,0,0,.727,2.043A2.35,2.35,0,0,0,164.613,14.992Zm9.758,1.156a4.048,4.048,0,0,1-1.969-.477,3.47,3.47,0,0,1-1.387-1.395,4.284,4.284,0,0,1-.512-2.121,3.912,3.912,0,0,1,1.09-2.895,4.089,4.089,0,0,1,5.559,0,3.92,3.92,0,0,1,1.086,2.895,3.923,3.923,0,0,1-1.09,2.9A3.762,3.762,0,0,1,174.371,16.148Zm-.008-1.125a2.359,2.359,0,0,0,1.816-.789,2.957,2.957,0,0,0,.723-2.078,2.945,2.945,0,0,0-.723-2.07,2.359,2.359,0,0,0-1.816-.789,2.326,2.326,0,0,0-1.8.789,2.965,2.965,0,0,0-.715,2.07,2.976,2.976,0,0,0,.715,2.078A2.326,2.326,0,0,0,174.363,15.023Zm11.922,1.125a2.613,2.613,0,0,1-1.684-.527,1.894,1.894,0,0,1-.66-1.574,2.237,2.237,0,0,1,.211-1,1.77,1.77,0,0,1,.625-.7,3.749,3.749,0,0,1,.9-.434,8.341,8.341,0,0,1,1.168-.277l1.242-.2q.68-.125.68-.711a1.342,1.342,0,0,0-.48-1.145,1.958,1.958,0,0,0-1.215-.363,1.994,1.994,0,0,0-1.2.352,1.471,1.471,0,0,0-.57,1.078l-1.219-.258a2.346,2.346,0,0,1,.961-1.645,3.59,3.59,0,0,1,2.094-.551,4.247,4.247,0,0,1,1.113.137,3.026,3.026,0,0,1,.93.43,1.927,1.927,0,0,1,.664.828,3.081,3.081,0,0,1,.238,1.262v3.172a1.3,1.3,0,0,0,.176.8.759.759,0,0,0,.605.207h.125V16h-.672a1.281,1.281,0,0,1-1.453-1.039H188.8A2.935,2.935,0,0,1,186.285,16.148Zm.313-1.094a2.049,2.049,0,0,0,1.648-.742,3.056,3.056,0,0,0,.625-2.031l-2.031.391a2.734,2.734,0,0,0-1.191.426.99.99,0,0,0-.387.84.979.979,0,0,0,.371.844A1.586,1.586,0,0,0,186.6,15.055ZM197.051,16V4h1.367V16Zm5.891.148a2.613,2.613,0,0,1-1.684-.527,1.894,1.894,0,0,1-.66-1.574,2.237,2.237,0,0,1,.211-1,1.77,1.77,0,0,1,.625-.7,3.749,3.749,0,0,1,.9-.434,8.341,8.341,0,0,1,1.168-.277l1.242-.2q.68-.125.68-.711a1.342,1.342,0,0,0-.48-1.145,1.958,1.958,0,0,0-1.215-.363,1.994,1.994,0,0,0-1.2.352,1.471,1.471,0,0,0-.57,1.078l-1.219-.258a2.346,2.346,0,0,1,.961-1.645,3.59,3.59,0,0,1,2.094-.551,4.247,4.247,0,0,1,1.113.137,3.026,3.026,0,0,1,.93.43,1.927,1.927,0,0,1,.664.828,3.081,3.081,0,0,1,.238,1.262v3.172a1.3,1.3,0,0,0,.176.8.759.759,0,0,0,.605.207h.125V16h-.672a1.281,1.281,0,0,1-1.453-1.039h-.062A2.935,2.935,0,0,1,202.941,16.148Zm.313-1.094a2.049,2.049,0,0,0,1.648-.742,3.056,3.056,0,0,0,.625-2.031l-2.031.391a2.734,2.734,0,0,0-1.191.426.99.99,0,0,0-.387.84.979.979,0,0,0,.371.844A1.586,1.586,0,0,0,203.254,15.055Zm14.508-6.883a3.493,3.493,0,0,1,1.391.281,3.421,3.421,0,0,1,1.141.789,3.688,3.688,0,0,1,.77,1.266,4.667,4.667,0,0,1,.285,1.656,4.06,4.06,0,0,1-1.035,2.9,3.362,3.362,0,0,1-2.551,1.1,3.04,3.04,0,0,1-1.605-.437,2.867,2.867,0,0,1-1.1-1.18v5.32h-1.352V8.32h1.3l.031,1.492a2.811,2.811,0,0,1,1.094-1.2A3.068,3.068,0,0,1,217.762,8.172Zm-.266,6.82a2.332,2.332,0,0,0,1.777-.777A2.892,2.892,0,0,0,220,12.164a2.877,2.877,0,0,0-.723-2.047,2.423,2.423,0,0,0-3.582.035,2.88,2.88,0,0,0-.734,2.012,2.891,2.891,0,0,0,.734,2.02A2.343,2.343,0,0,0,217.5,14.992Zm9.219,1.156a4.048,4.048,0,0,1-1.969-.477,3.47,3.47,0,0,1-1.387-1.395,4.284,4.284,0,0,1-.512-2.121,3.912,3.912,0,0,1,1.09-2.895,4.089,4.089,0,0,1,5.559,0,3.92,3.92,0,0,1,1.086,2.895,3.923,3.923,0,0,1-1.09,2.9A3.762,3.762,0,0,1,226.715,16.148Zm-.008-1.125a2.359,2.359,0,0,0,1.816-.789,2.957,2.957,0,0,0,.723-2.078,2.945,2.945,0,0,0-.723-2.07,2.359,2.359,0,0,0-1.816-.789,2.326,2.326,0,0,0-1.8.789,2.965,2.965,0,0,0-.715,2.07,2.976,2.976,0,0,0,.715,2.078A2.326,2.326,0,0,0,226.707,15.023Zm8.445.977a2.019,2.019,0,0,1-1.5-.551,2.084,2.084,0,0,1-.547-1.535V9.4h-1.57V8.32h.578a1.11,1.11,0,0,0,.848-.27,1.326,1.326,0,0,0,.246-.9V5.758h1.258V8.32h1.766V9.4h-1.766v4.375a1.164,1.164,0,0,0,.293.848,1.026,1.026,0,0,0,.77.3h.7V16Zm9.656-3.992-.016.367h-6a2.714,2.714,0,0,0,.734,1.965,2.411,2.411,0,0,0,1.75.684,2.3,2.3,0,0,0,1.273-.367,2.383,2.383,0,0,0,.875-1.016l1.219.258a3.464,3.464,0,0,1-1.312,1.648,3.581,3.581,0,0,1-2.039.6,3.71,3.71,0,0,1-2.766-1.07,3.982,3.982,0,0,1-1.055-2.922,3.962,3.962,0,0,1,1.059-2.914,3.664,3.664,0,0,1,2.723-1.07,3.467,3.467,0,0,1,2.582.984A3.889,3.889,0,0,1,244.809,12.008Zm-3.555-2.8a2.4,2.4,0,0,0-1.6.543,2.488,2.488,0,0,0-.809,1.582h4.6a2.282,2.282,0,0,0-.672-1.582A2.17,2.17,0,0,0,241.254,9.211Zm9.3-1.039a2.671,2.671,0,0,1,1.934.7,2.594,2.594,0,0,1,.723,1.961V16h-1.352V11.133a1.816,1.816,0,0,0-.469-1.375,1.676,1.676,0,0,0-1.2-.445,1.858,1.858,0,0,0-1.367.527,2.14,2.14,0,0,0-.539,1.566V16h-1.352V8.32h1.352V9.3A2.565,2.565,0,0,1,250.551,8.172ZM259,16.141a3.7,3.7,0,0,1-2.75-1.1,3.929,3.929,0,0,1-1.086-2.883,3.937,3.937,0,0,1,1.082-2.883,4,4,0,0,1,4.977-.43,3.391,3.391,0,0,1,1.293,1.867l-1.266.2a2.337,2.337,0,0,0-.867-1.2A2.361,2.361,0,0,0,259,9.3a2.27,2.27,0,0,0-1.777.789,3.006,3.006,0,0,0-.7,2.07,2.991,2.991,0,0,0,.7,2.066,2.275,2.275,0,0,0,1.777.785,2.361,2.361,0,0,0,1.391-.422,2.337,2.337,0,0,0,.867-1.2l1.266.211a3.4,3.4,0,0,1-1.3,1.863A3.72,3.72,0,0,1,259,16.141Zm6.2-9.625a.92.92,0,0,1-.914-.914.867.867,0,0,1,.27-.641A.886.886,0,0,1,265.2,4.7a.877.877,0,0,1,.637.266.867.867,0,0,1,.27.641.88.88,0,0,1-.27.645A.871.871,0,0,1,265.2,6.516ZM264.512,16V8.32h1.359V16Zm5.883.148a2.613,2.613,0,0,1-1.684-.527,1.894,1.894,0,0,1-.66-1.574,2.237,2.237,0,0,1,.211-1,1.77,1.77,0,0,1,.625-.7,3.749,3.749,0,0,1,.9-.434,8.342,8.342,0,0,1,1.168-.277l1.242-.2q.68-.125.68-.711a1.342,1.342,0,0,0-.48-1.145,1.958,1.958,0,0,0-1.215-.363,1.994,1.994,0,0,0-1.2.352,1.471,1.471,0,0,0-.57,1.078l-1.219-.258a2.346,2.346,0,0,1,.961-1.645,3.59,3.59,0,0,1,2.094-.551,4.247,4.247,0,0,1,1.113.137,3.025,3.025,0,0,1,.93.43,1.927,1.927,0,0,1,.664.828,3.081,3.081,0,0,1,.238,1.262v3.172a1.3,1.3,0,0,0,.176.8.759.759,0,0,0,.605.207h.125V16h-.672a1.281,1.281,0,0,1-1.453-1.039h-.062A2.935,2.935,0,0,1,270.395,16.148Zm.313-1.094a2.049,2.049,0,0,0,1.648-.742,3.056,3.056,0,0,0,.625-2.031l-2.031.391a2.734,2.734,0,0,0-1.191.426.99.99,0,0,0-.387.84.979.979,0,0,0,.371.844A1.586,1.586,0,0,0,270.707,15.055ZM285.895,8.32h1.43l-4.445,11.3h-1.4l1.539-3.8L280.035,8.32h1.5L283.7,14.3Z" transform="translate(7045 -4247)" fill="#00223d"/>
    <path id="Trazado_10742" data-name="Trazado 10742" d="M28.559,16V5h3.547a5.26,5.26,0,0,1,2.8.711,4.337,4.337,0,0,1,1.719,1.934,6.793,6.793,0,0,1,.559,2.848,7.2,7.2,0,0,1-.324,2.223,5.035,5.035,0,0,1-.949,1.738,4.164,4.164,0,0,1-1.6,1.141A5.681,5.681,0,0,1,32.105,16Zm1.4-1.273h2.1A3.35,3.35,0,0,0,34.8,13.6a4.756,4.756,0,0,0,.926-3.109A4.716,4.716,0,0,0,34.8,7.4a3.352,3.352,0,0,0-2.742-1.125h-2.1ZM46.27,12.008l-.016.367h-6a2.714,2.714,0,0,0,.734,1.965,2.411,2.411,0,0,0,1.75.684,2.3,2.3,0,0,0,1.273-.367,2.383,2.383,0,0,0,.875-1.016l1.219.258a3.464,3.464,0,0,1-1.312,1.648,3.581,3.581,0,0,1-2.039.6,3.71,3.71,0,0,1-2.766-1.07,3.982,3.982,0,0,1-1.055-2.922,3.962,3.962,0,0,1,1.059-2.914,3.664,3.664,0,0,1,2.723-1.07,3.467,3.467,0,0,1,2.582.984A3.889,3.889,0,0,1,46.27,12.008Zm-3.555-2.8a2.4,2.4,0,0,0-1.6.543,2.488,2.488,0,0,0-.809,1.582h4.6a2.282,2.282,0,0,0-.672-1.582A2.17,2.17,0,0,0,42.715,9.211ZM52.871,8.32h1.445L51.191,16H50.043L46.934,8.32h1.438l2.25,6.109Zm7.828,0h1.352V16h-1.3l-.031-1.016a2.4,2.4,0,0,1-.953.863,2.932,2.932,0,0,1-1.344.3,2.671,2.671,0,0,1-1.934-.7,2.594,2.594,0,0,1-.723-1.961V8.32h1.352v4.867a1.822,1.822,0,0,0,.473,1.375,1.673,1.673,0,0,0,1.207.453,1.837,1.837,0,0,0,1.363-.531,2.164,2.164,0,0,0,.535-1.57Zm10.82,3.688-.016.367h-6a2.714,2.714,0,0,0,.734,1.965,2.411,2.411,0,0,0,1.75.684,2.3,2.3,0,0,0,1.273-.367,2.383,2.383,0,0,0,.875-1.016l1.219.258a3.464,3.464,0,0,1-1.312,1.648,3.581,3.581,0,0,1-2.039.6,3.71,3.71,0,0,1-2.766-1.07,3.982,3.982,0,0,1-1.055-2.922,3.962,3.962,0,0,1,1.059-2.914,3.664,3.664,0,0,1,2.723-1.07,3.467,3.467,0,0,1,2.582.984A3.889,3.889,0,0,1,71.52,12.008Zm-3.555-2.8a2.4,2.4,0,0,0-1.6.543,2.488,2.488,0,0,0-.809,1.582h4.6a2.282,2.282,0,0,0-.672-1.582A2.17,2.17,0,0,0,67.965,9.211ZM73.637,16V4H75V16Zm8.906-7.68h1.445L80.863,16H79.715L76.605,8.32h1.438l2.25,6.109ZM92,12.008l-.016.367h-6a2.714,2.714,0,0,0,.734,1.965,2.411,2.411,0,0,0,1.75.684,2.3,2.3,0,0,0,1.273-.367,2.383,2.383,0,0,0,.875-1.016l1.219.258a3.464,3.464,0,0,1-1.312,1.648,3.581,3.581,0,0,1-2.039.6,3.71,3.71,0,0,1-2.766-1.07,3.982,3.982,0,0,1-1.055-2.922,3.962,3.962,0,0,1,1.059-2.914,3.664,3.664,0,0,1,2.723-1.07,3.467,3.467,0,0,1,2.582.984A3.889,3.889,0,0,1,92,12.008Zm-3.555-2.8a2.4,2.4,0,0,0-1.6.543,2.488,2.488,0,0,0-.809,1.582h4.6a2.282,2.282,0,0,0-.672-1.582A2.17,2.17,0,0,0,88.449,9.211ZM98.277,16V4h1.367V16Zm5.891.148a2.613,2.613,0,0,1-1.684-.527,1.894,1.894,0,0,1-.66-1.574,2.237,2.237,0,0,1,.211-1,1.77,1.77,0,0,1,.625-.7,3.749,3.749,0,0,1,.9-.434,8.341,8.341,0,0,1,1.168-.277l1.242-.2q.68-.125.68-.711a1.342,1.342,0,0,0-.48-1.145,1.958,1.958,0,0,0-1.215-.363,1.994,1.994,0,0,0-1.2.352,1.471,1.471,0,0,0-.57,1.078l-1.219-.258a2.346,2.346,0,0,1,.961-1.645,3.59,3.59,0,0,1,2.094-.551,4.247,4.247,0,0,1,1.113.137,3.025,3.025,0,0,1,.93.43,1.927,1.927,0,0,1,.664.828,3.081,3.081,0,0,1,.238,1.262v3.172a1.3,1.3,0,0,0,.176.8.759.759,0,0,0,.605.207h.125V16H108.2a1.281,1.281,0,0,1-1.453-1.039h-.062A2.935,2.935,0,0,1,104.168,16.148Zm.313-1.094a2.049,2.049,0,0,0,1.648-.742,3.056,3.056,0,0,0,.625-2.031l-2.031.391a2.734,2.734,0,0,0-1.191.426.99.99,0,0,0-.387.84.979.979,0,0,0,.371.844A1.586,1.586,0,0,0,104.48,15.055Zm14.508-6.883a3.493,3.493,0,0,1,1.391.281,3.421,3.421,0,0,1,1.141.789,3.688,3.688,0,0,1,.77,1.266,4.667,4.667,0,0,1,.285,1.656,4.061,4.061,0,0,1-1.035,2.9,3.362,3.362,0,0,1-2.551,1.1,3.04,3.04,0,0,1-1.605-.437,2.867,2.867,0,0,1-1.1-1.18v5.32h-1.352V8.32h1.3l.031,1.492a2.811,2.811,0,0,1,1.094-1.2A3.068,3.068,0,0,1,118.988,8.172Zm-.266,6.82a2.332,2.332,0,0,0,1.777-.777,2.891,2.891,0,0,0,.723-2.051,2.877,2.877,0,0,0-.723-2.047,2.423,2.423,0,0,0-3.582.035,2.88,2.88,0,0,0-.734,2.012,2.891,2.891,0,0,0,.734,2.02A2.343,2.343,0,0,0,118.723,14.992Zm7.758,1.156a2.613,2.613,0,0,1-1.684-.527,1.894,1.894,0,0,1-.66-1.574,2.237,2.237,0,0,1,.211-1,1.77,1.77,0,0,1,.625-.7,3.749,3.749,0,0,1,.9-.434,8.341,8.341,0,0,1,1.168-.277l1.242-.2q.68-.125.68-.711a1.342,1.342,0,0,0-.48-1.145,1.958,1.958,0,0,0-1.215-.363,1.994,1.994,0,0,0-1.2.352,1.471,1.471,0,0,0-.57,1.078l-1.219-.258a2.346,2.346,0,0,1,.961-1.645,3.59,3.59,0,0,1,2.094-.551,4.247,4.247,0,0,1,1.113.137,3.026,3.026,0,0,1,.93.43,1.927,1.927,0,0,1,.664.828,3.081,3.081,0,0,1,.238,1.262v3.172a1.3,1.3,0,0,0,.176.8.759.759,0,0,0,.605.207h.125V16h-.672a1.281,1.281,0,0,1-1.453-1.039H129A2.935,2.935,0,0,1,126.48,16.148Zm.313-1.094a2.049,2.049,0,0,0,1.648-.742,3.056,3.056,0,0,0,.625-2.031l-2.031.391a2.734,2.734,0,0,0-1.191.426.99.99,0,0,0-.387.84.979.979,0,0,0,.371.844A1.586,1.586,0,0,0,126.793,15.055Zm7.617-5.383a2.322,2.322,0,0,1,.953-1.031,2.87,2.87,0,0,1,1.477-.406V9.508a2.53,2.53,0,0,0-1.785.57,2.382,2.382,0,0,0-.613,1.82V16H133.09V8.32h1.32ZM141.324,16a2.019,2.019,0,0,1-1.5-.551,2.084,2.084,0,0,1-.547-1.535V9.4h-1.57V8.32h.578a1.11,1.11,0,0,0,.848-.27,1.326,1.326,0,0,0,.246-.9V5.758h1.258V8.32H142.4V9.4h-1.766v4.375a1.164,1.164,0,0,0,.293.848,1.026,1.026,0,0,0,.77.3h.7V16Zm9.656-3.992-.016.367h-6a2.714,2.714,0,0,0,.734,1.965,2.411,2.411,0,0,0,1.75.684,2.3,2.3,0,0,0,1.273-.367,2.383,2.383,0,0,0,.875-1.016l1.219.258a3.464,3.464,0,0,1-1.312,1.648,3.581,3.581,0,0,1-2.039.6,3.71,3.71,0,0,1-2.766-1.07,3.982,3.982,0,0,1-1.055-2.922A3.962,3.962,0,0,1,144.7,9.242a3.664,3.664,0,0,1,2.723-1.07,3.467,3.467,0,0,1,2.582.984A3.889,3.889,0,0,1,150.98,12.008Zm-3.555-2.8a2.4,2.4,0,0,0-1.6.543,2.488,2.488,0,0,0-.809,1.582h4.6a2.282,2.282,0,0,0-.672-1.582A2.17,2.17,0,0,0,147.426,9.211Zm16.547,2.8-.016.367h-6a2.714,2.714,0,0,0,.734,1.965,2.411,2.411,0,0,0,1.75.684,2.3,2.3,0,0,0,1.273-.367,2.383,2.383,0,0,0,.875-1.016l1.219.258a3.464,3.464,0,0,1-1.312,1.648,3.581,3.581,0,0,1-2.039.6,3.71,3.71,0,0,1-2.766-1.07,3.982,3.982,0,0,1-1.055-2.922A3.962,3.962,0,0,1,157.7,9.242a3.664,3.664,0,0,1,2.723-1.07A3.467,3.467,0,0,1,163,9.156,3.889,3.889,0,0,1,163.973,12.008Zm-3.555-2.8a2.4,2.4,0,0,0-1.6.543,2.488,2.488,0,0,0-.809,1.582h4.6a2.282,2.282,0,0,0-.672-1.582A2.17,2.17,0,0,0,160.418,9.211Zm9.3-1.039a2.671,2.671,0,0,1,1.934.7,2.594,2.594,0,0,1,.723,1.961V16H171.02V11.133a1.816,1.816,0,0,0-.469-1.375,1.676,1.676,0,0,0-1.2-.445,1.858,1.858,0,0,0-1.367.527,2.14,2.14,0,0,0-.539,1.566V16H166.09V8.32h1.352V9.3A2.565,2.565,0,0,1,169.715,8.172ZM177.434,16a2.019,2.019,0,0,1-1.5-.551,2.084,2.084,0,0,1-.547-1.535V9.4h-1.57V8.32h.578a1.11,1.11,0,0,0,.848-.27,1.326,1.326,0,0,0,.246-.9V5.758h1.258V8.32h1.766V9.4h-1.766v4.375a1.164,1.164,0,0,0,.293.848,1.026,1.026,0,0,0,.77.3h.7V16Zm9.656-3.992-.016.367h-6a2.714,2.714,0,0,0,.734,1.965,2.411,2.411,0,0,0,1.75.684,2.3,2.3,0,0,0,1.273-.367,2.383,2.383,0,0,0,.875-1.016l1.219.258a3.464,3.464,0,0,1-1.312,1.648,3.581,3.581,0,0,1-2.039.6,3.71,3.71,0,0,1-2.766-1.07,3.982,3.982,0,0,1-1.055-2.922,3.962,3.962,0,0,1,1.059-2.914,3.664,3.664,0,0,1,2.723-1.07,3.467,3.467,0,0,1,2.582.984A3.889,3.889,0,0,1,187.09,12.008Zm-3.555-2.8a2.4,2.4,0,0,0-1.6.543,2.488,2.488,0,0,0-.809,1.582h4.6a2.282,2.282,0,0,0-.672-1.582A2.17,2.17,0,0,0,183.535,9.211Zm6.992.461a2.322,2.322,0,0,1,.953-1.031,2.87,2.87,0,0,1,1.477-.406V9.508a2.53,2.53,0,0,0-1.785.57,2.382,2.382,0,0,0-.613,1.82V16h-1.352V8.32h1.32Zm5.7,6.477a2.613,2.613,0,0,1-1.684-.527,1.894,1.894,0,0,1-.66-1.574,2.237,2.237,0,0,1,.211-1,1.77,1.77,0,0,1,.625-.7,3.749,3.749,0,0,1,.9-.434,8.341,8.341,0,0,1,1.168-.277l1.242-.2q.68-.125.68-.711a1.342,1.342,0,0,0-.48-1.145,1.958,1.958,0,0,0-1.215-.363,1.994,1.994,0,0,0-1.2.352,1.471,1.471,0,0,0-.57,1.078l-1.219-.258a2.346,2.346,0,0,1,.961-1.645,3.59,3.59,0,0,1,2.094-.551,4.247,4.247,0,0,1,1.113.137,3.026,3.026,0,0,1,.93.43,1.927,1.927,0,0,1,.664.828,3.081,3.081,0,0,1,.238,1.262v3.172a1.3,1.3,0,0,0,.176.8.759.759,0,0,0,.605.207h.125V16h-.672a1.281,1.281,0,0,1-1.453-1.039h-.062A2.935,2.935,0,0,1,196.223,16.148Zm.313-1.094a2.049,2.049,0,0,0,1.648-.742,3.056,3.056,0,0,0,.625-2.031l-2.031.391a2.734,2.734,0,0,0-1.191.426.99.99,0,0,0-.387.84.979.979,0,0,0,.371.844A1.586,1.586,0,0,0,196.535,15.055ZM212.66,4h1.352V16h-1.3l-.031-1.492a2.826,2.826,0,0,1-1.094,1.211,3.048,3.048,0,0,1-1.625.445,3.49,3.49,0,0,1-2.535-1.082,3.7,3.7,0,0,1-.773-1.27,4.644,4.644,0,0,1-.285-1.648,4.038,4.038,0,0,1,1.043-2.883,3.367,3.367,0,0,1,2.551-1.109,3.061,3.061,0,0,1,1.605.434,2.842,2.842,0,0,1,1.1,1.176Zm-2.422,10.992a2.3,2.3,0,0,0,1.785-.809,2.919,2.919,0,0,0,.723-2.02,2.913,2.913,0,0,0-.727-2.016,2.3,2.3,0,0,0-1.781-.812,2.35,2.35,0,0,0-1.8.785,2.889,2.889,0,0,0-.727,2.043,2.889,2.889,0,0,0,.727,2.043A2.35,2.35,0,0,0,210.238,14.992Zm13.242-2.984-.016.367h-6a2.714,2.714,0,0,0,.734,1.965,2.411,2.411,0,0,0,1.75.684,2.3,2.3,0,0,0,1.273-.367,2.383,2.383,0,0,0,.875-1.016l1.219.258A3.464,3.464,0,0,1,222,15.547a3.581,3.581,0,0,1-2.039.6,3.71,3.71,0,0,1-2.766-1.07,3.982,3.982,0,0,1-1.055-2.922A3.962,3.962,0,0,1,217.2,9.242a3.664,3.664,0,0,1,2.723-1.07,3.467,3.467,0,0,1,2.582.984A3.889,3.889,0,0,1,223.48,12.008Zm-3.555-2.8a2.4,2.4,0,0,0-1.6.543,2.488,2.488,0,0,0-.809,1.582h4.6a2.282,2.282,0,0,0-.672-1.582A2.17,2.17,0,0,0,219.926,9.211ZM225.6,16V4h1.367V16Zm11.461.141a3.7,3.7,0,0,1-2.75-1.1,3.929,3.929,0,0,1-1.086-2.883A3.937,3.937,0,0,1,234.3,9.273a4,4,0,0,1,4.977-.43,3.391,3.391,0,0,1,1.293,1.867l-1.266.2a2.337,2.337,0,0,0-.867-1.2,2.361,2.361,0,0,0-1.391-.422,2.27,2.27,0,0,0-1.777.789,3.006,3.006,0,0,0-.7,2.07,2.991,2.991,0,0,0,.7,2.066,2.275,2.275,0,0,0,1.777.785,2.361,2.361,0,0,0,1.391-.422,2.337,2.337,0,0,0,.867-1.2l1.266.211a3.4,3.4,0,0,1-1.3,1.863A3.72,3.72,0,0,1,237.059,16.141Zm8.742.008a4.048,4.048,0,0,1-1.969-.477,3.47,3.47,0,0,1-1.387-1.395,4.284,4.284,0,0,1-.512-2.121,3.912,3.912,0,0,1,1.09-2.895,4.089,4.089,0,0,1,5.559,0,3.92,3.92,0,0,1,1.086,2.895,3.923,3.923,0,0,1-1.09,2.9A3.762,3.762,0,0,1,245.8,16.148Zm-.008-1.125a2.359,2.359,0,0,0,1.816-.789,2.957,2.957,0,0,0,.723-2.078,2.945,2.945,0,0,0-.723-2.07,2.359,2.359,0,0,0-1.816-.789,2.326,2.326,0,0,0-1.8.789,2.965,2.965,0,0,0-.715,2.07,2.976,2.976,0,0,0,.715,2.078A2.326,2.326,0,0,0,245.793,15.023Zm9.18,1.117a3.7,3.7,0,0,1-2.75-1.1,3.929,3.929,0,0,1-1.086-2.883,3.937,3.937,0,0,1,1.082-2.883,4,4,0,0,1,4.977-.43,3.391,3.391,0,0,1,1.293,1.867l-1.266.2a2.337,2.337,0,0,0-.867-1.2,2.361,2.361,0,0,0-1.391-.422,2.27,2.27,0,0,0-1.777.789,3.006,3.006,0,0,0-.7,2.07,2.991,2.991,0,0,0,.7,2.066,2.275,2.275,0,0,0,1.777.785,2.361,2.361,0,0,0,1.391-.422,2.337,2.337,0,0,0,.867-1.2l1.266.211a3.4,3.4,0,0,1-1.3,1.863A3.72,3.72,0,0,1,254.973,16.141Zm6.2-9.625a.92.92,0,0,1-.914-.914.867.867,0,0,1,.27-.641.886.886,0,0,1,.645-.266.877.877,0,0,1,.637.266.867.867,0,0,1,.27.641.88.88,0,0,1-.27.645A.871.871,0,0,1,261.168,6.516ZM260.48,16V8.32h1.359V16Zm10.828-3.992-.016.367h-6a2.714,2.714,0,0,0,.734,1.965,2.411,2.411,0,0,0,1.75.684,2.3,2.3,0,0,0,1.273-.367,2.383,2.383,0,0,0,.875-1.016l1.219.258a3.464,3.464,0,0,1-1.312,1.648,3.581,3.581,0,0,1-2.039.6,3.71,3.71,0,0,1-2.766-1.07,3.982,3.982,0,0,1-1.055-2.922,3.963,3.963,0,0,1,1.059-2.914,3.664,3.664,0,0,1,2.723-1.07,3.467,3.467,0,0,1,2.582.984A3.889,3.889,0,0,1,271.309,12.008Zm-3.555-2.8a2.4,2.4,0,0,0-1.6.543,2.488,2.488,0,0,0-.809,1.582h4.6a2.282,2.282,0,0,0-.672-1.582A2.17,2.17,0,0,0,267.754,9.211Zm9.3-1.039a2.671,2.671,0,0,1,1.934.7,2.594,2.594,0,0,1,.723,1.961V16h-1.352V11.133a1.816,1.816,0,0,0-.469-1.375,1.676,1.676,0,0,0-1.2-.445,1.858,1.858,0,0,0-1.367.527,2.14,2.14,0,0,0-.539,1.566V16h-1.352V8.32h1.352V9.3A2.565,2.565,0,0,1,277.051,8.172ZM284.77,16a2.019,2.019,0,0,1-1.5-.551,2.084,2.084,0,0,1-.547-1.535V9.4h-1.57V8.32h.578a1.11,1.11,0,0,0,.848-.27,1.326,1.326,0,0,0,.246-.9V5.758h1.258V8.32h1.766V9.4h-1.766v4.375a1.164,1.164,0,0,0,.293.848,1.026,1.026,0,0,0,.77.3h.7V16Zm9.656-3.992-.016.367h-6a2.714,2.714,0,0,0,.734,1.965,2.411,2.411,0,0,0,1.75.684,2.3,2.3,0,0,0,1.273-.367,2.383,2.383,0,0,0,.875-1.016l1.219.258a3.464,3.464,0,0,1-1.312,1.648,3.581,3.581,0,0,1-2.039.6,3.71,3.71,0,0,1-2.766-1.07,3.982,3.982,0,0,1-1.055-2.922,3.963,3.963,0,0,1,1.059-2.914,3.664,3.664,0,0,1,2.723-1.07,3.467,3.467,0,0,1,2.582.984A3.889,3.889,0,0,1,294.426,12.008Zm-3.555-2.8a2.4,2.4,0,0,0-1.6.543,2.488,2.488,0,0,0-.809,1.582h4.6a2.282,2.282,0,0,0-.672-1.582A2.17,2.17,0,0,0,290.871,9.211Z" transform="translate(7045 -4176)" fill="#00223d"/>
    <path id="Trazado_10713" data-name="Trazado 10713" d="M82.566,16.141a3.7,3.7,0,0,1-2.75-1.1,3.929,3.929,0,0,1-1.086-2.883,3.937,3.937,0,0,1,1.082-2.883,4,4,0,0,1,4.977-.43,3.391,3.391,0,0,1,1.293,1.867l-1.266.2a2.337,2.337,0,0,0-.867-1.2A2.361,2.361,0,0,0,82.559,9.3a2.27,2.27,0,0,0-1.777.789,3.006,3.006,0,0,0-.7,2.07,2.991,2.991,0,0,0,.7,2.066,2.275,2.275,0,0,0,1.777.785,2.361,2.361,0,0,0,1.391-.422,2.337,2.337,0,0,0,.867-1.2l1.266.211a3.4,3.4,0,0,1-1.3,1.863A3.72,3.72,0,0,1,82.566,16.141ZM92.918,9.563V8.453h5.969V9.563Zm0,3.2V11.648h5.969v1.109Zm15.328,3.391a2.613,2.613,0,0,1-1.684-.527,1.894,1.894,0,0,1-.66-1.574,2.237,2.237,0,0,1,.211-1,1.77,1.77,0,0,1,.625-.7,3.749,3.749,0,0,1,.9-.434,8.341,8.341,0,0,1,1.168-.277l1.242-.2q.68-.125.68-.711a1.342,1.342,0,0,0-.48-1.145,1.958,1.958,0,0,0-1.215-.363,1.994,1.994,0,0,0-1.2.352,1.471,1.471,0,0,0-.57,1.078l-1.219-.258A2.346,2.346,0,0,1,107,8.738a3.59,3.59,0,0,1,2.094-.551,4.247,4.247,0,0,1,1.113.137,3.025,3.025,0,0,1,.93.43,1.927,1.927,0,0,1,.664.828,3.081,3.081,0,0,1,.238,1.262v3.172a1.3,1.3,0,0,0,.176.8.759.759,0,0,0,.605.207h.125V16h-.672a1.281,1.281,0,0,1-1.453-1.039h-.062A2.935,2.935,0,0,1,108.246,16.148Zm.313-1.094a2.049,2.049,0,0,0,1.648-.742,3.056,3.056,0,0,0,.625-2.031l-2.031.391a2.734,2.734,0,0,0-1.191.426.99.99,0,0,0-.387.84.979.979,0,0,0,.371.844A1.586,1.586,0,0,0,108.559,15.055Zm13.242-.664V11.227h-3.164V10.117H121.8V6.969h1.109v3.148h3.148v1.109H122.91v3.164Zm14.867-6.219a3.346,3.346,0,0,1,2.539,1.109,4.047,4.047,0,0,1,1.039,2.883,4.076,4.076,0,0,1-1.031,2.891,3.339,3.339,0,0,1-2.547,1.109,3.082,3.082,0,0,1-1.637-.445,2.818,2.818,0,0,1-1.1-1.211L133.9,16h-1.3V4h1.344l.008,5.789a2.83,2.83,0,0,1,1.1-1.184A3.09,3.09,0,0,1,136.668,8.172Zm-.3,6.82a2.35,2.35,0,0,0,1.8-.785,2.889,2.889,0,0,0,.727-2.043,2.889,2.889,0,0,0-.727-2.043,2.35,2.35,0,0,0-1.8-.785,2.3,2.3,0,0,0-1.781.813,2.913,2.913,0,0,0-.727,2.016,2.919,2.919,0,0,0,.723,2.02A2.3,2.3,0,0,0,136.371,14.992Z" transform="translate(7381 -4602)" fill="#00223d"/>
    <path id="Trazado_10714" data-name="Trazado 10714" d="M83.141,16.141a3.7,3.7,0,0,1-2.75-1.1A3.929,3.929,0,0,1,79.3,12.156a3.937,3.937,0,0,1,1.082-2.883,4,4,0,0,1,4.977-.43,3.391,3.391,0,0,1,1.293,1.867l-1.266.2a2.337,2.337,0,0,0-.867-1.2A2.361,2.361,0,0,0,83.133,9.3a2.27,2.27,0,0,0-1.777.789,3.006,3.006,0,0,0-.7,2.07,2.991,2.991,0,0,0,.7,2.066,2.275,2.275,0,0,0,1.777.785,2.361,2.361,0,0,0,1.391-.422,2.337,2.337,0,0,0,.867-1.2l1.266.211a3.4,3.4,0,0,1-1.3,1.863A3.72,3.72,0,0,1,83.141,16.141ZM93.492,9.563V8.453h5.969V9.563Zm0,3.2V11.648h5.969v1.109Zm15.328,3.391a2.613,2.613,0,0,1-1.684-.527,1.894,1.894,0,0,1-.66-1.574,2.237,2.237,0,0,1,.211-1,1.77,1.77,0,0,1,.625-.7,3.749,3.749,0,0,1,.9-.434,8.341,8.341,0,0,1,1.168-.277l1.242-.2q.68-.125.68-.711a1.342,1.342,0,0,0-.48-1.145,1.958,1.958,0,0,0-1.215-.363,1.994,1.994,0,0,0-1.2.352,1.471,1.471,0,0,0-.57,1.078l-1.219-.258a2.346,2.346,0,0,1,.961-1.645,3.59,3.59,0,0,1,2.094-.551,4.247,4.247,0,0,1,1.113.137,3.025,3.025,0,0,1,.93.43,1.927,1.927,0,0,1,.664.828,3.081,3.081,0,0,1,.238,1.262v3.172a1.3,1.3,0,0,0,.176.8.759.759,0,0,0,.605.207h.125V16h-.672a1.281,1.281,0,0,1-1.453-1.039h-.062A2.935,2.935,0,0,1,108.82,16.148Zm.313-1.094a2.049,2.049,0,0,0,1.648-.742,3.056,3.056,0,0,0,.625-2.031l-2.031.391a2.734,2.734,0,0,0-1.191.426.99.99,0,0,0-.387.84.979.979,0,0,0,.371.844A1.586,1.586,0,0,0,109.133,15.055ZM119.547,12.4V11.281h5.6V12.4Zm16.547-4.227a3.346,3.346,0,0,1,2.539,1.109,4.047,4.047,0,0,1,1.039,2.883,4.076,4.076,0,0,1-1.031,2.891,3.339,3.339,0,0,1-2.547,1.109,3.082,3.082,0,0,1-1.637-.445,2.818,2.818,0,0,1-1.1-1.211L133.328,16h-1.3V4h1.344l.008,5.789a2.83,2.83,0,0,1,1.1-1.184A3.09,3.09,0,0,1,136.094,8.172Zm-.3,6.82a2.35,2.35,0,0,0,1.8-.785,2.889,2.889,0,0,0,.727-2.043,2.889,2.889,0,0,0-.727-2.043,2.35,2.35,0,0,0-1.8-.785,2.3,2.3,0,0,0-1.781.813,2.913,2.913,0,0,0-.727,2.016,2.919,2.919,0,0,0,.723,2.02A2.3,2.3,0,0,0,135.8,14.992Z" transform="translate(7381 -4531)" fill="#00223d"/>
    <path id="Trazado_10715" data-name="Trazado 10715" d="M87.258,16.141a3.7,3.7,0,0,1-2.75-1.1,3.929,3.929,0,0,1-1.086-2.883A3.937,3.937,0,0,1,84.5,9.273a4,4,0,0,1,4.977-.43,3.391,3.391,0,0,1,1.293,1.867l-1.266.2a2.337,2.337,0,0,0-.867-1.2A2.361,2.361,0,0,0,87.25,9.3a2.27,2.27,0,0,0-1.777.789,3.006,3.006,0,0,0-.7,2.07,2.991,2.991,0,0,0,.7,2.066,2.275,2.275,0,0,0,1.777.785,2.361,2.361,0,0,0,1.391-.422,2.337,2.337,0,0,0,.867-1.2l1.266.211a3.4,3.4,0,0,1-1.3,1.863A3.72,3.72,0,0,1,87.258,16.141ZM97.609,9.563V8.453h5.969V9.563Zm0,3.2V11.648h5.969v1.109Zm17.625-4.586a3.346,3.346,0,0,1,2.539,1.109,4.047,4.047,0,0,1,1.039,2.883,4.076,4.076,0,0,1-1.031,2.891,3.339,3.339,0,0,1-2.547,1.109,3.082,3.082,0,0,1-1.637-.445,2.818,2.818,0,0,1-1.1-1.211L112.469,16h-1.3V4h1.344l.008,5.789a2.83,2.83,0,0,1,1.1-1.184A3.09,3.09,0,0,1,115.234,8.172Zm-.3,6.82a2.35,2.35,0,0,0,1.8-.785,2.889,2.889,0,0,0,.727-2.043,2.889,2.889,0,0,0-.727-2.043,2.35,2.35,0,0,0-1.8-.785,2.3,2.3,0,0,0-1.781.813,2.913,2.913,0,0,0-.727,2.016,2.919,2.919,0,0,0,.723,2.02A2.3,2.3,0,0,0,114.938,14.992Zm7.469-6.086-.7-.422,1.164-1.562q.125-.164.063-.277t-.266-.082l-1.977.18v-.8l1.977.2q.2.031.262-.086t-.059-.273l-1.164-1.6.7-.383.82,1.766q.086.188.211.188t.2-.187l.813-1.766.7.383-1.172,1.6q-.125.156-.059.273t.262.086l1.969-.2v.8l-1.969-.18q-.2-.031-.266.078t.063.281l1.172,1.563-.7.422-.812-1.773q-.078-.187-.2-.191t-.211.191Zm7.617,5.852H135.5V16h-7.422V14.977l4.406-4.555a5.219,5.219,0,0,0,.992-1.3,2.6,2.6,0,0,0,.273-1.133,1.9,1.9,0,0,0-.555-1.457,2.264,2.264,0,0,0-2.941.047,2.437,2.437,0,0,0-.559,1.77v.813l-1.352-.125v-.68a3.477,3.477,0,0,1,.93-2.613,3.849,3.849,0,0,1,4.871-.066,2.907,2.907,0,0,1,.934,2.281,3.459,3.459,0,0,1-.371,1.59,6.835,6.835,0,0,1-1.191,1.582Z" transform="translate(7381 -4460)" fill="#00223d"/>
    <path id="Trazado_10716" data-name="Trazado 10716" d="M82.785,16.141a3.7,3.7,0,0,1-2.75-1.1,3.929,3.929,0,0,1-1.086-2.883,3.937,3.937,0,0,1,1.082-2.883,4,4,0,0,1,4.977-.43A3.391,3.391,0,0,1,86.3,10.711l-1.266.2a2.337,2.337,0,0,0-.867-1.2A2.361,2.361,0,0,0,82.777,9.3,2.27,2.27,0,0,0,81,10.086a3.006,3.006,0,0,0-.7,2.07,2.991,2.991,0,0,0,.7,2.066,2.275,2.275,0,0,0,1.777.785,2.361,2.361,0,0,0,1.391-.422,2.337,2.337,0,0,0,.867-1.2L86.3,13.6A3.4,3.4,0,0,1,85,15.465,3.72,3.72,0,0,1,82.785,16.141ZM93.137,9.563V8.453h5.969V9.563Zm0,3.2V11.648h5.969v1.109Zm15.328,3.391a2.613,2.613,0,0,1-1.684-.527,1.894,1.894,0,0,1-.66-1.574,2.237,2.237,0,0,1,.211-1,1.77,1.77,0,0,1,.625-.7,3.749,3.749,0,0,1,.9-.434,8.341,8.341,0,0,1,1.168-.277l1.242-.2q.68-.125.68-.711a1.342,1.342,0,0,0-.48-1.145,1.958,1.958,0,0,0-1.215-.363,1.994,1.994,0,0,0-1.2.352,1.471,1.471,0,0,0-.57,1.078l-1.219-.258a2.346,2.346,0,0,1,.961-1.645,3.59,3.59,0,0,1,2.094-.551,4.247,4.247,0,0,1,1.113.137,3.025,3.025,0,0,1,.93.43,1.927,1.927,0,0,1,.664.828,3.081,3.081,0,0,1,.238,1.262v3.172a1.3,1.3,0,0,0,.176.8.759.759,0,0,0,.605.207h.125V16H112.5a1.281,1.281,0,0,1-1.453-1.039h-.062A2.935,2.935,0,0,1,108.465,16.148Zm.313-1.094a2.049,2.049,0,0,0,1.648-.742,3.056,3.056,0,0,0,.625-2.031l-2.031.391a2.734,2.734,0,0,0-1.191.426.99.99,0,0,0-.387.84.979.979,0,0,0,.371.844A1.586,1.586,0,0,0,108.777,15.055Zm9.047,3.852L125.574,4h1.3l-7.75,14.906ZM136.449,8.172a3.346,3.346,0,0,1,2.539,1.109,4.047,4.047,0,0,1,1.039,2.883A4.076,4.076,0,0,1,139,15.055a3.339,3.339,0,0,1-2.547,1.109,3.082,3.082,0,0,1-1.637-.445,2.818,2.818,0,0,1-1.1-1.211L133.684,16h-1.3V4h1.344l.008,5.789a2.83,2.83,0,0,1,1.1-1.184A3.09,3.09,0,0,1,136.449,8.172Zm-.3,6.82a2.35,2.35,0,0,0,1.8-.785,2.889,2.889,0,0,0,.727-2.043,2.889,2.889,0,0,0-.727-2.043,2.35,2.35,0,0,0-1.8-.785,2.3,2.3,0,0,0-1.781.813,2.913,2.913,0,0,0-.727,2.016,2.919,2.919,0,0,0,.723,2.02A2.3,2.3,0,0,0,136.152,14.992Z" transform="translate(7381 -4389)" fill="#00223d"/>
    <path id="Trazado_10722" data-name="Trazado 10722" d="M85.453,16.141a3.7,3.7,0,0,1-2.75-1.1,3.929,3.929,0,0,1-1.086-2.883A3.937,3.937,0,0,1,82.7,9.273a4,4,0,0,1,4.977-.43,3.391,3.391,0,0,1,1.293,1.867l-1.266.2a2.337,2.337,0,0,0-.867-1.2A2.361,2.361,0,0,0,85.445,9.3a2.27,2.27,0,0,0-1.777.789,3.006,3.006,0,0,0-.7,2.07,2.991,2.991,0,0,0,.7,2.066,2.275,2.275,0,0,0,1.777.785,2.361,2.361,0,0,0,1.391-.422,2.337,2.337,0,0,0,.867-1.2l1.266.211a3.4,3.4,0,0,1-1.3,1.863A3.72,3.72,0,0,1,85.453,16.141ZM95.8,9.563V8.453h5.969V9.563Zm0,3.2V11.648h5.969v1.109Zm15.328,3.391a2.613,2.613,0,0,1-1.684-.527,1.894,1.894,0,0,1-.66-1.574,2.237,2.237,0,0,1,.211-1,1.77,1.77,0,0,1,.625-.7,3.749,3.749,0,0,1,.9-.434,8.341,8.341,0,0,1,1.168-.277l1.242-.2q.68-.125.68-.711a1.342,1.342,0,0,0-.48-1.145,1.958,1.958,0,0,0-1.215-.363,1.994,1.994,0,0,0-1.2.352,1.471,1.471,0,0,0-.57,1.078l-1.219-.258a2.346,2.346,0,0,1,.961-1.645,3.59,3.59,0,0,1,2.094-.551,4.247,4.247,0,0,1,1.113.137,3.025,3.025,0,0,1,.93.43,1.927,1.927,0,0,1,.664.828,3.081,3.081,0,0,1,.238,1.262v3.172a1.3,1.3,0,0,0,.176.8.759.759,0,0,0,.605.207h.125V16h-.672a1.281,1.281,0,0,1-1.453-1.039h-.062A2.935,2.935,0,0,1,111.133,16.148Zm.313-1.094a2.049,2.049,0,0,0,1.648-.742,3.056,3.056,0,0,0,.625-2.031l-2.031.391a2.734,2.734,0,0,0-1.191.426.99.99,0,0,0-.387.84.979.979,0,0,0,.371.844A1.586,1.586,0,0,0,111.445,15.055Zm8.125-5.672a2.161,2.161,0,0,1-1.59-.664,2.278,2.278,0,0,1,0-3.207,2.231,2.231,0,0,1,3.184,0,2.282,2.282,0,0,1,0,3.2A2.151,2.151,0,0,1,119.57,9.383Zm-.8,6.625,5.859-11.023h1.234L120,16.008Zm.8-7.609a1.234,1.234,0,0,0,.918-.379,1.254,1.254,0,0,0,.371-.91,1.231,1.231,0,0,0-.375-.91,1.306,1.306,0,0,0-1.824,0,1.225,1.225,0,0,0-.379.91A1.287,1.287,0,0,0,119.57,8.4Zm5.578,7.742a2.262,2.262,0,0,1-1.6-3.863,2.189,2.189,0,0,1,1.6-.66,2.139,2.139,0,0,1,1.578.664,2.278,2.278,0,0,1,0,3.2A2.135,2.135,0,0,1,125.148,16.141Zm0-.977a1.307,1.307,0,0,0,1.3-1.289,1.231,1.231,0,0,0-.383-.914,1.316,1.316,0,0,0-1.836,0,1.295,1.295,0,0,0,.922,2.207Zm8.633-6.992a3.346,3.346,0,0,1,2.539,1.109,4.047,4.047,0,0,1,1.039,2.883,4.076,4.076,0,0,1-1.031,2.891,3.339,3.339,0,0,1-2.547,1.109,3.082,3.082,0,0,1-1.637-.445,2.818,2.818,0,0,1-1.1-1.211L131.016,16h-1.3V4h1.344l.008,5.789a2.83,2.83,0,0,1,1.1-1.184A3.09,3.09,0,0,1,133.781,8.172Zm-.3,6.82a2.35,2.35,0,0,0,1.8-.785,2.889,2.889,0,0,0,.727-2.043,2.889,2.889,0,0,0-.727-2.043,2.35,2.35,0,0,0-1.8-.785,2.3,2.3,0,0,0-1.781.813,2.913,2.913,0,0,0-.727,2.016,2.919,2.919,0,0,0,.723,2.02A2.3,2.3,0,0,0,133.484,14.992Z" transform="translate(7381 -4318)" fill="#00223d"/>
    <path id="Trazado_10728" data-name="Trazado 10728" d="M79.547,16.141a3.7,3.7,0,0,1-2.75-1.1,3.929,3.929,0,0,1-1.086-2.883,3.937,3.937,0,0,1,1.082-2.883,4,4,0,0,1,4.977-.43,3.391,3.391,0,0,1,1.293,1.867l-1.266.2a2.337,2.337,0,0,0-.867-1.2A2.361,2.361,0,0,0,79.539,9.3a2.27,2.27,0,0,0-1.777.789,3.006,3.006,0,0,0-.7,2.07,2.991,2.991,0,0,0,.7,2.066,2.275,2.275,0,0,0,1.777.785,2.361,2.361,0,0,0,1.391-.422,2.337,2.337,0,0,0,.867-1.2l1.266.211a3.4,3.4,0,0,1-1.3,1.863A3.72,3.72,0,0,1,79.547,16.141ZM89.9,9.563V8.453h5.969V9.563Zm0,3.2V11.648h5.969v1.109Zm15.328,3.391a2.613,2.613,0,0,1-1.684-.527,1.894,1.894,0,0,1-.66-1.574,2.237,2.237,0,0,1,.211-1,1.77,1.77,0,0,1,.625-.7,3.749,3.749,0,0,1,.9-.434,8.341,8.341,0,0,1,1.168-.277l1.242-.2q.68-.125.68-.711a1.342,1.342,0,0,0-.48-1.145,1.958,1.958,0,0,0-1.215-.363,1.994,1.994,0,0,0-1.2.352,1.471,1.471,0,0,0-.57,1.078l-1.219-.258a2.346,2.346,0,0,1,.961-1.645,3.59,3.59,0,0,1,2.094-.551,4.247,4.247,0,0,1,1.113.137,3.025,3.025,0,0,1,.93.43,1.927,1.927,0,0,1,.664.828,3.081,3.081,0,0,1,.238,1.262v3.172a1.3,1.3,0,0,0,.176.8.759.759,0,0,0,.605.207h.125V16h-.672a1.281,1.281,0,0,1-1.453-1.039h-.062A2.935,2.935,0,0,1,105.227,16.148Zm.313-1.094a2.049,2.049,0,0,0,1.648-.742,3.056,3.056,0,0,0,.625-2.031l-2.031.391a2.734,2.734,0,0,0-1.191.426.99.99,0,0,0-.387.84.979.979,0,0,0,.371.844A1.586,1.586,0,0,0,105.539,15.055Zm11.922-6.148-.7-.422,1.164-1.562q.125-.164.063-.277t-.266-.082l-1.977.18v-.8l1.977.2q.2.031.262-.086t-.059-.273l-1.164-1.6.7-.383.82,1.766q.086.188.211.188t.2-.187l.813-1.766.7.383-1.172,1.6q-.125.156-.059.273t.262.086l1.969-.2v.8l-1.969-.18q-.2-.031-.266.078t.063.281l1.172,1.563-.7.422L118.7,7.133q-.078-.187-.2-.191t-.211.191Zm7.734,0-.7-.422,1.164-1.562q.125-.164.063-.277t-.266-.082l-1.977.18v-.8l1.977.2q.2.031.262-.086t-.059-.273l-1.164-1.6.7-.383.82,1.766q.086.188.211.188t.2-.187l.813-1.766.7.383-1.172,1.6q-.125.156-.059.273t.262.086l1.969-.2v.8l-1.969-.18q-.2-.031-.266.078t.063.281l1.172,1.563-.7.422-.812-1.773q-.078-.187-.2-.191t-.211.191Zm14.492-.734a3.346,3.346,0,0,1,2.539,1.109,4.047,4.047,0,0,1,1.039,2.883,4.076,4.076,0,0,1-1.031,2.891,3.339,3.339,0,0,1-2.547,1.109,3.082,3.082,0,0,1-1.637-.445,2.818,2.818,0,0,1-1.1-1.211L136.922,16h-1.3V4h1.344l.008,5.789a2.83,2.83,0,0,1,1.1-1.184A3.09,3.09,0,0,1,139.688,8.172Zm-.3,6.82a2.35,2.35,0,0,0,1.8-.785,2.889,2.889,0,0,0,.727-2.043,2.889,2.889,0,0,0-.727-2.043,2.35,2.35,0,0,0-1.8-.785,2.3,2.3,0,0,0-1.781.813,2.913,2.913,0,0,0-.727,2.016,2.919,2.919,0,0,0,.723,2.02A2.3,2.3,0,0,0,139.391,14.992Z" transform="translate(7381 -4247)" fill="#00223d"/>
    <path id="Trazado_10743" data-name="Trazado 10743" d="M81.969,16.141a3.7,3.7,0,0,1-2.75-1.1,3.929,3.929,0,0,1-1.086-2.883,3.937,3.937,0,0,1,1.082-2.883,4,4,0,0,1,4.977-.43,3.391,3.391,0,0,1,1.293,1.867l-1.266.2a2.337,2.337,0,0,0-.867-1.2A2.361,2.361,0,0,0,81.961,9.3a2.27,2.27,0,0,0-1.777.789,3.006,3.006,0,0,0-.7,2.07,2.991,2.991,0,0,0,.7,2.066,2.275,2.275,0,0,0,1.777.785,2.361,2.361,0,0,0,1.391-.422,2.337,2.337,0,0,0,.867-1.2l1.266.211a3.4,3.4,0,0,1-1.3,1.863A3.72,3.72,0,0,1,81.969,16.141ZM92.32,9.563V8.453h5.969V9.563Zm0,3.2V11.648h5.969v1.109Zm15.328,3.391a2.613,2.613,0,0,1-1.684-.527,1.894,1.894,0,0,1-.66-1.574,2.237,2.237,0,0,1,.211-1,1.77,1.77,0,0,1,.625-.7,3.749,3.749,0,0,1,.9-.434,8.341,8.341,0,0,1,1.168-.277l1.242-.2q.68-.125.68-.711a1.342,1.342,0,0,0-.48-1.145,1.958,1.958,0,0,0-1.215-.363,1.994,1.994,0,0,0-1.2.352,1.471,1.471,0,0,0-.57,1.078l-1.219-.258a2.346,2.346,0,0,1,.961-1.645,3.59,3.59,0,0,1,2.094-.551,4.247,4.247,0,0,1,1.113.137,3.025,3.025,0,0,1,.93.43,1.927,1.927,0,0,1,.664.828,3.081,3.081,0,0,1,.238,1.262v3.172a1.3,1.3,0,0,0,.176.8.759.759,0,0,0,.605.207h.125V16h-.672a1.281,1.281,0,0,1-1.453-1.039h-.062A2.935,2.935,0,0,1,107.648,16.148Zm.313-1.094a2.049,2.049,0,0,0,1.648-.742,3.056,3.056,0,0,0,.625-2.031l-2.031.391a2.734,2.734,0,0,0-1.191.426.99.99,0,0,0-.387.84.979.979,0,0,0,.371.844A1.586,1.586,0,0,0,107.961,15.055Zm9.047,3.852L124.758,4h1.3l-7.75,14.906Zm5.789,0L130.547,4h1.3L124.1,18.906ZM137.266,8.172A3.346,3.346,0,0,1,139.8,9.281a4.047,4.047,0,0,1,1.039,2.883,4.076,4.076,0,0,1-1.031,2.891,3.339,3.339,0,0,1-2.547,1.109,3.082,3.082,0,0,1-1.637-.445,2.818,2.818,0,0,1-1.1-1.211L134.5,16h-1.3V4h1.344l.008,5.789a2.83,2.83,0,0,1,1.1-1.184A3.09,3.09,0,0,1,137.266,8.172Zm-.3,6.82a2.35,2.35,0,0,0,1.8-.785,2.889,2.889,0,0,0,.727-2.043,2.889,2.889,0,0,0-.727-2.043,2.35,2.35,0,0,0-1.8-.785,2.3,2.3,0,0,0-1.781.813,2.913,2.913,0,0,0-.727,2.016,2.919,2.919,0,0,0,.723,2.02A2.3,2.3,0,0,0,136.969,14.992Z" transform="translate(7381 -4176)" fill="#00223d"/>
    <path id="Trazado_10744" data-name="Trazado 10744" d="M98.578,5h1.266V16H98.508V6.477L95.867,8.766V7.32Zm8.852,11.148q-3.664,0-3.664-3.914l1.375-.07a3.435,3.435,0,0,0,.516,2.07,2.079,2.079,0,0,0,1.773.688,2.438,2.438,0,0,0,1.707-.594,2,2,0,0,0,.652-1.555,1.984,1.984,0,0,0-.629-1.547,2.255,2.255,0,0,0-1.574-.57h-.547V9.508h.531a1.628,1.628,0,0,0,1.2-.508,1.713,1.713,0,0,0,.5-1.25,1.54,1.54,0,0,0-.531-1.211,1.945,1.945,0,0,0-1.336-.469,2.127,2.127,0,0,0-.879.164,1.234,1.234,0,0,0-.559.48,2.265,2.265,0,0,0-.281.7,4.1,4.1,0,0,0-.086.891l-1.375-.047a3.561,3.561,0,0,1,.824-2.523,3.054,3.054,0,0,1,2.348-.883,3.262,3.262,0,0,1,2.254.8,2.571,2.571,0,0,1,.9,2,2.409,2.409,0,0,1-.437,1.43,2.5,2.5,0,0,1-1.1.891,3.041,3.041,0,0,1,1.547,1.008,2.826,2.826,0,0,1,.6,1.852,3.026,3.026,0,0,1-1.051,2.4A3.941,3.941,0,0,1,107.43,16.148Z" transform="translate(7614 -4602)" fill="#00223d"/>
    <path id="Trazado_10745" data-name="Trazado 10745" d="M102.926,16.148q-3.664,0-3.664-3.914l1.375-.07a3.435,3.435,0,0,0,.516,2.07,2.079,2.079,0,0,0,1.773.688,2.438,2.438,0,0,0,1.707-.594,2,2,0,0,0,.652-1.555,1.984,1.984,0,0,0-.629-1.547,2.255,2.255,0,0,0-1.574-.57h-.547V9.508h.531A1.628,1.628,0,0,0,104.27,9a1.713,1.713,0,0,0,.5-1.25,1.54,1.54,0,0,0-.531-1.211A1.945,1.945,0,0,0,102.9,6.07a2.127,2.127,0,0,0-.879.164,1.234,1.234,0,0,0-.559.48,2.265,2.265,0,0,0-.281.7,4.1,4.1,0,0,0-.086.891l-1.375-.047a3.561,3.561,0,0,1,.824-2.523,3.054,3.054,0,0,1,2.348-.883,3.262,3.262,0,0,1,2.254.8,2.571,2.571,0,0,1,.9,2,2.409,2.409,0,0,1-.437,1.43,2.5,2.5,0,0,1-1.1.891,3.041,3.041,0,0,1,1.547,1.008,2.826,2.826,0,0,1,.6,1.852,3.026,3.026,0,0,1-1.051,2.4A3.941,3.941,0,0,1,102.926,16.148Z" transform="translate(7614 -4531)" fill="#00223d"/>
    <path id="Trazado_10746" data-name="Trazado 10746" d="M98.578,5h1.266V16H98.508V6.477L95.867,8.766V7.32Zm8.93,11.148a3.064,3.064,0,0,1-2.711-1.437,7.665,7.665,0,0,1-.953-4.219,7.7,7.7,0,0,1,.941-4.211,3.294,3.294,0,0,1,5.434,0,7.677,7.677,0,0,1,.945,4.207,7.643,7.643,0,0,1-.957,4.215A3.058,3.058,0,0,1,107.508,16.148Zm0-1.25a1.861,1.861,0,0,0,1.711-1.1,7.182,7.182,0,0,0,.594-3.3,6.979,6.979,0,0,0-.605-3.3,1.88,1.88,0,0,0-3.4,0,7.014,7.014,0,0,0-.6,3.3,7.219,7.219,0,0,0,.59,3.309A1.859,1.859,0,0,0,107.508,14.9Z" transform="translate(7614 -4460)" fill="#00223d"/>
    <path id="Trazado_10747" data-name="Trazado 10747" d="M96,5H97.27V16H95.934V6.477L93.293,8.766V7.32Zm6.984,11.156a.877.877,0,0,1-.637-.266.908.908,0,0,1,.637-1.547.884.884,0,0,1,.641.27.887.887,0,0,1,0,1.277A.886.886,0,0,1,102.988,16.156Zm10.891-3.82a3.712,3.712,0,0,1-.5,1.977A3.533,3.533,0,0,1,112,15.656a3.944,3.944,0,0,1-1.906.469,3.84,3.84,0,0,1-2.734-1.035,3.5,3.5,0,0,1-1.1-2.668,4.331,4.331,0,0,1,.953-2.641L110.887,5h1.594l-3.055,3.852a3.425,3.425,0,0,1,.953-.133,3.5,3.5,0,0,1,1.688.422,3.379,3.379,0,0,1,1.289,1.262A3.77,3.77,0,0,1,113.879,12.336Zm-3.82,2.531a2.389,2.389,0,0,0,2.5-2.555,2.417,2.417,0,0,0-2.523-2.539,2.364,2.364,0,0,0-1.8.754,2.526,2.526,0,0,0-.7,1.84,2.435,2.435,0,0,0,.707,1.836A2.519,2.519,0,0,0,110.059,14.867Z" transform="translate(7614 -4389)" fill="#00223d"/>
    <path id="Trazado_10748" data-name="Trazado 10748" d="M102.926,16.148q-3.664,0-3.664-3.914l1.375-.07a3.435,3.435,0,0,0,.516,2.07,2.079,2.079,0,0,0,1.773.688,2.438,2.438,0,0,0,1.707-.594,2,2,0,0,0,.652-1.555,1.984,1.984,0,0,0-.629-1.547,2.255,2.255,0,0,0-1.574-.57h-.547V9.508h.531A1.628,1.628,0,0,0,104.27,9a1.713,1.713,0,0,0,.5-1.25,1.54,1.54,0,0,0-.531-1.211A1.945,1.945,0,0,0,102.9,6.07a2.127,2.127,0,0,0-.879.164,1.234,1.234,0,0,0-.559.48,2.265,2.265,0,0,0-.281.7,4.1,4.1,0,0,0-.086.891l-1.375-.047a3.561,3.561,0,0,1,.824-2.523,3.054,3.054,0,0,1,2.348-.883,3.262,3.262,0,0,1,2.254.8,2.571,2.571,0,0,1,.9,2,2.409,2.409,0,0,1-.437,1.43,2.5,2.5,0,0,1-1.1.891,3.041,3.041,0,0,1,1.547,1.008,2.826,2.826,0,0,1,.6,1.852,3.026,3.026,0,0,1-1.051,2.4A3.941,3.941,0,0,1,102.926,16.148Z" transform="translate(7614 -4318)" fill="#00223d"/>
    <path id="Trazado_10749" data-name="Trazado 10749" d="M73.609,15.242a4.367,4.367,0,0,1-5.332,0,3,3,0,0,1-1.066-2.395,2.959,2.959,0,0,1,.555-1.8,3.179,3.179,0,0,1,1.508-1.109A2.717,2.717,0,0,1,68.191,9a2.4,2.4,0,0,1-.4-1.355,2.543,2.543,0,0,1,.9-2,3.307,3.307,0,0,1,2.258-.785,3.249,3.249,0,0,1,2.23.789,2.551,2.551,0,0,1,.895,2A2.447,2.447,0,0,1,73.68,9a2.643,2.643,0,0,1-1.062.941,3.242,3.242,0,0,1,1.5,1.113,2.942,2.942,0,0,1,.555,1.793A3,3,0,0,1,73.609,15.242Zm-2.664-5.75a1.861,1.861,0,0,0,1.332-.516,1.677,1.677,0,0,0,.543-1.266,1.623,1.623,0,0,0-.543-1.238,2.034,2.034,0,0,0-2.676,0,1.625,1.625,0,0,0-.539,1.242,1.677,1.677,0,0,0,.543,1.266A1.871,1.871,0,0,0,70.945,9.492Zm0,5.406a2.45,2.45,0,0,0,1.691-.6,2.03,2.03,0,0,0,.676-1.594,1.988,1.988,0,0,0-.676-1.57,2.47,2.47,0,0,0-1.691-.594,2.5,2.5,0,0,0-1.7.594,1.983,1.983,0,0,0-.68,1.57,2.024,2.024,0,0,0,.68,1.594A2.476,2.476,0,0,0,70.945,14.9Zm8.742-5.977a4.263,4.263,0,0,1,3,.926,3.358,3.358,0,0,1,.992,2.582,3.651,3.651,0,0,1-1.02,2.676,3.578,3.578,0,0,1-2.668,1.035,4.239,4.239,0,0,1-1.379-.223,3.724,3.724,0,0,1-1.164-.641,2.931,2.931,0,0,1-.812-1.082,3.558,3.558,0,0,1-.3-1.484,5.019,5.019,0,0,1,.039-.562l1.383-.117a5.5,5.5,0,0,0-.062.617,2.483,2.483,0,0,0,.2,1.023,1.749,1.749,0,0,0,.535.7,2.434,2.434,0,0,0,.723.379,2.638,2.638,0,0,0,.816.125,2.256,2.256,0,0,0,1.707-.672,2.391,2.391,0,0,0,.645-1.727,2.275,2.275,0,0,0-.668-1.734,2.994,2.994,0,0,0-2.113-.633H76.758l.68-5.094H83.2V6.273H78.578l-.359,2.648Zm6.82.641V8.453h5.969V9.563Zm0,3.2V11.648h5.969v1.109Zm12.453,3.391q-3.664,0-3.664-3.914l1.375-.07a3.435,3.435,0,0,0,.516,2.07,2.079,2.079,0,0,0,1.773.688,2.438,2.438,0,0,0,1.707-.594,2,2,0,0,0,.652-1.555,1.984,1.984,0,0,0-.629-1.547,2.255,2.255,0,0,0-1.574-.57H98.57V9.508H99.1A1.628,1.628,0,0,0,100.3,9a1.713,1.713,0,0,0,.5-1.25,1.54,1.54,0,0,0-.531-1.211,1.945,1.945,0,0,0-1.336-.469,2.127,2.127,0,0,0-.879.164,1.234,1.234,0,0,0-.559.48,2.265,2.265,0,0,0-.281.7,4.1,4.1,0,0,0-.086.891l-1.375-.047a3.561,3.561,0,0,1,.824-2.523,3.054,3.054,0,0,1,2.348-.883,3.262,3.262,0,0,1,2.254.8,2.571,2.571,0,0,1,.9,2,2.409,2.409,0,0,1-.437,1.43,2.5,2.5,0,0,1-1.1.891,3.041,3.041,0,0,1,1.547,1.008,2.826,2.826,0,0,1,.6,1.852,3.026,3.026,0,0,1-1.051,2.4A3.941,3.941,0,0,1,98.961,16.148Zm7.3-1.391h5.477V16H104.32V14.977l4.406-4.555a5.219,5.219,0,0,0,.992-1.3,2.6,2.6,0,0,0,.273-1.133,1.9,1.9,0,0,0-.555-1.457,2.264,2.264,0,0,0-2.941.047,2.437,2.437,0,0,0-.559,1.77v.813l-1.352-.125v-.68a3.477,3.477,0,0,1,.93-2.613,3.849,3.849,0,0,1,4.871-.066,2.907,2.907,0,0,1,.934,2.281,3.459,3.459,0,0,1-.371,1.59,6.835,6.835,0,0,1-1.191,1.582ZM113.313,5h7.523V6.133L115.461,16h-1.547l5.422-9.75h-6.023Zm16.547,7.336a3.712,3.712,0,0,1-.5,1.977,3.533,3.533,0,0,1-1.383,1.344,3.944,3.944,0,0,1-1.906.469,3.84,3.84,0,0,1-2.734-1.035,3.5,3.5,0,0,1-1.1-2.668,4.331,4.331,0,0,1,.953-2.641L126.867,5h1.594l-3.055,3.852a3.425,3.425,0,0,1,.953-.133,3.5,3.5,0,0,1,1.688.422,3.379,3.379,0,0,1,1.289,1.262A3.77,3.77,0,0,1,129.859,12.336Zm-3.82,2.531a2.389,2.389,0,0,0,2.5-2.555,2.417,2.417,0,0,0-2.523-2.539,2.364,2.364,0,0,0-1.8.754,2.526,2.526,0,0,0-.7,1.84,2.435,2.435,0,0,0,.707,1.836A2.519,2.519,0,0,0,126.039,14.867Zm11.7.375a4.367,4.367,0,0,1-5.332,0,3,3,0,0,1-1.066-2.395,2.959,2.959,0,0,1,.555-1.8,3.179,3.179,0,0,1,1.508-1.109A2.717,2.717,0,0,1,132.324,9a2.4,2.4,0,0,1-.4-1.355,2.543,2.543,0,0,1,.9-2,3.307,3.307,0,0,1,2.258-.785,3.249,3.249,0,0,1,2.23.789,2.551,2.551,0,0,1,.895,2A2.447,2.447,0,0,1,137.813,9a2.643,2.643,0,0,1-1.062.941,3.242,3.242,0,0,1,1.5,1.113,2.942,2.942,0,0,1,.555,1.793A3,3,0,0,1,137.742,15.242Zm-2.664-5.75a1.861,1.861,0,0,0,1.332-.516,1.677,1.677,0,0,0,.543-1.266,1.623,1.623,0,0,0-.543-1.238,2.034,2.034,0,0,0-2.676,0,1.625,1.625,0,0,0-.539,1.242,1.677,1.677,0,0,0,.543,1.266A1.871,1.871,0,0,0,135.078,9.492Zm0,5.406a2.45,2.45,0,0,0,1.691-.6,2.03,2.03,0,0,0,.676-1.594,1.988,1.988,0,0,0-.676-1.57,2.47,2.47,0,0,0-1.691-.594,2.5,2.5,0,0,0-1.7.594,1.983,1.983,0,0,0-.68,1.57,2.024,2.024,0,0,0,.68,1.594A2.475,2.475,0,0,0,135.078,14.9Z" transform="translate(7614 -4247)" fill="#00223d"/>
    <path id="Trazado_10750" data-name="Trazado 10750" d="M103.082,5h1.266V16h-1.336V6.477l-2.641,2.289V7.32Z" transform="translate(7614 -4176)" fill="#00223d"/>
  </g>
</svg>
