<svg xmlns="http://www.w3.org/2000/svg" xmlns:xlink="http://www.w3.org/1999/xlink" width="682.5" height="513.92" viewBox="0 0 682.5 513.92">
  <defs>
    <style>
      .cls-1 {
        isolation: isolate;
      }

      .cls-2 {
        fill: #f2f2f2;
      }

      .cls-3 {
        fill: #e57f0e;
      }

      .cls-4 {
        fill: url(#linear-gradient);
      }

      .cls-5 {
        fill: url(#linear-gradient-2);
      }

      .cls-6 {
        fill: #112b46;
      }

      .cls-26, .cls-7 {
        mix-blend-mode: screen;
      }

      .cls-8 {
        fill: #1d262d;
      }

      .cls-9 {
        fill: #606bf1;
      }

      .cls-10 {
        fill: #fbd15b;
      }

      .cls-11 {
        fill: #ff8578;
      }

      .cls-12 {
        fill: #f9fbfc;
      }

      .cls-13 {
        fill: url(#radial-gradient);
      }

      .cls-14 {
        fill: url(#radial-gradient-2);
      }

      .cls-15 {
        fill: #f7b094;
      }

      .cls-16 {
        fill: #3d3d7a;
      }

      .cls-17 {
        fill: #0a2033;
      }

      .cls-18 {
        fill: #30475e;
      }

      .cls-19 {
        fill: url(#radial-gradient-3);
      }

      .cls-20 {
        fill: #56548c;
      }

      .cls-21 {
        fill: url(#radial-gradient-4);
      }

      .cls-22 {
        fill: #f4675d;
      }

      .cls-23 {
        fill: url(#radial-gradient-5);
      }

      .cls-24 {
        fill: #e8987c;
      }

      .cls-25 {
        fill: url(#radial-gradient-6);
      }

      .cls-26 {
        fill: #6d4b35;
      }

      .cls-27 {
        fill: #f1f2f2;
      }

      .cls-28 {
        fill: #abb5ba;
      }

      .cls-29 {
        fill: #8495a0;
      }

      .cls-30 {
        fill: #141b56;
      }

      .cls-31 {
        fill: #a5b7c6;
      }

      .cls-32 {
        fill: url(#linear-gradient-3);
      }

      .cls-33 {
        fill: #747ded;
      }

      .cls-34 {
        fill: url(#linear-gradient-4);
      }

      .cls-35 {
        fill: url(#linear-gradient-5);
      }

      .cls-36 {
        fill: #95a8b5;
      }
    </style>
    <linearGradient id="linear-gradient" x1="-1326.06" y1="758.62" x2="-1325.83" y2="758.39" gradientTransform="matrix(189.38, 0, 0, -189.81, 251582.86, 144036.66)" gradientUnits="userSpaceOnUse">
      <stop offset="0" stop-color="#387eb8"/>
      <stop offset="1" stop-color="#366994"/>
    </linearGradient>
    <linearGradient id="linear-gradient-2" x1="-1326.27" y1="758.81" x2="-1326.02" y2="758.58" gradientTransform="matrix(189.38, 0, 0, -189.81, 251648.86, 144100.96)" gradientUnits="userSpaceOnUse">
      <stop offset="0" stop-color="#ffe052"/>
      <stop offset="1" stop-color="#ffc331"/>
    </linearGradient>
    <radialGradient id="radial-gradient" cx="386.08" cy="158.5" r="19.51" gradientUnits="userSpaceOnUse">
      <stop offset="0" stop-color="#ffc8af"/>
      <stop offset="1" stop-color="#ffbb9c"/>
    </radialGradient>
    <radialGradient id="radial-gradient-2" cx="397.63" cy="104.21" r="30.76" gradientTransform="translate(-35.87 105.01) rotate(-12.15)" xlink:href="#radial-gradient"/>
    <radialGradient id="radial-gradient-3" cx="344.49" cy="453.09" r="12.27" xlink:href="#radial-gradient"/>
    <radialGradient id="radial-gradient-4" cx="266.81" cy="456.17" r="11.17" xlink:href="#radial-gradient"/>
    <radialGradient id="radial-gradient-5" cx="334.82" cy="246.53" r="62.56" xlink:href="#radial-gradient"/>
    <radialGradient id="radial-gradient-6" cx="334.82" cy="246.53" r="62.56" xlink:href="#radial-gradient"/>
    <linearGradient id="linear-gradient-3" x1="652.74" y1="86.92" x2="593.36" y2="161.78" gradientTransform="matrix(0.78, -0.62, 0.62, 0.78, -18.78, 656.68)" gradientUnits="userSpaceOnUse">
      <stop offset="0" stop-color="#606bf1"/>
      <stop offset="1" stop-color="#58479f"/>
    </linearGradient>
    <linearGradient id="linear-gradient-4" x1="751.33" y1="-63.34" x2="691.95" y2="11.51" gradientTransform="matrix(0.45, -0.89, 0.89, 0.45, 190.93, 1026.98)" xlink:href="#linear-gradient-3"/>
    <linearGradient id="linear-gradient-5" x1="716.39" y1="-15.66" x2="642.9" y2="76.98" gradientTransform="translate(79.79 877.16) rotate(-52.61)" xlink:href="#linear-gradient-3"/>
  </defs>
  <g class="cls-1">
    <g id="Layer_1" data-name="Layer 1">
      <g>
        <g>
          <g>
            <circle class="cls-2" cx="489.99" cy="79.84" r="66.15"/>
            <path class="cls-3" d="M490,148.12a68.31,68.31,0,1,1,68.34-68.28A68.41,68.41,0,0,1,490,148.12Zm0-132.26a64,64,0,1,0,64,64A64,64,0,0,0,490,15.86Z"/>
          </g>
          <g>
            <path class="cls-4" d="M489.7,36.14c-22.31,0-20.9,9.68-20.9,9.68v10h21.29v3H460.38S446.1,57.19,446.1,79.69s12.44,21.68,12.44,21.68H466V90.92s-.39-12.44,12.24-12.44h21.1s11.86.2,11.86-11.46V47.76S513,36.14,489.7,36.14Zm-11.76,6.73a3.82,3.82,0,1,1-3.82,3.82h0a3.83,3.83,0,0,1,3.82-3.82Z"/>
            <path class="cls-5" d="M490.33,123.49c22.31,0,20.91-9.68,20.91-9.68v-10H490v-3h29.71s14.28,1.6,14.28-20.9S521.5,58.21,521.5,58.21h-7.45V68.66s.38,12.44-12.25,12.44H480.7s-11.85-.2-11.85,11.47v19.31s-1.84,11.66,21.48,11.61ZM502,116.76a3.82,3.82,0,1,1,3.83-3.82h0a3.8,3.8,0,0,1-3.83,3.82Z"/>
          </g>
        </g>
        <g>
          <rect class="cls-6" x="148.67" y="17.73" width="147.25" height="137.44"/>
          <g class="cls-7">
            <rect class="cls-8" x="148.67" y="17.73" width="147.25" height="14.54"/>
          </g>
          <g>
            <path class="cls-9" d="M264.09,25.17a2.67,2.67,0,1,1-2.66-2.67A2.66,2.66,0,0,1,264.09,25.17Z"/>
            <path class="cls-10" d="M275.22,25.17a2.67,2.67,0,1,1-2.67-2.67A2.67,2.67,0,0,1,275.22,25.17Z"/>
            <path class="cls-11" d="M285.55,25.45a2.67,2.67,0,1,1-2.67-2.67A2.67,2.67,0,0,1,285.55,25.45Z"/>
          </g>
          <g>
            <g>
              <rect class="cls-11" x="174.85" y="45.78" width="20.86" height="1.75"/>
              <rect class="cls-10" x="199.33" y="45.78" width="20.85" height="1.75"/>
              <rect class="cls-9" x="181.3" y="55.22" width="32.34" height="1.75"/>
              <rect class="cls-11" x="218.99" y="55.22" width="16.44" height="1.75"/>
              <rect class="cls-10" x="192.52" y="64.67" width="14.2" height="1.75"/>
              <rect class="cls-10" x="214.94" y="64.67" width="47.12" height="1.75"/>
              <rect class="cls-9" x="203.56" y="74.11" width="53.85" height="1.75"/>
              <rect class="cls-11" x="190.09" y="83.55" width="16.57" height="1.75"/>
              <rect class="cls-9" x="213.76" y="83.55" width="16.57" height="1.75"/>
            </g>
            <g>
              <rect class="cls-11" x="174.85" y="132.54" width="24.11" height="1.75"/>
              <rect class="cls-10" x="207.41" y="132.54" width="24.11" height="1.75"/>
              <rect class="cls-11" x="239.09" y="132.54" width="24.11" height="1.75"/>
              <rect class="cls-9" x="181.3" y="123.1" width="47.12" height="1.75"/>
              <rect class="cls-11" x="235.77" y="123.1" width="47.12" height="1.75"/>
              <rect class="cls-11" x="192.52" y="113.65" width="46.76" height="1.75"/>
              <rect class="cls-10" x="243.36" y="113.65" width="13.01" height="1.75"/>
              <rect class="cls-10" x="189.47" y="104.21" width="17.6" height="1.75"/>
              <rect class="cls-9" x="216.42" y="104.21" width="17.6" height="1.75"/>
              <rect class="cls-11" x="245.34" y="104.21" width="17.6" height="1.75"/>
              <rect class="cls-10" x="209.87" y="94.77" width="24.68" height="1.75"/>
              <rect class="cls-9" x="175.88" y="94.77" width="24.68" height="1.75"/>
            </g>
          </g>
          <g>
            <rect class="cls-12" x="161.2" y="44.1" width="2.24" height="2.24"/>
            <path class="cls-12" d="M163.45,126.42H161.2v-4.57h2.25Zm0-11.44H161.2v-4.57h2.25Zm0-11.44H161.2V99h2.25Zm0-11.44H161.2V87.53h2.25Zm0-11.44H161.2V76.09h2.25Zm0-11.44H161.2V64.65h2.25Zm0-11.44H161.2V53.21h2.25Z"/>
            <rect class="cls-12" x="161.2" y="133.29" width="2.24" height="2.24"/>
          </g>
        </g>
        <g>
          <g>
            <path class="cls-13" d="M404.66,159.32c-.17,1.71-2.51,19.58-20.89,19.58-19.29,0-16.06-19.1-16.06-19.1l0-.12a19.44,19.44,0,0,1,6.05-.29v-9l21.9-12.25h.79v21.1A39.93,39.93,0,0,1,404.66,159.32Z"/>
            <g>
              <path class="cls-14" d="M394,97.73a25,25,0,0,1,6.58,12.2c2.11,9.28.13,19.09-2.56,28a14.18,14.18,0,0,1-1.93,4.35,15.76,15.76,0,0,1-2.4,2.43L382,154.93c-2.63,2.31-18.85,4.23-21.94,2-11.93-8.53-14.23-33.23-11.84-45.87C352.21,90.13,379.14,82.64,394,97.73Z"/>
              <path class="cls-15" d="M387.32,124.55c.16-2,2.24-4.23,4.32-2.92s1.64,4.94.75,6.91c-.7,1.54-3,3.23-4.63,1.8-1.33-1.21.74-2.63.81-3.73s-1.92-1.7-1.11-2.76"/>
              <path class="cls-15" d="M387.7,133.87c2.18.65,5.86-1,6.79-4a23.25,23.25,0,0,0,.83-6.49,15.5,15.5,0,0,1,.54,7.15c-.57,4.41-2.11,8.62-5.57,8.67S387.7,133.87,387.7,133.87Z"/>
              <path class="cls-16" d="M385,130.73a.82.82,0,0,1-.25.08c-1.34.18-1.88-1.44-2.08-2.46a45.6,45.6,0,0,1-.47-7.2,5.62,5.62,0,0,0-.22-1.92c-.76-1.74-2.77-2.86-3.39-4.65-.71-2.08,1.3-4.15.5-6.43-1.22-3.49-5.7-4.29-8.94-4.25-4.86,0-9.6,1-14.4,1.7-5.06.79-11.53,1.53-16-1.67-5.38-3.86-7.62-13.92-3.61-19.43,2.19-3,6.34-4.6,10-4.68,3.86-.09,7.11,2.21,10.65,3.36,2.81.92,5.53-1.77,8.17-2.3,3.3-.66,4.71,3,7.63,3.05s5.64-2.12,8.4-2.63c5.51-1,5.19,4.53,8.88,6.42,2.3,1.18,5.27.47,7.59,1.66,1.77.91,2,2.5,2.4,4.31a40.11,40.11,0,0,0,.87,4.84c.46,1.34,1.58,2.18,2.45,3.22a11.66,11.66,0,0,1,2.05,3.9,24.39,24.39,0,0,1,1,9.9c-.49,5.56-2.28,11-4.14,16.28-1.21,3.4-1.66,6.94-3.51,10.16-.5.86-2.71,3.39-3.53,1.51a2.73,2.73,0,0,1-.12-1.3c.24-3.51,3.5-26.1-5-23.38a6.05,6.05,0,0,0-3.67,3.77,14.68,14.68,0,0,0-.76,6.24,7.22,7.22,0,0,1,0,.93A1,1,0,0,1,385,130.73Z"/>
            </g>
          </g>
          <path class="cls-15" d="M373.74,157.32c9.73-1.56,16.15-9.25,16.15-9.25s-2.63,13-16.73,13.64Z"/>
          <g>
            <path class="cls-17" d="M392.16,333.88h9a2.45,2.45,0,0,1,2.45,2.45V470a0,0,0,0,1,0,0H389.71a0,0,0,0,1,0,0V336.33A2.45,2.45,0,0,1,392.16,333.88Z" transform="translate(793.35 803.84) rotate(180)"/>
            <path class="cls-18" d="M367.91,335.79h57.53a9.53,9.53,0,0,1,9.53,9.53v2.09a0,0,0,0,1,0,0H358.38a0,0,0,0,1,0,0v-2.09A9.53,9.53,0,0,1,367.91,335.79Z" transform="translate(793.35 683.2) rotate(180)"/>
            <g>
              <path class="cls-17" d="M392.16,454.11h9a2.45,2.45,0,0,1,2.45,2.45v31a0,0,0,0,1,0,0H389.71a0,0,0,0,1,0,0v-31A2.45,2.45,0,0,1,392.16,454.11Z" transform="translate(793.35 941.64) rotate(180)"/>
              <path class="cls-17" d="M324.4,479.38a8.16,8.16,0,1,0,8.15-8.15A8.15,8.15,0,0,0,324.4,479.38Z"/>
              <path class="cls-17" d="M452.64,479.38a8.15,8.15,0,1,0,8.15-8.15A8.15,8.15,0,0,0,452.64,479.38Z"/>
              <rect class="cls-18" x="382.66" y="443.73" width="28.02" height="24.48" transform="translate(793.35 911.95) rotate(180)"/>
              <path class="cls-10" d="M324.4,462.46H468.94a0,0,0,0,1,0,0v2.84a8.68,8.68,0,0,1-8.68,8.68H333.09a8.68,8.68,0,0,1-8.68-8.68v-2.84A0,0,0,0,1,324.4,462.46Z" transform="translate(793.35 936.43) rotate(180)"/>
            </g>
            <rect class="cls-18" x="391.84" y="350.16" width="4.83" height="91.39"/>
          </g>
          <path class="cls-10" d="M451.39,237a5.68,5.68,0,0,0-5.87,6c1,16.59-2.56,57.06-18,70.87-18.89,16.88-72.43,14.58-72.43,14.58s-8.85,10.85,8.84,13.26,67.52.81,79.58-10.45c11.67-10.89,18.6-39.43,13.38-89.11a5.71,5.71,0,0,0-5.49-5.14Z"/>
          <g>
            <polygon class="cls-19" points="351.07 441.55 357.44 456.07 337.93 464.63 331.54 450.06 351.07 441.55"/>
            <path class="cls-20" d="M443.07,280.19c-1.2,2.41-87.89.05-96.07.8,0,0-53.06,25.32-60.68,49a26,26,0,0,0-.75,9.31c2.12,33.38,40.13,113.3,40.13,113.3l5.84-2.56,19.53-8.51,2.77-1.21s-30.14-89.83-24.11-94.65,74.35-16.88,98-23.3S443.07,280.19,443.07,280.19Z"/>
            <polygon class="cls-21" points="276.69 445.28 278.22 467.1 256.92 467.1 255.4 445.24 276.69 445.28"/>
            <path class="cls-16" d="M346.56,280.24l-.77.34S257,293,242.5,318c-9.4,16.2,8.8,134.62,8.8,134.62l31.42.07S278,354,279.59,348.51c1.76-6.27,4.78-8.54,6-9.19a26,26,0,0,1,.75-9.31c7.62-23.7,60.68-49,60.68-49A1.53,1.53,0,0,1,346.56,280.24Z"/>
            <path class="cls-11" d="M432.35,198.17l-6,.82a289.64,289.64,0,0,1-5,32.12l-74.2,28.17-1,5.38-.91-.07c0,1.11,0,2.19.07,3.2.17,6.2.58,10.66,1.23,12.45a1.52,1.52,0,0,0,.43.75c2,1.64,28.26-1.55,56.64,8.87,24.6,9,38.4,18.91,39,17.58C450.41,291.36,436.33,228.27,432.35,198.17Z"/>
            <path class="cls-22" d="M424.61,235c-2,9.5-7.09,28.41-17.12,30.94-13.1,3.33-38.42,3.16-62.15,1.88,0-1,0-2.09-.07-3.2l.91.07,1-5.38,74.2-28.17a289.64,289.64,0,0,0,5-32.12,1.73,1.73,0,0,0,0,.27C426.56,201.74,427.57,220.94,424.61,235Z"/>
            <path class="cls-22" d="M350.23,174.47c-1.33,2.41-3.23,28.21-4.27,53.82l-15.17-14.15C337.23,201.67,350.23,174.47,350.23,174.47Z"/>
            <path class="cls-15" d="M341.14,247c-12.81,2.22-24.58,4.12-24.58,4.12l0,.63c-14.26-11.39-35.94-43.63-35.94-43.63s6.49-7.79,8.11-9.84c.24-.31,35.59,24,37.4,23.8.46,0,2.27-3.23,4.68-8L346,228.29c-.24,6.1-.44,12.18-.56,17.94C344,246.5,342.56,246.74,341.14,247Z"/>
            <path class="cls-23" d="M316.56,251.13l-.31,10.56H277.66s3.84-15.07,14.28-15.07,14.47,5.52,14.47,5.52Z"/>
            <path class="cls-15" d="M288.42,198.05l.29.24c-1.62,2.05-8.11,9.84-8.11,9.84l-4-2.84a10,10,0,0,1-9.6-.12c-5.38-2.92-2.05-9.89-1.77-10.72-1,.3-7.49,5.51-8.5,5s-1.77-2.39,5.45-9.5,17,2,17.26,2Z"/>
            <path class="cls-15" d="M267.82,204s-1.56,2.91,1.21,4.17a27.47,27.47,0,0,0,10.45,2c2.31-.22,4.14-3.46,4.14-3.46l-7-6.56H271Z"/>
            <path class="cls-24" d="M267.4,205.38c.42-1.42,4.39-.66,6.85-.6,1.82,0,2.81-.44,3.37-1.82s-2.07-3.58-2.59-2.89,1,1.66,1,2.58-2.59,1.22-4.62,1.22a49.21,49.21,0,0,0-5.53.53Z"/>
          </g>
          <path class="cls-25" d="M417.63,244.81l-37.79-13.38c-2.75,5.13-5.69,9-8.61,9.76-4.41,1.16-15.07,3.16-25.83,5-1.42.27-2.84.51-4.26.78-12.81,2.22-24.58,4.12-24.58,4.12l0,.63v.41l-.29,9.52v2.42a265.57,265.57,0,0,1,29,.48c22.64,1.61,51.85,2.58,61.52-2,4.53-2.15,8.15-9.19,11-17.87Z"/>
          <polygon class="cls-15" points="379.84 231.43 417.63 244.81 415.92 249.86 378.52 233.82 379.84 231.43"/>
          <path class="cls-11" d="M379.84,231.43c-2.75,5.13-5.69,9-8.61,9.76-4.41,1.16-15.07,3.16-25.83,5,.12-5.76.32-11.84.56-17.94,1-25.61,2.94-51.41,4.27-53.82,2.17-4,8.1-12.79,17.46-14.79l0,.12s-3.23,19.1,16.06,19.1c18.38,0,20.72-17.87,20.89-19.58,9.45,1.06,23.94,5.79,25.95,24.79.41,3.76,1,8.59,1.73,14.06l-6,.82s-2.41,26.77-8.6,45.75l-.15.07Z"/>
          <polygon class="cls-26" points="379.45 227.94 394.54 191.42 383.42 229.42 379.45 227.94"/>
          <path class="cls-11" d="M404.66,159.32h-8.23s-11.7,12.85-19.22,12.85-3.47-12.78-3.47-12.78h-3.67a20.76,20.76,0,0,0-20.61,18.4c-.13,1.2-.26,2.33-.37,3.36-.8,7.78,30.69,13.43,30.69,13.43l16.21-.9,9.85-19.21,2-7.87Z"/>
          <g>
            <path class="cls-27" d="M305.42,481.34c.74,3.93,3.46,6.72,7.39,6l52.38-9.77a2.44,2.44,0,0,0,1.95-2.85l-.87-4.65s-55.08,9.64-60.87,11.25Z"/>
            <path class="cls-16" d="M321,468.15l1.62-1.42,3.08-2.74,1.53-1.38,2.67-2.38,1.61-1.46,2.14-1.92a1.19,1.19,0,0,1,1.56,0c2.15,1.81,9.11,5.95,21.71-1.85a1.21,1.21,0,0,1,1.72.45l7.62,14.64s-55.08,9.64-60.87,11.25C307.3,480.12,314.33,474,321,468.15Z"/>
          </g>
          <g>
            <path class="cls-27" d="M222.93,480.82c.1,4,2.35,7.19,6.34,7.09l53.27-1.3a2.44,2.44,0,0,0,2.38-2.5l-.12-4.72s-55.92.74-61.89,1.4Z"/>
            <path class="cls-16" d="M240.42,470.29l1.82-1.15,3.48-2.21,1.74-1.12,3-1.93,1.82-1.18,2.42-1.55a1.18,1.18,0,0,1,1.54.21c1.84,2.13,8.05,7.33,21.74,1.64a1.2,1.2,0,0,1,1.62.71l5.19,15.68s-55.92.74-61.89,1.4C225,479.92,232.89,475,240.42,470.29Z"/>
          </g>
          <g>
            <polygon class="cls-28" points="185.04 264.11 156.6 188.24 237.58 188.24 266.03 264.11 185.04 264.11"/>
            <polygon class="cls-29" points="271.04 264.11 266.03 264.11 237.58 188.24 242.13 188.44 268.44 257.12 271.04 264.11"/>
            <path class="cls-29" d="M269.46,264.11H323l-.15-4.78H268.37"/>
          </g>
          <g>
            <rect class="cls-29" x="484.56" y="278.58" width="12.88" height="211.67"/>
            <rect class="cls-28" x="414.63" y="278.58" width="12.88" height="211.67"/>
            <rect class="cls-29" x="190.57" y="278.58" width="12.88" height="211.67"/>
            <rect class="cls-28" x="120.64" y="278.58" width="12.88" height="211.67"/>
            <rect class="cls-30" x="102.03" y="264.11" width="414.57" height="15.27" rx="6.26"/>
          </g>
          <polygon class="cls-29" points="170.12 196.22 171.5 199.91 187.64 199.91 186.25 196.22 170.12 196.22"/>
          <polygon class="cls-24" points="330.79 214.14 329.63 216.37 345.96 233.25 345.96 228.29 330.79 214.14"/>
        </g>
        <g>
          <rect class="cls-31" x="12.09" y="487.53" width="651.93" height="14.89"/>
          <g>
            <g>
              <path class="cls-32" d="M560.66,377.12c-2.59,12.56-1.81,34-18.43,37.36-4.48.91-8.8-2.19-11.4-5.75-3.41-4.65-4.22-14.5-4.16-20.14,0-4.46,1.57-9.44,2.06-13.94.53-4.87,1-9.74,1.52-14.61,2-17.52,11.2-32.2,26.68-41,1.2,5.75,3.93,10.62,6.34,16.14a58.24,58.24,0,0,1,2.81,7.81c1.26,4.68-.27,9.4-1.41,13.87C563,363.53,562,370.42,560.66,377.12Z"/>
              <path class="cls-33" d="M539.42,414.9c.11-1,.24-2.11.38-3.16,2,0,4.06-1.13,5.73-2a30.38,30.38,0,0,0,7.5-5.95c.13-.12-.08-.32-.21-.21a33.5,33.5,0,0,1-7.31,5,20.53,20.53,0,0,1-5.55,2.06c.17-1.25.36-2.51.57-3.76,2.07-.25,4-1.61,5.72-2.65a66,66,0,0,0,8.19-6.26s0-.07,0,0c-4.06,2.94-8.58,7.14-13.72,8.06.27-1.57.56-3.14.89-4.69a2,2,0,0,0,0-.24c6-1.51,10-6.17,14.52-9.94.07-.06,0-.18-.09-.12-4.48,3.48-8.69,7.45-14.23,9.14q.72-3.34,1.49-6.66A31.8,31.8,0,0,0,556.73,384c.07-.08,0-.18-.1-.11-3.89,4.05-8.18,6.37-13.11,8.68.5-2.2,1-4.39,1.46-6.59,2.32-1.14,4.77-1.84,6.92-3.34a19,19,0,0,0,5.38-5.46.1.1,0,0,0-.17-.12c-3,4.33-7.55,5.67-11.93,8,.42-2.05.82-4.11,1.18-6.18,4.88-2.69,10.19-5.18,13-10.34,0,0,0-.1-.07,0-2.94,4.74-8.06,6.78-12.72,9.36.06-.37.13-.74.19-1.11q.45-2.87.85-5.75a47.37,47.37,0,0,0,8-4.36c1.79-1.17,3.71-2.33,4.88-4.16a.1.1,0,0,0-.17-.12c-2.62,3.75-8.36,5.92-12.6,7.8.28-1.94.55-3.88.83-5.82,4.7-2.84,10.23-4.42,13.13-9.55a.14.14,0,0,0-.24-.14c-3,4.68-8.27,6.13-12.76,8.79.17-1.2.34-2.41.53-3.61,5.07-1.86,11-6.12,13.66-10.71a.23.23,0,0,0-.39-.24,28.48,28.48,0,0,1-13.12,10c.3-2,.61-3.89,1-5.83a.51.51,0,0,0,.07-.17c2.28-.67,4.54-2.28,6.5-3.49a17.89,17.89,0,0,0,6.12-5.57.25.25,0,0,0-.43-.24c-2.25,4-7.6,6.72-12,8.26.13-.71.26-1.42.4-2.12.21-1.06.43-2.11.64-3.17,1.82-1.25,4.12-1.85,5.94-3.17a34.44,34.44,0,0,0,4.33-3.94c.13-.14-.07-.36-.21-.23a28.59,28.59,0,0,1-6,4.59c-1.25.67-2.68,1.05-3.89,1.78.36-1.72.71-3.45,1-5.17l.06,0,.07,0a.3.3,0,0,0,.29-.1c2.47-.62,4.36-2.74,6-4.55a0,0,0,0,0-.07-.07c-1.74,1.61-3.71,3.39-6,4.08h0l-.18,0c.27-1.4.53-2.81.77-4.22a.33.33,0,0,0,.29-.36,26,26,0,0,0,3.61-3.1c.08-.08,0-.21-.12-.13a21.67,21.67,0,0,1-3.61,2.55,86.62,86.62,0,0,0,1-8.81c0-.28-.4-.28-.43,0-.25,2.85-.67,5.67-1.16,8.48a26.36,26.36,0,0,1-3.71-5.67c0-.1-.21-.06-.17.05a16.63,16.63,0,0,0,1.8,3.51,22,22,0,0,0,1.91,3.08c-.27,1.51-.57,3-.88,4.52a8.31,8.31,0,0,1-4.53-1.78,8.17,8.17,0,0,1-2.79-5.67c0-.27-.45-.27-.43,0a9.41,9.41,0,0,0,2.42,5.53,8.87,8.87,0,0,0,5.21,2.54q-.55,2.6-1.12,5.19a41.47,41.47,0,0,1-4.26-3.15c-2.18-1.75-3.47-3.84-5.37-5.81-.19-.19-.5.09-.31.29,1.78,1.89,3,3.94,5,5.64a29.25,29.25,0,0,0,4.8,3.66l-.06.27-.06.05a.29.29,0,0,0,0,.39c-.36,1.66-.73,3.31-1.08,5l-.06.31c-3.86-1.77-9.64-4.85-10.15-9.33a.3.3,0,1,0-.59.13c1.14,5.07,6.72,7.32,10.57,10.09q-.57,2.82-1.05,5.65a22.63,22.63,0,0,1-7-3.59c-1.91-1.51-4.6-3.34-5.46-5.69a.06.06,0,1,0-.11,0c.79,2.33,3.21,3.94,5,5.53a18.67,18.67,0,0,0,7.4,4.55.53.53,0,0,0,0,.25q-.3,1.8-.57,3.6c-4.7-.36-11.27-3.93-13.67-7.48,0,0,0,0,0,0,1.64,2.71,4.11,4.29,6.9,5.67,2.08,1,4.34,2.24,6.69,2.41l-1,6.67c-2-.76-4.2-1.12-6.21-1.93a15.33,15.33,0,0,1-7-6c-.11-.16-.38,0-.27.14,3.25,5.17,7.93,6.69,13.41,8.62-.28,1.82-.56,3.65-.86,5.47-4.49-.86-10.29-3.6-12.56-7.49-.16-.29-.62-.05-.45.24,1.43,2.49,3.9,4.07,6.42,5.34,1.81.92,4.31,2.44,6.47,2.6l0,.18c-.44,2.62-1,5.22-1.52,7.82-5-1.26-8.24-5-11.88-8.44-.26-.25-.65.12-.4.37,3.71,3.65,7,7.48,12.12,8.83q-.69,3.17-1.47,6.32a23.17,23.17,0,0,1-11.24-7.69c-.2-.25-.54.08-.36.33A25,25,0,0,0,542,393.39c-.56,2.25-1.13,4.51-1.71,6.76-4.38-.67-7.76-3.42-10.46-6.88-.06-.08-.2,0-.14.11,2.4,3.33,6,7.18,10.39,7.59l-.56,2.15c-.11.44-.22.87-.34,1.32a24.88,24.88,0,0,1-9.1-4.39.08.08,0,0,0-.1.12,23.84,23.84,0,0,0,9,4.93c-.37,1.35-.76,2.74-1.14,4.15a19.32,19.32,0,0,0-2.51-1.07c-1.65-.49-2.71-1.53-4.14-2.39-.13-.08-.28.11-.15.19,1.26.82,2.14,1.88,3.57,2.42,1.06.4,2.06.91,3.09,1.36-1.51,5.62-2.84,11.58-2.12,17,.16,1.2,2.17,1.52,2.48.24C539,423.07,539,418.89,539.42,414.9Z"/>
            </g>
            <g>
              <path class="cls-34" d="M508.05,373.52c3,12.48,12.7,31.56-.94,41.65-3.67,2.72-8.9,1.73-12.76-.4-5.05-2.78-10-11.36-12.27-16.5-1.84-4.06-2.57-9.22-4-13.51-1.57-4.64-3.24-9.24-4.78-13.88-5.54-16.75-3.44-33.93,6.9-48.39,3.52,4.71,8.05,8,12.56,12a57.06,57.06,0,0,1,5.84,5.9c3.12,3.7,3.72,8.63,4.58,13.16C504.43,360.22,506.48,366.87,508.05,373.52Z"/>
              <path class="cls-33" d="M504.74,416.74c-.34-1-.67-2-1-3,1.8-.84,3.19-2.74,4.34-4.23a30.26,30.26,0,0,0,4.3-8.55c.06-.17-.21-.26-.29-.11a34.08,34.08,0,0,1-4.51,7.63,21,21,0,0,1-4.16,4.21c-.38-1.21-.73-2.43-1.07-3.65,1.77-1.11,2.91-3.14,4.06-4.82a66.55,66.55,0,0,0,4.79-9.12s0-.07-.06,0c-2.43,4.38-4.76,10.1-9,13.1-.42-1.54-.82-3.08-1.17-4.63l-.06-.24c4.75-3.87,6.43-9.8,9-15.13,0-.09-.09-.17-.13-.08-2.6,5-4.74,10.42-9.05,14.29-.5-2.22-1-4.44-1.46-6.66a31.67,31.67,0,0,0,8.15-14.3.07.07,0,1,0-.14-.05c-1.82,5.31-4.72,9.22-8.22,13.39-.47-2.19-.95-4.39-1.46-6.58,1.63-2,3.55-3.68,4.87-5.95A19,19,0,0,0,505,375c0-.13-.18-.16-.21,0-.9,5.19-4.44,8.33-7.46,12.24-.48-2-1-4.07-1.53-6.09,3.29-4.51,7.05-9,7.39-14.85,0-.05-.09-.07-.09,0-.66,5.53-4.45,9.54-7.58,13.84-.1-.36-.19-.72-.3-1.08q-.81-2.79-1.65-5.58a46.91,46.91,0,0,0,5.42-7.33c1.13-1.81,2.38-3.67,2.67-5.83a.11.11,0,0,0-.21,0c-.79,4.51-5.08,8.9-8.13,12.39L491.61,367c3.07-4.56,7.42-8.32,7.88-14.19,0-.18-.25-.21-.27,0-.74,5.51-4.92,9.05-7.87,13.36-.35-1.16-.7-2.33-1-3.49,3.81-3.84,7.37-10.18,7.86-15.48a.23.23,0,0,0-.45-.06A28.43,28.43,0,0,1,490,361.69c-.55-1.89-1.08-3.78-1.59-5.69a.6.6,0,0,0,0-.19c1.78-1.57,3.15-4,4.42-5.91a17.76,17.76,0,0,0,3.19-7.63c0-.31-.46-.35-.48,0-.35,4.61-4.06,9.31-7.43,12.57-.18-.69-.37-1.39-.54-2.09l-.75-3.14c1.11-1.9,2.95-3.41,4-5.38a33.66,33.66,0,0,0,2.26-5.4.15.15,0,0,0-.28-.11,28.81,28.81,0,0,1-3.48,6.67c-.85,1.14-2,2.09-2.77,3.26q-.61-2.57-1.24-5.13l.05,0,.07,0a.33.33,0,0,0,.23-.21c2-1.6,2.79-4.33,3.53-6.67,0-.05-.07-.08-.09,0-.9,2.2-1.94,4.64-3.76,6.25h0l-.18.05c-.35-1.38-.71-2.77-1.09-4.15a.32.32,0,0,0,.11-.45,25.59,25.59,0,0,0,2-4.33.09.09,0,0,0-.17-.07,21.15,21.15,0,0,1-2.19,3.83c-.82-2.83-1.73-5.64-2.83-8.4-.1-.25-.48-.08-.39.18,1,2.69,1.78,5.42,2.53,8.18A26.27,26.27,0,0,1,477.4,334c-.08-.07-.22,0-.13.12a16.23,16.23,0,0,0,3.11,2.42,21.37,21.37,0,0,0,3,2c.39,1.48.76,3,1.11,4.46a7.72,7.72,0,0,1-9.78-3.66c-.14-.23-.53-.05-.39.18a9.35,9.35,0,0,0,4.52,4,8.88,8.88,0,0,0,5.8.11q.6,2.58,1.18,5.18a39.14,39.14,0,0,1-5.19-1.07c-2.72-.65-4.78-2-7.32-3a.22.22,0,0,0-.17.4c2.41,1,4.37,2.31,6.92,3a27.88,27.88,0,0,0,5.89,1.29c0,.1,0,.19.07.28a.43.43,0,0,0,0,.07.27.27,0,0,0,.13.36c.37,1.66.74,3.32,1.13,5,0,.11.05.21.07.31-4.25,0-10.79-.32-13.14-4.17a.3.3,0,1,0-.48.37c3.18,4.12,9.18,3.8,13.84,4.69.45,1.86.93,3.72,1.44,5.56a22.72,22.72,0,0,1-7.84-.31c-2.37-.57-5.58-1.09-7.35-2.86-.06-.05-.14,0-.09.09,1.71,1.78,4.58,2.22,6.85,2.92a18.63,18.63,0,0,0,8.63,1,.37.37,0,0,0,.1.23c.32,1.17.66,2.34,1,3.51-4.41,1.65-11.87,1.19-15.55-1,0,0,0,0,0,0,2.62,1.77,5.54,2.16,8.64,2.23,2.33.05,4.88.2,7.09-.64.63,2.16,1.28,4.31,1.92,6.47-2.17.17-4.28.75-6.45.87a15.37,15.37,0,0,1-8.93-2.47c-.16-.1-.35.14-.18.24,5.13,3.32,10,2.72,15.79,2.16.52,1.77,1,3.54,1.53,5.32-4.43,1.11-10.84,1.08-14.54-1.49-.27-.19-.58.21-.31.41,2.35,1.65,5.26,2,8.08,2.13,2,.07,4.93.39,7-.38,0,.06,0,.12.05.18.7,2.56,1.33,5.14,1.92,7.73-5.07,1-9.57-1-14.34-2.64-.33-.11-.53.39-.2.51,4.9,1.74,9.47,3.84,14.71,2.89.48,2.11.92,4.23,1.35,6.35a23.13,23.13,0,0,1-13.45-2.23c-.28-.14-.45.31-.18.45a24.83,24.83,0,0,0,13.79,2.6c.45,2.28.88,4.57,1.31,6.85-4.26,1.24-8.48.18-12.39-1.82-.09-.05-.17.11-.08.16,3.58,2,8.49,4,12.62,2.49.14.73.27,1.46.41,2.19l.24,1.34a24.91,24.91,0,0,1-10.1-.14.08.08,0,0,0,0,.15,23.83,23.83,0,0,0,10.25.67c.24,1.38.47,2.8.72,4.24a19.12,19.12,0,0,0-2.72.09c-1.7.25-3.11-.24-4.77-.42-.15,0-.21.21-.05.24,1.48.21,2.73.79,4.26.68,1.13-.09,2.25-.05,3.37-.07,1,5.73,2.32,11.7,5.25,16.28.65,1,2.6.46,2.34-.83C507.83,424.31,506,420.55,504.74,416.74Z"/>
            </g>
            <g>
              <path class="cls-35" d="M536.87,363.84c.7,15.86,8.12,41.31-10.79,50.42-5.1,2.45-11.23,0-15.43-3.44-5.49-4.55-9.46-16.12-11.09-22.9-1.3-5.37-1-11.81-1.76-17.36-.84-6-1.8-12-2.6-18-2.86-21.64,3.67-42,19.6-57.23,3.18,6.54,7.93,11.55,12.5,17.45a71.28,71.28,0,0,1,5.73,8.52c2.94,5.22,2.53,11.35,2.52,17.07C535.54,346.83,536.49,355.39,536.87,363.84Z"/>
              <path class="cls-33" d="M522.83,415.62c-.18-1.3-.34-2.61-.5-3.91,2.39-.61,4.53-2.59,6.26-4.13a37.64,37.64,0,0,0,7.21-9.42c.11-.18-.2-.35-.32-.18a42.07,42.07,0,0,1-7.25,8.22c-1.6,1.29-3.89,3.33-6,4.16-.17-1.56-.32-3.13-.45-4.69,2.4-.93,4.26-3.14,6-4.92a81.16,81.16,0,0,0,7.93-10s0-.08-.06,0c-4,4.77-8.13,11.18-14,13.84-.15-2-.28-3.94-.36-5.9,0-.1,0-.21,0-.31,6.68-3.61,10.09-10.42,14.4-16.32.07-.09-.06-.22-.13-.12-4.33,5.53-8.17,11.57-14.31,15.28-.1-2.82-.17-5.63-.24-8.44a39.24,39.24,0,0,0,13.23-15.5c0-.11-.1-.2-.16-.09-3.44,6-7.88,10.12-13.1,14.38-.07-2.78-.14-5.56-.25-8.34,2.45-2.08,5.17-3.66,7.29-6.11a23.49,23.49,0,0,0,4.81-8.19.13.13,0,0,0-.25-.08c-2.3,6.1-7.33,9.09-11.9,13.15q-.17-3.89-.46-7.77c5-4.71,10.66-9.31,12.42-16.33,0-.07-.08-.11-.1,0-2.09,6.57-7.62,10.57-12.42,15.08,0-.46-.07-.92-.11-1.38-.22-2.39-.47-4.78-.72-7.17a58.92,58.92,0,0,0,8.29-7.66c1.79-1.94,3.74-3.91,4.59-6.46.05-.16-.18-.26-.24-.1-2,5.3-8.24,9.64-12.75,13.18l-.78-7.23c4.78-4.84,10.94-8.41,12.86-15.44a.17.17,0,0,0-.32-.1c-2.18,6.53-8.07,9.86-12.66,14.41-.15-1.49-.31-3-.45-4.48,5.52-3.78,11.32-10.67,13.14-17a.28.28,0,0,0-.53-.18c-2.06,5.66-7.32,12.58-12.72,16-.23-2.43-.45-4.85-.62-7.28a.62.62,0,0,0,0-.23c2.53-1.5,4.75-4.11,6.74-6.16a22,22,0,0,0,5.65-8.54.3.3,0,0,0-.58-.16c-1.49,5.51-7.09,10.37-11.94,13.56-.06-.89-.12-1.77-.17-2.66-.07-1.33-.13-2.67-.19-4,1.8-2.05,4.38-3.47,6.16-5.61a41.31,41.31,0,0,0,4-6,.19.19,0,0,0-.32-.2,35.48,35.48,0,0,1-5.77,7.31c-1.3,1.18-2.89,2.07-4.12,3.32-.1-2.17-.2-4.35-.32-6.53l.07,0h.08a.39.39,0,0,0,.33-.2c2.78-1.49,4.4-4.61,5.84-7.29,0-.06-.06-.12-.1-.06-1.6,2.46-3.43,5.2-6,6.73h0l-.22,0c-.1-1.77-.22-3.54-.37-5.3a.4.4,0,0,0,.24-.53,32.81,32.81,0,0,0,3.4-4.8.12.12,0,0,0-.19-.13,25.45,25.45,0,0,1-3.56,4.15,108.13,108.13,0,0,0-1.49-10.86c-.07-.34-.57-.21-.51.12.55,3.5.91,7,1.17,10.53a32.41,32.41,0,0,1-6.16-5.68c-.09-.11-.27,0-.2.11a20.48,20.48,0,0,0,3.23,3.67,26.35,26.35,0,0,0,3.23,3.11c.13,1.9.23,3.79.31,5.69a10.32,10.32,0,0,1-6-.76,10.21,10.21,0,0,1-5.07-6c-.11-.32-.62-.19-.51.13a11.63,11.63,0,0,0,4.57,5.9c2.27,1.48,4.51,1.58,7,1.47q.14,3.29.24,6.57a47.94,47.94,0,0,1-6.06-2.5c-3.15-1.43-5.34-3.55-8.21-5.33a.26.26,0,0,0-.29.44c2.71,1.73,4.77,3.82,7.71,5.25a36,36,0,0,0,6.87,2.93c0,.12,0,.23,0,.35a.35.35,0,0,1,0,.08.34.34,0,0,0,.07.47q.09,3.15.21,6.3c0,.13,0,.27,0,.4-5.17-.95-13-2.89-15-8.12a.37.37,0,1,0-.67.33c2.91,5.75,10.29,6.75,15.74,8.91q.18,3.56.46,7.1a28.37,28.37,0,0,1-9.45-2.19c-2.75-1.24-6.54-2.62-8.28-5.18-.05-.08-.17,0-.12.09,1.66,2.56,5,3.75,7.65,5.13,3.29,1.75,6.56,3.12,10.25,3.22a.63.63,0,0,0,.07.3c.13,1.5.26,3,.4,4.49-5.74,1-14.7-1.29-18.66-4.83,0,0,0,0,0,0,2.78,2.75,6.23,3.91,10,4.71,2.81.6,5.88,1.37,8.76.87q.4,4.15.83,8.3c-2.68-.29-5.38-.07-8-.43a19,19,0,0,1-10.28-5.07c-.18-.15-.46.09-.28.26,5.47,5.21,11.54,5.61,18.7,6.27.22,2.28.44,4.55.63,6.82-5.65.33-13.43-1.19-17.34-5.18-.28-.29-.76.13-.47.43,2.48,2.56,5.92,3.7,9.33,4.46,2.45.55,5.91,1.62,8.55,1.16,0,.07,0,.15,0,.22.26,3.28.43,6.56.55,9.85-6.39,0-11.4-3.47-16.83-6.53-.37-.21-.74.35-.36.57,5.56,3.25,10.63,6.86,17.22,6.92.09,2.68.14,5.35.16,8a28.65,28.65,0,0,1-15.83-5.83c-.31-.23-.62.27-.32.51A30.8,30.8,0,0,0,519.39,389c0,2.87,0,5.75,0,8.62-5.46.53-10.34-1.74-14.63-5.08-.1-.08-.24.09-.14.17,3.89,3.28,9.41,6.8,14.77,6,0,.92,0,1.84,0,2.76,0,.55,0,1.11,0,1.68a31,31,0,0,1-12.25-2.5c-.11-.06-.18.11-.08.17A29.46,29.46,0,0,0,519.34,404c0,1.73-.08,3.51-.11,5.33a22.87,22.87,0,0,0-3.33-.52c-2.12-.1-3.72-1-5.7-1.62-.18-.06-.3.21-.11.28,1.75.6,3.13,1.6,5,1.81,1.4.16,2.75.47,4.12.7-.1,7.19.11,14.76,2.61,21,.55,1.38,3.06,1.15,3-.47C524.83,425.54,523.5,420.54,522.83,415.62Z"/>
            </g>
            <polygon class="cls-36" points="547.31 421.56 546.61 434.46 545.51 454.54 543.72 487.53 499.05 487.53 497.25 454.54 496.16 434.46 495.46 421.56 547.31 421.56"/>
            <polygon class="cls-31" points="546.61 434.46 546.46 437.04 546.32 439.72 545.51 454.54 497.25 454.54 496.45 439.72 496.3 437.04 496.16 434.46 546.61 434.46"/>
            <polygon class="cls-36" points="546.46 437.04 546.32 439.72 496.45 439.72 496.3 437.04 546.46 437.04"/>
          </g>
        </g>
      </g>
    </g>
  </g>
</svg>
