<svg id="Layer_1" data-name="Layer 1" xmlns="http://www.w3.org/2000/svg" width="701.7" height="431.32" viewBox="0 0 701.7 431.32">
  <defs>
    <style>
      .cls-1 {
        fill: #fff;
      }

      .cls-2 {
        fill: #e1e1e1;
      }

      .cls-12, .cls-3 {
        opacity: 0.3;
      }

      .cls-4 {
        fill: #ececec;
      }

      .cls-5 {
        fill: #f5f5f5;
      }

      .cls-6 {
        fill: #375a64;
      }

      .cls-7 {
        fill: #1a2e35;
      }

      .cls-8 {
        fill: #ff735d;
      }

      .cls-9 {
        fill: #9bbdfc;
      }

      .cls-10 {
        fill: #402a5f;
      }

      .cls-11 {
        fill: #fafafa;
      }

      .cls-13 {
        fill: #ffbf9d;
      }

      .cls-14 {
        fill: #ff9a6c;
      }
    </style>
  </defs>
  <g>
    <g>
      <g>
        <rect class="cls-1" x="33.85" y="65.65" width="137.71" height="92.21"/>
        <path class="cls-2" d="M171.56,157.85s0-.57,0-1.67,0-2.74,0-4.87c0-4.27,0-10.53,0-18.54,0-16-.06-39.05-.1-67.12l.2.19-137.7,0h0l.24-.24c0,32.85,0,64.08,0,92.2l-.22-.22,99.21.11,28.34.06,7.54,0h2.62l-.64,0H169l-7.49,0-28.29.06-99.36.11h-.23v-.23c0-28.12,0-59.35,0-92.2V65.4h.26l137.7,0h.2v.2c0,28.12-.08,51.19-.11,67.24,0,8,0,14.24-.05,18.5,0,2.11,0,3.73,0,4.83S171.56,157.85,171.56,157.85Z"/>
      </g>
      <path class="cls-2" d="M33.85,73.88c0-.14,30.8-.25,68.79-.25s68.8.11,68.8.25-30.79.24-68.8.24S33.85,74,33.85,73.88Z"/>
      <g>
        <g class="cls-3">
          <path class="cls-2" d="M39.28,69.72a1.11,1.11,0,1,1-1.11-1.1A1.11,1.11,0,0,1,39.28,69.72Z"/>
        </g>
        <g class="cls-3">
          <path class="cls-2" d="M43.06,69.72a1.11,1.11,0,1,1-1.1-1.1A1.11,1.11,0,0,1,43.06,69.72Z"/>
        </g>
        <g class="cls-3">
          <path class="cls-2" d="M46.79,69.72a1.11,1.11,0,1,1-1.11-1.1A1.11,1.11,0,0,1,46.79,69.72Z"/>
        </g>
      </g>
      <rect class="cls-2" x="45.68" y="83.49" width="36.73" height="36.73"/>
      <path class="cls-2" d="M152.67,93.87c0,.14-14.32.25-32,.25s-32-.11-32-.25,14.32-.24,32-.24S152.67,93.74,152.67,93.87Z"/>
      <path class="cls-2" d="M152.67,100.7c0,.14-14.32.25-32,.25s-32-.11-32-.25,14.32-.25,32-.25S152.67,100.56,152.67,100.7Z"/>
      <path class="cls-2" d="M152.67,107.53c0,.13-14.32.24-32,.24s-32-.11-32-.24,14.32-.25,32-.25S152.67,107.39,152.67,107.53Z"/>
      <path class="cls-2" d="M126.5,114.35a7.72,7.72,0,0,1-1.49.1l-4.05.08c-3.42,0-8.15.07-13.37.07s-10,0-13.37-.07l-4.06-.08a7.66,7.66,0,0,1-1.48-.1,9.8,9.8,0,0,1,1.48-.09l4.06-.08c3.42-.05,8.15-.07,13.37-.07s10,0,13.37.07l4.05.08A9.87,9.87,0,0,1,126.5,114.35Z"/>
      <rect class="cls-2" x="47.98" y="132.61" width="17.26" height="17.26"/>
      <rect class="cls-2" x="79.29" y="132.61" width="17.26" height="17.26"/>
      <rect class="cls-2" x="110.6" y="132.61" width="17.26" height="17.26"/>
      <rect class="cls-2" x="141.91" y="132.61" width="17.26" height="17.26"/>
    </g>
    <g>
      <g>
        <rect class="cls-1" x="191.88" y="20.84" width="118.63" height="48.18"/>
        <path class="cls-2" d="M310.51,69s0-.29,0-.86,0-1.4,0-2.5c0-2.19,0-5.42,0-9.59,0-8.31,0-20.34-.07-35.23l.14.13L191.89,21h0l.19-.19c0,16.87,0,33.16,0,48.18l-.18-.18,85.05.09,24.67,0,6.61,0h2.3l-.57,0h-1.69l-6.56,0-24.64.05-85.17.08h-.18V69c0-15,0-31.31,0-48.18v-.19h.2l118.62.06h.13v.13c0,14.92-.06,27-.07,35.31,0,4.15,0,7.37,0,9.56,0,1.09,0,1.92,0,2.48S310.51,69,310.51,69Z"/>
      </g>
      <path class="cls-2" d="M192,27.34c0-.11,26.51-.19,59.21-.19s59.23.08,59.23.19-26.51.19-59.23.19S192,27.44,192,27.34Z"/>
      <g>
        <g class="cls-3">
          <path class="cls-4" d="M197,24.43a.86.86,0,1,1-1.72,0,.86.86,0,1,1,1.72,0Z"/>
        </g>
        <g class="cls-3">
          <path class="cls-4" d="M199.91,24.43a.86.86,0,0,1-1.72,0,.86.86,0,0,1,1.72,0Z"/>
        </g>
        <g class="cls-3">
          <circle class="cls-4" cx="201.96" cy="24.43" r="0.86"/>
        </g>
      </g>
      <rect class="cls-2" x="201.96" y="35.17" width="28.65" height="28.65"/>
      <g>
        <path class="cls-2" d="M302.3,42.85c0,.1-14.75.19-32.93.19s-32.93-.09-32.93-.19,14.74-.19,32.93-.19S302.3,42.74,302.3,42.85Z"/>
        <path class="cls-2" d="M302.3,48.69c0,.1-14.75.18-32.93.18s-32.93-.08-32.93-.18,14.74-.19,32.93-.19S302.3,48.58,302.3,48.69Z"/>
        <path class="cls-2" d="M278.83,54.52a1.28,1.28,0,0,1-.43,0l-1.23,0-4.54.06-15,.05-15-.05-4.55-.06-1.23,0a1.34,1.34,0,0,1-.43,0,3,3,0,0,1,.43,0l1.23,0,4.55-.06,15-.06,15,.06,4.54.06,1.23,0A2.75,2.75,0,0,1,278.83,54.52Z"/>
      </g>
    </g>
    <g>
      <path class="cls-2" d="M630.57,85.15a4.13,4.13,0,0,1,.67-.77l2-2c1.66-1.64,4-3.88,6.55-6.34l.06,0v.33c-2.59-2.41-4.92-4.61-6.59-6.22l-2-1.91a4.91,4.91,0,0,1-.68-.75,3.9,3.9,0,0,1,.8.62l2.06,1.81c1.72,1.55,4.09,3.71,6.68,6.12l.18.16-.18.17-.05,0c-2.58,2.46-4.93,4.67-6.65,6.25l-2,1.85A4.71,4.71,0,0,1,630.57,85.15Z"/>
      <path class="cls-2" d="M610.54,67.48a3.74,3.74,0,0,1-.67.76l-2,2c-1.66,1.64-4,3.88-6.55,6.34l-.06,0v-.33c2.6,2.41,4.93,4.61,6.6,6.22l2,1.92c.45.46.7.72.67.75a4.65,4.65,0,0,1-.79-.62l-2.06-1.82C606,81.17,603.6,79,601,76.6l-.18-.17.17-.17.06-.05c2.58-2.46,4.93-4.66,6.64-6.24l2-1.86A3.92,3.92,0,0,1,610.54,67.48Z"/>
      <path class="cls-2" d="M615.69,89.31c-.12,0,2-6,4.69-13.2s5-13.08,5.12-13-2,5.95-4.7,13.2S615.8,89.35,615.69,89.31Z"/>
      <path class="cls-2" d="M653.33,102s0-.34,0-1,0-1.61,0-2.84c0-2.5,0-6.13,0-10.77,0-9.27-.06-22.51-.1-38.48l.19.19-65.14,0h0l.23-.22c0,19.19,0,37.31,0,53.08l-.21-.2,47.05.1,13.33.05,3.54,0h0l-3.5,0-13.29,0-47.18.1H588V102c0-15.77,0-33.89,0-53.08v-.23h.23l65.14,0h.19v.19c0,16-.07,29.3-.1,38.6,0,4.62,0,8.24,0,10.73,0,1.22,0,2.15,0,2.8S653.33,102,653.33,102Z"/>
      <path class="cls-2" d="M653.84,56.74c0,.13-14.7.23-32.84.23s-32.85-.1-32.85-.23,14.71-.22,32.85-.22S653.84,56.62,653.84,56.74Z"/>
      <g>
        <path class="cls-2" d="M593.5,52.87a.88.88,0,1,1-.88-.88A.87.87,0,0,1,593.5,52.87Z"/>
        <path class="cls-2" d="M596.7,52.87a.88.88,0,1,1-.88-.88A.88.88,0,0,1,596.7,52.87Z"/>
        <path class="cls-2" d="M599.89,52.87A.88.88,0,1,1,599,52,.87.87,0,0,1,599.89,52.87Z"/>
      </g>
    </g>
    <g>
      <g>
        <path class="cls-4" d="M638.32,335.39a19.92,19.92,0,0,1,12.38-1.51c2.24.37,4.59,1,6.11,2.73s1.82,4.66.07,6.1a5.81,5.81,0,0,1-3.86,1c-3.27,0-6.9-.61-9.51,1.36-1.5,1.12-2.49,3-4.27,3.54a4.22,4.22,0,0,1-4.64-2.06,7.2,7.2,0,0,1-.52-5.32A8.09,8.09,0,0,1,638.32,335.39Z"/>
        <path class="cls-4" d="M629.7,318.74c2.3,3.28,6.77,2.19,8.85.19s3-4.92,3.75-7.69c1.82-6.34,3.66-13,2.3-19.44a10.76,10.76,0,0,0-2.48-5.29,5.62,5.62,0,0,0-5.35-1.77c-2.25.59-3.65,2.8-4.67,4.9a46.44,46.44,0,0,0-4.58,19.89c0,3.2.37,6.56,2.18,9.21"/>
        <path class="cls-4" d="M623.38,323.45c2.5-3,3-7.29,1.86-11a21.25,21.25,0,0,0-6.52-9.45A35,35,0,0,0,607,296.1a12.36,12.36,0,0,0-5.25-.9,5.53,5.53,0,0,0-4.41,2.67c-1.23,2.34,0,5.19,1.23,7.51a88.25,88.25,0,0,0,7.67,11.67c2.29,3,4.93,5.89,8.43,7.23s7.14,1.18,9-1.25"/>
        <path class="cls-2" d="M629.54,368.33a7.83,7.83,0,0,0,.21-1.49c.11-1.09.24-2.45.4-4.08s.44-3.76.91-6a46.24,46.24,0,0,1,2.18-7.06,26,26,0,0,1,3.6-6.38,13.49,13.49,0,0,1,4.56-3.79,12.64,12.64,0,0,1,3.84-1.2,7.8,7.8,0,0,0,1.48-.21,6.52,6.52,0,0,0-1.51,0,11.77,11.77,0,0,0-4,1A13.52,13.52,0,0,0,636.4,343a25,25,0,0,0-3.73,6.51,42.12,42.12,0,0,0-2.16,7.17,50.3,50.3,0,0,0-.8,6.06c-.13,1.73-.18,3.13-.2,4.1A7.4,7.4,0,0,0,629.54,368.33Z"/>
        <path class="cls-2" d="M629.82,365.19a2.66,2.66,0,0,0,0-.69v-2c0-1.72,0-4.21.09-7.29.15-6.14.68-12.76,1.7-22.09,1-8.77,2.27-19,3.64-25.62.29-1.51.59-2.87.87-4.06s.49-2.22.71-3,.34-1.42.46-1.93a2.3,2.3,0,0,0,.12-.68,3.06,3.06,0,0,0-.24.65l-.57,1.9c-.26.82-.52,1.85-.82,3s-.63,2.54-1,4.05A226.22,226.22,0,0,0,631,331.2c-1,9.35-1.49,17.86-1.53,24,0,3.08,0,5.57.11,7.29,0,.81.09,1.47.12,2A2.68,2.68,0,0,0,629.82,365.19Z"/>
        <path class="cls-2" d="M629.86,348.78a11.75,11.75,0,0,0,0-2.07c-.08-1.33-.26-3.26-.64-5.61a72.67,72.67,0,0,0-1.82-8.18,67.72,67.72,0,0,0-3.42-9.67,51.31,51.31,0,0,0-10-15.63,24.22,24.22,0,0,0-2.36-2.2c-.36-.3-.68-.61-1-.85l-.91-.63a13.3,13.3,0,0,0-1.75-1.12,62.38,62.38,0,0,1,5.72,5.1,54.53,54.53,0,0,1,9.79,15.57,76.85,76.85,0,0,1,3.43,9.59,82,82,0,0,1,1.95,8.09c.42,2.33.67,4.24.82,5.56A13.65,13.65,0,0,0,629.86,348.78Z"/>
      </g>
      <polygon class="cls-2" points="614 377.74 615.64 400.28 644.59 400.28 646.24 377.74 614 377.74"/>
      <rect class="cls-2" x="611.2" y="368.85" width="38.5" height="8.88"/>
      <polygon class="cls-4" points="611.2 399.41 611.2 401.88 613.01 401.88 649.06 401.88 649.06 399.41 611.2 399.41"/>
      <polygon class="cls-2" points="614.78 406.21 613.01 401.88 647.68 401.88 645.61 406.21 614.78 406.21"/>
      <path class="cls-5" d="M645.7,385.1s0,.08-.13.21l-.44.57L643.45,388l-.08.1-.07-.1-4.14-5.73h.23c-1.23,1.74-2.6,3.69-4.08,5.77l-.12.19-.15-.18-4.84-5.75h.28l-.26.34-4.33,5.42-.14.18-.14-.18c-1.46-2.08-2.84-4-4.08-5.78h.24l-5,5.73-.09.1-.06-.11c-.67-1.12-1.2-2-1.58-2.65l-.4-.7c-.09-.16-.13-.25-.13-.25s.07.07.17.22l.45.68,1.65,2.59h-.16l4.95-5.8.13-.14.11.15c1.25,1.75,2.63,3.69,4.12,5.75h-.28l4.32-5.44.26-.33.14-.17.14.17c1.69,2,3.32,4,4.83,5.76l-.27,0c1.48-2.08,2.87-4,4.12-5.75l.12-.17.11.17,4.06,5.79h-.15l1.76-2.11.47-.54Z"/>
      <path class="cls-5" d="M646.64,377.59c0,.1-7.25.18-16.2.18s-16.2-.08-16.2-.18,7.25-.18,16.2-.18S646.64,377.49,646.64,377.59Z"/>
      <path class="cls-5" d="M648.1,402.12c0,.1-7.88.18-17.6.18s-17.61-.08-17.61-.18,7.88-.18,17.61-.18S648.1,402,648.1,402.12Z"/>
    </g>
    <g>
      <path class="cls-6" d="M110.75,87.8h462a6.09,6.09,0,0,1,6.09,6.09V388.78A13.17,13.17,0,0,1,565.63,402H116.91a13.17,13.17,0,0,1-13.17-13.17v-294A7,7,0,0,1,110.75,87.8Z"/>
      <path class="cls-6" d="M83.87,378.72h514.7a0,0,0,0,1,0,0V393.8a12.41,12.41,0,0,1-12.41,12.41H96.28A12.41,12.41,0,0,1,83.87,393.8V378.72a0,0,0,0,1,0,0Z"/>
      <rect class="cls-2" x="116.49" y="100.28" width="448.23" height="265.3"/>
      <polygon class="cls-7" points="294.44 378.72 300.83 388.88 390.7 388.88 396.63 378.72 294.44 378.72"/>
    </g>
    <rect class="cls-7" x="129.79" y="115.65" width="422.72" height="249.93"/>
    <path class="cls-2" d="M162.22,358.25c-.22,0-.39-53.23-.39-118.88s.17-118.89.39-118.89.4,53.22.4,118.89S162.44,358.25,162.22,358.25Z"/>
    <path class="cls-2" d="M153.7,142c0,.22-3.08.4-6.87.4s-6.87-.18-6.87-.4,3.08-.39,6.87-.39S153.7,141.81,153.7,142Z"/>
    <path class="cls-2" d="M154.22,128.54c0,.22-3.07.4-6.86.4s-6.87-.18-6.87-.4,3.08-.4,6.87-.4S154.22,128.32,154.22,128.54Z"/>
    <path class="cls-2" d="M153.7,156.57c0,.22-3.08.4-6.87.4s-6.87-.18-6.87-.4,3.08-.39,6.87-.39S153.7,156.36,153.7,156.57Z"/>
    <path class="cls-2" d="M153.7,171.12c0,.22-3.08.39-6.87.39s-6.87-.17-6.87-.39,3.08-.4,6.87-.4S153.7,170.9,153.7,171.12Z"/>
    <path class="cls-2" d="M153.7,185.66c0,.22-3.08.4-6.87.4s-6.87-.18-6.87-.4,3.08-.4,6.87-.4S153.7,185.44,153.7,185.66Z"/>
    <path class="cls-2" d="M153.7,200.2c0,.22-3.08.4-6.87.4s-6.87-.18-6.87-.4,3.08-.4,6.87-.4S153.7,200,153.7,200.2Z"/>
    <path class="cls-2" d="M153.7,214.74c0,.22-3.08.4-6.87.4s-6.87-.18-6.87-.4,3.08-.39,6.87-.39S153.7,214.52,153.7,214.74Z"/>
    <path class="cls-2" d="M153.7,229.29c0,.21-3.08.39-6.87.39s-6.87-.18-6.87-.39,3.08-.4,6.87-.4S153.7,229.07,153.7,229.29Z"/>
    <path class="cls-2" d="M153.7,243.83c0,.22-3.08.39-6.87.39s-6.87-.17-6.87-.39,3.08-.4,6.87-.4S153.7,243.61,153.7,243.83Z"/>
    <path class="cls-2" d="M153.7,258.37c0,.22-3.08.4-6.87.4s-6.87-.18-6.87-.4,3.08-.4,6.87-.4S153.7,258.15,153.7,258.37Z"/>
    <path class="cls-2" d="M153.7,272.91c0,.22-3.08.4-6.87.4s-6.87-.18-6.87-.4,3.08-.39,6.87-.39S153.7,272.69,153.7,272.91Z"/>
    <path class="cls-2" d="M153.7,287.45c0,.22-3.08.4-6.87.4s-6.87-.18-6.87-.4,3.08-.39,6.87-.39S153.7,287.24,153.7,287.45Z"/>
    <path class="cls-2" d="M153.7,302c0,.22-3.08.39-6.87.39S140,302.22,140,302s3.08-.4,6.87-.4S153.7,301.78,153.7,302Z"/>
    <path class="cls-2" d="M153.7,316.54c0,.22-3.08.4-6.87.4s-6.87-.18-6.87-.4,3.08-.4,6.87-.4S153.7,316.32,153.7,316.54Z"/>
    <path class="cls-2" d="M153.7,331.08c0,.22-3.08.4-6.87.4s-6.87-.18-6.87-.4,3.08-.39,6.87-.39S153.7,330.86,153.7,331.08Z"/>
    <path class="cls-2" d="M153.7,345.62c0,.22-3.08.4-6.87.4s-6.87-.18-6.87-.4,3.08-.39,6.87-.39S153.7,345.41,153.7,345.62Z"/>
    <path class="cls-6" d="M477.12,200.2c0,.22-34.16.4-76.3.4s-76.3-.18-76.3-.4,34.16-.4,76.3-.4S477.12,200,477.12,200.2Z"/>
    <path class="cls-8" d="M512,214.74c0,.22-8,.4-17.82.4s-17.82-.18-17.82-.4,8-.39,17.82-.39S512,214.52,512,214.74Z"/>
    <path class="cls-8" d="M512,316.45c0,.22-8,.4-17.82.4s-17.82-.18-17.82-.4,8-.39,17.82-.39S512,316.24,512,316.45Z"/>
    <path class="cls-7" d="M521.54,387.9c0,.13-91,.24-203.24.24s-203.25-.11-203.25-.24,91-.23,203.25-.23S521.54,387.77,521.54,387.9Z"/>
    <rect class="cls-2" x="171.44" y="128.14" width="116.63" height="3.78"/>
    <rect class="cls-2" x="171.44" y="183.77" width="116.63" height="3.78"/>
    <rect class="cls-2" x="171.44" y="140.54" width="44.56" height="3.78"/>
    <rect class="cls-2" x="222.3" y="140.54" width="21.57" height="3.78"/>
    <rect class="cls-2" x="250.16" y="140.54" width="21.57" height="3.78"/>
    <rect class="cls-2" x="171.44" y="153.72" width="70.66" height="3.78"/>
    <rect class="cls-2" x="171.44" y="199.36" width="70.66" height="3.78"/>
    <rect class="cls-2" x="171.44" y="212.83" width="33.74" height="3.78"/>
    <rect class="cls-2" x="211.73" y="212.83" width="33.74" height="3.78"/>
    <rect class="cls-2" x="171.44" y="227.79" width="107.89" height="3.78"/>
    <rect class="cls-2" x="171.44" y="240.57" width="107.89" height="3.78"/>
    <rect class="cls-2" x="171.44" y="255.1" width="107.89" height="3.78"/>
    <rect class="cls-2" x="171.44" y="270.63" width="199.15" height="3.78"/>
    <rect class="cls-2" x="171.44" y="284.82" width="199.15" height="3.78"/>
    <rect class="cls-2" x="171.44" y="298.66" width="199.15" height="3.78"/>
    <rect class="cls-2" x="171.44" y="314.53" width="199.15" height="3.78"/>
    <rect class="cls-2" x="252.09" y="153.72" width="34.2" height="3.78"/>
    <rect class="cls-2" x="296.27" y="153.72" width="34.2" height="3.78"/>
    <g>
      <path class="cls-9" d="M99.83,308.19A51.6,51.6,0,0,0,50.6,294.68a89.65,89.65,0,0,0,49.82,15.56"/>
      <g>
        <path class="cls-9" d="M83.13,249.05c2.06-14.5-3.58-30.83-14.45-41.37-.36,14.38,5.72,30.56,14.45,41.37"/>
        <path class="cls-9" d="M91.82,276.46a77.45,77.45,0,0,0-35.58-34A48.9,48.9,0,0,0,92,276.62"/>
        <path class="cls-9" d="M93.62,281.75c-8.76.25-17.63-.06-26.11-2.31s-16.59-6.55-22.23-13.26A87.21,87.21,0,0,1,93.49,280.9"/>
        <path class="cls-9" d="M89.17,264.33c4.45-16.67,11.79-28.2,24.89-37.54a34.68,34.68,0,0,1-24.89,37.54"/>
        <path class="cls-9" d="M122.25,293.08a24.67,24.67,0,0,0-15-22.85c.73,8.6,7.49,18.56,15,22.85"/>
        <path class="cls-9" d="M126.44,279a36.77,36.77,0,0,1,24.08-31.37c-3,13.93-11.08,25.53-24.08,31.37"/>
        <path class="cls-9" d="M120.13,304c3.09-4.42,8.13-7.17,13.35-8.54s10.67-1.48,16.06-1.59a37.57,37.57,0,0,1-29,12.08"/>
        <path class="cls-9" d="M113.86,339.5a41.15,41.15,0,0,1,50.25,23.81c-18.25-3.47-36.26-11.57-50.25-23.81"/>
        <path class="cls-9" d="M93.83,327.15c3,9,2.45,19.8-4.29,27.52a32.9,32.9,0,0,1,4.29-27.52"/>
        <path class="cls-9" d="M82,322.18a33.7,33.7,0,0,1-18.62,27.35,2.13,2.13,0,0,1-1.65.28c-.82-.34-.89-1.46-.79-2.34C62.25,336,70.76,324.88,82,322.18"/>
        <path class="cls-9" d="M74.26,321a27.65,27.65,0,0,1-40.39.21c12.84-1.41,27.65-2.34,40.39-.21"/>
        <g>
          <path class="cls-7" d="M72.34,218.37a2.31,2.31,0,0,0,.11.38l.4,1.08c.36,1,.88,2.37,1.55,4.16s1.48,4,2.41,6.59l1.48,4.12q.76,2.2,1.61,4.65c2.27,6.5,4.8,14.3,7.52,23s5.49,18.32,8.26,28.45,5.15,19.87,7.21,28.74,3.72,16.91,5,23.68c.32,1.69.63,3.31.91,4.83s.51,3,.74,4.32c.46,2.7.86,5,1.13,6.93s.51,3.35.67,4.38c.08.48.14.86.19,1.14a1.76,1.76,0,0,0,.08.39,2,2,0,0,0,0-.4c0-.28-.08-.66-.14-1.14-.14-1-.33-2.51-.58-4.4s-.61-4.24-1-6.94c-.22-1.36-.45-2.8-.7-4.33s-.57-3.15-.88-4.84c-1.2-6.79-2.88-14.82-4.86-23.72s-4.45-18.61-7.18-28.77-5.59-19.75-8.29-28.45-5.32-16.48-7.64-23c-.57-1.62-1.12-3.17-1.63-4.63l-1.53-4.11c-.94-2.57-1.77-4.78-2.49-6.57l-1.63-4.12c-.19-.45-.33-.81-.44-1.07A2.6,2.6,0,0,0,72.34,218.37Z"/>
          <path class="cls-7" d="M142.86,255.1s-.08.06-.22.21L142,256c-.54.57-1.32,1.43-2.29,2.56a89.58,89.58,0,0,0-7.56,10.07,67.9,67.9,0,0,0-7.9,16.92c-2.12,6.73-3.43,14.38-4.74,22.38-2.61,16-5.82,30.34-8.14,40.72-1.16,5.16-2.11,9.34-2.78,12.27-.31,1.43-.56,2.55-.74,3.35-.07.36-.13.64-.18.87a1.62,1.62,0,0,0,0,.3,1.32,1.32,0,0,0,.09-.29c.06-.22.14-.5.23-.86l.83-3.32,2.93-12.25C114.15,338.32,117.41,324,120,308c1.31-8,2.61-15.63,4.69-22.33a68.29,68.29,0,0,1,7.77-16.86,96.81,96.81,0,0,1,7.41-10.14c.94-1.15,1.7-2,2.21-2.61l.58-.68A1.62,1.62,0,0,0,142.86,255.1Z"/>
          <path class="cls-7" d="M70.42,320.47a2.58,2.58,0,0,0,.47.08l1.33.15,1,.09,1.13.17c.82.12,1.75.24,2.76.47l1.59.32,1.71.43c1.19.27,2.41.7,3.72,1.1a53.61,53.61,0,0,1,8.13,3.58,45.57,45.57,0,0,1,7.29,5.06,36.33,36.33,0,0,1,2.8,2.69,28.63,28.63,0,0,1,2.21,2.55,26.66,26.66,0,0,1,1.64,2.26,15.83,15.83,0,0,1,1.12,1.78l.68,1.15a1.9,1.9,0,0,0,.27.39s0-.16-.18-.43l-.6-1.2a14.63,14.63,0,0,0-1.06-1.84A23.69,23.69,0,0,0,104.8,337a28.41,28.41,0,0,0-2.19-2.62,36.66,36.66,0,0,0-2.8-2.75,44.33,44.33,0,0,0-7.35-5.15,52.47,52.47,0,0,0-8.22-3.58c-1.33-.39-2.57-.81-3.77-1.07l-1.73-.41-1.61-.28c-1-.21-2-.3-2.78-.4l-1.15-.13-1-.05-1.34-.06A1.75,1.75,0,0,0,70.42,320.47Z"/>
        </g>
        <path class="cls-7" d="M66.77,255.4a5.64,5.64,0,0,0,.92.9l2.64,2.29c2.25,1.92,5.37,4.54,8.84,7.42s6.63,5.46,8.93,7.31l2.75,2.17a6.89,6.89,0,0,0,1,.75,6.24,6.24,0,0,0-.92-.9l-2.65-2.29c-2.24-1.92-5.36-4.54-8.83-7.42s-6.63-5.46-8.93-7.31l-2.74-2.17A8.38,8.38,0,0,0,66.77,255.4Z"/>
        <path class="cls-7" d="M63.61,272.39c0,.13,6.7,2.24,15.06,4.7s15.15,4.37,15.19,4.24-6.7-2.24-15-4.71S63.65,272.26,63.61,272.39Z"/>
        <path class="cls-7" d="M88.5,265.63a5.79,5.79,0,0,0,.7-1L91,262c1.5-2.28,3.64-5.39,6.17-8.7s5-6.2,6.77-8.26l2.14-2.43a5.47,5.47,0,0,0,.74-.93,5.18,5.18,0,0,0-.88.79c-.55.54-1.32,1.34-2.26,2.34-1.86,2-4.35,4.87-6.9,8.19s-4.64,6.48-6.08,8.81c-.71,1.17-1.28,2.13-1.64,2.8A5.07,5.07,0,0,0,88.5,265.63Z"/>
        <path class="cls-7" d="M111.92,275.05a20.35,20.35,0,0,0,1.58,2.6c1,1.59,2.37,3.79,3.79,6.27s2.6,4.79,3.45,6.47a23.43,23.43,0,0,0,1.43,2.69,16.13,16.13,0,0,0-1.12-2.84c-.76-1.72-1.92-4.06-3.34-6.56s-2.84-4.68-3.92-6.22A17.37,17.37,0,0,0,111.92,275.05Z"/>
        <path class="cls-7" d="M119.92,304.43a35.7,35.7,0,0,0,3.43-1.51c2.11-.94,5-2.18,8.37-3.35s6.39-2,8.63-2.59,3.63-.89,3.61-1a4.64,4.64,0,0,0-1,.1c-.64.1-1.56.27-2.69.52a75,75,0,0,0-17.07,6c-1,.52-1.86.95-2.43,1.28A4.32,4.32,0,0,0,119.92,304.43Z"/>
        <path class="cls-7" d="M113.62,339.56a2.29,2.29,0,0,0,.41.14l1.22.31,4.48,1a148.18,148.18,0,0,1,14.65,3.87A64.61,64.61,0,0,1,148,351.33c1.63,1,2.91,2,3.76,2.62a16.44,16.44,0,0,0,1.36,1,1.6,1.6,0,0,0-.3-.32c-.21-.19-.52-.49-.94-.83a38,38,0,0,0-3.69-2.76,59.94,59.94,0,0,0-13.69-6.6,124.83,124.83,0,0,0-14.73-3.74l-4.52-.88A9.9,9.9,0,0,0,113.62,339.56Z"/>
        <path class="cls-7" d="M90.82,348.22c.13,0,.93-4.71,1.79-10.57S94.05,327,93.92,327s-.94,4.71-1.8,10.56S90.68,348.2,90.82,348.22Z"/>
        <path class="cls-7" d="M67.07,339.59a22.25,22.25,0,0,0,2.14-2.54c1.29-1.59,3.06-3.79,5.07-6.19s3.88-4.52,5.23-6.06a23.42,23.42,0,0,0,2.13-2.54s-.26.18-.68.58-1,1-1.71,1.73c-1.42,1.48-3.33,3.58-5.34,6s-3.76,4.64-5,6.29c-.61.83-1.09,1.51-1.41,2A3.72,3.72,0,0,0,67.07,339.59Z"/>
      </g>
      <polygon class="cls-8" points="129.9 361.61 129.9 373.35 126.97 373.35 116.54 406.26 93.42 406.26 83.32 373.67 79.41 373.35 79.41 361.61 129.9 361.61"/>
      <polygon class="cls-10" points="129.9 361.61 129.9 373.35 126.97 373.35 116.54 406.26 93.42 406.26 83.32 373.67 79.41 373.35 79.41 361.61 129.9 361.61"/>
      <path class="cls-7" d="M81.36,373.67c0,.14,10.21.25,22.81.25s22.8-.11,22.8-.25-10.21-.24-22.8-.24S81.36,373.54,81.36,373.67Z"/>
      <path class="cls-7" d="M64.73,298.21a7.62,7.62,0,0,0,1.48.4l4.06,1c3.42.85,8.12,2.13,13.22,3.85s9.61,3.53,12.85,4.92l3.82,1.67a9.58,9.58,0,0,0,1.43.58,9.63,9.63,0,0,0-1.34-.75c-.88-.46-2.17-1.08-3.77-1.82A132.58,132.58,0,0,0,83.64,303a134.54,134.54,0,0,0-13.29-3.72c-1.72-.38-3.12-.66-4.1-.82A10.06,10.06,0,0,0,64.73,298.21Z"/>
      <path class="cls-11" d="M89,392c0,.13,7.16.24,16,.24s16-.11,16-.24-7.16-.25-16-.25S89,391.81,89,392Z"/>
      <path class="cls-11" d="M88.14,389.23c0,.13,7.59.24,17,.24s17-.11,17-.24-7.59-.25-17-.25S88.14,389.09,88.14,389.23Z"/>
    </g>
    <path class="cls-7" d="M653.57,406.44c0,.13-137.84.24-307.83.24s-307.87-.11-307.87-.24,137.81-.23,307.87-.23S653.57,406.31,653.57,406.44Z"/>
    <g>
      <polygon class="cls-11" points="569.1 62.51 326.78 62.51 326.78 212.58 530.77 212.58 543.4 241.64 554.6 212.58 569.1 212.58 569.1 62.51"/>
      <path class="cls-7" d="M569.1,62.51c0,1.45.07,57.83.18,150.07v.18H554.6l.17-.12c-3.5,9.11-7.28,18.92-11.18,29.06l-.18.46-.19-.45c-4-9.11-8.24-18.95-12.64-29.05l.19.12-184.48,0H326.54v-.24c0-53.48,0-104.24,0-150.07v-.22h.22l242.32.22-242.32.21.21-.21c0,45.83,0,96.59,0,150.07l-.23-.23h19.51l184.48,0h.14l.06.13,12.62,29.06h-.37c3.9-10.14,7.69-19.95,11.2-29.06l.05-.12H569.1l-.18.18C569,120.34,569.1,64,569.1,62.51Z"/>
    </g>
    <path class="cls-7" d="M569,77.15c0,.19-54.14.33-120.91.33s-120.92-.14-120.92-.33,54.13-.33,120.92-.33S569,77,569,77.15Z"/>
    <g>
      <path class="cls-7" d="M339.66,70.52a2,2,0,1,1-2-2A2,2,0,0,1,339.66,70.52Z"/>
      <path class="cls-7" d="M346.84,70.52a2,2,0,1,1-2-2A2,2,0,0,1,346.84,70.52Z"/>
      <path class="cls-7" d="M354,70.52a2,2,0,1,1-2-2A2,2,0,0,1,354,70.52Z"/>
    </g>
    <g>
      <path class="cls-7" d="M351.64,94.1v2.7l-14.11,5.58V99.77l11.21-4.32-11.21-4.32V88.52Z"/>
      <path class="cls-7" d="M355.21,104.49a2.1,2.1,0,0,1,2.14-2.14,2.07,2.07,0,0,1,2.08,2.14,2.11,2.11,0,0,1-2.08,2.18A2.14,2.14,0,0,1,355.21,104.49Z"/>
      <path class="cls-7" d="M362.37,104.49a2.1,2.1,0,0,1,2.14-2.14,2.07,2.07,0,0,1,2.08,2.14,2.11,2.11,0,0,1-2.08,2.18A2.13,2.13,0,0,1,362.37,104.49Z"/>
      <path class="cls-7" d="M369.52,104.49a2.1,2.1,0,0,1,2.14-2.14,2.07,2.07,0,0,1,2.08,2.14,2.11,2.11,0,0,1-2.08,2.18A2.14,2.14,0,0,1,369.52,104.49Z"/>
    </g>
    <g>
      <polygon class="cls-11" points="583.99 123.88 583.99 251.42 564.16 267.96 583.99 267.96 585.94 267.96 667.86 267.96 667.86 123.88 583.99 123.88"/>
      <path class="cls-7" d="M584,123.88l1.47,0,4.33,0,16.7,0,61.37-.1H668v.18c0,38.5,0,88.77.06,144.08v.24H653.32l-89.16,0h-.6l.46-.39,19.84-16.53-.08.16c.05-38.13.08-70,.11-92.42,0-11.16,0-19.95.05-25.95,0-3,0-5.28,0-6.84,0-.76,0-1.35,0-1.75s0-.58,0-.58,0,.21,0,.61,0,1,0,1.77c0,1.56,0,3.87,0,6.87,0,6,0,14.82.05,26,0,22.35.06,54.21.11,92.29v.09l-.08.06L564.3,268.13l-.14-.39h103.7l-.23.23c0-55.31,0-105.58.06-144.08l.17.18L606.6,124l-16.74,0-4.37,0Z"/>
    </g>
    <g>
      <path class="cls-7" d="M591.61,130.23a1.7,1.7,0,1,1-1.7-1.7A1.7,1.7,0,0,1,591.61,130.23Z"/>
      <path class="cls-7" d="M597.76,130.23a1.7,1.7,0,1,1-1.7-1.7A1.7,1.7,0,0,1,597.76,130.23Z"/>
      <path class="cls-7" d="M603.91,130.23a1.7,1.7,0,1,1-1.7-1.7A1.7,1.7,0,0,1,603.91,130.23Z"/>
    </g>
    <path class="cls-7" d="M667.08,136.89c0,.15-18.42.27-41.14.27s-41.13-.12-41.13-.27,18.41-.28,41.13-.28S667.08,136.74,667.08,136.89Z"/>
    <rect class="cls-7" x="337.53" y="119.61" width="56.04" height="4.42"/>
    <rect class="cls-7" x="592.98" y="151.51" width="56.04" height="4.42"/>
    <rect class="cls-7" x="592.98" y="160.35" width="29.6" height="4.42"/>
    <rect class="cls-8" x="592.98" y="168.52" width="15.8" height="4.42"/>
    <rect class="cls-7" x="592.98" y="177.61" width="26.92" height="4.42"/>
    <rect class="cls-7" x="592.98" y="185.37" width="22.85" height="4.42"/>
    <rect class="cls-8" x="592.98" y="207.5" width="57.73" height="4.42"/>
    <rect class="cls-8" x="592.98" y="214.42" width="43.93" height="4.42"/>
    <rect class="cls-7" x="592.98" y="227.68" width="18.21" height="4.42"/>
    <rect class="cls-7" x="612.74" y="227.68" width="18.21" height="4.42"/>
    <rect class="cls-7" x="337.53" y="129.72" width="56.04" height="4.42"/>
    <rect class="cls-7" x="337.53" y="137.9" width="26.95" height="4.42"/>
    <rect class="cls-8" x="337.53" y="146.08" width="26.95" height="4.42"/>
    <rect class="cls-7" x="337.53" y="162.45" width="56.04" height="4.42"/>
    <rect class="cls-7" x="337.53" y="172.07" width="108.62" height="4.42"/>
    <rect class="cls-7" x="337.53" y="181.13" width="108.62" height="4.42"/>
    <rect class="cls-7" x="337.53" y="190.03" width="34.14" height="4.42"/>
    <rect class="cls-7" x="398.08" y="162.45" width="22.22" height="4.42"/>
    <rect class="cls-8" x="423.93" y="162.45" width="22.22" height="4.42"/>
    <g>
      <g>
        <g>
          <g>
            <path class="cls-8" d="M532.24,332.55l18.21-18L518,258.92a31.37,31.37,0,0,0-12.46-8.67l-11.44-4.35-28.44-5.21-20.18,7.95a12.06,12.06,0,0,0-7.57,12.65l5.28,44.46,3.11,57.88,73.36-12.72-7.38-21.41.25-33.38Z"/>
            <path class="cls-7" d="M512.93,328.08c.17,0,.21-11.57.09-25.83s-.35-25.82-.52-25.82-.21,11.56-.1,25.83S512.75,328.08,512.93,328.08Z"/>
          </g>
          <path class="cls-8" d="M510.24,336.56l-44.33-17.84a10.16,10.16,0,0,1-6.32-8.63l-3.24-42.5s.38-18.07-10.9-18.95L439,251.17c-8.3,4.41-10.35,16.49-9.22,25.82,1.6,13.26,2.27,32,4.07,43.53,1.47,9.41,7.12,16.86,16.07,20.12l54.6,11.82Z"/>
          <path class="cls-7" d="M457,274.08a7.2,7.2,0,0,1,.14,1c.07.69.16,1.62.28,2.8.23,2.49.55,6,.94,10.31s.82,9.54,1.31,15.29c.12,1.44.25,2.91.37,4.42a35,35,0,0,0,.57,4.54,7.58,7.58,0,0,0,2.2,4,15.07,15.07,0,0,0,4.09,2.54c12.23,5.29,23.49,9.66,31.67,12.72l9.71,3.58,2.64,1a5.5,5.5,0,0,1,.9.38,7.22,7.22,0,0,1-.94-.27l-2.68-.87c-2.32-.76-5.66-1.92-9.78-3.4-8.22-3-19.5-7.26-31.76-12.57a15.13,15.13,0,0,1-4.25-2.66,8.14,8.14,0,0,1-2.37-4.27,34.75,34.75,0,0,1-.56-4.63c-.12-1.51-.24-3-.35-4.43-.45-5.75-.85-10.93-1.19-15.3s-.57-7.83-.75-10.32c-.07-1.18-.13-2.12-.17-2.81A5.17,5.17,0,0,1,457,274.08Z"/>
          <path class="cls-7" d="M431.59,297.18a2.14,2.14,0,0,1,.09.57c0,.44.09,1,.14,1.64.14,1.51.31,3.55.53,6s.55,5.57,1,8.92a87.2,87.2,0,0,0,2,10.76,16,16,0,0,0,2.17,5.13,29,29,0,0,0,10.4,9.39,26.3,26.3,0,0,0,7.79,2.55,2,2,0,0,1-.58,0,13.25,13.25,0,0,1-1.64-.21,22,22,0,0,1-5.76-1.95,27.84,27.84,0,0,1-7.29-5.31,29.23,29.23,0,0,1-3.4-4.13,16.62,16.62,0,0,1-2.26-5.3,81,81,0,0,1-2-10.85c-.41-3.37-.68-6.4-.87-9s-.28-4.63-.34-6.06c0-.66,0-1.2,0-1.64A2.17,2.17,0,0,1,431.59,297.18Z"/>
          <path class="cls-7" d="M450.54,326.92a6.47,6.47,0,0,1,.81-2.36,15.26,15.26,0,0,1,9-7.69,6.22,6.22,0,0,1,2.45-.42c0,.1-.91.28-2.32.82a17.43,17.43,0,0,0-5,3,17.75,17.75,0,0,0-3.74,4.49A23.44,23.44,0,0,1,450.54,326.92Z"/>
          <g class="cls-3">
            <path d="M497.5,331.49c-4.74-2.67-9.38-4.73-14.33-7s-9.81-5.15-13.06-9.52c-6.11-8.24-5.42-20.14-11.68-28.28l1.23,16.41c.37,5-.4,10,2.83,13.39,2.72,2.87,8,5.07,11.79,6.31,7.54,2.49,15.67,6.18,23.22,8.67"/>
          </g>
        </g>
        <polygon class="cls-12" points="512.51 279.56 516.34 303.21 512.71 296.51 512.51 279.56"/>
        <path class="cls-6" d="M455.65,265a4.52,4.52,0,0,1-1,.08l-2.79.07c-2.36.06-5.62.18-9.21.43s-6.83.61-9.18.88l-2.77.33a4.21,4.21,0,0,1-1,.07,4.32,4.32,0,0,1,1-.25c.65-.13,1.59-.29,2.76-.48,2.34-.36,5.58-.76,9.19-1s6.87-.32,9.23-.3c1.19,0,2.14,0,2.8.08A3.88,3.88,0,0,1,455.65,265Z"/>
        <path class="cls-6" d="M456.91,287.6c0,.13-5.8.72-13,1.31s-13,1-13,.84,5.8-.71,13-1.31S456.9,287.47,456.91,287.6Z"/>
        <path class="cls-6" d="M459.05,311.4a5.13,5.13,0,0,1-.92.52c-.61.32-1.5.73-2.62,1.21a54.56,54.56,0,0,1-18.5,4.14c-1.21.05-2.2.05-2.88,0a4.77,4.77,0,0,1-1.06-.08,5.43,5.43,0,0,1,1.06-.1c.68,0,1.66-.08,2.86-.18a64.44,64.44,0,0,0,18.39-4.11c1.14-.43,2.05-.8,2.67-1.06A4.43,4.43,0,0,1,459.05,311.4Z"/>
        <path class="cls-6" d="M474.81,323.6a23.86,23.86,0,0,0-4.4,3.53,24.16,24.16,0,0,0-3.06,4.73,4.54,4.54,0,0,1,.49-1.62,13.08,13.08,0,0,1,2.22-3.43,12.91,12.91,0,0,1,3.19-2.56A4.35,4.35,0,0,1,474.81,323.6Z"/>
        <path class="cls-6" d="M490.84,339.27a17.29,17.29,0,0,1,4.74-8.65c.1.09-1.29,1.82-2.59,4.21S491,339.31,490.84,339.27Z"/>
        <path class="cls-6" d="M465.58,251.66a45.85,45.85,0,0,1-6.27,1.37,43.61,43.61,0,0,1-6.36.91,44.93,44.93,0,0,1,6.27-1.38A44.35,44.35,0,0,1,465.58,251.66Z"/>
        <path class="cls-6" d="M508,253.59a80.85,80.85,0,0,1-8.69-.8,82,82,0,0,1-8.64-1.26,80.85,80.85,0,0,1,8.69.8A78.94,78.94,0,0,1,508,253.59Z"/>
        <path class="cls-6" d="M511.63,273.32a2.15,2.15,0,0,1-.55,0h-7.44c-4.94,0-11.76,0-19.29.23s-14.35.51-19.28.76l-5.84.31-1.59.07a2.11,2.11,0,0,1-.55,0,3.28,3.28,0,0,1,.55-.08l1.58-.16c1.38-.13,3.37-.29,5.83-.46,4.93-.34,11.75-.7,19.29-.9s14.36-.18,19.3-.09c2.47,0,4.47.1,5.85.16l1.59.07Z"/>
        <path class="cls-6" d="M512.15,298.32c0,.13-11.62,1-26,1.94s-26,1.61-26,1.48,11.61-1,26-1.95S512.14,298.19,512.15,298.32Z"/>
        <path class="cls-6" d="M510.92,320.33a4.08,4.08,0,0,1-1,.42c-.64.24-1.58.57-2.74.95-2.32.76-5.56,1.71-9.19,2.58s-6.95,1.5-9.36,1.88c-1.21.19-2.19.32-2.87.4a4.44,4.44,0,0,1-1.06.07,5,5,0,0,1,1-.25l2.83-.55c2.4-.46,5.7-1.14,9.31-2s6.86-1.76,9.21-2.44l2.77-.8A4.76,4.76,0,0,1,510.92,320.33Z"/>
        <path class="cls-6" d="M529.52,280.42a163.32,163.32,0,0,1-17,4.4,82.58,82.58,0,0,1,8.44-2.43A84.85,84.85,0,0,1,529.52,280.42Z"/>
        <path class="cls-6" d="M520.65,263.53a16.1,16.1,0,0,1-3.74.91,15.61,15.61,0,0,1-3.83.45,31.67,31.67,0,0,1,7.57-1.36Z"/>
        <path class="cls-7" d="M457.12,268.77c-.09,0-.23-1.5-1.06-3.77a19,19,0,0,0-13.44-12.08c-2.34-.58-3.87-.55-3.86-.65a4.42,4.42,0,0,1,1.06,0,16,16,0,0,1,2.88.37,18.41,18.41,0,0,1,13.68,12.29,16.29,16.29,0,0,1,.67,2.82A3.86,3.86,0,0,1,457.12,268.77Z"/>
        <path class="cls-7" d="M509.93,256.71a74.52,74.52,0,0,1,1.56,8.27,73.55,73.55,0,0,1,1.1,8.35,74.52,74.52,0,0,1-1.56-8.27A76.39,76.39,0,0,1,509.93,256.71Z"/>
      </g>
      <g>
        <path class="cls-8" d="M559.34,390s34.07,9.43,35.44,9.91c2.05.72,1.7,8.24-1.49,8.13-1.51-.06-26.17.91-29.29.72s-12.51-3.9-12.51-3.9Z"/>
        <path class="cls-7" d="M573.53,403a31.32,31.32,0,0,1,1.5-3.66,36.13,36.13,0,0,1,2.41-3.14,7.61,7.61,0,0,0-3.91,6.8Z"/>
        <path class="cls-7" d="M570,401.38c.17,0,.51-1.58,1.42-3.36s2-3,1.85-3.15a6.54,6.54,0,0,0-2.36,2.89A6.43,6.43,0,0,0,570,401.38Z"/>
        <path class="cls-7" d="M566.65,400.49a23.06,23.06,0,0,1,.79-3.6,23.58,23.58,0,0,1,1.86-3.19,6.38,6.38,0,0,0-2.65,6.79Z"/>
        <path class="cls-7" d="M567.25,396.09a6.21,6.21,0,0,0,.37-2.54,12.48,12.48,0,0,0-.35-2.78,10.7,10.7,0,0,0-.51-1.58,1.86,1.86,0,0,0-.54-.83.91.91,0,0,0-1.17.05,1.59,1.59,0,0,0-.46,1,6.85,6.85,0,0,0,0,.9,7.32,7.32,0,0,0,.21,1.66,10,10,0,0,0,1,2.61,6.76,6.76,0,0,0,1.53,2.05c.08-.05-.49-.85-1.17-2.24a10.94,10.94,0,0,1-.9-2.53,7.86,7.86,0,0,1-.16-1.56c0-.52,0-1.18.31-1.43a.33.33,0,0,1,.45,0,1.4,1.4,0,0,1,.38.59,12.08,12.08,0,0,1,.51,1.5,13.43,13.43,0,0,1,.45,2.66C567.31,395.11,567.16,396.07,567.25,396.09Z"/>
        <path class="cls-7" d="M567.21,395.74a4.81,4.81,0,0,0-2.2-.36,10.28,10.28,0,0,0-2.42.3,5.37,5.37,0,0,0-1.39.51,1.45,1.45,0,0,0-.77,1.56,1.72,1.72,0,0,0,1.23,1.22,3.16,3.16,0,0,0,1.53,0,5.71,5.71,0,0,0,2.21-1.09,5.63,5.63,0,0,0,1.58-1.56,15.91,15.91,0,0,0-1.81,1.23,6,6,0,0,1-2.09.91,2.68,2.68,0,0,1-1.26,0,1.15,1.15,0,0,1-.83-.81.87.87,0,0,1,.5-.95,4.91,4.91,0,0,1,1.24-.48,11.48,11.48,0,0,1,2.3-.4C566.36,395.69,567.19,395.83,567.21,395.74Z"/>
        <path class="cls-7" d="M578.77,403.35a17.26,17.26,0,0,1,.67-3.07,18.46,18.46,0,0,1,1.67-2.67,4.89,4.89,0,0,0-2.34,5.74Z"/>
        <path class="cls-7" d="M555,404.93a8.81,8.81,0,0,0,1.32.62,29.69,29.69,0,0,0,3.79,1.17,53.9,53.9,0,0,0,13,1.23c5.11-.05,9.71-.28,13-.42l4-.21a7.24,7.24,0,0,0,1.45-.15,7.32,7.32,0,0,0-1.46-.07l-4,0-13,.25a60.71,60.71,0,0,1-12.92-1.05C556.93,405.66,555,404.82,555,404.93Z"/>
        <path class="cls-7" d="M554,405.7c0,.08,1-.46,2.55-1.15a11.76,11.76,0,0,1,6.44-1.07,10.2,10.2,0,0,1,5.58,3.31,21.11,21.11,0,0,0,2,2,10.36,10.36,0,0,0-1.67-2.28,13.44,13.44,0,0,0-2.26-2.12,8.09,8.09,0,0,0-3.52-1.49,11.27,11.27,0,0,0-6.7,1.27A8.93,8.93,0,0,0,554,405.7Z"/>
      </g>
      <g>
        <path class="cls-8" d="M519,382.08s-32.24,21.11-33.39,22c-1.74,1.31.25,7.56,3.26,6.48,1.42-.51,28.48-8,31.39-9.17S531,393.85,531,393.85Z"/>
        <path class="cls-7" d="M509.44,398.78a7.6,7.6,0,0,0-5.79-5.29,32.26,32.26,0,0,1,3.25,2.26A30.81,30.81,0,0,1,509.44,398.78Z"/>
        <path class="cls-7" d="M512.33,396.16a6.36,6.36,0,0,0-2-3.17,6.46,6.46,0,0,0-3.13-2c-.08.15,1.33,1,2.72,2.43S512.18,396.24,512.33,396.16Z"/>
        <path class="cls-7" d="M515.24,394.3a6.39,6.39,0,0,0-4.59-5.66,24.16,24.16,0,0,1,2.74,2.47A23.72,23.72,0,0,1,515.24,394.3Z"/>
        <path class="cls-7" d="M513.33,390.29c.08,0-.36-.91-.73-2.41a13.07,13.07,0,0,1-.38-2.67,14.24,14.24,0,0,1,0-1.59,1.41,1.41,0,0,1,.18-.68.32.32,0,0,1,.44-.1c.37.14.56.77.73,1.26a7.29,7.29,0,0,1,.32,1.54,11.56,11.56,0,0,1-.08,2.68c-.23,1.53-.53,2.46-.44,2.49a6.73,6.73,0,0,0,.83-2.42,9.7,9.7,0,0,0,.21-2.8,7.14,7.14,0,0,0-.31-1.65,5.82,5.82,0,0,0-.31-.85,1.56,1.56,0,0,0-.73-.78.92.92,0,0,0-1.13.3,1.86,1.86,0,0,0-.26,1,11.67,11.67,0,0,0,0,1.67,12.35,12.35,0,0,0,.52,2.75A6,6,0,0,0,513.33,390.29Z"/>
        <path class="cls-7" d="M513.26,390c0,.08.8-.3,2.1-.62a11.24,11.24,0,0,1,2.31-.31,4.86,4.86,0,0,1,1.32.08.88.88,0,0,1,.77.75,1.17,1.17,0,0,1-.54,1,2.8,2.8,0,0,1-1.2.4,6.23,6.23,0,0,1-2.27-.23,14.55,14.55,0,0,0-2.1-.62,7.42,7.42,0,0,0,4.42,1.37,3.08,3.08,0,0,0,1.46-.46,1.72,1.72,0,0,0,.8-1.53,1.43,1.43,0,0,0-1.21-1.25,5.39,5.39,0,0,0-1.48-.07,10.07,10.07,0,0,0-2.39.45A4.64,4.64,0,0,0,513.26,390Z"/>
        <path class="cls-7" d="M493,409.36c0,.05.54-.32.79-1.25a4.75,4.75,0,0,0-.61-3.5,12.18,12.18,0,0,0-1.08-1.61,5.9,5.9,0,0,0-1.09-1.17,1.9,1.9,0,0,0-1-.43c-.27,0-.41.05-.4.09a2.85,2.85,0,0,1,1.17.65,7.82,7.82,0,0,1,.93,1.17,16.56,16.56,0,0,1,1,1.58,4.92,4.92,0,0,1,.71,3.14C493.26,408.87,492.91,409.31,493,409.36Z"/>
        <path class="cls-7" d="M504.56,400.71a4.86,4.86,0,0,0-4-4.75,17.48,17.48,0,0,1,2.4,2A18.33,18.33,0,0,1,504.56,400.71Z"/>
        <path class="cls-7" d="M527.69,395a11.69,11.69,0,0,0-1.42,1,42,42,0,0,1-4,2.43,52.5,52.5,0,0,1-6.32,2.81c-2.44.91-5.17,1.77-8.07,2.61-5.8,1.67-11.05,3.2-14.84,4.34l-4.48,1.37a10.18,10.18,0,0,0-1.62.58,9,9,0,0,0,1.68-.37l4.53-1.2c3.82-1,9.08-2.5,14.89-4.17,2.9-.84,5.65-1.72,8.1-2.67a46.84,46.84,0,0,0,6.32-2.95,31.62,31.62,0,0,0,3.92-2.61A8.49,8.49,0,0,0,527.69,395Z"/>
        <path class="cls-7" d="M528.89,395.43a8.93,8.93,0,0,0-2.74-.73,11.2,11.2,0,0,0-6.77.83,8,8,0,0,0-2.9,2.49,13,13,0,0,0-1.51,2.7,10.8,10.8,0,0,0-.9,2.67,19.86,19.86,0,0,0,1.26-2.5,10.25,10.25,0,0,1,4.3-4.85,11.86,11.86,0,0,1,6.47-.94C527.81,395.28,528.87,395.52,528.89,395.43Z"/>
      </g>
      <g>
        <path class="cls-7" d="M586,329.29s9.67,3.45,9.71,14.3c.08,20.77-42,43.67-42,43.67l-56-37.08-3.5-1.42S569.85,320.39,586,329.29Z"/>
        <path class="cls-6" d="M526.16,368.91a10,10,0,0,0,1.46-1c.92-.66,2.22-1.65,3.83-2.89,3.2-2.48,7.56-6,12.25-10s8.82-7.81,11.75-10.6c1.47-1.4,2.64-2.54,3.44-3.35a9.83,9.83,0,0,0,1.19-1.29,12.11,12.11,0,0,0-1.35,1.13l-3.55,3.21c-3,2.72-7.17,6.44-11.85,10.47s-9,7.57-12.13,10.12l-3.72,3A10.39,10.39,0,0,0,526.16,368.91Z"/>
        <path class="cls-6" d="M570.24,337.05a13.88,13.88,0,0,0-10.19,3c.09.15,2.13-1.15,5-2S570.24,337.23,570.24,337.05Z"/>
        <path class="cls-6" d="M565.42,333.78a6.65,6.65,0,0,0-3.32,2.49,6.75,6.75,0,0,0-1.74,3.77c.16.06.77-1.68,2.18-3.41S565.51,333.93,565.42,333.78Z"/>
        <path class="cls-7" d="M589.11,399.56c0-.07-.66-.2-1.44.43a5.26,5.26,0,0,0-1.62,3.25,6.39,6.39,0,0,0,.51,3.58c.4.85.83,1.25.88,1.21s-.23-.52-.5-1.36a7.1,7.1,0,0,1-.32-3.35,5.62,5.62,0,0,1,1.32-3C588.53,399.67,589.12,399.65,589.11,399.56Z"/>
      </g>
      <g>
        <g>
          <path class="cls-2" d="M582,299.78l-15.93,42.89a6.17,6.17,0,0,1-5.87,4l-87.63-1.16v-6.66l32.51,1.19,13.81-42.81a3.52,3.52,0,0,1,3.34-2.42l56.53.17A3.49,3.49,0,0,1,582,299.78Z"/>
          <path class="cls-7" d="M582,299.78l0-.13a3.93,3.93,0,0,0,.11-.4,3.44,3.44,0,0,0-1.57-3.68,3.44,3.44,0,0,0-1.59-.51c-.61,0-1.26,0-1.95,0l-23.58,0L537,295l-9.28,0H522.8a3.82,3.82,0,0,0-2.33.51,3.36,3.36,0,0,0-1.45,1.91c-4.17,12.94-8.81,27.34-13.76,42.73l0,.1h-.1L472.6,339l.15-.15v6.66l-.14-.14,55.11.74,23.95.33,5.52.08,2.69,0a6.28,6.28,0,0,0,2.55-.37,6.09,6.09,0,0,0,3.51-3.38l1.71-4.57,10.51-28.19c1.24-3.31,2.2-5.88,2.86-7.63s1-2.66,1-2.66l-1,2.68-2.81,7.65c-2.46,6.67-6,16.29-10.43,28.22l-1.7,4.58a6.29,6.29,0,0,1-3.63,3.5,6.53,6.53,0,0,1-2.63.39l-2.68,0-5.52-.07-24-.3-55.11-.72h-.14v-6.94h.15l32.52,1.19-.14.1,13.8-42.72a3.69,3.69,0,0,1,1.55-2,4.05,4.05,0,0,1,2.46-.54l4.88,0,9.28,0,16.53.06,23.58.11c.69,0,1.34,0,1.95,0a3.53,3.53,0,0,1,1.63.52,3.57,3.57,0,0,1,1.54,2.13,3.51,3.51,0,0,1,0,1.62A5.24,5.24,0,0,1,582,299.78Z"/>
        </g>
        <path class="cls-1" d="M543.18,316a4,4,0,0,1,4.26.45,3.46,3.46,0,0,1,.83,3.78,3.72,3.72,0,0,1-3.2,2.23,3.35,3.35,0,0,1-3.38-2.23c-.41-1.4,0-3.49,1.49-4.23"/>
      </g>
      <g>
        <path class="cls-7" d="M563.21,389.6S484.23,339,480.75,337c-3-1.69-10.9-6.57-18.73-4.41s-14.84,9.17-18.34,19.42c-2,5.86-2.95,15.85-3.4,23.35a34.64,34.64,0,0,0,8.11,24.69,22,22,0,0,0,9.86,7c.82.26,1.67.48,2.55.67,14.95,3.24,30.31-3.47,38.71-16.26l1.85-2.8s51.72,19,52.53,18.73Z"/>
        <path class="cls-6" d="M484.82,339.82s-.07,0-.19-.11l-.56-.38c-.48-.33-1.19-.83-2.13-1.43a41.78,41.78,0,0,0-8.39-4.26,22.39,22.39,0,0,0-6.32-1.33,18.1,18.1,0,0,0-7.26,1.18,23.47,23.47,0,0,0-7,4.24,30.61,30.61,0,0,0-3.1,3,22.57,22.57,0,0,0-2.57,3.65,37.31,37.31,0,0,0-3.4,8.14c-.75,2.75-1.34,5.48-1.91,8.05a73,73,0,0,0-1.82,13.85,50.4,50.4,0,0,0,.72,9.39c.17,1.11.37,1.95.49,2.53l.13.65a.8.8,0,0,1,0,.23,1.8,1.8,0,0,1-.07-.22l-.18-.64c-.14-.57-.37-1.41-.57-2.51a47,47,0,0,1-.87-9.43,72.1,72.1,0,0,1,1.72-13.94c.56-2.59,1.14-5.29,1.89-8.09a37.09,37.09,0,0,1,3.45-8.24,22.3,22.3,0,0,1,2.62-3.73,31.5,31.5,0,0,1,3.15-3.08,23.47,23.47,0,0,1,7.13-4.29,18.39,18.39,0,0,1,7.43-1.17,22.5,22.5,0,0,1,6.42,1.41,39.17,39.17,0,0,1,8.37,4.42c.93.63,1.62,1.15,2.09,1.5l.52.42Z"/>
        <path class="cls-6" d="M465.39,375.32l.44.19,1.29.52c1.17.44,2.85,1.09,5,1.93l18.63,7c7.92,3,17.39,6.47,28,10.34s22.42,8.1,35,12.37l.22.07.12-.21,6.17-11.8,3.15-6,.12-.23-.22-.14-60.31-38.29-18.11-11.43L480,336.57l-1.29-.78a4.8,4.8,0,0,0-.44-.25s.13.11.41.3l1.26.83,4.86,3.15,18,11.58,60.22,38.43-.1-.37-3.15,6c-2.12,4-4.2,8-6.17,11.8l.34-.14c-12.58-4.25-24.38-8.47-35-12.31l-28.07-10.21-18.68-6.86-5-1.83-1.31-.47Z"/>
      </g>
      <g>
        <path class="cls-10" d="M469.48,207.5a40.57,40.57,0,0,1-3.51-8.4,13.66,13.66,0,0,1,.47-8.93c.74-1.62,1.89-3,2.47-4.72.79-2.32.47-5,1.9-7,2.24-3.1,7-2.38,10.49-4,2.7-1.26,4.58-4,7.42-4.9,2.47-.79,5.18,0,7.57,1s4.72,2.33,7.3,2.67a51.55,51.55,0,0,0,5.56,0,7.34,7.34,0,0,1,5.13,1.77c1.3,1.32,1.58,3.75.16,4.95,3.25-.55,6.3,2.69,6.26,6s-2.52,6.19-5.51,7.55-6.41,1.46-9.69,1.21c-9.29-.73-18.62-4.26-24.94-11.1"/>
        <g>
          <g>
            <g>
              <path class="cls-13" d="M471.48,195.88l-6.32,46a13.8,13.8,0,0,0,12.47,15.63h0a13.81,13.81,0,0,0,14.89-11.89c.47-3.46.87-6.35.94-6.7,0,0,11.86.51,14.3-11,1.18-5.54,2.67-17.16,3.91-27.68a21.85,21.85,0,0,0-17.42-23.95l-1.11-.22C481,174.4,472.84,183.73,471.48,195.88Z"/>
              <path class="cls-14" d="M493.51,238.74a27.22,27.22,0,0,1-14.13-7.26s1.89,9,13.56,10.24Z"/>
            </g>
            <g>
              <g>
                <g>
                  <path class="cls-7" d="M506.51,210a1.68,1.68,0,0,1-1.91,1.34,1.61,1.61,0,0,1-1.4-1.82,1.68,1.68,0,0,1,1.91-1.34A1.6,1.6,0,0,1,506.51,210Z"/>
                  <path class="cls-7" d="M508.07,205.41c-.25.18-1.31-1-3.07-1.34s-3.24.27-3.39,0,.21-.46.86-.76a4.59,4.59,0,0,1,2.76-.28,4.43,4.43,0,0,1,2.39,1.34C508.08,204.91,508.19,205.34,508.07,205.41Z"/>
                </g>
                <g>
                  <path class="cls-7" d="M490,207.19a1.66,1.66,0,0,1-1.91,1.34,1.6,1.6,0,0,1-1.4-1.82,1.69,1.69,0,0,1,1.92-1.34A1.6,1.6,0,0,1,490,207.19Z"/>
                  <path class="cls-7" d="M490.64,202.27c-.25.17-1.31-1-3.08-1.34s-3.24.27-3.38,0,.2-.46.85-.76a4.56,4.56,0,0,1,2.77-.28,4.43,4.43,0,0,1,2.39,1.34C490.65,201.77,490.76,202.2,490.64,202.27Z"/>
                </g>
                <path class="cls-7" d="M494.43,216.66a11.15,11.15,0,0,1,3,.05c.47,0,.91,0,1.05-.25a2.32,2.32,0,0,0,0-1.4c-.2-1.18-.42-2.41-.64-3.7-.88-5.26-1.42-9.55-1.2-9.59s1.09,4.21,2,9.47c.21,1.29.41,2.53.59,3.71a2.63,2.63,0,0,1-.12,1.82,1.16,1.16,0,0,1-.87.51,3.21,3.21,0,0,1-.79-.05A12,12,0,0,1,494.43,216.66Z"/>
                <path class="cls-7" d="M489,216.84c.29,0-.09,2,1.28,3.65s3.45,1.88,3.41,2.15-.53.29-1.39.14a4.85,4.85,0,0,1-2.88-1.7,4.25,4.25,0,0,1-1-3C488.55,217.23,488.86,216.8,489,216.84Z"/>
              </g>
              <path class="cls-10" d="M492.48,195.44c-.27.44-2-.14-4.11-.3s-3.92.07-4.11-.42c-.08-.23.31-.62,1.07-.95a7.18,7.18,0,0,1,6.26.54C492.29,194.77,492.6,195.23,492.48,195.44Z"/>
              <path class="cls-10" d="M508.44,200.17c-.39.34-1.52-.32-3-.63s-2.76-.27-3-.75c-.08-.23.19-.59.81-.86a4.15,4.15,0,0,1,2.56-.18A4.25,4.25,0,0,1,508.1,199C508.53,199.55,508.62,200,508.44,200.17Z"/>
            </g>
          </g>
          <g>
            <path class="cls-13" d="M470.72,204.58c-.18-.13-7.43-3.92-8.75,4s6.89,7.61,6.95,7.38S470.72,204.58,470.72,204.58Z"/>
            <path class="cls-14" d="M467,212.55s-.15.08-.41.14a1.34,1.34,0,0,1-1-.15c-.78-.44-1.27-1.89-1.07-3.32a4.67,4.67,0,0,1,.72-1.91,1.6,1.6,0,0,1,1.21-.88.7.7,0,0,1,.75.51c.07.24,0,.39,0,.41s.2-.1.19-.44a.92.92,0,0,0-.23-.55,1.06,1.06,0,0,0-.73-.33,1.94,1.94,0,0,0-1.64,1,4.68,4.68,0,0,0-.85,2.12c-.22,1.61.35,3.23,1.44,3.75a1.53,1.53,0,0,0,1.3,0C467,212.74,467,212.57,467,212.55Z"/>
          </g>
          <path class="cls-10" d="M514,189.58c-1.36,2.93-8.34,4.06-13.46,2.51-4.71-1.42-6.43-4.42-9.43-7-1.9-1.65-1.9-1.65-5-2-2.51-.26-4.52,2.24-6.41,3.9,1,6.28-1.74,12.51-4.47,18.27a3.16,3.16,0,0,1-1.27,1.63c-1.08.53-2.36-.31-3-1.32a9.83,9.83,0,0,1-1.11-5.55,32.85,32.85,0,0,1,2.63-12.73,22.33,22.33,0,0,1,8.27-9.9,21.23,21.23,0,0,1,15.73-2.61,26.06,26.06,0,0,1,13.79,8.28,15.4,15.4,0,0,1,3.72,6.52"/>
        </g>
        <g>
          <path class="cls-7" d="M497.85,208.71c.07,0,0-.69.36-1.84a7.66,7.66,0,0,1,2.8-4.07,7.47,7.47,0,0,1,7-1,7.37,7.37,0,0,1,0,13.83,7.44,7.44,0,0,1-7-1,7.66,7.66,0,0,1-2.8-4.07c-.31-1.15-.29-1.84-.36-1.83a1.65,1.65,0,0,0,0,.49,6,6,0,0,0,.16,1.4,7.64,7.64,0,0,0,2.77,4.37,7.92,7.92,0,1,0,0-12.53,7.64,7.64,0,0,0-2.77,4.37,6,6,0,0,0-.16,1.4A1.77,1.77,0,0,0,497.85,208.71Z"/>
          <path class="cls-7" d="M479.09,205.43c.07,0,0-.68.36-1.84a7.62,7.62,0,0,1,2.8-4.06,7.43,7.43,0,0,1,7-1,7.29,7.29,0,0,1,3.41,2.57,7.34,7.34,0,0,1,0,8.68,7.29,7.29,0,0,1-3.41,2.57,7.43,7.43,0,0,1-7-1,7.62,7.62,0,0,1-2.8-4.06c-.32-1.16-.29-1.84-.36-1.84a1.36,1.36,0,0,0,0,.49,6.11,6.11,0,0,0,.16,1.41,7.62,7.62,0,0,0,2.77,4.36,7.87,7.87,0,0,0,11.18-1.55,7.89,7.89,0,0,0,0-9.42A7.87,7.87,0,0,0,482,199.17a7.59,7.59,0,0,0-2.77,4.36,6.06,6.06,0,0,0-.16,1.41A1.36,1.36,0,0,0,479.09,205.43Z"/>
          <path class="cls-7" d="M494.55,205.7c.08.16,1.08-.32,2.25,0s1.76,1.3,1.91,1.21,0-.34-.23-.74a2.81,2.81,0,0,0-1.49-1.08,2.76,2.76,0,0,0-1.85.08C494.7,205.39,494.5,205.63,494.55,205.7Z"/>
          <path class="cls-7" d="M468.46,203.4c0,.18,2.52.29,5.63.24s5.63-.22,5.63-.4-2.53-.28-5.64-.24S468.46,203.23,468.46,203.4Z"/>
        </g>
        <path class="cls-1" d="M517.64,182a2.4,2.4,0,0,1-.12.76,3.73,3.73,0,0,1-1.19,1.7,5.15,5.15,0,0,1-2.84,1.16,14,14,0,0,1-3.78-.19A65.1,65.1,0,0,1,503,184.1c-.85-.22-1.53-.41-2-.56l-.54-.17-.18-.07a.67.67,0,0,1,.19,0l.55.13,2,.5c1.7.41,4.07.91,6.71,1.3a14.6,14.6,0,0,0,3.73.21,5.2,5.2,0,0,0,2.78-1.09,3.82,3.82,0,0,0,1.2-1.63A6.7,6.7,0,0,0,517.64,182Z"/>
        <path class="cls-1" d="M519.39,183.83a7.19,7.19,0,0,1-.68,2.16,9.41,9.41,0,0,1-3.64,4,9.53,9.53,0,0,1-5.28,1.3,7.11,7.11,0,0,1-2.22-.43,4.87,4.87,0,0,1,.59.11,9.44,9.44,0,0,0,10.44-5.08,10.55,10.55,0,0,0,.61-1.52C519.32,184,519.38,183.83,519.39,183.83Z"/>
      </g>
    </g>
  </g>
</svg>
