<svg xmlns="http://www.w3.org/2000/svg" width="999" height="443" viewBox="0 0 999 443">
  <g id="Grupo_12136" data-name="Grupo 12136" transform="translate(-6769 2000)">
    <path id="Trazado_10868" data-name="Trazado 10868" d="M0,0H146V60H0Z" transform="translate(6769 -1924)" fill="#cbd9e4"/>
    <path id="Trazado_10869" data-name="Trazado 10869" d="M0,0H377V60H0Z" transform="translate(6928 -1924)" fill="#cbd9e4"/>
    <path id="Trazado_10881" data-name="Trazado 10881" d="M0,0H228V60H0Z" transform="translate(7320 -1924)" fill="#cbd9e4"/>
    <path id="Trazado_10867" data-name="Trazado 10867" d="M0,0H999V60H0Z" transform="translate(6769 -2000)" fill="#2b4e6a"/>
    <path id="Trazado_10893" data-name="Trazado 10893" d="M0,0H206V60H0Z" transform="translate(7562 -1924)" fill="#cbd9e4"/>
    <path id="Trazado_10870" data-name="Trazado 10870" d="M48.816,5.88V3.8H40.352V15h2.592V10.92h5.184V8.84H42.944V5.88Zm7.536.512v4.256c0,1.584-.832,2.32-1.984,2.32-1.1,0-1.744-.64-1.744-2.08v-4.5h-2.5v4.864c0,2.656,1.52,3.872,3.68,3.872a3.483,3.483,0,0,0,2.672-1.152V15h2.368V6.392ZM66.4,6.264A3.769,3.769,0,0,0,63.552,7.4V6.392H61.168V15h2.5V10.744c0-1.584.864-2.32,2.064-2.32,1.1,0,1.744.64,1.744,2.032V15h2.5V10.072C69.968,7.448,68.432,6.264,66.4,6.264Zm10.08,8.864a3.993,3.993,0,0,0,3.856-2.176L78.4,11.9a2.118,2.118,0,0,1-1.936,1.184A2.2,2.2,0,0,1,74.208,10.7a2.2,2.2,0,0,1,2.256-2.384A2.146,2.146,0,0,1,78.4,9.5l1.936-1.04A3.954,3.954,0,0,0,76.48,6.264c-2.8,0-4.8,1.84-4.8,4.432S73.68,15.128,76.48,15.128Zm6.544-9.936a1.435,1.435,0,0,0,1.552-1.44,1.4,1.4,0,0,0-1.552-1.344A1.427,1.427,0,0,0,81.472,3.8,1.427,1.427,0,0,0,83.024,5.192ZM81.776,15h2.5V6.392h-2.5ZM89.2,5.288h1.952l2.9-2.3H91.36Zm1.488,9.84A4.442,4.442,0,1,0,85.952,10.7,4.418,4.418,0,0,0,90.688,15.128Zm0-2.048A2.184,2.184,0,0,1,88.48,10.7a2.207,2.207,0,1,1,4.4,0A2.172,2.172,0,0,1,90.688,13.08ZM102.3,6.264A3.769,3.769,0,0,0,99.456,7.4V6.392H97.072V15h2.5V10.744c0-1.584.864-2.32,2.064-2.32,1.1,0,1.744.64,1.744,2.032V15h2.5V10.072C105.872,7.448,104.336,6.264,102.3,6.264Z" transform="translate(6769 -1905)" fill="#002b45"/>
    <path id="Trazado_10871" data-name="Trazado 10871" d="M161.74,15.192c3.184,0,5.072-1.824,5.072-5.12V3.8h-2.56V9.976c0,2.128-.912,3.008-2.5,3.008-1.568,0-2.5-.88-2.5-3.008V3.8h-2.592v6.272C156.668,13.368,158.556,15.192,161.74,15.192Zm12.336-2.368a1.682,1.682,0,0,1-1.008.32A1,1,0,0,1,172,12.008V8.5h2.144V6.584H172v-2.1h-2.5v2.1h-1.328V8.5H169.5V12.04c0,2.048,1.184,3.088,3.216,3.088a3.567,3.567,0,0,0,2.032-.544ZM177.4,5.192a1.435,1.435,0,0,0,1.552-1.44A1.4,1.4,0,0,0,177.4,2.408,1.427,1.427,0,0,0,175.852,3.8,1.427,1.427,0,0,0,177.4,5.192ZM176.156,15h2.5V6.392h-2.5Zm4.816,0h2.5V3.128h-2.5Zm6.064-9.808a1.435,1.435,0,0,0,1.552-1.44,1.4,1.4,0,0,0-1.552-1.344A1.427,1.427,0,0,0,185.484,3.8,1.427,1.427,0,0,0,187.036,5.192ZM185.788,15h2.5V6.392h-2.5ZM196.876,3.128V7.3a3.307,3.307,0,0,0-2.576-1.04A4.184,4.184,0,0,0,190,10.7a4.184,4.184,0,0,0,4.3,4.432,3.311,3.311,0,0,0,2.688-1.12V15h2.384V3.128Zm-2.144,9.952a2.184,2.184,0,0,1-2.208-2.384,2.207,2.207,0,1,1,4.4,0A2.181,2.181,0,0,1,194.732,13.08Zm10.416-6.816a6.617,6.617,0,0,0-3.712,1.04l.9,1.744a4.139,4.139,0,0,1,2.48-.8c1.344,0,1.984.624,1.984,1.7h-1.984c-2.624,0-3.7,1.056-3.7,2.576,0,1.488,1.2,2.608,3.216,2.608a2.825,2.825,0,0,0,2.624-1.2V15h2.336V10.088C209.292,7.48,207.772,6.264,205.148,6.264Zm-.192,7.184c-.88,0-1.408-.416-1.408-1.04,0-.576.368-1.008,1.536-1.008H206.8v.88A1.839,1.839,0,0,1,204.956,13.448Zm12.96-10.32V7.3a3.307,3.307,0,0,0-2.576-1.04,4.184,4.184,0,0,0-4.3,4.432,4.184,4.184,0,0,0,4.3,4.432,3.311,3.311,0,0,0,2.688-1.12V15h2.384V3.128Zm-2.144,9.952a2.184,2.184,0,0,1-2.208-2.384,2.207,2.207,0,1,1,4.4,0A2.181,2.181,0,0,1,215.772,13.08Z" transform="translate(6928 -1905)" fill="#002b45"/>
    <path id="Trazado_10882" data-name="Trazado 10882" d="M82.972,12.92V10.328h5.2V8.312h-5.2V5.88H88.86V3.8H80.4V15h8.672V12.92Zm9.344-7.728a1.435,1.435,0,0,0,1.552-1.44,1.4,1.4,0,0,0-1.552-1.344A1.427,1.427,0,0,0,90.764,3.8,1.427,1.427,0,0,0,92.316,5.192Zm-2,13.04a2.986,2.986,0,0,0,3.248-3.248V6.392h-2.5V15c0,.848-.4,1.248-1.024,1.248a1.83,1.83,0,0,1-1.056-.3l-.672,1.808A3.635,3.635,0,0,0,90.316,18.232Zm13.984-7.5a4.261,4.261,0,0,0-4.48-4.464A4.382,4.382,0,0,0,95.228,10.7c0,2.56,1.936,4.432,4.912,4.432a4.508,4.508,0,0,0,3.552-1.392l-1.328-1.44a2.918,2.918,0,0,1-2.16.832A2.3,2.3,0,0,1,97.74,11.4h6.512C104.268,11.192,104.3,10.92,104.3,10.728ZM99.836,8.152a2.045,2.045,0,0,1,2.112,1.792h-4.24A2.038,2.038,0,0,1,99.836,8.152Zm17.152-1.888a3.871,3.871,0,0,0-3.1,1.408,3.213,3.213,0,0,0-2.832-1.408,3.486,3.486,0,0,0-2.7,1.12V6.392h-2.384V15h2.5V10.68c0-1.536.784-2.256,1.888-2.256,1.04,0,1.632.64,1.632,2.032V15h2.5V10.68c0-1.536.784-2.256,1.9-2.256,1.008,0,1.632.64,1.632,2.032V15h2.5V10.072C120.508,7.448,119.036,6.264,116.988,6.264Zm10.848,0a3.344,3.344,0,0,0-2.7,1.12V6.392h-2.384V18.1h2.5V14.088a3.342,3.342,0,0,0,2.592,1.04,4.181,4.181,0,0,0,4.288-4.432A4.181,4.181,0,0,0,127.836,6.264ZM127.4,13.08a2.172,2.172,0,0,1-2.192-2.384,2.2,2.2,0,1,1,4.384,0A2.172,2.172,0,0,1,127.4,13.08ZM133.788,15h2.5V3.128h-2.5Zm8.912.128a4.442,4.442,0,1,0-4.736-4.432A4.418,4.418,0,0,0,142.7,15.128Zm0-2.048a2.184,2.184,0,0,1-2.208-2.384,2.207,2.207,0,1,1,4.4,0A2.172,2.172,0,0,1,142.7,13.08Z" transform="translate(7320 -1905)" fill="#002b45"/>
    <path id="Trazado_10872" data-name="Trazado 10872" d="M393.568,15.192A5.8,5.8,0,1,0,387.44,9.4,5.8,5.8,0,0,0,393.568,15.192Zm0-2.208a3.417,3.417,0,0,1-3.5-3.584,3.5,3.5,0,1,1,7.008,0A3.417,3.417,0,0,1,393.568,12.984Zm12.864-.16a1.682,1.682,0,0,1-1.008.32,1,1,0,0,1-1.072-1.136V8.5H406.5V6.584h-2.144v-2.1h-2.5v2.1h-1.328V8.5h1.328V12.04c0,2.048,1.184,3.088,3.216,3.088a3.567,3.567,0,0,0,2.032-.544Zm4.464-5.3V6.392h-2.384V15h2.5V10.936a2.115,2.115,0,0,1,2.288-2.4c.192,0,.352.016.56.032v-2.3A3.474,3.474,0,0,0,410.9,7.528Zm7.872-1.264a6.617,6.617,0,0,0-3.712,1.04l.9,1.744a4.139,4.139,0,0,1,2.48-.8c1.344,0,1.984.624,1.984,1.7h-1.984c-2.624,0-3.7,1.056-3.7,2.576,0,1.488,1.2,2.608,3.216,2.608a2.825,2.825,0,0,0,2.624-1.2V15h2.336V10.088C422.912,7.48,421.392,6.264,418.768,6.264Zm-.192,7.184c-.88,0-1.408-.416-1.408-1.04,0-.576.368-1.008,1.536-1.008h1.712v.88A1.839,1.839,0,0,1,418.576,13.448Zm9.488,1.68c2.576,0,4.064-1.136,4.064-2.736,0-3.392-5.2-1.968-5.2-3.44,0-.448.48-.8,1.6-.8a4.943,4.943,0,0,1,2.48.64l.832-1.776a7.078,7.078,0,0,0-3.312-.752c-2.512,0-3.984,1.152-3.984,2.784,0,3.44,5.2,2,5.2,3.408,0,.48-.432.784-1.584.784a5.889,5.889,0,0,1-2.992-.832l-.832,1.792A7.39,7.39,0,0,0,428.064,15.128Zm12.864-8.912c0-.848.4-1.248,1.136-1.248a1.748,1.748,0,0,1,1.008.3l.656-1.808a3.538,3.538,0,0,0-1.9-.464A3,3,0,0,0,438.5,6.2v.384h-1.328V8.5H438.5V15h2.5V8.5h2.144V6.584h-2.208Zm9.632.176v4.256c0,1.584-.832,2.32-1.984,2.32-1.1,0-1.744-.64-1.744-2.08v-4.5h-2.5v4.864c0,2.656,1.52,3.872,3.68,3.872a3.483,3.483,0,0,0,2.672-1.152V15h2.368V6.392Zm10.048-.128A3.769,3.769,0,0,0,457.76,7.4V6.392h-2.384V15h2.5V10.744c0-1.584.864-2.32,2.064-2.32,1.1,0,1.744.64,1.744,2.032V15h2.5V10.072C464.176,7.448,462.64,6.264,460.608,6.264Zm10.08,8.864a3.993,3.993,0,0,0,3.856-2.176L472.608,11.9a2.118,2.118,0,0,1-1.936,1.184,2.2,2.2,0,0,1-2.256-2.384,2.2,2.2,0,0,1,2.256-2.384A2.146,2.146,0,0,1,472.608,9.5l1.936-1.04a3.954,3.954,0,0,0-3.856-2.192c-2.8,0-4.8,1.84-4.8,4.432S467.888,15.128,470.688,15.128Zm6.544-9.936a1.435,1.435,0,0,0,1.552-1.44,1.4,1.4,0,0,0-1.552-1.344A1.427,1.427,0,0,0,475.68,3.8,1.427,1.427,0,0,0,477.232,5.192ZM475.984,15h2.5V6.392h-2.5Zm8.912.128A4.442,4.442,0,1,0,480.16,10.7,4.418,4.418,0,0,0,484.9,15.128Zm0-2.048a2.184,2.184,0,0,1-2.208-2.384,2.207,2.207,0,1,1,4.4,0A2.172,2.172,0,0,1,484.9,13.08Zm11.616-6.816A3.769,3.769,0,0,0,493.664,7.4V6.392H491.28V15h2.5V10.744c0-1.584.864-2.32,2.064-2.32,1.1,0,1.744.64,1.744,2.032V15h2.5V10.072C500.08,7.448,498.544,6.264,496.512,6.264Zm14.352,4.464a4.261,4.261,0,0,0-4.48-4.464,4.382,4.382,0,0,0-4.592,4.432c0,2.56,1.936,4.432,4.912,4.432a4.508,4.508,0,0,0,3.552-1.392l-1.328-1.44a2.918,2.918,0,0,1-2.16.832A2.3,2.3,0,0,1,504.3,11.4h6.512C510.832,11.192,510.864,10.92,510.864,10.728ZM506.4,8.152a2.045,2.045,0,0,1,2.112,1.792h-4.24A2.038,2.038,0,0,1,506.4,8.152Zm9.024,6.976c2.576,0,4.064-1.136,4.064-2.736,0-3.392-5.2-1.968-5.2-3.44,0-.448.48-.8,1.6-.8a4.943,4.943,0,0,1,2.48.64l.832-1.776a7.078,7.078,0,0,0-3.312-.752c-2.512,0-3.984,1.152-3.984,2.784,0,3.44,5.2,2,5.2,3.408,0,.48-.432.784-1.584.784a5.889,5.889,0,0,1-2.992-.832L511.7,14.2A7.39,7.39,0,0,0,515.424,15.128Zm18.56-4.4a4.261,4.261,0,0,0-4.48-4.464,4.382,4.382,0,0,0-4.592,4.432c0,2.56,1.936,4.432,4.912,4.432a4.508,4.508,0,0,0,3.552-1.392l-1.328-1.44a2.918,2.918,0,0,1-2.16.832,2.3,2.3,0,0,1-2.464-1.728h6.512C533.952,11.192,533.984,10.92,533.984,10.728ZM529.52,8.152a2.045,2.045,0,0,1,2.112,1.792h-4.24A2.038,2.038,0,0,1,529.52,8.152Zm11.36-1.888A3.769,3.769,0,0,0,538.032,7.4V6.392h-2.384V15h2.5V10.744c0-1.584.864-2.32,2.064-2.32,1.1,0,1.744.64,1.744,2.032V15h2.5V10.072C544.448,7.448,542.912,6.264,540.88,6.264ZM556.256,3.8h-4.848V15H554V11.912h2.256c2.992,0,4.864-1.552,4.864-4.048C561.12,5.352,559.248,3.8,556.256,3.8Zm-.144,6H554V5.912h2.112c1.584,0,2.384.72,2.384,1.952C558.5,9.08,557.7,9.8,556.112,9.8Zm12.912-3.408-2.432,5.84-2.416-5.84H561.6l3.728,8.672-.032.08c-.336.768-.72,1.072-1.408,1.072a2.213,2.213,0,0,1-1.408-.544l-.912,1.776a3.822,3.822,0,0,0,2.4.784c1.552,0,2.736-.624,3.568-2.7l3.888-9.136Zm8.544,6.432a1.682,1.682,0,0,1-1.008.32,1,1,0,0,1-1.072-1.136V8.5h2.144V6.584h-2.144v-2.1h-2.5v2.1h-1.328V8.5h1.328V12.04c0,2.048,1.184,3.088,3.216,3.088a3.567,3.567,0,0,0,2.032-.544Zm7.312-6.56a3.783,3.783,0,0,0-2.736,1.024V3.128h-2.5V15h2.5V10.744c0-1.584.864-2.32,2.064-2.32,1.1,0,1.744.64,1.744,2.032V15h2.5V10.072C588.448,7.448,586.912,6.264,584.88,6.264ZM594.9,15.128A4.442,4.442,0,1,0,590.16,10.7,4.418,4.418,0,0,0,594.9,15.128Zm0-2.048a2.184,2.184,0,0,1-2.208-2.384,2.207,2.207,0,1,1,4.4,0A2.172,2.172,0,0,1,594.9,13.08Zm11.616-6.816A3.769,3.769,0,0,0,603.664,7.4V6.392H601.28V15h2.5V10.744c0-1.584.864-2.32,2.064-2.32,1.1,0,1.744.64,1.744,2.032V15h2.5V10.072C610.08,7.448,608.544,6.264,606.512,6.264Z" transform="translate(6769 -1981)" fill="#fff"/>
    <path id="Trazado_10894" data-name="Trazado 10894" d="M71.616,15,69.1,11.4a3.641,3.641,0,0,0,2.3-3.536c0-2.512-1.872-4.064-4.864-4.064H61.7V15h2.592V11.88h2.384L68.832,15ZM68.784,7.864c0,1.216-.8,1.952-2.384,1.952H64.288v-3.9H66.4C67.984,5.912,68.784,6.632,68.784,7.864Zm12.928,2.864a4.261,4.261,0,0,0-4.48-4.464A4.382,4.382,0,0,0,72.64,10.7c0,2.56,1.936,4.432,4.912,4.432A4.508,4.508,0,0,0,81.1,13.736L79.776,12.3a2.918,2.918,0,0,1-2.16.832A2.3,2.3,0,0,1,75.152,11.4h6.512C81.68,11.192,81.712,10.92,81.712,10.728ZM77.248,8.152A2.045,2.045,0,0,1,79.36,9.944H75.12A2.038,2.038,0,0,1,77.248,8.152Zm9.024,6.976c2.576,0,4.064-1.136,4.064-2.736,0-3.392-5.2-1.968-5.2-3.44,0-.448.48-.8,1.6-.8a4.943,4.943,0,0,1,2.48.64l.832-1.776a7.078,7.078,0,0,0-3.312-.752c-2.512,0-3.984,1.152-3.984,2.784,0,3.44,5.2,2,5.2,3.408,0,.48-.432.784-1.584.784a5.889,5.889,0,0,1-2.992-.832L82.544,14.2A7.39,7.39,0,0,0,86.272,15.128ZM98.048,6.392v4.256c0,1.584-.832,2.32-1.984,2.32-1.1,0-1.744-.64-1.744-2.08v-4.5h-2.5v4.864c0,2.656,1.52,3.872,3.68,3.872a3.483,3.483,0,0,0,2.672-1.152V15h2.368V6.392ZM102.864,15h2.5V3.128h-2.5Zm10.32-2.176a1.682,1.682,0,0,1-1.008.32,1,1,0,0,1-1.072-1.136V8.5h2.144V6.584H111.1v-2.1h-2.5v2.1H107.28V8.5h1.328V12.04c0,2.048,1.184,3.088,3.216,3.088a3.567,3.567,0,0,0,2.032-.544Zm5.552-6.56a6.617,6.617,0,0,0-3.712,1.04l.9,1.744a4.139,4.139,0,0,1,2.48-.8c1.344,0,1.984.624,1.984,1.7H118.4c-2.624,0-3.7,1.056-3.7,2.576,0,1.488,1.2,2.608,3.216,2.608a2.825,2.825,0,0,0,2.624-1.2V15h2.336V10.088C122.88,7.48,121.36,6.264,118.736,6.264Zm-.192,7.184c-.88,0-1.408-.416-1.408-1.04,0-.576.368-1.008,1.536-1.008h1.712v.88A1.839,1.839,0,0,1,118.544,13.448ZM131.5,3.128V7.3a3.307,3.307,0,0,0-2.576-1.04,4.184,4.184,0,0,0-4.3,4.432,4.184,4.184,0,0,0,4.3,4.432,3.311,3.311,0,0,0,2.688-1.12V15H134V3.128ZM129.36,13.08a2.184,2.184,0,0,1-2.208-2.384,2.207,2.207,0,1,1,4.4,0A2.181,2.181,0,0,1,129.36,13.08Zm11.04,2.048a4.442,4.442,0,1,0-4.736-4.432A4.418,4.418,0,0,0,140.4,15.128Zm0-2.048a2.184,2.184,0,0,1-2.208-2.384,2.207,2.207,0,1,1,4.4,0A2.172,2.172,0,0,1,140.4,13.08Z" transform="translate(7562 -1905)" fill="#002b45"/>
    <path id="Trazado_10873" data-name="Trazado 10873" d="M0,0H146V87H0Z" transform="translate(6769 -1848)" fill="#eef0f2"/>
    <path id="Trazado_10877" data-name="Trazado 10877" d="M0,0H146V87H0Z" transform="translate(6769 -1746)" fill="#eef0f2"/>
    <path id="Trazado_10883" data-name="Trazado 10883" d="M0,0H146V87H0Z" transform="translate(6769 -1644)" fill="#eef0f2"/>
    <path id="Trazado_10874" data-name="Trazado 10874" d="M0,0H377V87H0Z" transform="translate(6928 -1848)" fill="#eef0f2"/>
    <path id="Trazado_10878" data-name="Trazado 10878" d="M0,0H377V87H0Z" transform="translate(6928 -1746)" fill="#eef0f2"/>
    <path id="Trazado_10884" data-name="Trazado 10884" d="M0,0H377V87H0Z" transform="translate(6928 -1644)" fill="#eef0f2"/>
    <path id="Trazado_10885" data-name="Trazado 10885" d="M0,0H228V87H0Z" transform="translate(7320 -1848)" fill="#eef0f2"/>
    <path id="Trazado_10886" data-name="Trazado 10886" d="M0,0H228V87H0Z" transform="translate(7320 -1746)" fill="#eef0f2"/>
    <path id="Trazado_10887" data-name="Trazado 10887" d="M0,0H228V87H0Z" transform="translate(7320 -1644)" fill="#eef0f2"/>
    <path id="Trazado_10895" data-name="Trazado 10895" d="M0,0H206V87H0Z" transform="translate(7562 -1848)" fill="#eef0f2"/>
    <path id="Trazado_10896" data-name="Trazado 10896" d="M0,0H206V87H0Z" transform="translate(7562 -1746)" fill="#eef0f2"/>
    <path id="Trazado_10897" data-name="Trazado 10897" d="M0,0H206V87H0Z" transform="translate(7562 -1644)" fill="#eef0f2"/>
    <path id="Trazado_10875" data-name="Trazado 10875" d="M57.113,16V4h2.273V16Zm5.75-9.234a1.263,1.263,0,0,1-.922-.379,1.244,1.244,0,0,1-.383-.918,1.229,1.229,0,0,1,.387-.91,1.267,1.267,0,0,1,.918-.379,1.3,1.3,0,0,1,1.289,1.289,1.3,1.3,0,0,1-1.289,1.3ZM61.715,16V7.969H63.98V16Zm7.422.156a4.488,4.488,0,0,1-2.344-.562,2.378,2.378,0,0,1-1.148-1.672l1.883-.531a1.513,1.513,0,0,0,1.609,1.2,1.662,1.662,0,0,0,.82-.184.639.639,0,0,0,.32-.621.657.657,0,0,0-.133-.414,1.052,1.052,0,0,0-.41-.3,5.11,5.11,0,0,0-.547-.211q-.27-.086-.715-.207t-.742-.23a4.972,4.972,0,0,1-.707-.3,3.016,3.016,0,0,1-.586-.414A1.669,1.669,0,0,1,66,11.078a2.269,2.269,0,0,1-.152-.859,2.052,2.052,0,0,1,.871-1.8A3.892,3.892,0,0,1,69,7.813a3.99,3.99,0,0,1,2.1.516,2.334,2.334,0,0,1,1.078,1.609l-1.742.391A1.365,1.365,0,0,0,69,9.313a1.566,1.566,0,0,0-.789.18.577.577,0,0,0-.312.531.609.609,0,0,0,.047.242.479.479,0,0,0,.164.2,2.393,2.393,0,0,0,.227.148,1.709,1.709,0,0,0,.32.129q.211.066.352.1l.41.105.418.109q.43.117.754.234a4.415,4.415,0,0,1,.691.328,2.481,2.481,0,0,1,.605.473,2.108,2.108,0,0,1,.395.664,2.453,2.453,0,0,1,.156.895,2.416,2.416,0,0,1-.27,1.164,2.023,2.023,0,0,1-.738.785,3.593,3.593,0,0,1-1.043.422A5.41,5.41,0,0,1,69.137,16.156ZM77.051,16a2.426,2.426,0,0,1-1.812-.652,2.537,2.537,0,0,1-.641-1.855V9.7H73.02V7.969h.508a1.325,1.325,0,0,0,1-.336,1.73,1.73,0,0,0,.32-1.2V5.375h2.031V7.969h1.656V9.7H76.879V13.25q0,1.039.93,1.039h.727V16Zm6.094,3.75a7.477,7.477,0,0,1-2.473-3.477,14.66,14.66,0,0,1-.9-5.312,14.668,14.668,0,0,1,.9-5.309,7.476,7.476,0,0,1,2.473-3.48L84.426,3.7a5.543,5.543,0,0,0-1.895,2.777,13.08,13.08,0,0,0-.715,4.488,13.038,13.038,0,0,0,.715,4.488,5.541,5.541,0,0,0,1.895,2.77Zm2.875,0-1.281-1.531a5.541,5.541,0,0,0,1.895-2.77,13.038,13.038,0,0,0,.715-4.488,13.08,13.08,0,0,0-.715-4.488A5.543,5.543,0,0,0,84.738,3.7L86.02,2.172a7.476,7.476,0,0,1,2.473,3.48,14.668,14.668,0,0,1,.9,5.309,14.66,14.66,0,0,1-.9,5.313A7.477,7.477,0,0,1,86.02,19.75Z" transform="translate(6769 -1815)" fill="#00223d"/>
    <path id="Trazado_10879" data-name="Trazado 10879" d="M59.363,16.156a5.05,5.05,0,0,1-2.273-.492,3.679,3.679,0,0,1-1.559-1.445,4.307,4.307,0,0,1-.566-2.242A3.929,3.929,0,0,1,56.184,8.93a5.095,5.095,0,0,1,6.367,0,3.929,3.929,0,0,1,1.219,3.047,3.951,3.951,0,0,1-1.219,3.059A4.523,4.523,0,0,1,59.363,16.156Zm-.023-1.789a2.061,2.061,0,0,0,1.59-.656,2.457,2.457,0,0,0,.605-1.734,2.457,2.457,0,0,0-.605-1.734,2.061,2.061,0,0,0-1.59-.656,1.986,1.986,0,0,0-1.543.66,2.479,2.479,0,0,0-.6,1.73,2.479,2.479,0,0,0,.6,1.73A1.986,1.986,0,0,0,59.34,14.367ZM67.6,9.242a2.607,2.607,0,0,1,1.055-.965,3.218,3.218,0,0,1,1.57-.4V9.883a3.043,3.043,0,0,0-1.922.484,2.115,2.115,0,0,0-.594,1.719V16H65.441V7.969H67.6ZM77.191,4h2.25V16H77.309l-.055-1.047a2.294,2.294,0,0,1-1.02.91,3.432,3.432,0,0,1-1.5.324,3.906,3.906,0,0,1-1.5-.289,3.613,3.613,0,0,1-2.062-2.141,4.885,4.885,0,0,1-.3-1.758,4.566,4.566,0,0,1,.531-2.238A3.64,3.64,0,0,1,72.8,8.3a3.862,3.862,0,0,1,1.934-.492,3.518,3.518,0,0,1,1.457.293,2.275,2.275,0,0,1,1,.832ZM75.246,14.32a2,2,0,0,0,1.52-.641A2.345,2.345,0,0,0,77.371,12a2.35,2.35,0,0,0-.609-1.684,2,2,0,0,0-1.516-.645,2.024,2.024,0,0,0-1.527.633,2.35,2.35,0,0,0-.605,1.7,2.339,2.339,0,0,0,.605,1.688A2.024,2.024,0,0,0,75.246,14.32Zm9.391,5.43a7.477,7.477,0,0,1-2.473-3.477,14.66,14.66,0,0,1-.9-5.312,14.668,14.668,0,0,1,.9-5.309,7.476,7.476,0,0,1,2.473-3.48L85.918,3.7a5.543,5.543,0,0,0-1.895,2.777,13.08,13.08,0,0,0-.715,4.488,13.038,13.038,0,0,0,.715,4.488,5.541,5.541,0,0,0,1.895,2.77Zm2.875,0L86.23,18.219a5.541,5.541,0,0,0,1.895-2.77,13.038,13.038,0,0,0,.715-4.488,13.08,13.08,0,0,0-.715-4.488A5.543,5.543,0,0,0,86.23,3.7l1.281-1.523a7.476,7.476,0,0,1,2.473,3.48,14.668,14.668,0,0,1,.9,5.309,14.66,14.66,0,0,1-.9,5.313A7.477,7.477,0,0,1,87.512,19.75Z" transform="translate(6769 -1713)" fill="#00223d"/>
    <path id="Trazado_10890" data-name="Trazado 10890" d="M47.871,9.242a2.607,2.607,0,0,1,1.055-.965,3.218,3.218,0,0,1,1.57-.4V9.883a3.043,3.043,0,0,0-1.922.484,2.115,2.115,0,0,0-.594,1.719V16H45.715V7.969h2.156Zm7.641,6.914a5.05,5.05,0,0,1-2.273-.492,3.679,3.679,0,0,1-1.559-1.445,4.307,4.307,0,0,1-.566-2.242A3.929,3.929,0,0,1,52.332,8.93a5.095,5.095,0,0,1,6.367,0,3.929,3.929,0,0,1,1.219,3.047A3.951,3.951,0,0,1,58.7,15.035,4.523,4.523,0,0,1,55.512,16.156Zm-.023-1.789a2.061,2.061,0,0,0,1.59-.656,2.457,2.457,0,0,0,.605-1.734,2.457,2.457,0,0,0-.605-1.734,2.061,2.061,0,0,0-1.59-.656,1.986,1.986,0,0,0-1.543.66,2.479,2.479,0,0,0-.6,1.73,2.479,2.479,0,0,0,.6,1.73A1.986,1.986,0,0,0,55.488,14.367Zm11.422-6.4h2.25V16H67.027l-.055-.969a3.067,3.067,0,0,1-2.555,1.125,3.131,3.131,0,0,1-2.219-.723,2.68,2.68,0,0,1-.773-2.059V7.969h2.258v4.922a1.388,1.388,0,0,0,.4,1.1,1.527,1.527,0,0,0,1.043.352,1.811,1.811,0,0,0,1.277-.457,1.963,1.963,0,0,0,.5-1.488Zm9.32-.156a3.131,3.131,0,0,1,2.219.723,2.68,2.68,0,0,1,.773,2.059V16H76.965V11.078a1.4,1.4,0,0,0-.4-1.109,1.516,1.516,0,0,0-1.035-.352,2.115,2.115,0,0,0-.672.1,1.726,1.726,0,0,0-.562.316,1.4,1.4,0,0,0-.4.605,2.8,2.8,0,0,0-.152.93V16h-2.25V7.969h2.25v.891A3.1,3.1,0,0,1,76.23,7.813ZM87.1,4h2.25V16H87.215l-.055-1.047a2.294,2.294,0,0,1-1.02.91,3.432,3.432,0,0,1-1.5.324,3.906,3.906,0,0,1-1.5-.289,3.613,3.613,0,0,1-2.062-2.141A4.885,4.885,0,0,1,80.77,12,4.566,4.566,0,0,1,81.3,9.762,3.64,3.64,0,0,1,82.7,8.3a3.862,3.862,0,0,1,1.934-.492,3.518,3.518,0,0,1,1.457.293,2.275,2.275,0,0,1,1,.832ZM85.152,14.32a2,2,0,0,0,1.52-.641A2.345,2.345,0,0,0,87.277,12a2.35,2.35,0,0,0-.609-1.684,2,2,0,0,0-1.516-.645,2.024,2.024,0,0,0-1.527.633A2.35,2.35,0,0,0,83.02,12a2.339,2.339,0,0,0,.605,1.688A2.024,2.024,0,0,0,85.152,14.32Zm9.391,5.43a7.477,7.477,0,0,1-2.473-3.477,14.66,14.66,0,0,1-.9-5.312,14.668,14.668,0,0,1,.9-5.309,7.476,7.476,0,0,1,2.473-3.48L95.824,3.7A5.543,5.543,0,0,0,93.93,6.473a13.08,13.08,0,0,0-.715,4.488,13.038,13.038,0,0,0,.715,4.488,5.541,5.541,0,0,0,1.895,2.77Zm2.875,0-1.281-1.531a5.541,5.541,0,0,0,1.895-2.77,13.038,13.038,0,0,0,.715-4.488,13.08,13.08,0,0,0-.715-4.488A5.543,5.543,0,0,0,96.137,3.7l1.281-1.523a7.476,7.476,0,0,1,2.473,3.48,14.668,14.668,0,0,1,.9,5.309,14.66,14.66,0,0,1-.9,5.313A7.477,7.477,0,0,1,97.418,19.75Z" transform="translate(6769 -1611)" fill="#00223d"/>
    <path id="Trazado_10876" data-name="Trazado 10876" d="M50.059,16.148a5.844,5.844,0,0,1-2.164-.395,5.226,5.226,0,0,1-1.738-1.109A4.948,4.948,0,0,1,45,12.859a6.456,6.456,0,0,1-.418-2.367A6.35,6.35,0,0,1,45,8.137a4.939,4.939,0,0,1,2.891-2.895,5.9,5.9,0,0,1,2.164-.391,5.589,5.589,0,0,1,2.926.773,4.819,4.819,0,0,1,1.934,2.148L53.629,8.3a3.622,3.622,0,0,0-1.441-1.566,4.137,4.137,0,0,0-2.129-.551,4.374,4.374,0,0,0-1.6.289,3.838,3.838,0,0,0-1.3.828,3.739,3.739,0,0,0-.871,1.359,5.044,5.044,0,0,0-.316,1.828,5.075,5.075,0,0,0,.316,1.832,3.733,3.733,0,0,0,.871,1.363,3.888,3.888,0,0,0,1.3.832,4.323,4.323,0,0,0,1.6.293,4.137,4.137,0,0,0,2.129-.551A3.631,3.631,0,0,0,53.629,12.7l1.289.523a4.794,4.794,0,0,1-1.93,2.152A5.6,5.6,0,0,1,50.059,16.148Zm8.227-6.477a2.322,2.322,0,0,1,.953-1.031,2.87,2.87,0,0,1,1.477-.406V9.508a2.53,2.53,0,0,0-1.785.57,2.382,2.382,0,0,0-.613,1.82V16H56.965V8.32h1.32Zm10.641,2.336-.016.367h-6a2.714,2.714,0,0,0,.734,1.965,2.411,2.411,0,0,0,1.75.684,2.3,2.3,0,0,0,1.273-.367,2.383,2.383,0,0,0,.875-1.016l1.219.258a3.464,3.464,0,0,1-1.312,1.648,3.581,3.581,0,0,1-2.039.6,3.71,3.71,0,0,1-2.766-1.07,3.982,3.982,0,0,1-1.055-2.922,3.962,3.962,0,0,1,1.059-2.914,3.664,3.664,0,0,1,2.723-1.07,3.467,3.467,0,0,1,2.582.984A3.889,3.889,0,0,1,68.926,12.008Zm-3.555-2.8a2.4,2.4,0,0,0-1.6.543,2.488,2.488,0,0,0-.809,1.582h4.6a2.282,2.282,0,0,0-.672-1.582A2.17,2.17,0,0,0,65.371,9.211Zm7.445,6.938a2.613,2.613,0,0,1-1.684-.527,1.894,1.894,0,0,1-.66-1.574,2.237,2.237,0,0,1,.211-1,1.77,1.77,0,0,1,.625-.7,3.749,3.749,0,0,1,.9-.434,8.341,8.341,0,0,1,1.168-.277l1.242-.2q.68-.125.68-.711a1.342,1.342,0,0,0-.48-1.145,1.958,1.958,0,0,0-1.215-.363,1.994,1.994,0,0,0-1.2.352,1.471,1.471,0,0,0-.57,1.078l-1.219-.258a2.346,2.346,0,0,1,.961-1.645,3.59,3.59,0,0,1,2.094-.551,4.247,4.247,0,0,1,1.113.137,3.025,3.025,0,0,1,.93.43,1.927,1.927,0,0,1,.664.828,3.081,3.081,0,0,1,.238,1.262v3.172a1.3,1.3,0,0,0,.176.8.759.759,0,0,0,.605.207h.125V16h-.672a1.281,1.281,0,0,1-1.453-1.039h-.062A2.935,2.935,0,0,1,72.816,16.148Zm.313-1.094a2.049,2.049,0,0,0,1.648-.742,3.056,3.056,0,0,0,.625-2.031l-2.031.391a2.734,2.734,0,0,0-1.191.426.99.99,0,0,0-.387.84.979.979,0,0,0,.371.844A1.586,1.586,0,0,0,73.129,15.055ZM88.363,8.32h1.352V16h-1.3l-.031-1.016a2.4,2.4,0,0,1-.953.863,2.932,2.932,0,0,1-1.344.3,2.671,2.671,0,0,1-1.934-.7,2.594,2.594,0,0,1-.723-1.961V8.32h1.352v4.867a1.822,1.822,0,0,0,.473,1.375,1.673,1.673,0,0,0,1.207.453,1.837,1.837,0,0,0,1.363-.531,2.164,2.164,0,0,0,.535-1.57Zm7.727-.148a2.671,2.671,0,0,1,1.934.7,2.594,2.594,0,0,1,.723,1.961V16H97.395V11.133a1.816,1.816,0,0,0-.469-1.375,1.676,1.676,0,0,0-1.2-.445,1.858,1.858,0,0,0-1.367.527,2.14,2.14,0,0,0-.539,1.566V16H92.465V8.32h1.352V9.3A2.565,2.565,0,0,1,96.09,8.172Zm7.039,7.977a2.613,2.613,0,0,1-1.684-.527,1.894,1.894,0,0,1-.66-1.574,2.237,2.237,0,0,1,.211-1,1.77,1.77,0,0,1,.625-.7,3.749,3.749,0,0,1,.9-.434,8.341,8.341,0,0,1,1.168-.277l1.242-.2q.68-.125.68-.711a1.342,1.342,0,0,0-.48-1.145,1.958,1.958,0,0,0-1.215-.363,1.994,1.994,0,0,0-1.2.352,1.471,1.471,0,0,0-.57,1.078l-1.219-.258a2.346,2.346,0,0,1,.961-1.645,3.59,3.59,0,0,1,2.094-.551,4.247,4.247,0,0,1,1.113.137,3.025,3.025,0,0,1,.93.43,1.927,1.927,0,0,1,.664.828,3.081,3.081,0,0,1,.238,1.262v3.172a1.3,1.3,0,0,0,.176.8.759.759,0,0,0,.605.207h.125V16h-.672a1.281,1.281,0,0,1-1.453-1.039h-.062A2.935,2.935,0,0,1,103.129,16.148Zm.313-1.094a2.049,2.049,0,0,0,1.648-.742,3.056,3.056,0,0,0,.625-2.031l-2.031.391a2.734,2.734,0,0,0-1.191.426.99.99,0,0,0-.387.84.979.979,0,0,0,.371.844A1.586,1.586,0,0,0,103.441,15.055ZM113.895,16V4h1.367V16Zm4.8-9.484a.92.92,0,0,1-.914-.914.867.867,0,0,1,.27-.641A.886.886,0,0,1,118.7,4.7a.877.877,0,0,1,.637.266.867.867,0,0,1,.27.641.88.88,0,0,1-.27.645A.871.871,0,0,1,118.7,6.516ZM118.012,16V8.32h1.359V16Zm6.539.148a3.641,3.641,0,0,1-2.07-.555,2.294,2.294,0,0,1-1.008-1.578l1.18-.336a1.645,1.645,0,0,0,.629,1.066,2.04,2.04,0,0,0,1.262.379,2.518,2.518,0,0,0,.738-.1,1.184,1.184,0,0,0,.566-.379,1.057,1.057,0,0,0,.164-1.016,1.357,1.357,0,0,0-.125-.254.774.774,0,0,0-.219-.211A2.885,2.885,0,0,0,125.4,13a2.726,2.726,0,0,0-.348-.145q-.23-.082-.371-.125t-.43-.125q-.289-.082-.445-.129a8.331,8.331,0,0,1-.8-.281,3.5,3.5,0,0,1-.648-.371,1.493,1.493,0,0,1-.5-.605,2.049,2.049,0,0,1-.168-.859,1.986,1.986,0,0,1,.375-1.227,2.11,2.11,0,0,1,.973-.723,3.888,3.888,0,0,1,1.363-.223,3.337,3.337,0,0,1,1.871.5,2.134,2.134,0,0,1,.934,1.5l-1.109.281a1.471,1.471,0,0,0-.586-.973,1.865,1.865,0,0,0-1.1-.324,1.9,1.9,0,0,0-1.031.27.906.906,0,0,0-.43.824.82.82,0,0,0,.113.426,1.352,1.352,0,0,0,.23.3,1.417,1.417,0,0,0,.422.23q.3.121.453.164t.563.145q.078.023.117.031.453.117.738.207a4.538,4.538,0,0,1,.664.281,2.208,2.208,0,0,1,.6.418,1.936,1.936,0,0,1,.375.594,2.1,2.1,0,0,1,.156.828,2.237,2.237,0,0,1-.23,1.035,1.8,1.8,0,0,1-.629.707,3.042,3.042,0,0,1-.895.387A4.262,4.262,0,0,1,124.551,16.148ZM131.957,16a2.019,2.019,0,0,1-1.5-.551,2.084,2.084,0,0,1-.547-1.535V9.4h-1.57V8.32h.578a1.11,1.11,0,0,0,.848-.27,1.326,1.326,0,0,0,.246-.9V5.758h1.258V8.32h1.766V9.4H131.27v4.375a1.164,1.164,0,0,0,.293.848,1.026,1.026,0,0,0,.77.3h.7V16Zm4.711.148a2.613,2.613,0,0,1-1.684-.527,1.894,1.894,0,0,1-.66-1.574,2.237,2.237,0,0,1,.211-1,1.77,1.77,0,0,1,.625-.7,3.749,3.749,0,0,1,.9-.434,8.341,8.341,0,0,1,1.168-.277l1.242-.2q.68-.125.68-.711a1.342,1.342,0,0,0-.48-1.145,1.958,1.958,0,0,0-1.215-.363,1.994,1.994,0,0,0-1.2.352,1.471,1.471,0,0,0-.57,1.078l-1.219-.258a2.346,2.346,0,0,1,.961-1.645,3.59,3.59,0,0,1,2.094-.551,4.247,4.247,0,0,1,1.113.137,3.026,3.026,0,0,1,.93.43,1.927,1.927,0,0,1,.664.828,3.081,3.081,0,0,1,.238,1.262v3.172a1.3,1.3,0,0,0,.176.8.759.759,0,0,0,.605.207h.125V16H140.7a1.281,1.281,0,0,1-1.453-1.039h-.062A2.935,2.935,0,0,1,136.668,16.148Zm.313-1.094a2.049,2.049,0,0,0,1.648-.742,3.056,3.056,0,0,0,.625-2.031l-2.031.391a2.734,2.734,0,0,0-1.191.426.99.99,0,0,0-.387.84.979.979,0,0,0,.371.844A1.586,1.586,0,0,0,136.98,15.055Zm12.227,1.094a2.613,2.613,0,0,1-1.684-.527,1.894,1.894,0,0,1-.66-1.574,2.237,2.237,0,0,1,.211-1,1.77,1.77,0,0,1,.625-.7,3.749,3.749,0,0,1,.9-.434,8.341,8.341,0,0,1,1.168-.277l1.242-.2q.68-.125.68-.711a1.342,1.342,0,0,0-.48-1.145A1.958,1.958,0,0,0,150,9.211a1.994,1.994,0,0,0-1.2.352,1.471,1.471,0,0,0-.57,1.078L147,10.383a2.346,2.346,0,0,1,.961-1.645,3.59,3.59,0,0,1,2.094-.551,4.247,4.247,0,0,1,1.113.137,3.026,3.026,0,0,1,.93.43,1.927,1.927,0,0,1,.664.828A3.081,3.081,0,0,1,153,10.844v3.172a1.3,1.3,0,0,0,.176.8.759.759,0,0,0,.605.207h.125V16h-.672a1.281,1.281,0,0,1-1.453-1.039h-.062A2.935,2.935,0,0,1,149.207,16.148Zm.313-1.094a2.049,2.049,0,0,0,1.648-.742,3.056,3.056,0,0,0,.625-2.031l-2.031.391a2.734,2.734,0,0,0-1.191.426.99.99,0,0,0-.387.84.979.979,0,0,0,.371.844A1.586,1.586,0,0,0,149.52,15.055Zm14.508-6.883a3.493,3.493,0,0,1,1.391.281,3.421,3.421,0,0,1,1.141.789,3.688,3.688,0,0,1,.77,1.266,4.667,4.667,0,0,1,.285,1.656,4.06,4.06,0,0,1-1.035,2.9,3.362,3.362,0,0,1-2.551,1.1,3.04,3.04,0,0,1-1.605-.437,2.867,2.867,0,0,1-1.1-1.18v5.32h-1.352V8.32h1.3l.031,1.492a2.811,2.811,0,0,1,1.094-1.2A3.068,3.068,0,0,1,164.027,8.172Zm-.266,6.82a2.332,2.332,0,0,0,1.777-.777,2.892,2.892,0,0,0,.723-2.051,2.877,2.877,0,0,0-.723-2.047,2.423,2.423,0,0,0-3.582.035,2.88,2.88,0,0,0-.734,2.012,2.891,2.891,0,0,0,.734,2.02A2.343,2.343,0,0,0,163.762,14.992Zm7.758,1.156a2.613,2.613,0,0,1-1.684-.527,1.894,1.894,0,0,1-.66-1.574,2.237,2.237,0,0,1,.211-1,1.77,1.77,0,0,1,.625-.7,3.749,3.749,0,0,1,.9-.434,8.341,8.341,0,0,1,1.168-.277l1.242-.2q.68-.125.68-.711a1.342,1.342,0,0,0-.48-1.145,1.958,1.958,0,0,0-1.215-.363,1.994,1.994,0,0,0-1.2.352,1.471,1.471,0,0,0-.57,1.078l-1.219-.258a2.346,2.346,0,0,1,.961-1.645,3.59,3.59,0,0,1,2.094-.551,4.247,4.247,0,0,1,1.113.137,3.026,3.026,0,0,1,.93.43,1.927,1.927,0,0,1,.664.828,3.081,3.081,0,0,1,.238,1.262v3.172a1.3,1.3,0,0,0,.176.8.759.759,0,0,0,.605.207h.125V16h-.672a1.281,1.281,0,0,1-1.453-1.039h-.062A2.935,2.935,0,0,1,171.52,16.148Zm.313-1.094a2.049,2.049,0,0,0,1.648-.742,3.056,3.056,0,0,0,.625-2.031l-2.031.391a2.734,2.734,0,0,0-1.191.426.99.99,0,0,0-.387.84.979.979,0,0,0,.371.844A1.586,1.586,0,0,0,171.832,15.055Zm7.617-5.383a2.322,2.322,0,0,1,.953-1.031,2.87,2.87,0,0,1,1.477-.406V9.508a2.53,2.53,0,0,0-1.785.57,2.382,2.382,0,0,0-.613,1.82V16h-1.352V8.32h1.32ZM186.363,16a2.019,2.019,0,0,1-1.5-.551,2.084,2.084,0,0,1-.547-1.535V9.4h-1.57V8.32h.578a1.11,1.11,0,0,0,.848-.27,1.326,1.326,0,0,0,.246-.9V5.758h1.258V8.32h1.766V9.4h-1.766v4.375a1.164,1.164,0,0,0,.293.848,1.026,1.026,0,0,0,.77.3h.7V16Zm3.719-9.484a.92.92,0,0,1-.914-.914.867.867,0,0,1,.27-.641.886.886,0,0,1,.645-.266.877.877,0,0,1,.637.266.867.867,0,0,1,.27.641.88.88,0,0,1-.27.645A.871.871,0,0,1,190.082,6.516ZM189.395,16V8.32h1.359V16Zm5.43-6.328a2.322,2.322,0,0,1,.953-1.031,2.87,2.87,0,0,1,1.477-.406V9.508a2.53,2.53,0,0,0-1.785.57,2.382,2.382,0,0,0-.613,1.82V16H193.5V8.32h1.32ZM208.668,4h1.352V16h-1.3l-.031-1.492a2.826,2.826,0,0,1-1.094,1.211,3.048,3.048,0,0,1-1.625.445,3.49,3.49,0,0,1-2.535-1.082,3.7,3.7,0,0,1-.773-1.27,4.644,4.644,0,0,1-.285-1.648,4.038,4.038,0,0,1,1.043-2.883,3.367,3.367,0,0,1,2.551-1.109,3.061,3.061,0,0,1,1.605.434,2.842,2.842,0,0,1,1.1,1.176Zm-2.422,10.992a2.3,2.3,0,0,0,1.785-.809,2.919,2.919,0,0,0,.723-2.02,2.913,2.913,0,0,0-.727-2.016,2.3,2.3,0,0,0-1.781-.812,2.35,2.35,0,0,0-1.8.785,2.889,2.889,0,0,0-.727,2.043,2.889,2.889,0,0,0,.727,2.043A2.35,2.35,0,0,0,206.246,14.992Zm13.242-2.984-.016.367h-6a2.714,2.714,0,0,0,.734,1.965,2.411,2.411,0,0,0,1.75.684,2.3,2.3,0,0,0,1.273-.367,2.383,2.383,0,0,0,.875-1.016l1.219.258a3.464,3.464,0,0,1-1.312,1.648,3.581,3.581,0,0,1-2.039.6,3.71,3.71,0,0,1-2.766-1.07,3.982,3.982,0,0,1-1.055-2.922,3.962,3.962,0,0,1,1.059-2.914,3.664,3.664,0,0,1,2.723-1.07,3.467,3.467,0,0,1,2.582.984A3.889,3.889,0,0,1,219.488,12.008Zm-3.555-2.8a2.4,2.4,0,0,0-1.6.543,2.488,2.488,0,0,0-.809,1.582h4.6a2.282,2.282,0,0,0-.672-1.582A2.17,2.17,0,0,0,215.934,9.211Zm14.609-.891h1.352V16h-1.3l-.031-1.016a2.4,2.4,0,0,1-.953.863,2.932,2.932,0,0,1-1.344.3,2.671,2.671,0,0,1-1.934-.7,2.594,2.594,0,0,1-.723-1.961V8.32h1.352v4.867a1.822,1.822,0,0,0,.473,1.375,1.673,1.673,0,0,0,1.207.453,1.837,1.837,0,0,0,1.363-.531,2.164,2.164,0,0,0,.535-1.57Zm7.727-.148a2.671,2.671,0,0,1,1.934.7,2.594,2.594,0,0,1,.723,1.961V16h-1.352V11.133a1.816,1.816,0,0,0-.469-1.375,1.676,1.676,0,0,0-1.2-.445,1.858,1.858,0,0,0-1.367.527A2.14,2.14,0,0,0,236,11.406V16h-1.352V8.32H236V9.3A2.565,2.565,0,0,1,238.27,8.172Zm16.141,3.836-.016.367h-6a2.714,2.714,0,0,0,.734,1.965,2.411,2.411,0,0,0,1.75.684,2.3,2.3,0,0,0,1.273-.367,2.383,2.383,0,0,0,.875-1.016l1.219.258a3.464,3.464,0,0,1-1.312,1.648,3.581,3.581,0,0,1-2.039.6,3.71,3.71,0,0,1-2.766-1.07,3.982,3.982,0,0,1-1.055-2.922,3.962,3.962,0,0,1,1.059-2.914,3.664,3.664,0,0,1,2.723-1.07,3.467,3.467,0,0,1,2.582.984A3.889,3.889,0,0,1,254.41,12.008Zm-3.555-2.8a2.4,2.4,0,0,0-1.6.543,2.488,2.488,0,0,0-.809,1.582h4.6a2.282,2.282,0,0,0-.672-1.582A2.17,2.17,0,0,0,250.855,9.211ZM256.527,16V4h1.367V16Zm10.836-3.992-.016.367h-6a2.714,2.714,0,0,0,.734,1.965,2.411,2.411,0,0,0,1.75.684,2.3,2.3,0,0,0,1.273-.367,2.383,2.383,0,0,0,.875-1.016l1.219.258a3.464,3.464,0,0,1-1.312,1.648,3.581,3.581,0,0,1-2.039.6,3.71,3.71,0,0,1-2.766-1.07,3.982,3.982,0,0,1-1.055-2.922,3.963,3.963,0,0,1,1.059-2.914,3.664,3.664,0,0,1,2.723-1.07,3.467,3.467,0,0,1,2.582.984A3.889,3.889,0,0,1,267.363,12.008Zm-3.555-2.8a2.4,2.4,0,0,0-1.6.543,2.488,2.488,0,0,0-.809,1.582H266a2.282,2.282,0,0,0-.672-1.582A2.17,2.17,0,0,0,263.809,9.211Zm13.523-1.039a2.476,2.476,0,0,1,1.789.652,2.42,2.42,0,0,1,.68,1.832V16h-1.352V11.008a1.735,1.735,0,0,0-.422-1.266,1.436,1.436,0,0,0-1.07-.43,1.517,1.517,0,0,0-1.172.484,2.083,2.083,0,0,0-.445,1.453V16h-1.375V11.063a1.815,1.815,0,0,0-.426-1.309,1.448,1.448,0,0,0-1.09-.441,1.5,1.5,0,0,0-1.168.5,2.155,2.155,0,0,0-.449,1.488V16H269.48V8.32h1.352v.992a2.333,2.333,0,0,1,.879-.844,2.506,2.506,0,0,1,1.223-.3,2.609,2.609,0,0,1,1.313.324,2.018,2.018,0,0,1,.852.934,2.39,2.39,0,0,1,.922-.934A2.637,2.637,0,0,1,277.332,8.172Zm11.8,3.836-.016.367h-6a2.714,2.714,0,0,0,.734,1.965,2.411,2.411,0,0,0,1.75.684,2.3,2.3,0,0,0,1.273-.367,2.383,2.383,0,0,0,.875-1.016l1.219.258a3.464,3.464,0,0,1-1.312,1.648,3.581,3.581,0,0,1-2.039.6,3.71,3.71,0,0,1-2.766-1.07,3.982,3.982,0,0,1-1.055-2.922,3.963,3.963,0,0,1,1.059-2.914,3.664,3.664,0,0,1,2.723-1.07,3.467,3.467,0,0,1,2.582.984A3.889,3.889,0,0,1,289.137,12.008Zm-3.555-2.8a2.4,2.4,0,0,0-1.6.543,2.488,2.488,0,0,0-.809,1.582h4.6a2.282,2.282,0,0,0-.672-1.582A2.17,2.17,0,0,0,285.582,9.211Zm9.3-1.039a2.671,2.671,0,0,1,1.934.7,2.594,2.594,0,0,1,.723,1.961V16h-1.352V11.133a1.816,1.816,0,0,0-.469-1.375,1.676,1.676,0,0,0-1.2-.445,1.858,1.858,0,0,0-1.367.527,2.14,2.14,0,0,0-.539,1.566V16h-1.352V8.32h1.352V9.3A2.565,2.565,0,0,1,294.879,8.172ZM302.6,16a2.019,2.019,0,0,1-1.5-.551,2.084,2.084,0,0,1-.547-1.535V9.4h-1.57V8.32h.578a1.11,1.11,0,0,0,.848-.27,1.326,1.326,0,0,0,.246-.9V5.758h1.258V8.32h1.766V9.4H301.91v4.375a1.164,1.164,0,0,0,.293.848,1.026,1.026,0,0,0,.77.3h.7V16Zm6.172.148a4.048,4.048,0,0,1-1.969-.477,3.47,3.47,0,0,1-1.387-1.395,4.283,4.283,0,0,1-.512-2.121,3.912,3.912,0,0,1,1.09-2.895,4.089,4.089,0,0,1,5.559,0,3.92,3.92,0,0,1,1.086,2.895,3.923,3.923,0,0,1-1.09,2.9A3.762,3.762,0,0,1,308.77,16.148Zm-.008-1.125a2.359,2.359,0,0,0,1.816-.789,2.957,2.957,0,0,0,.723-2.078,2.945,2.945,0,0,0-.723-2.07,2.359,2.359,0,0,0-1.816-.789,2.326,2.326,0,0,0-1.8.789,2.965,2.965,0,0,0-.715,2.07,2.976,2.976,0,0,0,.715,2.078A2.326,2.326,0,0,0,308.762,15.023Z" transform="translate(6938 -1815)" fill="#00223d"/>
    <path id="Trazado_10880" data-name="Trazado 10880" d="M69.566,16V5h3.547a5.26,5.26,0,0,1,2.8.711,4.337,4.337,0,0,1,1.719,1.934,6.793,6.793,0,0,1,.559,2.848,7.2,7.2,0,0,1-.324,2.223,5.035,5.035,0,0,1-.949,1.738,4.164,4.164,0,0,1-1.6,1.141A5.681,5.681,0,0,1,73.113,16Zm1.4-1.273h2.1A3.35,3.35,0,0,0,75.813,13.6a4.756,4.756,0,0,0,.926-3.109,4.716,4.716,0,0,0-.93-3.094,3.352,3.352,0,0,0-2.742-1.125h-2.1Zm16.313-2.719-.016.367h-6A2.714,2.714,0,0,0,82,14.34a2.411,2.411,0,0,0,1.75.684,2.3,2.3,0,0,0,1.273-.367,2.383,2.383,0,0,0,.875-1.016l1.219.258A3.464,3.464,0,0,1,85.8,15.547a3.581,3.581,0,0,1-2.039.6A3.71,3.71,0,0,1,81,15.078a3.982,3.982,0,0,1-1.055-2.922A3.962,3.962,0,0,1,81,9.242a3.664,3.664,0,0,1,2.723-1.07,3.467,3.467,0,0,1,2.582.984A3.889,3.889,0,0,1,87.277,12.008Zm-3.555-2.8a2.4,2.4,0,0,0-1.6.543,2.488,2.488,0,0,0-.809,1.582h4.6a2.282,2.282,0,0,0-.672-1.582A2.17,2.17,0,0,0,83.723,9.211ZM93.879,8.32h1.445L92.2,16H91.051L87.941,8.32h1.438l2.25,6.109Zm7.828,0h1.352V16h-1.3l-.031-1.016a2.4,2.4,0,0,1-.953.863,2.932,2.932,0,0,1-1.344.3,2.671,2.671,0,0,1-1.934-.7,2.594,2.594,0,0,1-.723-1.961V8.32h1.352v4.867a1.822,1.822,0,0,0,.473,1.375,1.673,1.673,0,0,0,1.207.453,1.837,1.837,0,0,0,1.363-.531,2.164,2.164,0,0,0,.535-1.57Zm10.82,3.688-.016.367h-6a2.714,2.714,0,0,0,.734,1.965,2.411,2.411,0,0,0,1.75.684,2.3,2.3,0,0,0,1.273-.367,2.383,2.383,0,0,0,.875-1.016l1.219.258a3.464,3.464,0,0,1-1.312,1.648,3.581,3.581,0,0,1-2.039.6,3.71,3.71,0,0,1-2.766-1.07,3.982,3.982,0,0,1-1.055-2.922,3.962,3.962,0,0,1,1.059-2.914,3.664,3.664,0,0,1,2.723-1.07,3.467,3.467,0,0,1,2.582.984A3.889,3.889,0,0,1,112.527,12.008Zm-3.555-2.8a2.4,2.4,0,0,0-1.6.543,2.488,2.488,0,0,0-.809,1.582h4.6a2.282,2.282,0,0,0-.672-1.582A2.17,2.17,0,0,0,108.973,9.211ZM114.645,16V4h1.367V16Zm8.906-7.68H125L121.871,16h-1.148l-3.109-7.68h1.438l2.25,6.109Zm9.461,3.688-.016.367h-6a2.714,2.714,0,0,0,.734,1.965,2.411,2.411,0,0,0,1.75.684,2.3,2.3,0,0,0,1.273-.367,2.383,2.383,0,0,0,.875-1.016l1.219.258a3.464,3.464,0,0,1-1.312,1.648,3.581,3.581,0,0,1-2.039.6,3.71,3.71,0,0,1-2.766-1.07,3.982,3.982,0,0,1-1.055-2.922,3.962,3.962,0,0,1,1.059-2.914,3.664,3.664,0,0,1,2.723-1.07,3.467,3.467,0,0,1,2.582.984A3.889,3.889,0,0,1,133.012,12.008Zm-3.555-2.8a2.4,2.4,0,0,0-1.6.543,2.488,2.488,0,0,0-.809,1.582h4.6a2.282,2.282,0,0,0-.672-1.582A2.17,2.17,0,0,0,129.457,9.211ZM146,12.008l-.016.367h-6a2.714,2.714,0,0,0,.734,1.965,2.411,2.411,0,0,0,1.75.684,2.3,2.3,0,0,0,1.273-.367,2.383,2.383,0,0,0,.875-1.016l1.219.258a3.464,3.464,0,0,1-1.312,1.648,3.581,3.581,0,0,1-2.039.6,3.71,3.71,0,0,1-2.766-1.07,3.982,3.982,0,0,1-1.055-2.922,3.962,3.962,0,0,1,1.059-2.914,3.664,3.664,0,0,1,2.723-1.07,3.467,3.467,0,0,1,2.582.984A3.889,3.889,0,0,1,146,12.008Zm-3.555-2.8a2.4,2.4,0,0,0-1.6.543,2.488,2.488,0,0,0-.809,1.582h4.6a2.282,2.282,0,0,0-.672-1.582A2.17,2.17,0,0,0,142.449,9.211ZM148.121,16V4h1.367V16Zm13.063-7.68h1.445L159.5,16h-1.148l-3.109-7.68h1.438l2.25,6.109Zm4.516,7.828a2.613,2.613,0,0,1-1.684-.527,1.894,1.894,0,0,1-.66-1.574,2.237,2.237,0,0,1,.211-1,1.77,1.77,0,0,1,.625-.7,3.749,3.749,0,0,1,.9-.434,8.341,8.341,0,0,1,1.168-.277l1.242-.2q.68-.125.68-.711a1.342,1.342,0,0,0-.48-1.145,1.958,1.958,0,0,0-1.215-.363,1.994,1.994,0,0,0-1.2.352,1.471,1.471,0,0,0-.57,1.078l-1.219-.258a2.346,2.346,0,0,1,.961-1.645,3.59,3.59,0,0,1,2.094-.551,4.247,4.247,0,0,1,1.113.137,3.026,3.026,0,0,1,.93.43,1.927,1.927,0,0,1,.664.828,3.081,3.081,0,0,1,.238,1.262v3.172a1.3,1.3,0,0,0,.176.8.759.759,0,0,0,.605.207h.125V16h-.672a1.281,1.281,0,0,1-1.453-1.039h-.062A2.935,2.935,0,0,1,165.7,16.148Zm.313-1.094a2.049,2.049,0,0,0,1.648-.742,3.056,3.056,0,0,0,.625-2.031l-2.031.391a2.734,2.734,0,0,0-1.191.426.99.99,0,0,0-.387.84.979.979,0,0,0,.371.844A1.586,1.586,0,0,0,166.012,15.055Zm6.3.945V4h1.367V16Zm7.352.148a4.048,4.048,0,0,1-1.969-.477,3.47,3.47,0,0,1-1.387-1.395,4.284,4.284,0,0,1-.512-2.121,3.912,3.912,0,0,1,1.09-2.895,4.089,4.089,0,0,1,5.559,0,3.92,3.92,0,0,1,1.086,2.895,3.923,3.923,0,0,1-1.09,2.9A3.762,3.762,0,0,1,179.66,16.148Zm-.008-1.125a2.359,2.359,0,0,0,1.816-.789,2.957,2.957,0,0,0,.723-2.078,2.945,2.945,0,0,0-.723-2.07,2.359,2.359,0,0,0-1.816-.789,2.326,2.326,0,0,0-1.8.789,2.965,2.965,0,0,0-.715,2.07,2.976,2.976,0,0,0,.715,2.078A2.326,2.326,0,0,0,179.652,15.023Zm7.313-5.352a2.322,2.322,0,0,1,.953-1.031,2.87,2.87,0,0,1,1.477-.406V9.508a2.53,2.53,0,0,0-1.785.57A2.382,2.382,0,0,0,187,11.9V16h-1.352V8.32h1.32ZM202.551,16l-.945-2.633h-4.977L195.691,16H194.23l4.055-11h1.672l4.055,11Zm-5.477-3.867h4.094l-2.047-5.727Zm12.531,4.016a5.021,5.021,0,0,1-2.871-.777,3.291,3.291,0,0,1-1.434-2.137l1.414-.336a2.319,2.319,0,0,0,.992,1.5,3.355,3.355,0,0,0,1.945.547,4.058,4.058,0,0,0,.727-.062,2.779,2.779,0,0,0,.66-.207,2.021,2.021,0,0,0,.543-.355,1.484,1.484,0,0,0,.359-.539,1.845,1.845,0,0,0,.125-.734,1.588,1.588,0,0,0-.1-.52,1.649,1.649,0,0,0-.219-.41,1.473,1.473,0,0,0-.371-.332,4.972,4.972,0,0,0-.445-.266,4.026,4.026,0,0,0-.551-.223q-.348-.117-.582-.184l-.633-.176q-.078-.023-.117-.031-.453-.117-.738-.2t-.684-.238a4.5,4.5,0,0,1-.652-.3,4.416,4.416,0,0,1-.535-.375A1.921,1.921,0,0,1,206,9.3a2.577,2.577,0,0,1-.266-.621,2.764,2.764,0,0,1-.105-.781,2.79,2.79,0,0,1,.512-1.687,2.994,2.994,0,0,1,1.32-1.031,4.793,4.793,0,0,1,1.816-.328,4.973,4.973,0,0,1,2.645.676,3.011,3.011,0,0,1,1.4,2l-1.359.344a2.069,2.069,0,0,0-.914-1.352,3.132,3.132,0,0,0-1.719-.453,3.4,3.4,0,0,0-.844.1,2.507,2.507,0,0,0-.73.313,1.517,1.517,0,0,0-.527.574,1.746,1.746,0,0,0-.2.84,1.35,1.35,0,0,0,.078.465,1.427,1.427,0,0,0,.2.371,1.391,1.391,0,0,0,.336.3,3.411,3.411,0,0,0,.41.242,4.157,4.157,0,0,0,.512.2q.32.105.547.172t.6.16a12.727,12.727,0,0,1,2.117.7,2.679,2.679,0,0,1,1.633,2.023,3.489,3.489,0,0,1,.031.477,3.074,3.074,0,0,1-.316,1.422,2.565,2.565,0,0,1-.867.984,4.146,4.146,0,0,1-1.234.551A5.661,5.661,0,0,1,209.605,16.148Zm11.242,0a5.844,5.844,0,0,1-2.164-.395,5.226,5.226,0,0,1-1.738-1.109,4.948,4.948,0,0,1-1.156-1.785,6.456,6.456,0,0,1-.418-2.367,6.35,6.35,0,0,1,.422-2.355,4.939,4.939,0,0,1,2.891-2.895,5.9,5.9,0,0,1,2.164-.391,5.589,5.589,0,0,1,2.926.773,4.819,4.819,0,0,1,1.934,2.148l-1.289.531a3.622,3.622,0,0,0-1.441-1.566,4.137,4.137,0,0,0-2.129-.551,4.374,4.374,0,0,0-1.6.289,3.838,3.838,0,0,0-1.3.828,3.739,3.739,0,0,0-.871,1.359,5.044,5.044,0,0,0-.316,1.828,5.075,5.075,0,0,0,.316,1.832,3.733,3.733,0,0,0,.871,1.363,3.888,3.888,0,0,0,1.3.832,4.323,4.323,0,0,0,1.6.293,4.137,4.137,0,0,0,2.129-.551,3.631,3.631,0,0,0,1.441-1.559l1.289.523a4.794,4.794,0,0,1-1.93,2.152A5.6,5.6,0,0,1,220.848,16.148ZM228.105,16V5h1.4V16Zm4.852,0V5h1.4V16ZM247.285,4h1.352V16h-1.3l-.031-1.492a2.826,2.826,0,0,1-1.094,1.211,3.048,3.048,0,0,1-1.625.445,3.49,3.49,0,0,1-2.535-1.082,3.7,3.7,0,0,1-.773-1.27,4.644,4.644,0,0,1-.285-1.648,4.038,4.038,0,0,1,1.043-2.883,3.367,3.367,0,0,1,2.551-1.109,3.061,3.061,0,0,1,1.605.434,2.842,2.842,0,0,1,1.1,1.176Zm-2.422,10.992a2.3,2.3,0,0,0,1.785-.809,2.919,2.919,0,0,0,.723-2.02,2.913,2.913,0,0,0-.727-2.016,2.3,2.3,0,0,0-1.781-.812,2.35,2.35,0,0,0-1.8.785,2.889,2.889,0,0,0-.727,2.043,2.889,2.889,0,0,0,.727,2.043A2.35,2.35,0,0,0,244.863,14.992Zm13.242-2.984-.016.367h-6a2.714,2.714,0,0,0,.734,1.965,2.411,2.411,0,0,0,1.75.684,2.3,2.3,0,0,0,1.273-.367,2.383,2.383,0,0,0,.875-1.016l1.219.258a3.464,3.464,0,0,1-1.312,1.648,3.581,3.581,0,0,1-2.039.6,3.71,3.71,0,0,1-2.766-1.07,3.982,3.982,0,0,1-1.055-2.922,3.962,3.962,0,0,1,1.059-2.914,3.664,3.664,0,0,1,2.723-1.07,3.467,3.467,0,0,1,2.582.984A3.889,3.889,0,0,1,258.105,12.008Zm-3.555-2.8a2.4,2.4,0,0,0-1.6.543,2.488,2.488,0,0,0-.809,1.582h4.6a2.282,2.282,0,0,0-.672-1.582A2.17,2.17,0,0,0,254.551,9.211ZM269.16,8.32h1.352V16h-1.3l-.031-1.016a2.4,2.4,0,0,1-.953.863,2.932,2.932,0,0,1-1.344.3,2.671,2.671,0,0,1-1.934-.7,2.594,2.594,0,0,1-.723-1.961V8.32h1.352v4.867a1.822,1.822,0,0,0,.473,1.375,1.673,1.673,0,0,0,1.207.453,1.837,1.837,0,0,0,1.363-.531,2.164,2.164,0,0,0,.535-1.57Zm7.727-.148a2.671,2.671,0,0,1,1.934.7,2.594,2.594,0,0,1,.723,1.961V16h-1.352V11.133a1.816,1.816,0,0,0-.469-1.375,1.676,1.676,0,0,0-1.2-.445,1.858,1.858,0,0,0-1.367.527,2.14,2.14,0,0,0-.539,1.566V16h-1.352V8.32h1.352V9.3A2.565,2.565,0,0,1,276.887,8.172Zm7.039,7.977a2.613,2.613,0,0,1-1.684-.527,1.894,1.894,0,0,1-.66-1.574,2.237,2.237,0,0,1,.211-1,1.77,1.77,0,0,1,.625-.7,3.749,3.749,0,0,1,.9-.434,8.342,8.342,0,0,1,1.168-.277l1.242-.2q.68-.125.68-.711a1.342,1.342,0,0,0-.48-1.145,1.958,1.958,0,0,0-1.215-.363,1.994,1.994,0,0,0-1.2.352,1.471,1.471,0,0,0-.57,1.078l-1.219-.258a2.346,2.346,0,0,1,.961-1.645,3.59,3.59,0,0,1,2.094-.551,4.247,4.247,0,0,1,1.113.137,3.025,3.025,0,0,1,.93.43,1.927,1.927,0,0,1,.664.828,3.081,3.081,0,0,1,.238,1.262v3.172a1.3,1.3,0,0,0,.176.8.759.759,0,0,0,.605.207h.125V16h-.672a1.281,1.281,0,0,1-1.453-1.039h-.062A2.935,2.935,0,0,1,283.926,16.148Zm.313-1.094a2.049,2.049,0,0,0,1.648-.742,3.056,3.056,0,0,0,.625-2.031l-2.031.391a2.734,2.734,0,0,0-1.191.426.99.99,0,0,0-.387.84.979.979,0,0,0,.371.844A1.586,1.586,0,0,0,284.238,15.055ZM115.918,40.141a3.7,3.7,0,0,1-2.75-1.1,4.375,4.375,0,0,1,0-5.766,4,4,0,0,1,4.977-.43,3.391,3.391,0,0,1,1.293,1.867l-1.266.2a2.337,2.337,0,0,0-.867-1.2,2.361,2.361,0,0,0-1.391-.422,2.27,2.27,0,0,0-1.777.789,3.409,3.409,0,0,0,0,4.137,2.275,2.275,0,0,0,1.777.785,2.361,2.361,0,0,0,1.391-.422,2.337,2.337,0,0,0,.867-1.2l1.266.211a3.4,3.4,0,0,1-1.3,1.863A3.72,3.72,0,0,1,115.918,40.141Zm7.281.008a2.613,2.613,0,0,1-1.684-.527,1.894,1.894,0,0,1-.66-1.574,2.237,2.237,0,0,1,.211-1,1.77,1.77,0,0,1,.625-.7,3.749,3.749,0,0,1,.9-.434,8.342,8.342,0,0,1,1.168-.277l1.242-.2q.68-.125.68-.711a1.342,1.342,0,0,0-.48-1.145,1.958,1.958,0,0,0-1.215-.363,1.994,1.994,0,0,0-1.2.352,1.471,1.471,0,0,0-.57,1.078L121,34.383a2.346,2.346,0,0,1,.961-1.645,3.59,3.59,0,0,1,2.094-.551,4.247,4.247,0,0,1,1.113.137,3.025,3.025,0,0,1,.93.43,1.927,1.927,0,0,1,.664.828A3.081,3.081,0,0,1,127,34.844v3.172a1.3,1.3,0,0,0,.176.8.759.759,0,0,0,.605.207h.125V40h-.672a1.281,1.281,0,0,1-1.453-1.039h-.062A2.935,2.935,0,0,1,123.2,40.148Zm.313-1.094a2.049,2.049,0,0,0,1.648-.742,3.056,3.056,0,0,0,.625-2.031l-2.031.391a2.734,2.734,0,0,0-1.191.426.99.99,0,0,0-.387.84.979.979,0,0,0,.371.844A1.586,1.586,0,0,0,123.512,39.055ZM135.324,28h1.352V40h-1.3l-.031-1.492a2.826,2.826,0,0,1-1.094,1.211,3.048,3.048,0,0,1-1.625.445,3.49,3.49,0,0,1-2.535-1.082,3.7,3.7,0,0,1-.773-1.27,4.644,4.644,0,0,1-.285-1.648,4.038,4.038,0,0,1,1.043-2.883,3.367,3.367,0,0,1,2.551-1.109,3.061,3.061,0,0,1,1.605.434,2.842,2.842,0,0,1,1.1,1.176ZM132.9,38.992a2.3,2.3,0,0,0,1.785-.809,3.171,3.171,0,0,0,0-4.035,2.3,2.3,0,0,0-1.781-.812,2.35,2.35,0,0,0-1.8.785,3.236,3.236,0,0,0,0,4.086A2.35,2.35,0,0,0,132.9,38.992Zm13.242-2.984-.016.367h-6a2.714,2.714,0,0,0,.734,1.965,2.411,2.411,0,0,0,1.75.684,2.3,2.3,0,0,0,1.273-.367,2.383,2.383,0,0,0,.875-1.016l1.219.258a3.464,3.464,0,0,1-1.312,1.648,3.581,3.581,0,0,1-2.039.6,3.71,3.71,0,0,1-2.766-1.07,3.982,3.982,0,0,1-1.055-2.922,3.962,3.962,0,0,1,1.059-2.914,3.664,3.664,0,0,1,2.723-1.07,3.467,3.467,0,0,1,2.582.984A3.889,3.889,0,0,1,146.145,36.008Zm-3.555-2.8a2.4,2.4,0,0,0-1.6.543,2.488,2.488,0,0,0-.809,1.582h4.6a2.282,2.282,0,0,0-.672-1.582A2.17,2.17,0,0,0,142.59,33.211Zm9.3-1.039a2.671,2.671,0,0,1,1.934.7,2.594,2.594,0,0,1,.723,1.961V40h-1.352V35.133a1.816,1.816,0,0,0-.469-1.375,1.676,1.676,0,0,0-1.2-.445,1.858,1.858,0,0,0-1.367.527,2.14,2.14,0,0,0-.539,1.566V40h-1.352V32.32h1.352V33.3A2.565,2.565,0,0,1,151.887,32.172Zm7.039,7.977a2.613,2.613,0,0,1-1.684-.527,1.894,1.894,0,0,1-.66-1.574,2.237,2.237,0,0,1,.211-1,1.77,1.77,0,0,1,.625-.7,3.749,3.749,0,0,1,.9-.434,8.341,8.341,0,0,1,1.168-.277l1.242-.2q.68-.125.68-.711a1.342,1.342,0,0,0-.48-1.145,1.958,1.958,0,0,0-1.215-.363,1.994,1.994,0,0,0-1.2.352,1.471,1.471,0,0,0-.57,1.078l-1.219-.258a2.346,2.346,0,0,1,.961-1.645,3.59,3.59,0,0,1,2.094-.551,4.247,4.247,0,0,1,1.113.137,3.026,3.026,0,0,1,.93.43,1.927,1.927,0,0,1,.664.828,3.081,3.081,0,0,1,.238,1.262v3.172a1.3,1.3,0,0,0,.176.8.759.759,0,0,0,.605.207h.125V40h-.672a1.281,1.281,0,0,1-1.453-1.039h-.062A2.935,2.935,0,0,1,158.926,40.148Zm.313-1.094a2.049,2.049,0,0,0,1.648-.742,3.056,3.056,0,0,0,.625-2.031l-2.031.391a2.734,2.734,0,0,0-1.191.426.99.99,0,0,0-.387.84.979.979,0,0,0,.371.844A1.586,1.586,0,0,0,159.238,39.055Zm13.688,1.094a4.048,4.048,0,0,1-1.969-.477,3.47,3.47,0,0,1-1.387-1.395,4.284,4.284,0,0,1-.512-2.121,3.912,3.912,0,0,1,1.09-2.895,4.089,4.089,0,0,1,5.559,0,3.92,3.92,0,0,1,1.086,2.895,3.923,3.923,0,0,1-1.09,2.9A3.762,3.762,0,0,1,172.926,40.148Zm-.008-1.125a2.359,2.359,0,0,0,1.816-.789,3.338,3.338,0,0,0,0-4.148,2.359,2.359,0,0,0-1.816-.789,2.326,2.326,0,0,0-1.8.789,3.367,3.367,0,0,0,0,4.148A2.326,2.326,0,0,0,172.918,39.023Zm13.336,1.117a3.7,3.7,0,0,1-2.75-1.1,4.375,4.375,0,0,1,0-5.766,4,4,0,0,1,4.977-.43,3.391,3.391,0,0,1,1.293,1.867l-1.266.2a2.337,2.337,0,0,0-.867-1.2,2.361,2.361,0,0,0-1.391-.422,2.27,2.27,0,0,0-1.777.789,3.409,3.409,0,0,0,0,4.137,2.275,2.275,0,0,0,1.777.785,2.361,2.361,0,0,0,1.391-.422,2.337,2.337,0,0,0,.867-1.2l1.266.211a3.4,3.4,0,0,1-1.3,1.863A3.72,3.72,0,0,1,186.254,40.141Zm7.281.008a2.613,2.613,0,0,1-1.684-.527,1.894,1.894,0,0,1-.66-1.574,2.237,2.237,0,0,1,.211-1,1.77,1.77,0,0,1,.625-.7,3.749,3.749,0,0,1,.9-.434,8.341,8.341,0,0,1,1.168-.277l1.242-.2q.68-.125.68-.711a1.342,1.342,0,0,0-.48-1.145,1.958,1.958,0,0,0-1.215-.363,1.994,1.994,0,0,0-1.2.352,1.471,1.471,0,0,0-.57,1.078l-1.219-.258a2.346,2.346,0,0,1,.961-1.645,3.59,3.59,0,0,1,2.094-.551,4.247,4.247,0,0,1,1.113.137,3.026,3.026,0,0,1,.93.43,1.927,1.927,0,0,1,.664.828,3.081,3.081,0,0,1,.238,1.262v3.172a1.3,1.3,0,0,0,.176.8.759.759,0,0,0,.605.207h.125V40h-.672a1.281,1.281,0,0,1-1.453-1.039h-.062A2.935,2.935,0,0,1,193.535,40.148Zm.313-1.094a2.049,2.049,0,0,0,1.648-.742,3.056,3.056,0,0,0,.625-2.031l-2.031.391a2.734,2.734,0,0,0-1.191.426.99.99,0,0,0-.387.84.979.979,0,0,0,.371.844A1.586,1.586,0,0,0,193.848,39.055Zm7.617-5.383a2.322,2.322,0,0,1,.953-1.031,2.87,2.87,0,0,1,1.477-.406v1.273a2.53,2.53,0,0,0-1.785.57,2.382,2.382,0,0,0-.613,1.82V40h-1.352V32.32h1.32Zm6.25-2.68,1.961-2.547.719.523-1.75,2.023Zm-.555,9.156a2.613,2.613,0,0,1-1.684-.527,1.894,1.894,0,0,1-.66-1.574,2.237,2.237,0,0,1,.211-1,1.77,1.77,0,0,1,.625-.7,3.749,3.749,0,0,1,.9-.434,8.341,8.341,0,0,1,1.168-.277l1.242-.2q.68-.125.68-.711a1.342,1.342,0,0,0-.48-1.145,1.958,1.958,0,0,0-1.215-.363,1.994,1.994,0,0,0-1.2.352,1.471,1.471,0,0,0-.57,1.078l-1.219-.258a2.346,2.346,0,0,1,.961-1.645,3.59,3.59,0,0,1,2.094-.551,4.247,4.247,0,0,1,1.113.137,3.026,3.026,0,0,1,.93.43,1.927,1.927,0,0,1,.664.828,3.081,3.081,0,0,1,.238,1.262v3.172a1.3,1.3,0,0,0,.176.8.759.759,0,0,0,.605.207h.125V40h-.672a1.281,1.281,0,0,1-1.453-1.039h-.062A2.935,2.935,0,0,1,207.16,40.148Zm.313-1.094a2.049,2.049,0,0,0,1.648-.742,3.056,3.056,0,0,0,.625-2.031l-2.031.391a2.734,2.734,0,0,0-1.191.426.99.99,0,0,0-.387.84.979.979,0,0,0,.371.844A1.586,1.586,0,0,0,207.473,39.055Zm9.328,1.086a3.7,3.7,0,0,1-2.75-1.1,4.375,4.375,0,0,1,0-5.766,4,4,0,0,1,4.977-.43,3.391,3.391,0,0,1,1.293,1.867l-1.266.2a2.337,2.337,0,0,0-.867-1.2,2.361,2.361,0,0,0-1.391-.422,2.27,2.27,0,0,0-1.777.789,3.409,3.409,0,0,0,0,4.137,2.275,2.275,0,0,0,1.777.785,2.361,2.361,0,0,0,1.391-.422,2.337,2.337,0,0,0,.867-1.2l1.266.211a3.4,3.4,0,0,1-1.3,1.863A3.72,3.72,0,0,1,216.8,40.141ZM224.762,40a2.019,2.019,0,0,1-1.5-.551,2.084,2.084,0,0,1-.547-1.535V33.4h-1.57V32.32h.578a1.11,1.11,0,0,0,.848-.27,1.326,1.326,0,0,0,.246-.9V29.758h1.258V32.32h1.766V33.4h-1.766v4.375a1.164,1.164,0,0,0,.293.848,1.026,1.026,0,0,0,.77.3h.7V40Zm9.656-3.992-.016.367h-6a2.714,2.714,0,0,0,.734,1.965,2.411,2.411,0,0,0,1.75.684,2.3,2.3,0,0,0,1.273-.367,2.383,2.383,0,0,0,.875-1.016l1.219.258a3.464,3.464,0,0,1-1.312,1.648,3.581,3.581,0,0,1-2.039.6,3.71,3.71,0,0,1-2.766-1.07,3.982,3.982,0,0,1-1.055-2.922,3.962,3.962,0,0,1,1.059-2.914,3.664,3.664,0,0,1,2.723-1.07,3.467,3.467,0,0,1,2.582.984A3.889,3.889,0,0,1,234.418,36.008Zm-3.555-2.8a2.4,2.4,0,0,0-1.6.543,2.488,2.488,0,0,0-.809,1.582h4.6a2.282,2.282,0,0,0-.672-1.582A2.17,2.17,0,0,0,230.863,33.211Zm6.992.461a2.322,2.322,0,0,1,.953-1.031,2.87,2.87,0,0,1,1.477-.406v1.273a2.53,2.53,0,0,0-1.785.57,2.382,2.382,0,0,0-.613,1.82V40h-1.352V32.32h1.32Zm5.2,6.484a.877.877,0,0,1-.637-.266.908.908,0,0,1,.637-1.547.884.884,0,0,1,.641.27.887.887,0,0,1,0,1.277A.886.886,0,0,1,243.059,40.156Z" transform="translate(6938 -1725)" fill="#00223d"/>
    <path id="Trazado_10891" data-name="Trazado 10891" d="M35.117,16l-2.828-4.961H30.563V16h-1.4V5h3.648a3.285,3.285,0,0,1,2.465.871,3.075,3.075,0,0,1,.848,2.238,2.753,2.753,0,0,1-2.437,2.875L36.75,16ZM30.563,6.227V9.938h2.063a2.3,2.3,0,0,0,1.609-.5,1.741,1.741,0,0,0,.539-1.348,1.772,1.772,0,0,0-.543-1.359,2.271,2.271,0,0,0-1.605-.508Zm14.453,5.781L45,12.375H39a2.714,2.714,0,0,0,.734,1.965,2.411,2.411,0,0,0,1.75.684,2.3,2.3,0,0,0,1.273-.367,2.383,2.383,0,0,0,.875-1.016l1.219.258a3.464,3.464,0,0,1-1.312,1.648,3.581,3.581,0,0,1-2.039.6,3.71,3.71,0,0,1-2.766-1.07,3.982,3.982,0,0,1-1.055-2.922,3.962,3.962,0,0,1,1.059-2.914,3.664,3.664,0,0,1,2.723-1.07,3.467,3.467,0,0,1,2.582.984A3.889,3.889,0,0,1,45.016,12.008Zm-3.555-2.8a2.4,2.4,0,0,0-1.6.543,2.488,2.488,0,0,0-.809,1.582h4.6a2.282,2.282,0,0,0-.672-1.582A2.17,2.17,0,0,0,41.461,9.211ZM52.8,4h1.352V16h-1.3l-.031-1.492a2.826,2.826,0,0,1-1.094,1.211,3.048,3.048,0,0,1-1.625.445,3.49,3.49,0,0,1-2.535-1.082,3.7,3.7,0,0,1-.773-1.27,4.644,4.644,0,0,1-.285-1.648,4.038,4.038,0,0,1,1.043-2.883A3.367,3.367,0,0,1,50.1,8.172a3.061,3.061,0,0,1,1.605.434,2.842,2.842,0,0,1,1.1,1.176ZM50.383,14.992a2.3,2.3,0,0,0,1.785-.809,2.919,2.919,0,0,0,.723-2.02,2.913,2.913,0,0,0-.727-2.016,2.3,2.3,0,0,0-1.781-.812,2.35,2.35,0,0,0-1.8.785,2.889,2.889,0,0,0-.727,2.043,2.889,2.889,0,0,0,.727,2.043A2.35,2.35,0,0,0,50.383,14.992Zm9.758,1.156a4.048,4.048,0,0,1-1.969-.477,3.47,3.47,0,0,1-1.387-1.395,4.283,4.283,0,0,1-.512-2.121,3.912,3.912,0,0,1,1.09-2.895,4.089,4.089,0,0,1,5.559,0,3.92,3.92,0,0,1,1.086,2.895,3.923,3.923,0,0,1-1.09,2.9A3.762,3.762,0,0,1,60.141,16.148Zm-.008-1.125a2.359,2.359,0,0,0,1.816-.789,2.957,2.957,0,0,0,.723-2.078,2.945,2.945,0,0,0-.723-2.07A2.359,2.359,0,0,0,60.133,9.3a2.326,2.326,0,0,0-1.8.789,2.965,2.965,0,0,0-.715,2.07,2.976,2.976,0,0,0,.715,2.078A2.326,2.326,0,0,0,60.133,15.023ZM69.75,8.172a2.671,2.671,0,0,1,1.934.7,2.594,2.594,0,0,1,.723,1.961V16H71.055V11.133a1.816,1.816,0,0,0-.469-1.375,1.676,1.676,0,0,0-1.2-.445,1.858,1.858,0,0,0-1.367.527,2.14,2.14,0,0,0-.539,1.566V16H66.125V8.32h1.352V9.3A2.565,2.565,0,0,1,69.75,8.172ZM80.688,4h1.352V16h-1.3L80.7,14.508a2.826,2.826,0,0,1-1.094,1.211,3.048,3.048,0,0,1-1.625.445,3.49,3.49,0,0,1-2.535-1.082,3.7,3.7,0,0,1-.773-1.27,4.644,4.644,0,0,1-.285-1.648,4.038,4.038,0,0,1,1.043-2.883,3.367,3.367,0,0,1,2.551-1.109,3.061,3.061,0,0,1,1.605.434,2.842,2.842,0,0,1,1.1,1.176ZM78.266,14.992a2.3,2.3,0,0,0,1.785-.809,2.919,2.919,0,0,0,.723-2.02,2.913,2.913,0,0,0-.727-2.016,2.3,2.3,0,0,0-1.781-.812,2.35,2.35,0,0,0-1.8.785,2.889,2.889,0,0,0-.727,2.043,2.889,2.889,0,0,0,.727,2.043A2.35,2.35,0,0,0,78.266,14.992Zm13.242-2.984-.016.367h-6a2.714,2.714,0,0,0,.734,1.965,2.411,2.411,0,0,0,1.75.684,2.3,2.3,0,0,0,1.273-.367,2.383,2.383,0,0,0,.875-1.016l1.219.258a3.464,3.464,0,0,1-1.312,1.648,3.581,3.581,0,0,1-2.039.6,3.71,3.71,0,0,1-2.766-1.07,3.982,3.982,0,0,1-1.055-2.922A3.962,3.962,0,0,1,85.23,9.242a3.664,3.664,0,0,1,2.723-1.07,3.467,3.467,0,0,1,2.582.984A3.889,3.889,0,0,1,91.508,12.008Zm-3.555-2.8a2.4,2.4,0,0,0-1.6.543,2.488,2.488,0,0,0-.809,1.582h4.6a2.282,2.282,0,0,0-.672-1.582A2.17,2.17,0,0,0,87.953,9.211ZM95.4,16.148a2.613,2.613,0,0,1-1.684-.527,1.894,1.894,0,0,1-.66-1.574,2.237,2.237,0,0,1,.211-1,1.77,1.77,0,0,1,.625-.7,3.749,3.749,0,0,1,.9-.434,8.341,8.341,0,0,1,1.168-.277l1.242-.2q.68-.125.68-.711a1.342,1.342,0,0,0-.48-1.145,1.958,1.958,0,0,0-1.215-.363,1.994,1.994,0,0,0-1.2.352,1.471,1.471,0,0,0-.57,1.078L93.2,10.383a2.346,2.346,0,0,1,.961-1.645,3.59,3.59,0,0,1,2.094-.551,4.247,4.247,0,0,1,1.113.137,3.025,3.025,0,0,1,.93.43,1.927,1.927,0,0,1,.664.828,3.081,3.081,0,0,1,.238,1.262v3.172a1.3,1.3,0,0,0,.176.8.759.759,0,0,0,.605.207h.125V16H99.43a1.281,1.281,0,0,1-1.453-1.039h-.062A2.935,2.935,0,0,1,95.4,16.148Zm.313-1.094a2.049,2.049,0,0,0,1.648-.742,3.056,3.056,0,0,0,.625-2.031l-2.031.391a2.734,2.734,0,0,0-1.191.426.99.99,0,0,0-.387.84.979.979,0,0,0,.371.844A1.586,1.586,0,0,0,95.711,15.055ZM111.836,4h1.352V16h-1.3l-.031-1.492a2.826,2.826,0,0,1-1.094,1.211,3.048,3.048,0,0,1-1.625.445,3.49,3.49,0,0,1-2.535-1.082,3.7,3.7,0,0,1-.773-1.27,4.644,4.644,0,0,1-.285-1.648,4.038,4.038,0,0,1,1.043-2.883,3.367,3.367,0,0,1,2.551-1.109,3.061,3.061,0,0,1,1.605.434,2.842,2.842,0,0,1,1.1,1.176Zm-2.422,10.992a2.3,2.3,0,0,0,1.785-.809,2.919,2.919,0,0,0,.723-2.02,2.913,2.913,0,0,0-.727-2.016,2.3,2.3,0,0,0-1.781-.812,2.35,2.35,0,0,0-1.8.785,2.889,2.889,0,0,0-.727,2.043,2.889,2.889,0,0,0,.727,2.043A2.35,2.35,0,0,0,109.414,14.992Zm13.242-2.984-.016.367h-6a2.714,2.714,0,0,0,.734,1.965,2.411,2.411,0,0,0,1.75.684,2.3,2.3,0,0,0,1.273-.367,2.383,2.383,0,0,0,.875-1.016l1.219.258a3.464,3.464,0,0,1-1.312,1.648,3.581,3.581,0,0,1-2.039.6,3.71,3.71,0,0,1-2.766-1.07,3.982,3.982,0,0,1-1.055-2.922,3.962,3.962,0,0,1,1.059-2.914,3.664,3.664,0,0,1,2.723-1.07,3.467,3.467,0,0,1,2.582.984A3.889,3.889,0,0,1,122.656,12.008Zm-3.555-2.8a2.4,2.4,0,0,0-1.6.543,2.488,2.488,0,0,0-.809,1.582h4.6a2.282,2.282,0,0,0-.672-1.582A2.17,2.17,0,0,0,119.1,9.211Zm8.1,6.938a3.641,3.641,0,0,1-2.07-.555,2.294,2.294,0,0,1-1.008-1.578l1.18-.336a1.645,1.645,0,0,0,.629,1.066,2.04,2.04,0,0,0,1.262.379,2.518,2.518,0,0,0,.738-.1,1.183,1.183,0,0,0,.566-.379,1.057,1.057,0,0,0,.164-1.016,1.356,1.356,0,0,0-.125-.254.774.774,0,0,0-.219-.211,2.884,2.884,0,0,0-.266-.164,2.726,2.726,0,0,0-.348-.145q-.23-.082-.371-.125t-.43-.125q-.289-.082-.445-.129a8.331,8.331,0,0,1-.8-.281,3.5,3.5,0,0,1-.648-.371,1.493,1.493,0,0,1-.5-.605,2.049,2.049,0,0,1-.168-.859,1.986,1.986,0,0,1,.375-1.227,2.11,2.11,0,0,1,.973-.723,3.888,3.888,0,0,1,1.363-.223,3.337,3.337,0,0,1,1.871.5,2.134,2.134,0,0,1,.934,1.5l-1.109.281a1.471,1.471,0,0,0-.586-.973,1.865,1.865,0,0,0-1.1-.324,1.9,1.9,0,0,0-1.031.27.906.906,0,0,0-.43.824.82.82,0,0,0,.113.426,1.352,1.352,0,0,0,.23.3,1.417,1.417,0,0,0,.422.23q.3.121.453.164t.563.145q.078.023.117.031.453.117.738.207a4.538,4.538,0,0,1,.664.281,2.208,2.208,0,0,1,.6.418,1.937,1.937,0,0,1,.375.594,2.1,2.1,0,0,1,.156.828,2.237,2.237,0,0,1-.23,1.035,1.8,1.8,0,0,1-.629.707,3.042,3.042,0,0,1-.895.387A4.262,4.262,0,0,1,127.2,16.148Zm9.008-7.977a3.493,3.493,0,0,1,1.391.281,3.421,3.421,0,0,1,1.141.789,3.688,3.688,0,0,1,.77,1.266,4.667,4.667,0,0,1,.285,1.656,4.06,4.06,0,0,1-1.035,2.9,3.362,3.362,0,0,1-2.551,1.1,3.04,3.04,0,0,1-1.605-.437,2.867,2.867,0,0,1-1.1-1.18v5.32h-1.352V8.32h1.3l.031,1.492a2.811,2.811,0,0,1,1.094-1.2A3.068,3.068,0,0,1,136.211,8.172Zm-.266,6.82a2.332,2.332,0,0,0,1.777-.777,2.892,2.892,0,0,0,.723-2.051,2.877,2.877,0,0,0-.723-2.047,2.423,2.423,0,0,0-3.582.035,2.88,2.88,0,0,0-.734,2.012,2.891,2.891,0,0,0,.734,2.02A2.343,2.343,0,0,0,135.945,14.992ZM146.711,8.32h1.352V16h-1.3l-.031-1.016a2.4,2.4,0,0,1-.953.863,2.932,2.932,0,0,1-1.344.3,2.671,2.671,0,0,1-1.934-.7,2.594,2.594,0,0,1-.723-1.961V8.32h1.352v4.867a1.822,1.822,0,0,0,.473,1.375,1.673,1.673,0,0,0,1.207.453,1.837,1.837,0,0,0,1.363-.531,2.164,2.164,0,0,0,.535-1.57Zm9.477-3.375-1.75,2.023h-.93l1.961-2.547Zm1.344,7.063-.016.367h-6a2.714,2.714,0,0,0,.734,1.965,2.411,2.411,0,0,0,1.75.684,2.3,2.3,0,0,0,1.273-.367,2.383,2.383,0,0,0,.875-1.016l1.219.258a3.464,3.464,0,0,1-1.312,1.648,3.581,3.581,0,0,1-2.039.6,3.71,3.71,0,0,1-2.766-1.07,3.982,3.982,0,0,1-1.055-2.922,3.962,3.962,0,0,1,1.059-2.914,3.664,3.664,0,0,1,2.723-1.07,3.467,3.467,0,0,1,2.582.984A3.889,3.889,0,0,1,157.531,12.008Zm-3.555-2.8a2.4,2.4,0,0,0-1.6.543,2.488,2.488,0,0,0-.809,1.582h4.6a2.282,2.282,0,0,0-.672-1.582A2.17,2.17,0,0,0,153.977,9.211Zm8.1,6.938a3.641,3.641,0,0,1-2.07-.555A2.294,2.294,0,0,1,159,14.016l1.18-.336a1.645,1.645,0,0,0,.629,1.066,2.04,2.04,0,0,0,1.262.379,2.518,2.518,0,0,0,.738-.1,1.183,1.183,0,0,0,.566-.379,1.057,1.057,0,0,0,.164-1.016,1.356,1.356,0,0,0-.125-.254.774.774,0,0,0-.219-.211A2.884,2.884,0,0,0,162.93,13a2.727,2.727,0,0,0-.348-.145q-.23-.082-.371-.125t-.43-.125q-.289-.082-.445-.129a8.329,8.329,0,0,1-.8-.281,3.5,3.5,0,0,1-.648-.371,1.493,1.493,0,0,1-.5-.605,2.048,2.048,0,0,1-.168-.859,1.986,1.986,0,0,1,.375-1.227,2.11,2.11,0,0,1,.973-.723,3.888,3.888,0,0,1,1.363-.223,3.337,3.337,0,0,1,1.871.5,2.134,2.134,0,0,1,.934,1.5l-1.109.281a1.471,1.471,0,0,0-.586-.973,1.866,1.866,0,0,0-1.1-.324,1.9,1.9,0,0,0-1.031.27.906.906,0,0,0-.43.824.82.82,0,0,0,.113.426,1.352,1.352,0,0,0,.23.3,1.417,1.417,0,0,0,.422.23q.3.121.453.164t.563.145q.078.023.117.031.453.117.738.207a4.538,4.538,0,0,1,.664.281,2.208,2.208,0,0,1,.6.418,1.937,1.937,0,0,1,.375.594,2.1,2.1,0,0,1,.156.828,2.237,2.237,0,0,1-.23,1.035,1.8,1.8,0,0,1-.629.707,3.042,3.042,0,0,1-.895.387A4.262,4.262,0,0,1,162.078,16.148ZM176.859,4h1.352V16h-1.3l-.031-1.492a2.826,2.826,0,0,1-1.094,1.211,3.048,3.048,0,0,1-1.625.445,3.49,3.49,0,0,1-2.535-1.082,3.7,3.7,0,0,1-.773-1.27,4.644,4.644,0,0,1-.285-1.648,4.038,4.038,0,0,1,1.043-2.883,3.367,3.367,0,0,1,2.551-1.109,3.061,3.061,0,0,1,1.605.434,2.842,2.842,0,0,1,1.1,1.176Zm-2.422,10.992a2.3,2.3,0,0,0,1.785-.809,2.919,2.919,0,0,0,.723-2.02,2.913,2.913,0,0,0-.727-2.016,2.3,2.3,0,0,0-1.781-.812,2.35,2.35,0,0,0-1.8.785,2.889,2.889,0,0,0-.727,2.043,2.889,2.889,0,0,0,.727,2.043A2.35,2.35,0,0,0,174.438,14.992Zm13.242-2.984-.016.367h-6a2.714,2.714,0,0,0,.734,1.965,2.411,2.411,0,0,0,1.75.684,2.3,2.3,0,0,0,1.273-.367,2.383,2.383,0,0,0,.875-1.016l1.219.258a3.464,3.464,0,0,1-1.312,1.648,3.581,3.581,0,0,1-2.039.6,3.71,3.71,0,0,1-2.766-1.07,3.982,3.982,0,0,1-1.055-2.922A3.962,3.962,0,0,1,181.4,9.242a3.664,3.664,0,0,1,2.723-1.07,3.467,3.467,0,0,1,2.582.984A3.889,3.889,0,0,1,187.68,12.008Zm-3.555-2.8a2.4,2.4,0,0,0-1.6.543,2.488,2.488,0,0,0-.809,1.582h4.6a2.282,2.282,0,0,0-.672-1.582A2.17,2.17,0,0,0,184.125,9.211ZM193.953,16V4h1.367V16Zm5.891.148a2.613,2.613,0,0,1-1.684-.527,1.894,1.894,0,0,1-.66-1.574,2.237,2.237,0,0,1,.211-1,1.77,1.77,0,0,1,.625-.7,3.749,3.749,0,0,1,.9-.434,8.341,8.341,0,0,1,1.168-.277l1.242-.2q.68-.125.68-.711a1.342,1.342,0,0,0-.48-1.145,1.958,1.958,0,0,0-1.215-.363,1.994,1.994,0,0,0-1.2.352,1.471,1.471,0,0,0-.57,1.078l-1.219-.258a2.346,2.346,0,0,1,.961-1.645,3.59,3.59,0,0,1,2.094-.551,4.247,4.247,0,0,1,1.113.137,3.026,3.026,0,0,1,.93.43,1.927,1.927,0,0,1,.664.828,3.081,3.081,0,0,1,.238,1.262v3.172a1.3,1.3,0,0,0,.176.8.759.759,0,0,0,.605.207h.125V16h-.672a1.281,1.281,0,0,1-1.453-1.039h-.062A2.935,2.935,0,0,1,199.844,16.148Zm.313-1.094a2.049,2.049,0,0,0,1.648-.742,3.056,3.056,0,0,0,.625-2.031l-2.031.391a2.734,2.734,0,0,0-1.191.426.99.99,0,0,0-.387.84.979.979,0,0,0,.371.844A1.586,1.586,0,0,0,200.156,15.055ZM213.8,16.141a3.7,3.7,0,0,1-2.75-1.1,3.929,3.929,0,0,1-1.086-2.883,3.937,3.937,0,0,1,1.082-2.883,4,4,0,0,1,4.977-.43,3.391,3.391,0,0,1,1.293,1.867l-1.266.2a2.337,2.337,0,0,0-.867-1.2,2.361,2.361,0,0,0-1.391-.422,2.27,2.27,0,0,0-1.777.789,3.006,3.006,0,0,0-.7,2.07,2.991,2.991,0,0,0,.7,2.066,2.275,2.275,0,0,0,1.777.785,2.361,2.361,0,0,0,1.391-.422,2.337,2.337,0,0,0,.867-1.2l1.266.211a3.4,3.4,0,0,1-1.3,1.863A3.72,3.72,0,0,1,213.8,16.141Zm8.742.008a4.048,4.048,0,0,1-1.969-.477,3.47,3.47,0,0,1-1.387-1.395,4.284,4.284,0,0,1-.512-2.121,3.912,3.912,0,0,1,1.09-2.895,4.089,4.089,0,0,1,5.559,0,3.92,3.92,0,0,1,1.086,2.895,3.923,3.923,0,0,1-1.09,2.9A3.762,3.762,0,0,1,222.539,16.148Zm-.008-1.125a2.359,2.359,0,0,0,1.816-.789,2.957,2.957,0,0,0,.723-2.078,2.945,2.945,0,0,0-.723-2.07,2.359,2.359,0,0,0-1.816-.789,2.326,2.326,0,0,0-1.8.789,2.965,2.965,0,0,0-.715,2.07,2.976,2.976,0,0,0,.715,2.078A2.326,2.326,0,0,0,222.531,15.023Zm13.844-6.852a2.476,2.476,0,0,1,1.789.652,2.42,2.42,0,0,1,.68,1.832V16h-1.352V11.008a1.735,1.735,0,0,0-.422-1.266,1.436,1.436,0,0,0-1.07-.43,1.517,1.517,0,0,0-1.172.484,2.083,2.083,0,0,0-.445,1.453V16h-1.375V11.063a1.815,1.815,0,0,0-.426-1.309,1.448,1.448,0,0,0-1.09-.441,1.5,1.5,0,0,0-1.168.5,2.155,2.155,0,0,0-.449,1.488V16h-1.352V8.32h1.352v.992a2.333,2.333,0,0,1,.879-.844,2.506,2.506,0,0,1,1.223-.3,2.609,2.609,0,0,1,1.313.324,2.018,2.018,0,0,1,.852.934,2.39,2.39,0,0,1,.922-.934A2.637,2.637,0,0,1,236.375,8.172Zm6.859,7.977a2.613,2.613,0,0,1-1.684-.527,1.894,1.894,0,0,1-.66-1.574,2.237,2.237,0,0,1,.211-1,1.77,1.77,0,0,1,.625-.7,3.749,3.749,0,0,1,.9-.434,8.341,8.341,0,0,1,1.168-.277l1.242-.2q.68-.125.68-.711a1.342,1.342,0,0,0-.48-1.145,1.958,1.958,0,0,0-1.215-.363,1.994,1.994,0,0,0-1.2.352,1.471,1.471,0,0,0-.57,1.078l-1.219-.258a2.346,2.346,0,0,1,.961-1.645,3.59,3.59,0,0,1,2.094-.551,4.247,4.247,0,0,1,1.113.137,3.026,3.026,0,0,1,.93.43,1.927,1.927,0,0,1,.664.828,3.081,3.081,0,0,1,.238,1.262v3.172a1.3,1.3,0,0,0,.176.8.759.759,0,0,0,.605.207h.125V16h-.672a1.281,1.281,0,0,1-1.453-1.039h-.062A2.935,2.935,0,0,1,243.234,16.148Zm.313-1.094a2.049,2.049,0,0,0,1.648-.742,3.056,3.056,0,0,0,.625-2.031l-2.031.391a2.734,2.734,0,0,0-1.191.426.99.99,0,0,0-.387.84.979.979,0,0,0,.371.844A1.586,1.586,0,0,0,243.547,15.055ZM259.672,4h1.352V16h-1.3l-.031-1.492a2.826,2.826,0,0,1-1.094,1.211,3.048,3.048,0,0,1-1.625.445,3.49,3.49,0,0,1-2.535-1.082,3.7,3.7,0,0,1-.773-1.27,4.644,4.644,0,0,1-.285-1.648,4.038,4.038,0,0,1,1.043-2.883,3.367,3.367,0,0,1,2.551-1.109,3.061,3.061,0,0,1,1.605.434,2.842,2.842,0,0,1,1.1,1.176ZM257.25,14.992a2.3,2.3,0,0,0,1.785-.809,2.919,2.919,0,0,0,.723-2.02,2.913,2.913,0,0,0-.727-2.016,2.3,2.3,0,0,0-1.781-.812,2.35,2.35,0,0,0-1.8.785,2.889,2.889,0,0,0-.727,2.043,2.889,2.889,0,0,0,.727,2.043A2.35,2.35,0,0,0,257.25,14.992Zm13.242-2.984-.016.367h-6a2.714,2.714,0,0,0,.734,1.965,2.411,2.411,0,0,0,1.75.684,2.3,2.3,0,0,0,1.273-.367,2.383,2.383,0,0,0,.875-1.016l1.219.258a3.464,3.464,0,0,1-1.312,1.648,3.581,3.581,0,0,1-2.039.6,3.71,3.71,0,0,1-2.766-1.07,3.982,3.982,0,0,1-1.055-2.922,3.963,3.963,0,0,1,1.059-2.914,3.664,3.664,0,0,1,2.723-1.07,3.467,3.467,0,0,1,2.582.984A3.889,3.889,0,0,1,270.492,12.008Zm-3.555-2.8a2.4,2.4,0,0,0-1.6.543,2.488,2.488,0,0,0-.809,1.582h4.6a2.282,2.282,0,0,0-.672-1.582A2.17,2.17,0,0,0,266.938,9.211Zm14.609-.891H282.9V16h-1.3l-.031-1.016a2.4,2.4,0,0,1-.953.863,2.932,2.932,0,0,1-1.344.3,2.671,2.671,0,0,1-1.934-.7,2.594,2.594,0,0,1-.723-1.961V8.32h1.352v4.867a1.822,1.822,0,0,0,.473,1.375,1.673,1.673,0,0,0,1.207.453,1.837,1.837,0,0,0,1.363-.531,2.164,2.164,0,0,0,.535-1.57Zm7.727-.148a2.671,2.671,0,0,1,1.934.7,2.594,2.594,0,0,1,.723,1.961V16h-1.352V11.133a1.816,1.816,0,0,0-.469-1.375,1.676,1.676,0,0,0-1.2-.445,1.858,1.858,0,0,0-1.367.527A2.14,2.14,0,0,0,287,11.406V16h-1.352V8.32H287V9.3A2.565,2.565,0,0,1,289.273,8.172Zm9.82-1.461a4.417,4.417,0,0,1,.082-.895,2.9,2.9,0,0,1,.219-.676,1.606,1.606,0,0,1,.363-.488,2.137,2.137,0,0,1,.473-.332,2.346,2.346,0,0,1,.582-.2,5.463,5.463,0,0,1,.66-.1Q301.8,4,302.219,4V5.133h-.293q-.09,0-.281.016a1.8,1.8,0,0,0-.281.039q-.09.023-.242.078a.618.618,0,0,0-.23.133q-.078.078-.18.2a.816.816,0,0,0-.152.281,2.69,2.69,0,0,0-.086.375,2.991,2.991,0,0,0-.035.48V8.32h1.781V9.4h-1.781V16h-1.344V9.4h-1.484V8.32h1.484ZM303.781,4h1.367V16h-1.367Zm7.352,12.148a4.048,4.048,0,0,1-1.969-.477,3.47,3.47,0,0,1-1.387-1.395,4.283,4.283,0,0,1-.512-2.121,3.912,3.912,0,0,1,1.09-2.895,4.089,4.089,0,0,1,5.559,0A3.92,3.92,0,0,1,315,12.156a3.923,3.923,0,0,1-1.09,2.9A3.762,3.762,0,0,1,311.133,16.148Zm-.008-1.125a2.359,2.359,0,0,0,1.816-.789,2.957,2.957,0,0,0,.723-2.078,2.945,2.945,0,0,0-.723-2.07,2.359,2.359,0,0,0-1.816-.789,2.326,2.326,0,0,0-1.8.789,2.965,2.965,0,0,0-.715,2.07,2.976,2.976,0,0,0,.715,2.078A2.326,2.326,0,0,0,311.125,15.023Zm7.766,1.125a2.613,2.613,0,0,1-1.684-.527,1.894,1.894,0,0,1-.66-1.574,2.237,2.237,0,0,1,.211-1,1.77,1.77,0,0,1,.625-.7,3.749,3.749,0,0,1,.9-.434,8.342,8.342,0,0,1,1.168-.277l1.242-.2q.68-.125.68-.711a1.342,1.342,0,0,0-.48-1.145,1.958,1.958,0,0,0-1.215-.363,1.994,1.994,0,0,0-1.2.352,1.471,1.471,0,0,0-.57,1.078l-1.219-.258a2.346,2.346,0,0,1,.961-1.645,3.59,3.59,0,0,1,2.094-.551,4.247,4.247,0,0,1,1.113.137,3.025,3.025,0,0,1,.93.43,1.927,1.927,0,0,1,.664.828,3.081,3.081,0,0,1,.238,1.262v3.172a1.3,1.3,0,0,0,.176.8.759.759,0,0,0,.605.207h.125V16h-.672a1.281,1.281,0,0,1-1.453-1.039h-.062A2.935,2.935,0,0,1,318.891,16.148Zm.313-1.094a2.049,2.049,0,0,0,1.648-.742,3.056,3.056,0,0,0,.625-2.031l-2.031.391a2.734,2.734,0,0,0-1.191.426.99.99,0,0,0-.387.84.979.979,0,0,0,.371.844A1.586,1.586,0,0,0,319.2,15.055Zm8.7.945a2.019,2.019,0,0,1-1.5-.551,2.084,2.084,0,0,1-.547-1.535V9.4h-1.57V8.32h.578a1.11,1.11,0,0,0,.848-.27,1.326,1.326,0,0,0,.246-.9V5.758h1.258V8.32h1.766V9.4h-1.766v4.375a1.164,1.164,0,0,0,.293.848,1.026,1.026,0,0,0,.77.3h.7V16Z" transform="translate(6938 -1611)" fill="#00223d"/>
    <path id="Trazado_10888" data-name="Trazado 10888" d="M68.688,16l2.953-3.844L68.688,8.32h1.664l2.125,2.938L74.6,8.32h1.641l-2.961,3.836L76.242,16H74.594l-2.109-2.922L70.352,16ZM82.75,9.563V8.453h5.969V9.563Zm0,3.2V11.648h5.969v1.109ZM97.625,9.672a2.322,2.322,0,0,1,.953-1.031,2.87,2.87,0,0,1,1.477-.406V9.508a2.53,2.53,0,0,0-1.785.57,2.382,2.382,0,0,0-.613,1.82V16H96.3V8.32h1.32Zm5.7,6.477a2.613,2.613,0,0,1-1.684-.527,1.894,1.894,0,0,1-.66-1.574,2.237,2.237,0,0,1,.211-1,1.77,1.77,0,0,1,.625-.7,3.749,3.749,0,0,1,.9-.434,8.341,8.341,0,0,1,1.168-.277l1.242-.2q.68-.125.68-.711a1.342,1.342,0,0,0-.48-1.145,1.958,1.958,0,0,0-1.215-.363,1.994,1.994,0,0,0-1.2.352,1.471,1.471,0,0,0-.57,1.078l-1.219-.258a2.346,2.346,0,0,1,.961-1.645,3.59,3.59,0,0,1,2.094-.551,4.247,4.247,0,0,1,1.113.137,3.025,3.025,0,0,1,.93.43,1.927,1.927,0,0,1,.664.828,3.081,3.081,0,0,1,.238,1.262v3.172a1.3,1.3,0,0,0,.176.8.759.759,0,0,0,.605.207h.125V16h-.672a1.281,1.281,0,0,1-1.453-1.039h-.062A2.935,2.935,0,0,1,103.32,16.148Zm.313-1.094a2.049,2.049,0,0,0,1.648-.742,3.056,3.056,0,0,0,.625-2.031l-2.031.391a2.734,2.734,0,0,0-1.191.426.99.99,0,0,0-.387.84.979.979,0,0,0,.371.844A1.586,1.586,0,0,0,103.633,15.055Zm9.922-6.883a2.671,2.671,0,0,1,1.934.7,2.594,2.594,0,0,1,.723,1.961V16h-1.352V11.133a1.816,1.816,0,0,0-.469-1.375,1.676,1.676,0,0,0-1.2-.445,1.858,1.858,0,0,0-1.367.527,2.14,2.14,0,0,0-.539,1.566V16H109.93V8.32h1.352V9.3A2.565,2.565,0,0,1,113.555,8.172Zm10.828.148H125.7v7.289A4.183,4.183,0,0,1,124.7,18.6a4.131,4.131,0,0,1-6.477-1.3l1.117-.547a2.539,2.539,0,0,0,2.57,1.773,2.2,2.2,0,0,0,1.8-.75,3.192,3.192,0,0,0,.621-2.094V14.258a2.707,2.707,0,0,1-1.094,1.105,3.182,3.182,0,0,1-1.6.418,3.293,3.293,0,0,1-2.484-1.082,3.816,3.816,0,0,1-1.023-2.73,3.78,3.78,0,0,1,1.027-2.723,3.325,3.325,0,0,1,2.5-1.074,3.1,3.1,0,0,1,1.609.43,2.766,2.766,0,0,1,1.086,1.133Zm-2.437,6.313a2.323,2.323,0,0,0,1.77-.789,2.787,2.787,0,0,0,0-3.758,2.407,2.407,0,0,0-3.543-.023,2.669,2.669,0,0,0-.723,1.906,2.647,2.647,0,0,0,.73,1.895A2.341,2.341,0,0,0,121.945,14.633Zm13.219-2.625-.016.367h-6a2.714,2.714,0,0,0,.734,1.965,2.411,2.411,0,0,0,1.75.684,2.3,2.3,0,0,0,1.273-.367,2.383,2.383,0,0,0,.875-1.016L135,13.9a3.464,3.464,0,0,1-1.312,1.648,3.581,3.581,0,0,1-2.039.6,3.71,3.71,0,0,1-2.766-1.07,3.982,3.982,0,0,1-1.055-2.922,3.962,3.962,0,0,1,1.059-2.914,3.664,3.664,0,0,1,2.723-1.07,3.467,3.467,0,0,1,2.582.984A3.889,3.889,0,0,1,135.164,12.008Zm-3.555-2.8a2.4,2.4,0,0,0-1.6.543,2.488,2.488,0,0,0-.809,1.582h4.6a2.282,2.282,0,0,0-.672-1.582A2.17,2.17,0,0,0,131.609,9.211ZM144.273,19.9a6.487,6.487,0,0,1-2.41-3.176,13.749,13.749,0,0,1-.879-5.137,13.8,13.8,0,0,1,.879-5.133,6.485,6.485,0,0,1,2.41-3.187l.719.891a5.481,5.481,0,0,0-2.055,2.785,12.89,12.89,0,0,0-.758,4.645,12.871,12.871,0,0,0,.754,4.645A5.442,5.442,0,0,0,144.992,19ZM154,12.547v1.242h-1.7V16h-1.352V13.789h-5.266v-1.25L150.266,5H152.3v7.547Zm-6.914,0h3.867V5.992Zm8.3,7.352-.719-.9a5.442,5.442,0,0,0,2.059-2.77,12.871,12.871,0,0,0,.754-4.645,12.89,12.89,0,0,0-.758-4.645,5.481,5.481,0,0,0-2.055-2.785l.719-.891a6.485,6.485,0,0,1,2.41,3.188,13.8,13.8,0,0,1,.879,5.133,13.749,13.749,0,0,1-.879,5.137A6.487,6.487,0,0,1,155.391,19.9ZM75.41,32.172a3.493,3.493,0,0,1,1.391.281,3.421,3.421,0,0,1,1.141.789,3.688,3.688,0,0,1,.77,1.266A4.667,4.667,0,0,1,79,36.164a4.061,4.061,0,0,1-1.035,2.9,3.362,3.362,0,0,1-2.551,1.1,3.04,3.04,0,0,1-1.605-.437,2.867,2.867,0,0,1-1.1-1.18v5.32H71.355V32.32h1.3l.031,1.492a2.811,2.811,0,0,1,1.094-1.2A3.068,3.068,0,0,1,75.41,32.172Zm-.266,6.82a2.332,2.332,0,0,0,1.777-.777,3.266,3.266,0,0,0,0-4.1,2.423,2.423,0,0,0-3.582.035,3.133,3.133,0,0,0,0,4.031A2.343,2.343,0,0,0,75.145,38.992Zm7.3-5.32a2.322,2.322,0,0,1,.953-1.031,2.87,2.87,0,0,1,1.477-.406v1.273a2.53,2.53,0,0,0-1.785.57,2.382,2.382,0,0,0-.613,1.82V40H81.129V32.32h1.32Zm4.7-3.156a.92.92,0,0,1-.914-.914.867.867,0,0,1,.27-.641.886.886,0,0,1,.645-.266.877.877,0,0,1,.637.266.867.867,0,0,1,.27.641.88.88,0,0,1-.27.645A.871.871,0,0,1,87.152,30.516ZM86.465,40V32.32h1.359V40ZM94.2,32.172a2.671,2.671,0,0,1,1.934.7,2.594,2.594,0,0,1,.723,1.961V40H95.5V35.133a1.816,1.816,0,0,0-.469-1.375,1.676,1.676,0,0,0-1.2-.445,1.858,1.858,0,0,0-1.367.527,2.14,2.14,0,0,0-.539,1.566V40H90.574V32.32h1.352V33.3A2.565,2.565,0,0,1,94.2,32.172ZM101.918,40a2.019,2.019,0,0,1-1.5-.551,2.084,2.084,0,0,1-.547-1.535V33.4H98.3V32.32h.578a1.11,1.11,0,0,0,.848-.27,1.326,1.326,0,0,0,.246-.9V29.758h1.258V32.32H103V33.4H101.23v4.375a1.164,1.164,0,0,0,.293.848,1.026,1.026,0,0,0,.77.3h.7V40Zm10.023,3.9a6.487,6.487,0,0,1-2.41-3.176,13.749,13.749,0,0,1-.879-5.137,13.8,13.8,0,0,1,.879-5.133,6.485,6.485,0,0,1,2.41-3.187l.719.891a5.481,5.481,0,0,0-2.055,2.785,12.89,12.89,0,0,0-.758,4.645,12.871,12.871,0,0,0,.754,4.645A5.442,5.442,0,0,0,112.66,43Zm2.43-3.9V28h1.367V40Zm4.8-9.484a.92.92,0,0,1-.914-.914.867.867,0,0,1,.27-.641.886.886,0,0,1,.645-.266.877.877,0,0,1,.637.266.867.867,0,0,1,.27.641.88.88,0,0,1-.27.645A.871.871,0,0,1,119.176,30.516ZM118.488,40V32.32h1.359V40Zm6.539.148a3.641,3.641,0,0,1-2.07-.555,2.294,2.294,0,0,1-1.008-1.578l1.18-.336a1.645,1.645,0,0,0,.629,1.066,2.04,2.04,0,0,0,1.262.379,2.518,2.518,0,0,0,.738-.1,1.184,1.184,0,0,0,.566-.379,1.057,1.057,0,0,0,.164-1.016,1.357,1.357,0,0,0-.125-.254.774.774,0,0,0-.219-.211,2.885,2.885,0,0,0-.266-.164,2.726,2.726,0,0,0-.348-.145q-.23-.082-.371-.125t-.43-.125q-.289-.082-.445-.129a8.33,8.33,0,0,1-.8-.281,3.5,3.5,0,0,1-.648-.371,1.493,1.493,0,0,1-.5-.605,2.049,2.049,0,0,1-.168-.859,1.986,1.986,0,0,1,.375-1.227,2.11,2.11,0,0,1,.973-.723,3.888,3.888,0,0,1,1.363-.223,3.337,3.337,0,0,1,1.871.5,2.134,2.134,0,0,1,.934,1.5l-1.109.281a1.471,1.471,0,0,0-.586-.973,1.865,1.865,0,0,0-1.1-.324,1.9,1.9,0,0,0-1.031.27.906.906,0,0,0-.43.824.82.82,0,0,0,.113.426,1.352,1.352,0,0,0,.23.3,1.417,1.417,0,0,0,.422.23q.3.121.453.164t.563.145q.078.023.117.031.453.117.738.207a4.538,4.538,0,0,1,.664.281,2.208,2.208,0,0,1,.6.418,1.936,1.936,0,0,1,.375.594,2.1,2.1,0,0,1,.156.828,2.237,2.237,0,0,1-.23,1.035,1.8,1.8,0,0,1-.629.707,3.042,3.042,0,0,1-.895.387A4.262,4.262,0,0,1,125.027,40.148ZM132.434,40a2.019,2.019,0,0,1-1.5-.551,2.084,2.084,0,0,1-.547-1.535V33.4h-1.57V32.32h.578a1.11,1.11,0,0,0,.848-.27,1.326,1.326,0,0,0,.246-.9V29.758h1.258V32.32h1.766V33.4h-1.766v4.375a1.164,1.164,0,0,0,.293.848,1.026,1.026,0,0,0,.77.3h.7V40Zm5.867,3.9a6.487,6.487,0,0,1-2.41-3.176,13.749,13.749,0,0,1-.879-5.137,13.8,13.8,0,0,1,.879-5.133,6.485,6.485,0,0,1,2.41-3.187l.719.891a5.481,5.481,0,0,0-2.055,2.785,12.89,12.89,0,0,0-.758,4.645,12.871,12.871,0,0,0,.754,4.645A5.442,5.442,0,0,0,139.02,43Zm1.344-3.9,2.953-3.844-2.953-3.836h1.664l2.125,2.938,2.125-2.937H147.2l-2.961,3.836L147.2,40h-1.648l-2.109-2.922L141.309,40Zm8.9,3.9-.719-.9a5.442,5.442,0,0,0,2.059-2.77,12.871,12.871,0,0,0,.754-4.645,12.89,12.89,0,0,0-.758-4.645,5.481,5.481,0,0,0-2.055-2.785l.719-.891a6.485,6.485,0,0,1,2.41,3.188,13.8,13.8,0,0,1,.879,5.133,13.749,13.749,0,0,1-.879,5.137A6.487,6.487,0,0,1,148.543,43.9Zm5.266,0-.719-.9a5.442,5.442,0,0,0,2.059-2.77,12.871,12.871,0,0,0,.754-4.645,12.89,12.89,0,0,0-.758-4.645,5.481,5.481,0,0,0-2.055-2.785l.719-.891a6.485,6.485,0,0,1,2.41,3.188,13.8,13.8,0,0,1,.879,5.133,13.749,13.749,0,0,1-.879,5.137A6.487,6.487,0,0,1,153.809,43.9Z" transform="translate(7320 -1827)" fill="#00223d"/>
    <path id="Trazado_10889" data-name="Trazado 10889" d="M69.48,8.172a3.493,3.493,0,0,1,1.391.281,3.421,3.421,0,0,1,1.141.789,3.688,3.688,0,0,1,.77,1.266,4.667,4.667,0,0,1,.285,1.656,4.061,4.061,0,0,1-1.035,2.9,3.362,3.362,0,0,1-2.551,1.1,3.04,3.04,0,0,1-1.605-.437,2.867,2.867,0,0,1-1.1-1.18v5.32H65.426V8.32h1.3l.031,1.492a2.811,2.811,0,0,1,1.094-1.2A3.068,3.068,0,0,1,69.48,8.172Zm-.266,6.82a2.332,2.332,0,0,0,1.777-.777,2.891,2.891,0,0,0,.723-2.051,2.877,2.877,0,0,0-.723-2.047,2.423,2.423,0,0,0-3.582.035,2.88,2.88,0,0,0-.734,2.012,2.891,2.891,0,0,0,.734,2.02A2.343,2.343,0,0,0,69.215,14.992Zm7.3-5.32a2.322,2.322,0,0,1,.953-1.031,2.87,2.87,0,0,1,1.477-.406V9.508a2.53,2.53,0,0,0-1.785.57,2.382,2.382,0,0,0-.613,1.82V16H75.2V8.32h1.32Zm4.7-3.156a.92.92,0,0,1-.914-.914.867.867,0,0,1,.27-.641.886.886,0,0,1,.645-.266.877.877,0,0,1,.637.266.867.867,0,0,1,.27.641.88.88,0,0,1-.27.645A.871.871,0,0,1,81.223,6.516ZM80.535,16V8.32h1.359V16ZM88.27,8.172a2.671,2.671,0,0,1,1.934.7,2.594,2.594,0,0,1,.723,1.961V16H89.574V11.133a1.816,1.816,0,0,0-.469-1.375,1.676,1.676,0,0,0-1.2-.445,1.858,1.858,0,0,0-1.367.527A2.14,2.14,0,0,0,86,11.406V16H84.645V8.32H86V9.3A2.565,2.565,0,0,1,88.27,8.172ZM95.988,16a2.019,2.019,0,0,1-1.5-.551,2.084,2.084,0,0,1-.547-1.535V9.4h-1.57V8.32h.578a1.11,1.11,0,0,0,.848-.27,1.326,1.326,0,0,0,.246-.9V5.758H95.3V8.32h1.766V9.4H95.3v4.375a1.164,1.164,0,0,0,.293.848,1.026,1.026,0,0,0,.77.3h.7V16Zm5.867,3.9a6.487,6.487,0,0,1-2.41-3.176,13.749,13.749,0,0,1-.879-5.137,13.8,13.8,0,0,1,.879-5.133,6.485,6.485,0,0,1,2.41-3.187l.719.891a5.481,5.481,0,0,0-2.055,2.785,12.89,12.89,0,0,0-.758,4.645,12.871,12.871,0,0,0,.754,4.645A5.442,5.442,0,0,0,102.574,19Zm5.664-3.75a4.048,4.048,0,0,1-1.969-.477,3.47,3.47,0,0,1-1.387-1.395,4.283,4.283,0,0,1-.512-2.121,3.912,3.912,0,0,1,1.09-2.895,4.089,4.089,0,0,1,5.559,0,3.92,3.92,0,0,1,1.086,2.895,3.923,3.923,0,0,1-1.09,2.9A3.762,3.762,0,0,1,107.52,16.148Zm-.008-1.125a2.359,2.359,0,0,0,1.816-.789,2.957,2.957,0,0,0,.723-2.078,2.945,2.945,0,0,0-.723-2.07,2.359,2.359,0,0,0-1.816-.789,2.326,2.326,0,0,0-1.8.789,2.965,2.965,0,0,0-.715,2.07,2.976,2.976,0,0,0,.715,2.078A2.326,2.326,0,0,0,107.512,15.023Zm7.313-5.352a2.322,2.322,0,0,1,.953-1.031,2.87,2.87,0,0,1,1.477-.406V9.508a2.53,2.53,0,0,0-1.785.57,2.382,2.382,0,0,0-.613,1.82V16H113.5V8.32h1.32ZM124.418,4h1.352V16h-1.3l-.031-1.492a2.826,2.826,0,0,1-1.094,1.211,3.048,3.048,0,0,1-1.625.445,3.49,3.49,0,0,1-2.535-1.082,3.7,3.7,0,0,1-.773-1.27,4.644,4.644,0,0,1-.285-1.648,4.038,4.038,0,0,1,1.043-2.883,3.367,3.367,0,0,1,2.551-1.109,3.061,3.061,0,0,1,1.605.434,2.842,2.842,0,0,1,1.1,1.176ZM122,14.992a2.3,2.3,0,0,0,1.785-.809,2.919,2.919,0,0,0,.723-2.02,2.913,2.913,0,0,0-.727-2.016A2.3,2.3,0,0,0,122,9.336a2.35,2.35,0,0,0-1.8.785,2.889,2.889,0,0,0-.727,2.043,2.889,2.889,0,0,0,.727,2.043A2.35,2.35,0,0,0,122,14.992Zm9.359,4.906a6.487,6.487,0,0,1-2.41-3.176,13.749,13.749,0,0,1-.879-5.137,13.8,13.8,0,0,1,.879-5.133,6.485,6.485,0,0,1,2.41-3.187l.719.891a5.481,5.481,0,0,0-2.055,2.785,12.89,12.89,0,0,0-.758,4.645,12.871,12.871,0,0,0,.754,4.645A5.442,5.442,0,0,0,132.074,19ZM134.77,5h.984L134.8,9.844h-1.414Zm8.6,11.148a5.844,5.844,0,0,1-2.164-.395,5.226,5.226,0,0,1-1.738-1.109,4.948,4.948,0,0,1-1.156-1.785,6.456,6.456,0,0,1-.418-2.367,6.35,6.35,0,0,1,.422-2.355,4.939,4.939,0,0,1,2.891-2.895,5.9,5.9,0,0,1,2.164-.391,5.589,5.589,0,0,1,2.926.773,4.819,4.819,0,0,1,1.934,2.148l-1.289.531A3.622,3.622,0,0,0,145.5,6.738a4.137,4.137,0,0,0-2.129-.551,4.374,4.374,0,0,0-1.6.289,3.838,3.838,0,0,0-1.3.828,3.739,3.739,0,0,0-.871,1.359,5.044,5.044,0,0,0-.316,1.828,5.075,5.075,0,0,0,.316,1.832,3.733,3.733,0,0,0,.871,1.363,3.888,3.888,0,0,0,1.3.832,4.323,4.323,0,0,0,1.6.293,4.137,4.137,0,0,0,2.129-.551,3.631,3.631,0,0,0,1.441-1.559l1.289.523a4.794,4.794,0,0,1-1.93,2.152A5.6,5.6,0,0,1,143.371,16.148Zm7.688-6.3h-.984l.953-4.844h1.414ZM154.473,19.9l-.719-.9a5.442,5.442,0,0,0,2.059-2.77,12.871,12.871,0,0,0,.754-4.645,12.89,12.89,0,0,0-.758-4.645,5.481,5.481,0,0,0-2.055-2.785l.719-.891a6.485,6.485,0,0,1,2.41,3.188,13.8,13.8,0,0,1,.879,5.133,13.749,13.749,0,0,1-.879,5.137A6.487,6.487,0,0,1,154.473,19.9Zm5.266,0-.719-.9a5.442,5.442,0,0,0,2.059-2.77,12.871,12.871,0,0,0,.754-4.645,12.89,12.89,0,0,0-.758-4.645,5.481,5.481,0,0,0-2.055-2.785l.719-.891a6.485,6.485,0,0,1,2.41,3.188,13.8,13.8,0,0,1,.879,5.133,13.749,13.749,0,0,1-.879,5.137A6.487,6.487,0,0,1,159.738,19.9Z" transform="translate(7320 -1713)" fill="#00223d"/>
    <path id="Trazado_10892" data-name="Trazado 10892" d="M48.43,8.172a3.493,3.493,0,0,1,1.391.281,3.421,3.421,0,0,1,1.141.789,3.688,3.688,0,0,1,.77,1.266,4.667,4.667,0,0,1,.285,1.656,4.061,4.061,0,0,1-1.035,2.9,3.362,3.362,0,0,1-2.551,1.1,3.04,3.04,0,0,1-1.605-.437,2.867,2.867,0,0,1-1.1-1.18v5.32H44.375V8.32h1.3l.031,1.492a2.811,2.811,0,0,1,1.094-1.2A3.068,3.068,0,0,1,48.43,8.172Zm-.266,6.82a2.332,2.332,0,0,0,1.777-.777,2.892,2.892,0,0,0,.723-2.051,2.877,2.877,0,0,0-.723-2.047,2.423,2.423,0,0,0-3.582.035,2.88,2.88,0,0,0-.734,2.012,2.891,2.891,0,0,0,.734,2.02A2.343,2.343,0,0,0,48.164,14.992Zm7.3-5.32a2.322,2.322,0,0,1,.953-1.031A2.87,2.87,0,0,1,57.9,8.234V9.508a2.53,2.53,0,0,0-1.785.57A2.382,2.382,0,0,0,55.5,11.9V16H54.148V8.32h1.32Zm4.7-3.156a.92.92,0,0,1-.914-.914.867.867,0,0,1,.27-.641.886.886,0,0,1,.645-.266.877.877,0,0,1,.637.266.867.867,0,0,1,.27.641.88.88,0,0,1-.27.645A.871.871,0,0,1,60.172,6.516ZM59.484,16V8.32h1.359V16Zm7.734-7.828a2.671,2.671,0,0,1,1.934.7,2.594,2.594,0,0,1,.723,1.961V16H68.523V11.133a1.816,1.816,0,0,0-.469-1.375,1.676,1.676,0,0,0-1.2-.445,1.858,1.858,0,0,0-1.367.527,2.14,2.14,0,0,0-.539,1.566V16H63.594V8.32h1.352V9.3A2.565,2.565,0,0,1,67.219,8.172ZM74.938,16a2.019,2.019,0,0,1-1.5-.551,2.084,2.084,0,0,1-.547-1.535V9.4H71.32V8.32H71.9a1.11,1.11,0,0,0,.848-.27,1.326,1.326,0,0,0,.246-.9V5.758H74.25V8.32h1.766V9.4H74.25v4.375a1.164,1.164,0,0,0,.293.848,1.026,1.026,0,0,0,.77.3h.7V16Zm10.023,3.9a6.487,6.487,0,0,1-2.41-3.176,13.749,13.749,0,0,1-.879-5.137,13.8,13.8,0,0,1,.879-5.133,6.485,6.485,0,0,1,2.41-3.187l.719.891a5.481,5.481,0,0,0-2.055,2.785,12.89,12.89,0,0,0-.758,4.645,12.871,12.871,0,0,0,.754,4.645A5.442,5.442,0,0,0,85.68,19Zm3.75-10.227a2.322,2.322,0,0,1,.953-1.031,2.87,2.87,0,0,1,1.477-.406V9.508a2.53,2.53,0,0,0-1.785.57,2.382,2.382,0,0,0-.613,1.82V16H87.391V8.32h1.32Zm7.156,6.477a4.048,4.048,0,0,1-1.969-.477,3.47,3.47,0,0,1-1.387-1.395A4.283,4.283,0,0,1,92,12.156a3.912,3.912,0,0,1,1.09-2.895,4.089,4.089,0,0,1,5.559,0,3.92,3.92,0,0,1,1.086,2.895,3.923,3.923,0,0,1-1.09,2.9A3.762,3.762,0,0,1,95.867,16.148Zm-.008-1.125a2.359,2.359,0,0,0,1.816-.789,2.957,2.957,0,0,0,.723-2.078,2.945,2.945,0,0,0-.723-2.07A2.359,2.359,0,0,0,95.859,9.3a2.326,2.326,0,0,0-1.8.789,2.965,2.965,0,0,0-.715,2.07,2.976,2.976,0,0,0,.715,2.078A2.326,2.326,0,0,0,95.859,15.023Zm10.773-6.7h1.352V16h-1.3l-.031-1.016a2.4,2.4,0,0,1-.953.863,2.932,2.932,0,0,1-1.344.3,2.671,2.671,0,0,1-1.934-.7,2.594,2.594,0,0,1-.723-1.961V8.32h1.352v4.867a1.822,1.822,0,0,0,.473,1.375,1.673,1.673,0,0,0,1.207.453,1.837,1.837,0,0,0,1.363-.531,2.164,2.164,0,0,0,.535-1.57Zm7.727-.148a2.671,2.671,0,0,1,1.934.7,2.594,2.594,0,0,1,.723,1.961V16h-1.352V11.133a1.816,1.816,0,0,0-.469-1.375,1.676,1.676,0,0,0-1.2-.445,1.858,1.858,0,0,0-1.367.527,2.14,2.14,0,0,0-.539,1.566V16h-1.352V8.32h1.352V9.3A2.565,2.565,0,0,1,114.359,8.172ZM125.3,4h1.352V16h-1.3l-.031-1.492a2.826,2.826,0,0,1-1.094,1.211,3.048,3.048,0,0,1-1.625.445,3.49,3.49,0,0,1-2.535-1.082,3.7,3.7,0,0,1-.773-1.27A4.644,4.644,0,0,1,119,12.164a4.038,4.038,0,0,1,1.043-2.883,3.367,3.367,0,0,1,2.551-1.109,3.061,3.061,0,0,1,1.605.434,2.842,2.842,0,0,1,1.1,1.176Zm-2.422,10.992a2.3,2.3,0,0,0,1.785-.809,2.919,2.919,0,0,0,.723-2.02,2.913,2.913,0,0,0-.727-2.016,2.3,2.3,0,0,0-1.781-.812,2.35,2.35,0,0,0-1.8.785,2.889,2.889,0,0,0-.727,2.043,2.889,2.889,0,0,0,.727,2.043A2.35,2.35,0,0,0,122.875,14.992Zm9.359,4.906a6.487,6.487,0,0,1-2.41-3.176,13.749,13.749,0,0,1-.879-5.137,13.8,13.8,0,0,1,.879-5.133,6.485,6.485,0,0,1,2.41-3.187l.719.891A5.481,5.481,0,0,0,130.9,6.941a12.89,12.89,0,0,0-.758,4.645,12.871,12.871,0,0,0,.754,4.645A5.442,5.442,0,0,0,132.953,19ZM137.875,5h1.266V16H137.8V6.477l-2.641,2.289V7.32Zm8.672,3.922a4.262,4.262,0,0,1,3,.926,3.358,3.358,0,0,1,.992,2.582,3.651,3.651,0,0,1-1.02,2.676,3.578,3.578,0,0,1-2.668,1.035,4.239,4.239,0,0,1-1.379-.223,3.724,3.724,0,0,1-1.164-.641A2.931,2.931,0,0,1,143.5,14.2a3.558,3.558,0,0,1-.3-1.484,5.017,5.017,0,0,1,.039-.562l1.383-.117a5.5,5.5,0,0,0-.062.617,2.483,2.483,0,0,0,.2,1.023,1.749,1.749,0,0,0,.535.7,2.434,2.434,0,0,0,.723.379,2.638,2.638,0,0,0,.816.125,2.256,2.256,0,0,0,1.707-.672,2.391,2.391,0,0,0,.645-1.727,2.275,2.275,0,0,0-.668-1.734,2.994,2.994,0,0,0-2.113-.633h-2.781l.68-5.094h5.766V6.273h-4.625l-.359,2.648Zm7.32,7.234a.877.877,0,0,1-.637-.266.908.908,0,0,1,.637-1.547.884.884,0,0,1,.641.27.887.887,0,0,1,0,1.277A.886.886,0,0,1,153.867,16.156Zm7.07-11.281a3.843,3.843,0,0,1,2.73,1.035,3.491,3.491,0,0,1,1.105,2.668,4.332,4.332,0,0,1-.961,2.641L160.133,16h-1.617l3.039-3.828a3.549,3.549,0,0,1-.922.117,3.379,3.379,0,0,1-2.961-1.691,3.756,3.756,0,0,1-.523-1.926,3.951,3.951,0,0,1,.285-1.551,3.414,3.414,0,0,1,.809-1.2,3.765,3.765,0,0,1,1.215-.766A3.978,3.978,0,0,1,160.938,4.875Zm-1.746,5.664a2.493,2.493,0,0,0,1.8.688,2.352,2.352,0,0,0,1.793-.754,2.534,2.534,0,0,0,.691-1.84,2.456,2.456,0,0,0-.711-1.828,2.725,2.725,0,0,0-3.605.035,2.429,2.429,0,0,0-.7,1.855A2.489,2.489,0,0,0,159.191,10.539Zm9,4.219h5.477V16h-7.422V14.977l4.406-4.555a5.219,5.219,0,0,0,.992-1.3,2.6,2.6,0,0,0,.273-1.133,1.9,1.9,0,0,0-.555-1.457,2.264,2.264,0,0,0-2.941.047,2.437,2.437,0,0,0-.559,1.77v.813l-1.352-.125v-.68a3.477,3.477,0,0,1,.93-2.613,3.849,3.849,0,0,1,4.871-.066,2.907,2.907,0,0,1,.934,2.281,3.459,3.459,0,0,1-.371,1.59,6.835,6.835,0,0,1-1.191,1.582Zm7.336,5.141L174.8,19a5.442,5.442,0,0,0,2.059-2.77,12.871,12.871,0,0,0,.754-4.645,12.89,12.89,0,0,0-.758-4.645A5.481,5.481,0,0,0,174.8,4.156l.719-.891a6.485,6.485,0,0,1,2.41,3.188,13.8,13.8,0,0,1,.879,5.133,13.749,13.749,0,0,1-.879,5.137A6.487,6.487,0,0,1,175.523,19.9Zm5.266,0-.719-.9a5.442,5.442,0,0,0,2.059-2.77,12.871,12.871,0,0,0,.754-4.645,12.89,12.89,0,0,0-.758-4.645,5.481,5.481,0,0,0-2.055-2.785l.719-.891a6.485,6.485,0,0,1,2.41,3.188,13.8,13.8,0,0,1,.879,5.133,13.749,13.749,0,0,1-.879,5.137A6.487,6.487,0,0,1,180.789,19.9Z" transform="translate(7320 -1611)" fill="#00223d"/>
    <path id="Trazado_10898" data-name="Trazado 10898" d="M67.484,20V4h3.25V5H68.68V19h2.055v1Zm8.18-3.852a3.064,3.064,0,0,1-2.711-1.437A7.665,7.665,0,0,1,72,10.492a7.7,7.7,0,0,1,.941-4.211,3.294,3.294,0,0,1,5.434,0,7.677,7.677,0,0,1,.945,4.207,7.643,7.643,0,0,1-.957,4.215A3.058,3.058,0,0,1,75.664,16.148Zm0-1.25a1.861,1.861,0,0,0,1.711-1.1,7.182,7.182,0,0,0,.594-3.3,6.979,6.979,0,0,0-.605-3.3,1.88,1.88,0,0,0-3.4,0,7.014,7.014,0,0,0-.6,3.3,7.219,7.219,0,0,0,.59,3.309A1.859,1.859,0,0,0,75.664,14.9Zm6.93,3.922h-.984l.953-4.844h1.414ZM93.977,5h1.266V16H93.906V6.477L91.266,8.766V7.32Zm6.852,13.82h-.984l.953-4.844h1.414Zm9.523-4.062h5.477V16h-7.422V14.977l4.406-4.555a5.219,5.219,0,0,0,.992-1.3,2.6,2.6,0,0,0,.273-1.133,1.9,1.9,0,0,0-.555-1.457,2.264,2.264,0,0,0-2.941.047,2.437,2.437,0,0,0-.559,1.77v.813l-1.352-.125v-.68a3.477,3.477,0,0,1,.93-2.613,3.849,3.849,0,0,1,4.871-.066,2.907,2.907,0,0,1,.934,2.281,3.459,3.459,0,0,1-.371,1.59,6.835,6.835,0,0,1-1.191,1.582Zm8.711,4.063h-.984l.953-4.844h1.414Zm11.227-2.672q-3.664,0-3.664-3.914l1.375-.07a3.435,3.435,0,0,0,.516,2.07,2.079,2.079,0,0,0,1.773.688A2.438,2.438,0,0,0,132,14.328a2,2,0,0,0,.652-1.555,1.984,1.984,0,0,0-.629-1.547,2.255,2.255,0,0,0-1.574-.57H129.9V9.508h.531a1.628,1.628,0,0,0,1.2-.508,1.713,1.713,0,0,0,.5-1.25,1.54,1.54,0,0,0-.531-1.211,1.945,1.945,0,0,0-1.336-.469,2.127,2.127,0,0,0-.879.164,1.234,1.234,0,0,0-.559.48,2.265,2.265,0,0,0-.281.7,4.1,4.1,0,0,0-.086.891l-1.375-.047a3.561,3.561,0,0,1,.824-2.523,3.054,3.054,0,0,1,2.348-.883,3.262,3.262,0,0,1,2.254.8,2.571,2.571,0,0,1,.9,2,2.409,2.409,0,0,1-.437,1.43,2.5,2.5,0,0,1-1.1.891,3.041,3.041,0,0,1,1.547,1.008,2.826,2.826,0,0,1,.6,1.852,3.026,3.026,0,0,1-1.051,2.4A3.941,3.941,0,0,1,130.289,16.148ZM138.516,20h-3.25V19h2.055V5h-2.055V4h3.25Z" transform="translate(7562 -1815)" fill="#00223d"/>
    <path id="Trazado_10899" data-name="Trazado 10899" d="M102.3,12.336a3.712,3.712,0,0,1-.5,1.977,3.533,3.533,0,0,1-1.383,1.344,3.944,3.944,0,0,1-1.906.469,3.84,3.84,0,0,1-2.734-1.035,3.5,3.5,0,0,1-1.1-2.668,4.331,4.331,0,0,1,.953-2.641L99.3,5H100.9L97.844,8.852a3.425,3.425,0,0,1,.953-.133,3.5,3.5,0,0,1,1.688.422,3.379,3.379,0,0,1,1.289,1.262A3.77,3.77,0,0,1,102.3,12.336Zm-3.82,2.531a2.389,2.389,0,0,0,2.5-2.555,2.417,2.417,0,0,0-2.523-2.539,2.364,2.364,0,0,0-1.8.754,2.526,2.526,0,0,0-.7,1.84,2.435,2.435,0,0,0,.707,1.836A2.519,2.519,0,0,0,98.477,14.867ZM103.766,5h7.523V6.133L105.914,16h-1.547l5.422-9.75h-6.023Z" transform="translate(7562 -1713)" fill="#00223d"/>
    <path id="Trazado_10900" data-name="Trazado 10900" d="M98.578,5h1.266V16H98.508V6.477L95.867,8.766V7.32ZM111.3,12.336a3.712,3.712,0,0,1-.5,1.977,3.533,3.533,0,0,1-1.383,1.344,3.944,3.944,0,0,1-1.906.469,3.84,3.84,0,0,1-2.734-1.035,3.5,3.5,0,0,1-1.1-2.668,4.331,4.331,0,0,1,.953-2.641L108.313,5h1.594l-3.055,3.852a3.425,3.425,0,0,1,.953-.133,3.5,3.5,0,0,1,1.688.422,3.379,3.379,0,0,1,1.289,1.262A3.77,3.77,0,0,1,111.3,12.336Zm-3.82,2.531a2.389,2.389,0,0,0,2.5-2.555,2.417,2.417,0,0,0-2.523-2.539,2.364,2.364,0,0,0-1.8.754,2.526,2.526,0,0,0-.7,1.84,2.435,2.435,0,0,0,.707,1.836A2.519,2.519,0,0,0,107.484,14.867Z" transform="translate(7562 -1611)" fill="#00223d"/>
  </g>
</svg>
